<svg xmlns="http://www.w3.org/2000/svg" xmlns:xlink="http://www.w3.org/1999/xlink" width="24" height="24" viewBox="0 0 24 24">
  <defs>
    <path id="4g-a" d="M9.11516085,16.3571472 L9.11516085,17.425594 C9.12004506,17.8881861 8.98576177,18.3415653 8.72974124,18.7268818 C8.47305973,19.1149504 8.19320006,19.3089846 7.89016224,19.3089846 C7.60010418,19.3089846 7.29706635,19.0823685 6.98104876,18.6291362 C6.7691342,18.3570909 6.66317692,18.117495 6.66317692,17.9103485 L6.66317692,16.3567499 L1.48742863,16.3567499 C1.15790148,16.3567499 0.822016903,16.1107965 0.479774884,15.6188899 C0.241371002,15.2954553 0.12216906,15.0305621 0.12216906,14.8242103 C0.12216906,14.6689828 0.181505138,14.5071331 0.300177293,14.338661 L5.83512077,6.35570701 C6.00624178,6.10988612 6.26967807,5.90273964 6.62542964,5.73426756 C6.95772172,5.57143707 7.32226087,5.48508813 7.69228701,5.48155944 L8.42418693,5.48155944 C8.88510111,5.48155944 9.11569064,5.68870593 9.11595553,6.1029989 L9.11595553,14.0072796 L10.2424139,14.0072796 C10.6771036,14.0072796 10.8944485,14.2015788 10.8944485,14.5901771 C10.8966974,15.0210914 10.7723508,15.443179 10.5368427,15.8040502 C10.2984388,16.1730465 10.0350025,16.3575446 9.7465338,16.3575446 L9.11516085,16.3575446 L9.11516085,16.3571472 Z M6.66476628,8.76318889 L3.168176,14.0080743 L6.66476628,14.0080743 L6.66476628,8.76318889 Z M21.2089925,14.337469 L20.1020038,14.337469 C19.7727415,14.337469 19.4499692,14.104363 19.1336867,13.6381509 C18.9217721,13.3014717 18.8158148,13.0555183 18.8158148,12.9002909 C18.8158148,12.6157956 19.010114,12.3471939 19.3987123,12.0944858 C19.7768536,11.8450921 20.2204084,11.7133253 20.6733784,11.715821 L23.14364,11.715821 C23.6307786,11.715821 23.8744803,11.9359472 23.8747452,12.3761997 L23.8747452,15.7726604 C23.8747452,16.8852118 23.4334331,17.7397573 22.550809,18.3362968 C21.9936313,18.7129881 21.3798078,18.9981692 20.7325821,19.1810412 C20.0458564,19.3819947 19.3338599,19.4834218 18.618337,19.4822248 C17.3142677,19.4822248 16.135493,19.1553466 15.0820127,18.5015902 C14.0285324,17.8478337 13.2153103,16.993818 12.6423463,15.9395431 C12.0700843,14.8881734 11.7742213,13.7086861 11.782503,12.5116926 C11.782503,11.1652405 12.128321,9.93520886 12.8199572,8.82159784 C13.5115933,7.70798681 14.4107733,6.84377274 15.5174971,6.22895562 C16.6031178,5.61966412 17.8279889,5.3018109 19.0728937,5.30633259 C20.4429213,5.30633259 21.6746747,5.64301185 22.7681539,6.31637037 C22.9657642,6.43292338 23.0644369,6.6270901 23.064172,6.89887053 C23.0642759,7.22010795 22.9965772,7.53775028 22.8655021,7.83102971 C22.7330555,8.12903456 22.5750467,8.3653193 22.3914757,8.53988392 C22.2079047,8.71444854 22.0235391,8.8018633 21.8383787,8.80212819 C21.7059321,8.80212819 21.5479233,8.75683145 21.3643523,8.66623798 C20.9029084,8.44611172 20.5010654,8.29075186 20.1588234,8.20015838 C19.798136,8.10753111 19.4269994,8.06185687 19.0546161,8.06426817 C17.7632617,8.06426817 16.7027618,8.46889254 15.8731162,9.27814127 C15.0434707,10.08739 14.6285155,11.1204735 14.6282506,12.3773917 C14.6282506,13.244917 14.8159275,14.0120477 15.1912811,14.6787839 C15.5666348,15.3455201 16.0699319,15.8602076 16.7011724,16.2228464 C17.3350618,16.5849554 18.0470948,16.7660099 18.8372712,16.7660099 C19.7198953,16.7660099 20.5103367,16.5653533 21.2085951,16.1640401 L21.2085951,14.337469 L21.2089925,14.337469 Z"/>
  </defs>
  <use fill="#222" fill-rule="evenodd" xlink:href="#4g-a"/>
</svg>
