<svg xmlns="http://www.w3.org/2000/svg" xmlns:xlink="http://www.w3.org/1999/xlink" width="24" height="24" viewBox="0 0 24 24">
  <defs>
    <path id="5g-a" d="M3.58095238,7.78082192 L3.45,10.6383562 C3.77426466,10.5105016 4.12970328,10.4082196 4.51632653,10.3315068 C4.90294978,10.2547941 5.2583884,10.2164384 5.58265306,10.2164384 C6.4556733,10.2164384 7.23826185,10.4114136 7.93044218,10.8013699 C8.62262251,11.1913262 9.15578044,11.7059329 9.52993197,12.3452055 C9.9040835,12.9844781 10.0911565,13.6876674 10.0911565,14.4547945 C10.0911565,15.3114198 9.86043315,16.0881244 9.39897959,16.7849315 C8.93752604,17.4817386 8.33889257,18.0251122 7.60306122,18.4150685 C6.86722988,18.8050248 6.06905192,19 5.2085034,19 C4.24818114,19 3.375174,18.7858469 2.58945578,18.3575342 C1.80373757,17.9292216 1.22381139,17.3570812 0.849659864,16.6410959 C0.749886122,16.4109578 0.7,16.2383567 0.7,16.1232877 C0.7,15.8547932 0.880837194,15.599088 1.24251701,15.3561644 C1.60419682,15.1132408 1.99081427,14.9917808 2.40238095,14.9917808 C2.67675874,14.9917808 2.87006747,15.0812776 2.98231293,15.260274 C3.30657759,15.7077648 3.64954468,16.0305926 4.01122449,16.2287671 C4.3729043,16.4269416 4.79693634,16.5260274 5.28333333,16.5260274 C5.91939094,16.5260274 6.45566675,16.3246595 6.89217687,15.9219178 C7.32868699,15.5191761 7.54693878,15.0237472 7.54693878,14.4356164 C7.54693878,13.8347002 7.32556911,13.345664 6.88282313,12.9684932 C6.44007715,12.5913223 5.87574039,12.4027397 5.18979592,12.4027397 C4.81564439,12.4027397 4.40408388,12.466666 3.95510204,12.5945205 C3.5061202,12.7223751 3.08832393,12.8885835 2.70170068,13.0931507 C2.47720976,13.1954343 2.32755139,13.2465753 2.25272109,13.2465753 C1.94092815,13.2465753 1.65408294,13.0292259 1.39217687,12.5945205 C1.20510111,12.3260261 1.11156463,12.0958914 1.11156463,11.9041096 L1.3547619,6.41917808 C1.36723362,6.13789814 1.5511887,5.87899662 1.90663265,5.64246575 C2.26207661,5.40593489 2.64557617,5.28767123 3.05714286,5.28767123 L8.8377551,5.28767123 C9.28673694,5.28767123 9.51122449,5.49862803 9.51122449,5.92054795 C9.51122449,6.38082422 9.38650918,6.80593412 9.13707483,7.19589041 C8.88764048,7.5858467 8.61950257,7.78082192 8.33265306,7.78082192 L3.58095238,7.78082192 Z M20.540878,14.225375 L19.4689631,14.225375 C19.1501332,14.225375 18.8375875,13.9951623 18.5313261,13.5347368 C18.3261259,13.2022364 18.2235257,12.9593358 18.2235257,12.806035 C18.2235257,12.5250708 18.4116687,12.259803 18.7879547,12.0102314 C19.1541149,11.7639332 19.5836162,11.6338019 20.0222343,11.6362666 L22.4142281,11.6362666 C22.8859323,11.6362666 23.1219126,11.8536606 23.1221691,12.2884488 L23.1221691,15.6427529 C23.1221691,16.7414955 22.6948395,17.5854345 21.8401804,18.1745698 C21.3006563,18.5465857 20.7062812,18.8282271 20.0795621,19.0088294 C19.4145946,19.2072887 18.725157,19.3074568 18.0323047,19.3062747 C16.7695536,19.3062747 15.6281271,18.9834536 14.6080253,18.3378116 C13.5879235,17.6921695 12.8004675,16.8487537 12.2456572,15.8075643 C11.6915268,14.7692441 11.4050379,13.6043964 11.4130572,12.4222599 C11.4130572,11.0925198 11.7479183,9.8777552 12.4176407,8.77796618 C13.0873631,7.67817717 13.9580535,6.82468962 15.0297118,6.21750353 C16.0809358,5.6157745 17.266998,5.30186643 18.4724593,5.306332 C19.799079,5.306332 20.9918056,5.63883244 22.0506389,6.30383331 C22.2419882,6.41893968 22.3375345,6.61069642 22.337278,6.87910354 C22.3373786,7.1963538 22.2718249,7.51005359 22.1449028,7.79969287 C22.0166526,8.09399892 21.8636502,8.32735092 21.6858955,8.49974886 C21.5081407,8.67214681 21.3296165,8.75847658 21.1503228,8.75873819 C21.0220726,8.75873819 20.8690701,8.71400367 20.6913154,8.62453463 C20.2444918,8.40714056 19.8553808,8.253709 19.5239824,8.16423996 C19.174723,8.07276237 18.8153456,8.02765503 18.4547608,8.0300364 C17.2043217,8.0300364 16.1774226,8.42963862 15.3740635,9.22884305 C14.5707045,10.0280475 14.1688967,11.0483085 14.1686402,12.289626 C14.1686402,13.1463836 14.3503707,13.9039928 14.7138317,14.5624535 C15.0772927,15.2209143 15.5646433,15.7292135 16.1758836,16.0873513 C16.7896889,16.4449658 17.4791618,16.6237731 18.2443023,16.6237731 C19.0989614,16.6237731 19.8643583,16.425607 20.5404932,16.0292749 L20.5404932,14.225375 L20.540878,14.225375 Z"/>
  </defs>
  <use fill="#222" fill-rule="evenodd" xlink:href="#5g-a"/>
</svg>
