<svg xmlns="http://www.w3.org/2000/svg" xmlns:xlink="http://www.w3.org/1999/xlink" width="24" height="24" viewBox="0 0 24 24">
  <defs>
    <path id="address-book-a" d="M20.1652591,8.14303406 L20.1652591,3.15479513 L21.5257727,3.15479513 C22.2764844,3.1568458 22.8845467,3.76490814 22.8865974,4.5156198 L22.8865974,6.78345357 C22.8836944,7.53360863 22.2759301,8.14081723 21.5257727,8.14303406 L20.1652591,8.14303406 Z M20.1652591,14.0417036 L20.1652591,9.05284256 L21.5257727,9.05284256 C22.2764844,9.05489323 22.8845467,9.66295557 22.8865974,10.4136672 L22.8865974,12.6808789 C22.884207,13.4314493 22.2763431,14.0393132 21.5257727,14.0417036 L20.1652591,14.0417036 Z M20.1652591,19.93944 L20.1652591,14.9496458 L21.5257727,14.9496458 C22.2764844,14.9516965 22.8845467,15.5597588 22.8865974,16.3104705 L22.8865974,18.5786153 C22.884207,19.3291857 22.2763431,19.9370496 21.5257727,19.93944 L20.1652591,19.93944 Z M17.8968032,1.11340259 C18.6474442,1.11562318 19.2554073,1.72358628 19.2576279,2.47422727 L19.2576279,21.5257727 C19.2555773,22.2764844 18.6475149,22.8845467 17.8968032,22.8865974 L2.47422727,22.8865974 C1.72358628,22.8843768 1.11562318,22.2764137 1.11340259,21.5257727 L1.11340259,2.47422727 C1.11562318,1.72358628 1.72358628,1.11562318 2.47422727,1.11340259 L17.8968032,1.11340259 Z M15.1695551,12.9356253 C15.4028393,12.8743493 15.5801353,12.5866321 15.5701819,12.3446386 C15.5210366,11.2146098 15.3204122,9.31878658 11.8945555,8.57072182 C12.9744219,7.82313894 13.4430729,6.46046222 13.0514694,5.20681229 C12.6598659,3.95316236 11.4989046,3.09952875 10.1855153,3.09952875 C8.87212596,3.09952875 7.71116461,3.95316236 7.31956113,5.20681229 C6.92795765,6.46046222 7.39660866,7.82313894 8.47647499,8.57072182 C5.04937412,9.31878658 4.84937178,11.2155429 4.80053761,12.3446386 C4.7902731,12.5866321 4.96819121,12.8734162 5.20178649,12.9356253 C5.7927732,13.0889708 6.98376696,13.3067027 10.1859818,13.3067027 C13.3881967,13.3067027 14.5785684,13.0911481 15.1695551,12.9356253 Z"/>
  </defs>
  <use fill="#222" fill-rule="evenodd" xlink:href="#address-book-a"/>
</svg>
