<svg xmlns="http://www.w3.org/2000/svg" xmlns:xlink="http://www.w3.org/1999/xlink" width="24" height="24" viewBox="0 0 24 24">
  <defs>
    <path id="ai-a" d="M16.8768727,15.9174783 C18.5994291,15.9174783 20.0232786,17.4098835 20.0232786,19.1320633 L20.0232786,23.0570662 C20.0232786,23.5045618 19.6375585,23.790085 19.1904397,23.790085 L4.80956033,23.790085 C4.36206479,23.790085 4.05205736,23.5041851 4.05205736,23.0570662 L4.05205736,19.1320633 C4.05205736,17.4098835 5.40057085,15.9174783 7.12312733,15.9174783 L16.8768727,15.9174783 Z M9.17490191,14.5237633 C8.3937022,14.5252778 7.64418859,14.2150239 7.09260976,13.6618186 C6.54103094,13.1086133 6.23298523,12.3581895 6.23679989,11.5769976 L6.23679989,7.4335204 C6.23679989,5.80099038 7.54199521,4.46641404 9.17490191,4.46641404 L11.1332599,4.46641404 L11.1332599,3.07269898 C11.057924,3.00866342 10.9306062,2.93031403 10.837943,2.83765082 C10.238361,2.23506202 10.2399856,1.26075881 10.8415738,0.660172874 C11.443162,0.0595869393 12.4174665,0.0595869393 13.0190547,0.660172874 C13.6206429,1.26075881 13.6222675,2.23506202 13.0226855,2.83765082 C12.9314557,2.92952402 12.8281824,3.00859459 12.7156915,3.07269898 L12.7156915,4.46679072 L14.6992871,4.46679072 C16.3318171,4.46679072 17.6501962,5.80099038 17.6501962,7.43389708 L17.6501962,11.5773743 C17.6509998,12.3598351 17.3402147,13.1104134 16.7865071,13.6632728 C16.2327996,14.2161322 15.4817457,14.5257664 14.6992871,14.5237633 L9.17490191,14.5237633 Z M9.99493371,10.1919462 C9.55806131,10.1919462 9.20390625,10.5461012 9.20390625,10.9829736 C9.20390625,11.419846 9.55806131,11.7740011 9.99493371,11.7740011 L14.0050663,11.7740011 C14.4419387,11.7740011 14.7960938,11.419846 14.7960938,10.9829736 C14.7960938,10.5461012 14.4419387,10.1919462 14.0050663,10.1919462 L9.99493371,10.1919462 Z M10.7968849,7.93940129 C10.7969849,7.72667998 10.7125259,7.52264246 10.5621092,7.37222576 C10.4116925,7.22180906 10.207655,7.13735013 9.99493371,7.13745012 C9.55202831,7.13745012 9.19298253,7.49649589 9.19298253,7.93940129 C9.19298253,8.3823067 9.55202831,8.74135247 9.99493371,8.74135247 C10.4378391,8.74135247 10.7968849,8.3823067 10.7968849,7.93940129 Z M13.2031151,7.93940129 C13.2030151,8.15212261 13.2874741,8.35616013 13.4378908,8.50657683 C13.5883075,8.65699353 13.792345,8.74145246 14.0050663,8.74135247 C14.4479717,8.74135247 14.8070175,8.3823067 14.8070175,7.93940129 C14.8070175,7.49649589 14.4479717,7.13745012 14.0050663,7.13745012 C13.5621609,7.13745012 13.2031151,7.49649589 13.2031151,7.93940129 Z M4.95608875,7.79814639 L4.95608875,11.2127483 C4.34008507,11.2218984 3.76691793,10.8985047 3.45624439,10.3665026 C3.14557085,9.83450055 3.14557085,9.17639413 3.45624439,8.64439205 C3.76691793,8.11238997 4.34008507,7.78899628 4.95608875,7.79814639 Z M19.0439112,7.79814639 C19.6599149,7.78899628 20.2330821,8.11238997 20.5437556,8.64439205 C20.8544292,9.17639413 20.8544292,9.83450055 20.5437556,10.3665026 C20.2330821,10.8985047 19.6599149,11.2218984 19.0439112,11.2127483 L19.0439112,7.79814639 Z"/>
  </defs>
  <use fill="#222" fill-rule="evenodd" xlink:href="#ai-a"/>
</svg>
