<svg xmlns="http://www.w3.org/2000/svg" xmlns:xlink="http://www.w3.org/1999/xlink" width="24" height="24" viewBox="0 0 24 24">
  <defs>
    <path id="alarm-a" d="M12.0037018,22.8079015 C10.4814428,22.8071644 9.06181671,22.0401823 8.22682462,20.767366 L15.7793999,20.767366 C14.9446374,22.039833 13.5255426,22.8067675 12.0037018,22.8079015 Z M21.0084687,18.7008915 C20.8318061,19.1193803 20.4227924,19.3923653 19.9685502,19.3949565 L4.03963945,19.3949565 C3.57944814,19.3933377 3.16538129,19.1151275 2.9899593,18.6896797 C2.81453731,18.264232 2.91218268,17.775031 3.23749519,17.4495307 C3.24889263,17.4381332 5.19549749,15.3516149 5.19549749,10.2754291 C5.19549749,7.30580538 7.11026811,4.78028896 9.76783768,3.85198679 C9.74428694,3.72514855 9.73114267,3.59659759 9.72853614,3.46761781 C9.72853614,2.21096998 10.7472505,1.19225564 12.0038983,1.19225564 C13.2605461,1.19225564 14.2792605,2.21096998 14.2792605,3.46761781 C14.2766496,3.59737814 14.2635059,3.72671219 14.239959,3.85434488 C16.8900612,4.7838261 18.8024738,7.30580538 18.8126922,10.272678 C18.8276267,15.35358 20.7616551,17.4424564 20.7809129,17.4628932 C21.0957402,17.7938262 21.1850366,18.2796353 21.0084687,18.7008915 Z"/>
  </defs>
  <use fill="#222" fill-rule="evenodd" xlink:href="#alarm-a"/>
</svg>
