<svg xmlns="http://www.w3.org/2000/svg" width="24" height="24" viewBox="0 0 24 24">
  <path fill="#222" fill-rule="evenodd" d="M6.3311,16.3793 L16.9561,5.7543 C17.5761,5.1223 18.4871,4.8713 19.3421,5.0973 C20.1981,5.3223 20.8661,5.9903 21.0921,6.8463 C21.3191,7.7013 21.0681,8.6123 20.4361,9.2333 L9.8101,19.8583 C8.1291,21.5403 5.4031,21.5403 3.7221,19.8583 C2.9141,19.0523 2.4601,17.9563 2.4601,16.8153 C2.4601,15.6733 2.9141,14.5773 3.7221,13.7703 L15.3911,2.1003 C15.8711,1.6193 15.8711,0.8403 15.3911,0.3593 C14.9101,-0.1197 14.1311,-0.1197 13.6511,0.3603 L1.9821,12.0303 C0.7131,13.2993 0.0001,15.0203 0.0001,16.8153 C0.0001,18.6093 0.7131,20.3303 1.9821,21.5993 C3.2511,22.8673 4.9721,23.5803 6.7661,23.5803 C8.5601,23.5803 10.2821,22.8673 11.5501,21.5993 L22.1761,10.9723 C24.0651,9.0453 24.0501,5.9553 22.1421,4.0483 C20.2331,2.1403 17.1441,2.1253 15.2171,4.0153 L4.5911,14.6403 C4.1111,15.1203 4.1111,15.8993 4.5911,16.3793 C5.0721,16.8593 5.8511,16.8593 6.3311,16.3793"/>
</svg>
