<svg xmlns="http://www.w3.org/2000/svg" xmlns:xlink="http://www.w3.org/1999/xlink" width="24" height="24" viewBox="0 0 24 24">
  <defs>
    <path id="ball-a" d="M16.8180557,1.24169045 C15.3048937,0.561812848 13.6648987,0.210110791 12.0060157,0.209733423 L12.0060157,0.209733423 C7.50224691,0.210109364 3.20298986,2.80597941 1.24133166,7.18268023 C-1.41807236,13.1225422 1.24133166,20.0962409 7.18119361,22.7582765 C8.69430238,23.4383595 10.3343151,23.7901935 11.9932337,23.7906094 C16.4977543,23.7906094 20.7981392,21.1943634 22.7586696,16.8176626 C25.4180736,10.8751691 22.7586696,3.90259823 16.8180557,1.24169045 Z M12.0060157,1.85447368 L12.0060157,1.85447368 C12.8001952,1.85731515 13.5912176,1.95461545 14.3624115,2.1443239 L14.6428632,3.49207106 C13.7055105,4.20728707 12.8118055,4.97796486 11.9665419,5.79997059 L8.80488119,5.65786503 C8.53871522,5.21688667 8.21954163,4.68041939 7.94360121,4.21538083 C7.78758585,3.95222239 7.64735999,3.71462792 7.5364575,3.5266576 L8.00751111,2.68530247 C9.27023086,2.13887421 10.6312648,1.85615168 12.0071435,1.85447368 L12.0060157,1.85447368 Z M2.74208665,7.85486207 C3.33897454,6.52280446 4.21694864,5.33562856 5.3157762,4.37477966 L6.12367262,4.36500521 C6.43795898,4.89808902 6.99547894,5.84094812 7.42104373,6.54546086 L6.3308159,9.45336163 C5.16162023,9.72041666 4.03763046,10.156588 2.99434281,10.7481012 L2.0800552,9.94095663 C2.22354383,9.22341282 2.44555713,8.52383767 2.74208665,7.85486207 L2.74208665,7.85486207 Z M2.9729142,16.5725493 C4.20299194,17.5571378 5.24397154,18.1360864 5.74058912,18.3838313 L6.65675643,20.601881 C5.08152899,19.6233864 3.80681119,18.2292492 2.9729142,16.5729253 L2.9729142,16.5725493 Z M8.77743752,16.334203 L6.46653047,16.9086403 C5.92893537,16.638339 4.54509791,15.8687885 3.02930529,14.4548758 L3.61126139,12.300736 C4.32916345,11.868349 5.09628636,11.5235349 5.89622854,11.2736662 C6.2345751,11.1676509 6.52028998,11.0969741 6.72329792,11.0514852 L9.21315271,13.0360758 C9.18504892,14.1478977 9.03899207,15.2535947 8.77743752,16.3345789 L8.77743752,16.334203 Z M10.3691702,16.7443542 C10.6626033,15.544034 10.8264479,14.3157031 10.857893,13.0804368 L13.4244397,11.3856965 C14.0180499,11.6567497 15.296624,12.2973525 17.0800863,13.490964 L17.1357255,16.8180386 C16.4120398,17.6075139 15.3000075,18.1827031 14.3221859,18.5285684 C13.8771324,18.6873331 13.423081,18.8196444 12.9624086,18.9248099 C12.8872205,18.9421031 12.820679,18.9560129 12.7582729,18.9687949 L10.3691702,16.7443542 Z M12.3992496,22.1233127 L13.1398526,20.5714298 C13.7296053,20.4467493 14.3102539,20.282339 14.8778261,20.0793235 C15.9327155,19.6969919 17.1917407,19.1018779 18.1834721,18.1086428 L19.6049036,18.7052605 C17.7693486,20.7794478 15.1664594,22.0142178 12.3988736,22.1236887 L12.3992496,22.1233127 Z M18.0007649,12.129683 C16.0631669,10.8308081 14.669931,10.1417089 14.0293281,9.85411434 L13.2116573,6.88719089 C13.909779,6.21538499 14.5710586,5.64658681 15.0759468,5.24132281 C15.3338421,5.03342765 15.5421132,4.87402882 15.7041436,4.75259999 L18.3733221,5.62440632 C19.6000164,8.01802031 19.7778363,10.4266719 19.7823476,11.4488545 L18.0007649,12.129683 Z M22.052653,13.3187832 L21.4203209,11.8687802 C21.4233284,11.7778025 21.426336,11.6657722 21.426336,11.5221629 C21.4151072,9.841684 21.1262529,8.17461121 20.571447,6.58831809 C21.8323128,8.59151137 22.3560521,10.9713346 22.052653,13.3187832 Z"/>
  </defs>
  <use fill="#222" fill-rule="evenodd" xlink:href="#ball-a"/>
</svg>
