<svg xmlns="http://www.w3.org/2000/svg" xmlns:xlink="http://www.w3.org/1999/xlink" width="24" height="24" viewBox="0 0 24 24">
  <defs>
    <path id="battery-a" d="M21.4048021,9.40984622 C21.5638783,9.3687058 21.7309812,9.34681605 21.9035647,9.34681605 C22.9931076,9.34681605 23.8763567,10.2230548 23.8763567,11.3227116 L23.8763567,12.6772884 C23.8763567,13.7685454 23.0007037,14.653184 21.9035647,14.653184 C21.7312586,14.653184 21.5641119,14.6312693 21.4048021,14.590022 L21.4048021,16.5662118 C21.4048021,17.2644333 20.8387818,17.8304536 20.1405603,17.8304536 L1.38802235,17.8304536 C0.689800852,17.8304536 0.123780489,17.2644333 0.123780489,16.5662118 L0.123780489,7.43378824 C0.123780489,6.73556674 0.689800852,6.16954638 1.38802235,6.16954638 L20.1405603,6.16954638 C20.8387818,6.16954638 21.4048021,6.73556674 21.4048021,7.43378824 L21.4048021,9.40984622 Z M1.89027117,16.064346 L19.6386945,16.064346 L19.6386945,7.93565395 L1.89027117,7.93565395 L1.89027117,16.064346 Z M10.6441883,15.1199957 L2.85147809,15.1199957 L2.85147809,8.88996501 L8.20535084,8.88996501 L12.1766027,15.1199957 L10.6441883,15.1199957 Z"/>
  </defs>
  <use fill="#222" fill-rule="evenodd" xlink:href="#battery-a"/>
</svg>
