<svg xmlns="http://www.w3.org/2000/svg" xmlns:xlink="http://www.w3.org/1999/xlink" width="24" height="24" viewBox="0 0 24 24">
  <defs>
    <path id="blood-pressure-a" d="M5.5321655,7.01570219 L3.91803369,10.6860024 L0.256415699,10.6860024 C0.170552849,10.3296589 0.125968033,9.96462068 0.123540489,9.59808659 C0.123540489,5.98667429 2.9275094,2.11932621 7.10213139,2.11932621 C9.55466048,2.11932621 11.1019772,4.29780018 12.0000173,5.37665628 C12.8980574,4.29780018 14.4457516,2.11932621 16.8971483,2.11932621 C21.0717703,2.11932621 23.8764941,5.98667429 23.8761167,9.59619916 C23.8727626,10.0120054 23.8163121,10.4256803 23.7081352,10.8271823 L11.2499519,10.8271823 C10.9196066,10.8271718 10.6173382,11.0129698 10.4681775,11.3077225 L9.24663158,13.7236354 L7.17045643,7.10592144 C7.06123846,6.75739002 6.74726553,6.51317633 6.38257473,6.49309312 C6.01788394,6.47300992 5.67899362,6.68127101 5.5321655,7.01570219 Z M9.83664281,16.437385 L11.78787,12.580984 L22.9961959,12.580984 C20.5149778,17.20104 13.5692282,22.0441904 12.6255123,22.6878047 C12.2480248,22.9449635 11.7516323,22.9449635 11.3741449,22.6878047 C10.4213692,22.0373956 3.34387689,17.1010061 0.927963988,12.4379167 L4.49105803,12.4379167 C4.83862584,12.4379498 5.15335089,12.2325269 5.29321661,11.9143431 L6.19691903,9.85779722 L8.21949111,16.3029999 C8.32623816,16.6430383 8.62832521,16.8845289 8.98352357,16.9137728 C9.00642441,16.9157861 9.03045771,16.9167927 9.05562347,16.9167927 C9.38544663,16.9167351 9.68729161,16.7314557 9.83664281,16.437385 Z"/>
  </defs>
  <use fill="#222" fill-rule="evenodd" xlink:href="#blood-pressure-a"/>
</svg>
