<svg xmlns="http://www.w3.org/2000/svg" xmlns:xlink="http://www.w3.org/1999/xlink" width="24" height="24" viewBox="0 0 24 24">
  <defs>
    <path id="broadband-a" d="M11.6601598,12.8351063 C12.5495575,12.8352939 13.2705099,13.5562464 13.2706975,14.4456441 L13.2706975,22.2723344 C13.2791375,22.8533608 12.9739976,23.3938996 12.4721736,23.6868765 C11.9703495,23.9798534 11.3496301,23.9798534 10.8478061,23.6868765 C10.345982,23.3938996 10.0408421,22.8533608 10.0492821,22.2723344 L10.0492821,14.4459839 C10.0492821,13.5563208 10.7704966,12.8351063 11.6601598,12.8351063 Z M12.0000074,7.03832571 C12.4272663,7.03823554 12.8370517,7.20792356 13.1391694,7.51004127 C13.4412871,7.81215898 13.6109752,8.2219444 13.610885,8.64920335 C13.610885,9.30074254 13.2184073,9.88812698 12.6164635,10.1374602 C12.0145198,10.3867935 11.3216526,10.2489736 10.8609448,9.78826586 C10.4002371,9.32755808 10.2624172,8.63469089 10.5117505,8.03274716 C10.7610837,7.43080344 11.3484682,7.03832571 12.0000074,7.03832571 Z M9.08717354,3.98479498 C9.5709218,4.4687727 9.57076965,5.25325918 9.08683369,5.73704923 C8.3138882,6.50956803 7.87961606,7.5575845 7.87961606,8.65039282 C7.87961606,9.74320114 8.3138882,10.7912176 9.08683369,11.5637364 C9.39978305,11.8766858 9.52200369,12.3328194 9.40745628,12.7603162 C9.29290886,13.187813 8.95899586,13.521726 8.53149908,13.6362734 C8.10400229,13.7508208 7.64786865,13.6286002 7.33491929,13.3156508 C6.09721069,12.0784936 5.40182688,10.4002173 5.40182688,8.65022289 C5.40182688,6.90022845 6.09721069,5.2219522 7.33491929,3.98479498 C7.81880317,3.50095287 8.60328965,3.50095287 9.08717354,3.98479498 Z M16.6657751,3.98479498 C17.9033936,5.22204236 18.5986552,6.90036926 18.5985277,8.65036371 C18.5984002,10.4003582 17.9028941,12.0785837 16.6650954,13.3156508 C16.1810361,13.7992409 15.3966012,13.7988605 14.9130111,13.3148012 C14.429421,12.8307418 14.4298014,12.046307 14.9138607,11.5627169 C15.6865149,10.7901814 16.1205975,9.74232721 16.1205975,8.64971312 C16.1205975,7.55709903 15.6865149,6.50924483 14.9138607,5.73670938 C14.4300829,5.25293158 14.4300829,4.46857278 14.9138607,3.98479498 C15.3976385,3.50101717 16.1819973,3.50101717 16.6657751,3.98479498 Z M2.92335753,8.65294167 C2.92010488,11.0598863 3.87687078,13.3687476 5.58164549,15.0679051 C6.05778086,15.5531595 6.05401439,16.3314319 5.57320464,16.8120552 C5.09239489,17.2926784 4.31412111,17.296143 3.8290514,16.8198195 C-0.682537182,12.3068681 -0.68162427,4.99109216 3.83109048,0.479266935 C4.31514983,-0.00469854354 5.099889,-0.00462245779 5.58385448,0.479436878 C6.06781997,0.963496213 6.0677439,1.74823538 5.58368458,2.23220088 C3.87744234,3.93290524 2.91993427,6.24386589 2.92335753,8.65294167 Z M20.1699438,0.479266935 C22.3378585,2.6457273 23.5558462,5.58498777 23.5557187,8.64985397 C23.5555912,11.7147202 22.337359,14.6538793 20.1692641,16.8201593 C19.8561326,17.1329873 19.3998954,17.2549986 18.9724127,17.1402327 C18.54493,17.0254669 18.2111465,16.6913596 18.0967953,16.2637657 C17.9824441,15.8361719 18.1048979,15.3800533 18.4180294,15.0672254 C20.120813,13.3653884 21.0775066,11.0566338 21.0775066,8.64920335 C21.0775066,6.24177289 20.120813,3.93301833 18.4180294,2.23118134 C17.9342516,1.74740353 17.9342516,0.963044739 18.4180294,0.479266935 C18.9018072,-0.0045108683 19.686166,-0.0045108683 20.1699438,0.479266935 Z"/>
  </defs>
  <use fill="#222" fill-rule="evenodd" xlink:href="#broadband-a"/>
</svg>
