<svg xmlns="http://www.w3.org/2000/svg" xmlns:xlink="http://www.w3.org/1999/xlink" width="24" height="24" viewBox="0 0 24 24">
  <defs>
    <path id="broken-phone-a" d="M12.1564435,12.4318451 L14.2409614,12.4318451 L14.2409614,22.5789287 C14.2403609,23.25644 13.6918125,23.8058033 13.0143028,23.8074094 L1.45178778,23.8074094 C0.774135753,23.8060038 0.225365786,23.2565819 0.224764706,22.5789287 L0.224764706,4.76941943 C0.225565851,4.09184913 0.774218912,3.54254427 1.45178778,3.54093865 L7.23304529,3.54093865 L7.23304529,5.65205972 L2.47473217,5.65205972 C2.43046479,5.65254035 2.38820172,5.67058781 2.3572417,5.70223127 C2.32628167,5.73387474 2.30916119,5.77652174 2.30964709,5.82078906 L2.30964709,18.9966189 C2.31004879,19.0886569 2.38488015,19.1629991 2.47691873,19.1627973 L11.9913584,19.1627973 C12.0354956,19.1625086 12.0777047,19.1446727 12.1086748,19.113224 C12.139645,19.0817753 12.1568316,19.0392976 12.1564435,18.9951612 L12.1564435,12.4318451 Z M7.2151884,22.5406639 C7.79886283,22.5406639 8.27202443,22.0675023 8.27202443,21.4838279 C8.27202443,20.9001535 7.79886283,20.4269918 7.2151884,20.4269918 C6.63151398,20.4269918 6.15835237,20.9001535 6.15835237,21.4838279 C6.15835237,22.0675023 6.63151398,22.5406639 7.2151884,22.5406639 Z M15.7099635,2.32448394 C16.3392665,2.5763455 16.6460452,3.28998901 16.3958137,3.91994191 L13.5700528,11.041559 L11.6323986,10.2726197 L14.0718677,4.12584273 C14.0883011,4.08468465 14.0876137,4.03866746 14.0699581,3.99801864 C14.0523026,3.95736982 14.0191417,3.92545723 13.9778457,3.90937355 L9.5573557,2.15466132 L10.3361345,0.192590566 L15.7099635,2.32448394 Z M16.2347373,10.7609509 C15.9920391,10.7446865 15.7765108,10.6000282 15.6695122,10.3815832 C15.5237417,10.0535996 15.6662324,9.70302155 15.9953093,9.55579336 L18.8917688,8.29050554 C19.2197524,8.14473505 19.5703304,8.2872257 19.7175586,8.61630257 C19.8647868,8.94537945 19.7208385,9.29486419 19.3917616,9.44209238 L16.4956664,10.7062869 C16.4138065,10.7435916 16.3246871,10.7622619 16.2347373,10.7609509 Z M18.9103546,14.6541161 C18.8110425,14.6438772 18.7139882,14.6179223 18.6228223,14.5772222 L15.8455301,13.0699554 C15.529937,12.8950308 15.416236,12.5349777 15.5904317,12.2193846 C15.7646275,11.9037915 16.1254094,11.7900905 16.4410025,11.9642862 L19.2201168,13.4722819 C19.53571,13.6472065 19.6494109,14.0072596 19.4752152,14.3228527 C19.3697732,14.535979 19.1478338,14.6661358 18.9103546,14.6541161 Z"/>
  </defs>
  <use fill="#222" fill-rule="evenodd" xlink:href="#broken-phone-a"/>
</svg>
