<svg xmlns="http://www.w3.org/2000/svg" xmlns:xlink="http://www.w3.org/1999/xlink" width="24" height="24" viewBox="0 0 24 24">
  <defs>
    <path id="bulb-a" d="M9.41510311,20.3281328 L14.585325,20.3281328 L14.585325,21.1899078 C14.585325,22.1976666 14.0549031,22.6343335 13.2470693,22.8090002 C13.0942359,23.351409 12.5775134,23.7748047 12,23.7748047 C11.4224866,23.7748047 10.9057641,23.351409 10.7533588,22.8090002 C9.94552498,22.6347616 9.41510311,22.1976666 9.41510311,21.1899078 L9.41510311,20.3281328 Z M18.0319969,11.7056737 C18.0319969,13.687799 17.0841728,15.4973981 15.532721,16.5312712 C14.9333539,17.0517504 14.5878547,17.8056378 14.5848969,18.5994456 L9.41510311,18.5994456 C9.41778519,17.7851482 9.03419654,17.0178121 8.38122997,16.5312712 C6.83020622,15.4109209 5.88281026,13.5152727 5.96843122,11.4470984 C6.05448029,8.34505086 8.72585435,5.75929776 11.9139509,5.67367679 C15.2745738,5.58762772 18.0319969,8.34505086 18.0319969,11.7056737 Z M12,3.71124431 C11.5192569,3.71100795 11.1296628,3.32122231 11.1296629,2.84047911 L11.1296629,1.09980492 C11.1226634,0.784184806 11.2870416,0.489497672 11.5592697,0.329632387 C11.8314978,0.169767102 12.1689303,0.169767102 12.4411584,0.329632387 C12.7133865,0.489497672 12.8777647,0.784184806 12.8707652,1.09980492 L12.8707652,2.84047911 C12.8707652,3.32138945 12.4809103,3.71124431 12,3.71124431 Z M18.7709058,6.00588613 C18.5509678,6.2258241 18.2304013,6.31171967 17.9299604,6.23121679 C17.6295196,6.15071391 17.3948486,5.91604289 17.3143457,5.61560205 C17.2338428,5.3151612 17.3197384,4.99459463 17.5396763,4.77465667 L18.7709058,3.54342722 C18.9908438,3.32348926 19.3114103,3.23759371 19.6118512,3.31809659 C19.912292,3.39859947 20.146963,3.63327048 20.2274659,3.93371132 C20.3079688,4.23415216 20.2220732,4.55471872 20.0021353,4.77465667 L18.7709058,6.00588613 Z M4.16568183,11.5468468 C4.16473779,12.0269212 3.77542,12.4156645 3.29534473,12.4158996 L1.55424244,12.4158996 C1.23862233,12.4228991 0.943935196,12.2585209 0.784069911,11.9862928 C0.624204625,11.7140647 0.624204625,11.3766322 0.784069911,11.1044041 C0.943935196,10.832176 1.23862233,10.6677977 1.55424244,10.6747973 L3.29406042,10.6747973 C3.52537273,10.6745696 3.74727029,10.7663865 3.91079271,10.9299893 C4.07431513,11.093592 4.16602311,11.3155346 4.16568183,11.5468468 Z M22.4457576,10.6747973 C22.7613777,10.6677977 23.0560648,10.832176 23.2159301,11.1044041 C23.3757954,11.3766322 23.3757954,11.7140647 23.2159301,11.9862928 C23.0560648,12.2585209 22.7613777,12.4228991 22.4457576,12.4158996 L20.7059396,12.4158996 C20.2326686,12.4054038 19.8544807,12.0187358 19.8544807,11.5453484 C19.8544807,11.0719611 20.2326686,10.6852931 20.7059396,10.6747973 L22.4457576,10.6747973 Z M5.22780988,6.00588613 L3.99658043,4.77465667 C3.6565858,4.43466205 3.6565858,3.88342184 3.99658043,3.54342722 C4.33657505,3.20343259 4.88781526,3.20343259 5.22780988,3.54342722 L6.45903934,4.77465667 C6.79903397,5.1146513 6.79903397,5.6658915 6.45903934,6.00588613 C6.11904471,6.34588076 5.56780451,6.34588076 5.22780988,6.00588613 Z"/>
  </defs>
  <use fill="#222" fill-rule="evenodd" xlink:href="#bulb-a"/>
</svg>
