<svg xmlns="http://www.w3.org/2000/svg" xmlns:xlink="http://www.w3.org/1999/xlink" width="24" height="24" viewBox="0 0 24 24">
  <defs>
    <path id="buy-a" d="M22.564082,18.2444839 L6.91995092,18.2444839 L7.67780393,15.815856 L21.4843181,12.9842508 C21.9740234,12.8844323 22.3540428,12.4972252 22.4446689,12.0057357 L23.7612409,4.87996655 C23.8276264,4.52184743 23.7312681,4.15275604 23.4982983,3.87278925 C23.2653285,3.59282245 22.9198928,3.43099683 22.5556727,3.43119919 L6.70668914,3.43119919 L6.4712266,1.29858133 C6.40223774,0.677891531 5.87705088,0.208658891 5.25253977,0.209735271 L1.46966589,0.209735271 C0.792609577,0.209735271 0.243746993,0.758597855 0.243746993,1.43565416 C0.243746993,2.11271047 0.792609577,2.66157306 1.46966589,2.66157306 L4.15696621,2.66157306 L5.47690193,14.6425798 L4.08262732,19.1052677 C3.96711983,19.4772222 4.03520319,19.8819314 4.2660547,20.1956186 C4.4969062,20.5093059 4.8630632,20.6946541 5.25253977,20.6949762 L6.9404698,20.6949762 C6.36911096,21.1487959 6.14733645,21.9143725 6.38765472,22.6033213 C6.62797299,23.29227 7.2777918,23.7538185 8.00745148,23.7538185 C8.73711116,23.7538185 9.38692997,23.29227 9.62724824,22.6033213 C9.86756651,21.9143725 9.645792,21.1487959 9.07443316,20.6949762 L19.2827434,20.6949762 C18.7113845,21.1487959 18.48961,21.9143725 18.7299283,22.6033213 C18.9702466,23.29227 19.6200654,23.7538185 20.3497251,23.7538185 C21.0793847,23.7538185 21.7292035,23.29227 21.9695218,22.6033213 C22.2098401,21.9143725 21.9880656,21.1487959 21.4167067,20.6949762 L22.5650912,20.6949762 C23.2280803,20.6756761 23.7554475,20.1325098 23.7551744,19.4692398 C23.7549012,18.8059698 23.2270869,18.263238 22.564082,18.2444839 L22.564082,18.2444839 Z M13.2952674,12.161141 L11.7513059,12.47767 L11.0233902,5.88471885 L12.604353,5.88471885 L13.2952674,12.161141 Z M15.068973,5.88337335 L16.6499358,5.88337335 L17.2523835,11.3498044 L15.7080856,11.6663333 L15.068973,5.88337335 Z M20.1838921,10.7480294 L19.6625108,10.8549967 L19.1145558,5.88337335 L21.0848122,5.91523905 L20.1838921,10.7480294 Z M8.5574247,5.88337335 L9.33848758,12.9724777 L7.79452607,13.2890066 L6.97713468,5.88337335 L8.55809745,5.88337335 L8.5574247,5.88337335 Z"/>
  </defs>
  <use fill="#222" fill-rule="evenodd" xlink:href="#buy-a"/>
</svg>
