<svg xmlns="http://www.w3.org/2000/svg" xmlns:xlink="http://www.w3.org/1999/xlink" width="24" height="24" viewBox="0 0 24 24">
  <defs>
    <path id="cafe-a" d="M7.70248138,20.2879327 C5.04235676,20.2879327 2.71374192,18.7237215 2.71374192,16.0635969 L2.71374192,9.29862481 C2.71374192,9.03550903 3.09916228,8.62071949 3.36227805,8.62071949 L16.6564641,8.62071949 C16.9195799,8.62071949 17.2776426,9.03550903 17.2776426,9.29862481 L17.2776426,16.0635969 C17.2776426,18.7237215 14.9763854,20.2879327 12.3170654,20.2879327 L7.70248138,20.2879327 Z M19.2530225,22.0178989 C19.3391185,22.0178989 19.4099264,22.1039948 19.4091218,22.1904931 C19.4091218,23.0639249 18.7014449,23.7880967 17.8280132,23.7880967 L2.18308488,23.7880967 C1.30965315,23.7880967 0.601574003,23.0639249 0.601574003,22.1904931 C0.601574003,22.1039948 0.671577282,22.0178989 0.758075587,22.0178989 L19.2530225,22.0178989 Z M20.459171,10.3506856 C21.0996608,10.3506856 21.3812831,10.8833542 21.3812831,11.5254533 L21.3812831,12.8643666 C21.3812831,14.661922 20.2145618,16.1191168 18.4443639,16.1191168 L18.4443639,10.3506856 L20.459171,10.3506856 Z M5.25276892,4.99020457 C5.25276892,4.21976618 5.75727531,3.68186742 6.16240923,3.24776662 C6.32373863,3.07758623 6.62346532,2.75774366 6.62346532,2.64429007 C6.62346532,2.25685813 6.21712444,1.83361991 6.07470398,1.7129246 C5.71230569,1.41785106 5.65772819,0.884864834 5.95280173,0.52246654 C6.24787526,0.160068246 6.78086148,0.10549074 7.14325978,0.400564266 C7.26315046,0.497522832 8.31641819,1.38463336 8.31641819,2.64469239 C8.31641819,3.42760263 7.80668167,3.97113384 7.39671993,4.40805086 C7.24182762,4.57340344 6.95376815,4.88077416 6.94572179,4.99060689 C6.94572179,5.38930373 7.24625311,5.76466614 7.36292525,5.87570583 C7.69912355,6.19676581 7.71507434,6.72833951 7.39873152,7.06898012 C7.08390356,7.40817033 6.55447647,7.43008013 6.21269895,7.11806288 C6.11453343,7.02794372 5.25276892,6.20359475 5.25276892,4.99020457 Z M8.47291978,4.99020457 C8.47291978,4.21976618 8.97782849,3.6814651 9.38336473,3.24776662 C9.54469413,3.07718392 9.84442081,2.75774366 9.84442081,2.64429007 C9.84442081,2.25726045 9.43807994,1.83160832 9.29565947,1.71332692 C8.93303898,1.41858667 8.87801117,0.885690499 9.17275141,0.523070005 C9.46749166,0.160449512 10.0003878,0.105421701 10.3630083,0.400161949 C10.4833013,0.497120514 11.5373737,1.38463336 11.5373737,2.64469239 C11.5373737,3.42800495 11.0272348,3.97153616 10.6176754,4.40805086 C10.4623808,4.57340344 10.173919,4.88077416 10.1658727,4.99060689 C10.1658727,5.38930373 10.466404,5.76466614 10.5830761,5.87570583 C10.9192744,6.19676581 10.9352252,6.72833951 10.6188824,7.06898012 C10.3040544,7.40817033 9.77462733,7.43008013 9.43284981,7.11806288 C9.33468429,7.02794372 8.47291978,6.20359475 8.47291978,4.99020457 Z M11.693473,4.99020457 C11.693473,4.21976618 12.1979793,3.6814651 12.6035156,3.2473643 C12.764845,3.0767816 13.0645717,2.75734135 13.0645717,2.64388775 C13.0645717,2.25685813 12.6582308,1.831206 12.5158103,1.7129246 C12.2811641,1.52218922 12.1660982,1.22076021 12.2139568,0.922182958 C12.2618154,0.623605703 12.4653276,0.373241193 12.7478324,0.265399315 C13.0303372,0.157557436 13.3489153,0.208621937 13.5835615,0.399357313 C13.7038545,0.496315878 14.7579269,1.38382872 14.7579269,2.64388775 C14.7579269,3.42720031 14.247788,3.97073152 13.8382286,4.40724623 C13.6833363,4.5725988 13.3944722,4.87996952 13.3864258,4.98980226 C13.3864258,5.38890141 13.6877618,5.76386151 13.8036293,5.87490119 C14.0551921,6.11365402 14.1360312,6.48152146 14.0077436,6.80374663 C13.879456,7.12597179 13.5678967,7.33761356 13.2210733,7.33813066 C13.0113171,7.33850858 12.8090979,7.25994759 12.6546099,7.11806288 C12.5564444,7.02794372 11.693473,6.20359475 11.693473,4.99020457 Z"/>
  </defs>
  <use fill="#222" fill-rule="evenodd" xlink:href="#cafe-a"/>
</svg>
