<svg xmlns="http://www.w3.org/2000/svg" xmlns:xlink="http://www.w3.org/1999/xlink" width="24" height="24" viewBox="0 0 24 24">
  <defs>
    <path id="calendar-2-a" d="M21.4967455,3.8947406 L20.2649813,3.8947406 L20.2649813,2.54349812 C20.2632218,1.79795753 19.6592794,1.19401515 18.9137388,1.19225564 L16.5334185,1.19225564 C15.7878779,1.19401515 15.1839356,1.79795753 15.182176,2.54349812 L15.182176,3.8947406 L8.81711277,3.8947406 L8.81711277,2.54349812 C8.81535326,1.79795753 8.21141088,1.19401515 7.46587029,1.19225564 L5.08519439,1.19225564 C4.33973466,1.19420967 3.73590594,1.79803839 3.73395191,2.54349812 L3.73395191,3.8947406 L2.50325448,3.8947406 C1.78064397,3.89552265 1.19482751,4.48070303 1.19326045,5.20331227 L1.19326045,21.4982298 C1.19482751,22.2208391 1.78064397,22.8060195 2.50325448,22.8068015 L21.4967455,22.8068015 C22.219356,22.8060195 22.8051725,22.2208391 22.8067395,21.4982298 L22.8067395,5.20295668 C22.8049769,4.48048634 22.2192176,3.89552205 21.4967455,3.8947406 L21.4967455,3.8947406 Z M16.7599294,3.54306197 C16.7599294,3.16992666 17.0624154,2.86744073 17.4355507,2.86744073 L18.0123179,2.86744073 C18.3854532,2.86744073 18.6879391,3.16992666 18.6879391,3.54306197 L18.6879391,5.02053894 C18.6879391,5.39367425 18.3854532,5.69616019 18.0123179,5.69616019 L17.4355507,5.69616019 C17.0624154,5.69616019 16.7599294,5.39367425 16.7599294,5.02053894 L16.7599294,3.54270638 L16.7599294,3.54306197 Z M5.3117053,3.54306197 C5.3117053,3.16992666 5.61419123,2.86744073 5.98732654,2.86744073 L6.56409373,2.86744073 C6.93722904,2.86744073 7.23971497,3.16992666 7.23971497,3.54306197 L7.23971497,5.02053894 C7.23971497,5.39367425 6.93722904,5.69616019 6.56409373,5.69616019 L5.98732654,5.69616019 C5.61419123,5.69616019 5.3117053,5.39367425 5.3117053,5.02053894 L5.3117053,3.54270638 L5.3117053,3.54306197 Z M20.5551429,20.3766986 C20.5551429,20.4748921 20.4755413,20.5544936 20.3773478,20.5544936 L3.62443015,20.5544936 C3.57721402,20.5550626 3.53171094,20.5368258 3.4979568,20.5038054 C3.46420265,20.4707851 3.44497031,20.4256938 3.44450155,20.3784765 L3.44450155,7.67573042 C3.44450155,7.57753692 3.52410311,7.49793536 3.62229661,7.49793536 L20.376281,7.49793536 C20.4744745,7.49793536 20.5540761,7.57753692 20.5540761,7.67573042 L20.5540761,20.3766986 L20.5551429,20.3766986 Z M8.27494434,14.5216811 L8.85983121,14.5216811 C9.37084143,14.5214472 9.77806396,14.6310488 10.0814988,14.8504858 C10.3849336,15.0699229 10.5366511,15.3652739 10.5366511,15.736539 C10.544616,16.0928357 10.3780397,16.4315724 10.0879855,16.6489106 C9.78911542,16.8851914 9.41000206,17.0033318 8.95064544,17.0033318 C8.63609261,17.0083265 8.32533647,16.9359059 8.04718803,16.7927845 C7.78291382,16.6538233 7.53377532,16.4322808 7.29977252,16.1281569 C7.22169151,16.0111862 7.08739216,15.9527009 6.89687448,15.9527009 C6.60971826,15.9531084 6.32919393,16.0367909 6.0910784,16.1930757 C5.83977765,16.3533256 5.71412728,16.5221143 5.71412728,16.6994419 C5.71412728,16.7754729 5.7488433,16.8894024 5.81827534,17.0412303 C6.07774457,17.514026 6.48472684,17.8938299 7.03922218,18.1806421 C7.59371751,18.4674543 8.20467143,18.6108604 8.87208393,18.6108604 C9.44823424,18.6137105 10.0174013,18.4880289 10.5359303,18.2434554 C11.0429873,18.0088198 11.4811249,17.6535126 11.8098521,17.21037 C12.1329444,16.787225 12.3067717,16.273649 12.3053662,15.7463645 C12.3054804,15.2989756 12.1623824,14.8626767 11.8959815,14.49817 C11.6230583,14.1131024 11.2525939,13.815295 10.7845883,13.6047477 C11.1572149,13.3689347 11.4389072,13.0908953 11.6296651,12.7706295 C11.8196393,12.4557227 11.9189797,12.0967955 11.9172435,11.7315787 C11.9186833,11.3152744 11.7918982,10.9081129 11.5532659,10.5626903 C11.3108544,10.2047599 10.9707815,9.91619315 10.5330473,9.69699003 C10.0953131,9.4777869 9.60784734,9.36818534 9.07064996,9.36818534 C8.46631399,9.36953307 7.87183292,9.51738681 7.34085515,9.79840364 C6.78611956,10.0852158 6.35715448,10.4564809 6.05395989,10.9121988 C6.00588886,10.9838895 5.97884811,11.0670074 5.97575875,11.1525736 C5.9745575,11.2793699 6.03461982,11.4314318 6.15594571,11.6087594 C6.34670363,11.8955716 6.55475951,12.0389777 6.78011333,12.0389777 C6.89254999,12.0401474 7.00955139,11.981662 7.13111753,11.8635216 C7.71180004,11.2728195 8.30113152,10.9774684 8.89911197,10.9774684 C9.27101785,10.9784042 9.58045893,11.0736184 9.82743518,11.2631109 C10.0744114,11.4526035 10.1978996,11.6865449 10.1978996,11.9649352 C10.1978996,12.3109346 10.052789,12.5873364 9.76256788,12.7941406 C9.47234675,13.0009449 9.07593544,13.104347 8.57333395,13.104347 C8.33255284,13.1063761 8.09760645,13.1767411 7.89727248,13.3068233 C7.68104813,13.4418075 7.57293595,13.5852136 7.57293595,13.7370416 C7.57293595,13.8467601 7.62927441,13.9817443 7.74195132,14.1419942 C7.92382002,14.3951188 8.10148437,14.5216811 8.27494434,14.5216811 Z M16.4514682,11.5985829 L16.4511078,11.5985829 L16.4511078,17.4833797 C16.4508676,17.609942 16.524504,17.7829417 16.672017,18.0023787 C16.9065003,18.3315343 17.1318541,18.4961121 17.3480785,18.4961121 C17.5734323,18.4963461 17.7814882,18.35294 17.9722461,18.0658938 C18.1611278,17.7842964 18.2606478,17.4547638 18.258383,17.118431 L18.258383,9.94087397 C18.258383,9.63675011 18.0893676,9.48468818 17.7513369,9.48468818 C17.554694,9.48420407 17.360041,9.52302022 17.1794235,9.59873462 L14.5029264,10.7763958 C14.0945026,10.9614435 13.8902907,11.1719907 13.8902907,11.4080377 C13.8902907,11.5177562 13.9552782,11.6739121 14.085253,11.8765054 C14.2851404,12.1806292 14.4931963,12.3326912 14.7094207,12.3326912 C14.7815794,12.330058 14.8523886,12.3128503 14.9173564,12.2821598 L16.4514682,11.5985829 Z"/>
  </defs>
  <use fill="#222" fill-rule="evenodd" xlink:href="#calendar-2-a"/>
</svg>
