<svg xmlns="http://www.w3.org/2000/svg" xmlns:xlink="http://www.w3.org/1999/xlink" width="24" height="24" viewBox="0 0 24 24">
  <defs>
    <path id="calendar-3-a" d="M21.4967455,3.8947406 L20.2649813,3.8947406 L20.2649813,2.54349812 C20.2632218,1.79795753 19.6592794,1.19401515 18.9137388,1.19225564 L16.5334185,1.19225564 C15.7878779,1.19401515 15.1839356,1.79795753 15.182176,2.54349812 L15.182176,3.8947406 L8.81711277,3.8947406 L8.81711277,2.54349812 C8.81535326,1.79795753 8.21141088,1.19401515 7.46587029,1.19225564 L5.08519439,1.19225564 C4.33973466,1.19420967 3.73590594,1.79803839 3.73395191,2.54349812 L3.73395191,3.8947406 L2.50325448,3.8947406 C1.78064397,3.89552265 1.19482751,4.48070303 1.19326045,5.20331227 L1.19326045,21.4982298 C1.19482751,22.2208391 1.78064397,22.8060195 2.50325448,22.8068015 L21.4967455,22.8068015 C22.219356,22.8060195 22.8051725,22.2208391 22.8067395,21.4982298 L22.8067395,5.20295668 C22.8049769,4.48048634 22.2192176,3.89552205 21.4967455,3.8947406 L21.4967455,3.8947406 Z M16.7599294,3.54306197 C16.7599294,3.16992666 17.0624154,2.86744073 17.4355507,2.86744073 L18.0123179,2.86744073 C18.3854532,2.86744073 18.6879391,3.16992666 18.6879391,3.54306197 L18.6879391,5.02053894 C18.6879391,5.39367425 18.3854532,5.69616019 18.0123179,5.69616019 L17.4355507,5.69616019 C17.0624154,5.69616019 16.7599294,5.39367425 16.7599294,5.02053894 L16.7599294,3.54270638 L16.7599294,3.54306197 Z M5.3117053,3.54306197 C5.3117053,3.16992666 5.61419123,2.86744073 5.98732654,2.86744073 L6.56409373,2.86744073 C6.93722904,2.86744073 7.23971497,3.16992666 7.23971497,3.54306197 L7.23971497,5.02053894 C7.23971497,5.39367425 6.93722904,5.69616019 6.56409373,5.69616019 L5.98732654,5.69616019 C5.61419123,5.69616019 5.3117053,5.39367425 5.3117053,5.02053894 L5.3117053,3.54270638 L5.3117053,3.54306197 Z M20.5551429,20.3766986 C20.5551429,20.4748921 20.4755413,20.5544936 20.3773478,20.5544936 L3.62443015,20.5544936 C3.57721402,20.5550626 3.53171094,20.5368258 3.4979568,20.5038054 C3.46420265,20.4707851 3.44497031,20.4256938 3.44450155,20.3784765 L3.44450155,7.67573042 C3.44450155,7.57753692 3.52410311,7.49793536 3.62229661,7.49793536 L20.376281,7.49793536 C20.4744745,7.49793536 20.5540761,7.57753692 20.5540761,7.67573042 L20.5540761,20.3766986 L20.5551429,20.3766986 Z M17.3199839,16.5565938 L17.3199839,17.2567508 C17.3232573,17.559582 17.236633,17.8565797 17.0710708,18.1101671 C16.9051287,18.3647696 16.7248445,18.4920709 16.5302182,18.4920709 C16.3434149,18.4920709 16.1483144,18.3435528 15.9449169,18.0465165 C15.8090814,17.8682473 15.7411637,17.7113135 15.7411637,17.5757151 L15.7411637,16.5565938 L12.4071507,16.5565938 C12.1937966,16.5565938 11.9774793,16.395393 11.7581987,16.0729913 C11.605532,15.8610596 11.5291987,15.687176 11.5291987,15.5513406 C11.5338384,15.4360269 11.5738099,15.324926 11.6436987,15.2330874 L15.2070674,10.002001 C15.3173003,9.84103724 15.4870353,9.70532034 15.7162724,9.59485034 C15.9298913,9.48833332 16.1649365,9.43179114 16.4036281,9.42950093 L16.8744295,9.42950093 C17.1712287,9.42950093 17.3197468,9.56521783 17.3199839,9.83665162 L17.3199839,15.016533 L18.0450322,15.016533 C18.3250001,15.016533 18.4649841,15.1438343 18.4649841,15.3984368 C18.4669651,15.680125 18.3874367,15.956375 18.2359841,16.1938919 C18.0833174,16.4356932 17.9135823,16.5565938 17.726779,16.5565938 L17.3199839,16.5565938 Z M15.7418749,11.58011 L13.4892115,15.016533 L15.7418749,15.016533 L15.7418749,11.58011 Z M8.0419263,11.5545075 L6.5399136,12.2418632 C6.47625606,12.2727566 6.40686914,12.2900731 6.33616046,12.2927126 C6.12280638,12.2927126 5.91917177,12.1399274 5.72525662,11.834357 C5.59795535,11.6307223 5.53430472,11.4737886 5.53430472,11.3635556 C5.53430472,11.1264955 5.73367225,10.9143268 6.13240731,10.7270493 L8.75417332,9.54328977 C8.93105406,9.46719452 9.12167399,9.42822334 9.31422777,9.42878975 C9.64611189,9.42878975 9.81205395,9.58157497 9.81205395,9.88714542 L9.81205395,17.103847 C9.81470964,17.4425871 9.71736257,17.7745814 9.53220452,18.0582509 C9.34540117,18.3467531 9.14176656,18.4910041 8.92130068,18.4910041 C8.7079466,18.4910041 8.4873622,18.3250621 8.25954745,17.993178 C8.11517786,17.7727121 8.0431116,17.5988285 8.04334866,17.4715272 L8.04334866,11.5545075 L8.0419263,11.5545075 Z"/>
  </defs>
  <use fill="#222" fill-rule="evenodd" xlink:href="#calendar-3-a"/>
</svg>
