<svg xmlns="http://www.w3.org/2000/svg" xmlns:xlink="http://www.w3.org/1999/xlink" width="24" height="24" viewBox="0 0 24 24">
  <defs>
    <path id="calendar-1-a" d="M21.2252384,3.85543929 L20.0098278,3.85543929 L20.0098278,2.52272281 C20.0078191,1.7873492 19.4121802,1.1917104 18.6768066,1.18970163 L16.3276425,1.18970163 C15.5922689,1.1917104 14.9966301,1.7873492 14.9946213,2.52272281 L14.9946213,3.85543929 L8.71281612,3.85543929 L8.71281612,2.52272281 C8.71080735,1.7873492 8.11516854,1.1917104 7.37979494,1.18970163 L5.03063076,1.18970163 C4.2952074,1.1917096 3.69948095,1.78729992 3.69730489,2.52272281 L3.69730489,3.85543929 L2.48250365,3.85543929 C1.76949968,3.85610885 1.19138016,4.43341086 1.18970163,5.14641317 L1.18970163,21.2267619 C1.1913797,21.9398137 1.76945036,22.5172032 2.48250365,22.5180405 L21.2252384,22.5180405 C21.9382917,22.5172032 22.5163624,21.9398137 22.5180405,21.2267619 L22.5180405,5.14641317 C22.5163619,4.43341086 21.9382424,3.85610885 21.2252384,3.85543929 Z M16.5512853,3.50809206 C16.5524518,3.1410319 16.8493674,2.84357229 17.2164248,2.84173382 L17.7855868,2.84173382 C18.153715,2.84206752 18.4522941,3.13996552 18.4534685,3.50809206 L18.4534685,4.96603637 C18.4524649,5.33368881 18.1547622,5.63152766 17.7871102,5.6326993 L17.2164248,5.6326993 C16.8488914,5.63152854 16.5512373,5.33387451 16.5500666,4.96634106 L16.5500666,3.50809206 L16.5512853,3.50809206 Z M5.25396894,3.50809206 C5.2551397,3.1405586 5.55279373,2.84290458 5.92032718,2.84173382 L6.48948914,2.84173382 C6.85714108,2.84290545 7.15484382,3.14074431 7.15584738,3.50839675 L7.15584738,4.96634106 C7.15484382,5.3339935 6.85714108,5.63183235 6.48948914,5.63300399 L5.92032718,5.63300399 C5.55279373,5.63183323 5.2551397,5.3341792 5.25396894,4.96664575 L5.25396894,3.50809206 L5.25396894,3.50809206 Z M20.2962369,20.1201258 C20.2964061,20.216984 20.2182016,20.2957335 20.1213446,20.2962369 L3.58883506,20.2962369 C3.4919738,20.2970834 3.41267659,20.2194212 3.41150515,20.1225633 L3.41150515,7.58637514 C3.41109826,7.53967454 3.4293865,7.49475105 3.4622954,7.46161322 C3.4952043,7.42847539 3.53999992,7.40987617 3.58670222,7.40995931 L20.1198211,7.40995931 C20.1663109,7.40947221 20.2110814,7.42751591 20.244241,7.46010384 C20.2774007,7.49269178 20.2962202,7.53714171 20.2965416,7.58363292 L20.2965416,20.1201258 L20.2962369,20.1201258 Z M17.6274524,16.3657288 L17.6274524,17.052806 C17.6306703,17.3497547 17.5458512,17.6410021 17.3836999,17.8897909 C17.2211983,18.1396372 17.0441731,18.2645603 16.8526243,18.2645603 C16.66981,18.2645603 16.4782612,18.1188167 16.2779779,17.8273294 C16.1447266,17.652437 16.0781009,17.4983651 16.0781009,17.3651138 L16.0781009,16.3657288 L12.7070046,16.3657288 C12.4987994,16.3657288 12.2864301,16.2074928 12.0698967,15.8910209 C11.9199889,15.6830188 11.845035,15.5122905 11.845035,15.3788361 C11.845035,15.2788976 11.882512,15.174795 11.9574658,15.0665283 L15.5537285,9.93218772 C15.661792,9.77415489 15.8283562,9.64090355 16.053421,9.53243371 C16.2633394,9.42772296 16.4943449,9.37218578 16.7289199,9.37003365 L17.1911355,9.37003365 C17.4826228,9.37003365 17.6283664,9.50328498 17.6283664,9.76978765 L17.6283664,14.8541589 L18.4028898,14.8541589 C18.6777207,14.8541589 18.8151362,14.9790821 18.8151362,15.2289283 C18.8171634,15.5054878 18.7390645,15.7767177 18.5902745,16.0098502 C18.4403668,16.2471026 18.2738026,16.3657288 18.090582,16.3657288 L17.6274524,16.3657288 Z M16.0784056,14.8541589 L16.0784056,11.4812345 L13.7673277,14.8541589 L16.0784056,14.8541589 Z M6.00960152,11.9059731 C5.8013963,11.9059731 5.6015193,11.7560654 5.4099705,11.4562499 C5.2777348,11.2647011 5.21161695,11.1064651 5.21161695,10.981542 C5.21161695,10.9065881 5.24492979,10.8151809 5.31155545,10.7073205 C5.653695,10.2557619 6.09632708,9.89011843 6.60435748,9.6393801 C7.10238091,9.38868162 7.65220851,9.258138 8.20977201,9.25821221 C8.73444915,9.25821221 9.20915703,9.37897124 9.63389567,9.62048928 C10.0586343,9.86200733 10.3896298,10.1784793 10.6268822,10.5699051 C10.8618794,10.9532041 10.985137,11.3945253 10.9827608,11.844121 C10.98212,12.2682353 10.8901514,12.6872379 10.7131096,13.0726333 C10.5339516,13.4683247 10.2133155,13.9284075 9.75120153,14.4528815 C9.28908752,14.9773555 8.57499442,15.6810891 7.60892224,16.5640823 L10.9190804,16.5640823 C11.2188959,16.5640823 11.3688037,16.7014978 11.3688037,16.9763287 C11.3700107,17.2718819 11.2830191,17.5610759 11.1189574,17.8069151 C10.9521901,18.061027 10.7731337,18.1879814 10.581788,18.1877783 L5.73477064,18.1877783 C5.54301871,18.1877783 5.35146992,18.0420347 5.16012425,17.7505474 C5.02687291,17.5256857 4.96024724,17.375778 4.96024724,17.3008241 C4.96024724,17.1586352 5.03134171,17.0253838 5.17353063,16.9010701 C6.3144952,15.8517158 7.16762875,15.0459109 7.73293129,14.4836552 C8.29823384,13.9213996 8.69798785,13.4696451 8.93219332,13.1283916 C9.16518003,12.7869351 9.28177495,12.4579709 9.28197808,12.1414989 C9.28197808,11.7667296 9.16335189,11.4607187 8.92609951,11.2234663 C8.68884713,10.9862139 8.38273468,10.8675877 8.00776218,10.8675877 C7.74094652,10.8657565 7.4775679,10.9278139 7.23963729,11.0485739 C7.00238491,11.1694345 6.72968686,11.3839367 6.42154315,11.6920804 C6.28016673,11.8348787 6.14285285,11.9061763 6.00960152,11.9059731 Z"/>
  </defs>
  <use fill="#222" fill-rule="evenodd" xlink:href="#calendar-1-a"/>
</svg>
