<svg xmlns="http://www.w3.org/2000/svg" xmlns:xlink="http://www.w3.org/1999/xlink" width="24" height="24" viewBox="0 0 24 24">
  <defs>
    <path id="camera-a" d="M21.0992642,4.76923174 L16.8993331,4.76923174 L16.8993331,4.76923174 C16.8982788,3.99664281 16.272796,3.37030176 15.5002092,3.36818821 L8.49947082,3.36818821 C7.72813021,3.37064697 7.10344562,3.99533156 7.10098686,4.76667218 L7.10098686,4.76667218 L2.90041584,4.76667218 C2.12907522,4.76913093 1.50439064,5.39381552 1.50193188,6.16515614 L1.50193188,19.2317507 C1.50404038,20.0032889 2.12887813,20.6282697 2.90041584,20.6305546 L21.0992642,20.6305546 C21.8709269,20.6284453 22.4959588,20.0034134 22.4980681,19.2317507 L22.4980681,6.16643592 C22.4950811,5.39539807 21.870305,4.77133648 21.0992642,4.76923174 Z M12,18.0655476 C9.82970157,18.0655476 7.87311071,16.7581743 7.04260335,14.7530676 C6.21209598,12.7479609 6.67123093,10.4400034 8.20590942,8.90541639 C9.74058791,7.3708294 12.0485728,6.91183208 14.05363,7.742459 C16.0586871,8.57308592 17.3659438,10.5297547 17.3658143,12.7000532 C17.365461,15.6633125 14.9632593,18.0653709 12,18.0655476 L12,18.0655476 Z M19.5827202,9.20016388 C18.745156,9.20016388 18.0661761,8.52118399 18.0661761,7.68361985 C18.0661761,6.8460557 18.745156,6.16707581 19.5827202,6.16707581 C20.4202843,6.16707581 21.0992642,6.8460557 21.0992642,7.68361985 C21.0993491,8.08585835 20.9395981,8.47164658 20.6551725,8.75607216 C20.3707469,9.04049774 19.9849587,9.20024877 19.5827202,9.20016388 Z M12,8.73400256 C13.052251,8.73215258 14.0617563,9.15018866 14.8046466,9.89540654 C16.1423221,11.2330459 16.3488597,13.3293184 15.2979559,14.9022952 C14.2470521,16.475272 12.2313779,17.0868876 10.4835741,16.3631222 C8.73577019,15.6393567 7.7425905,13.7817749 8.11139194,11.9263395 C8.48019338,10.0709042 10.1082668,8.73434399 12,8.73400256 Z"/>
  </defs>
  <use fill="#222" fill-rule="evenodd" xlink:href="#camera-a"/>
</svg>
