<svg xmlns="http://www.w3.org/2000/svg" xmlns:xlink="http://www.w3.org/1999/xlink" width="24" height="24" viewBox="0 0 24 24">
  <defs>
    <path id="care-a" d="M12.9887325,15.0836113 C12.0857724,16.9520533 12.6460645,18.634132 13.8299722,20.2532881 C12.8640895,20.2841483 11.7739646,20.3154092 10.5283366,20.3154092 C4.3302553,20.3154092 2.05662352,19.9106202 0.904377553,19.5992132 C0.437066668,19.474971 0.0943987368,18.9142781 0.125659671,18.4469672 C0.219041692,16.2671182 0.592970556,12.6228147 7.22710185,11.158761 C5.73218795,10.099897 4.7354451,8.35730036 4.7354451,6.39347245 C4.7354451,3.21688062 7.322087,0.600580907 10.5283366,0.600580907 C12.0656576,0.597700919 13.5408369,1.20715185 14.6278513,2.29424142 C15.7148657,3.38133098 16.3242145,4.8565525 16.3212282,6.39387323 C16.3212282,8.35609801 15.3244853,10.1002978 13.8295714,11.1591618 C15.7913954,11.5952117 17.1929273,12.2184265 18.2209311,12.9346225 C17.7848811,12.8099796 17.317971,12.7165975 16.8506602,12.7165975 C15.1689822,12.7165975 13.7049285,13.6199584 12.9887325,15.0836113 Z M19.0621708,23.3994206 C15.978961,20.284549 13.3939223,18.1047001 14.5149073,15.8310683 C14.9818174,14.864384 15.9160384,14.4283341 16.8506602,14.4283341 C17.7852819,14.4283341 18.688242,14.8948434 19.0621708,15.7364839 C19.4360997,14.8956449 20.3406629,14.4283341 21.2736815,14.4283341 C22.2067002,14.4283341 23.1421235,14.8655864 23.6094344,15.8310683 C24.7308202,18.135961 22.1457814,20.2849498 19.0621708,23.3994206 Z"/>
  </defs>
  <use fill="#222" fill-rule="evenodd" xlink:href="#care-a"/>
</svg>
