<svg xmlns="http://www.w3.org/2000/svg" xmlns:xlink="http://www.w3.org/1999/xlink" width="24" height="24" viewBox="0 0 24 24">
  <defs>
    <path id="chat-a" d="M15.5630186,13.5448618 L15.5630186,18.1935955 C15.5617192,19.4135684 14.5731585,20.4022799 13.3531857,20.4037652 L12.3550555,20.4037652 C12.1596643,20.4038545 11.9723113,20.481559 11.8342121,20.6197846 C11.6961129,20.7580102 11.6185797,20.9454341 11.6186691,21.1408252 L11.6186691,23.7902666 L8.12976078,20.5957781 C7.99413767,20.4714662 7.81686096,20.4024785 7.63288526,20.4024177 L2.41956624,20.4024177 C1.19959353,20.4009324 0.211032734,19.4122209 0.209733423,18.192248 L0.209733423,11.7493726 C0.210847441,10.5293228 1.19951665,9.54050292 2.41956624,9.53920293 L7.02854988,9.53920293 C7.34756081,11.2484547 8.84761958,12.5467315 10.6468143,12.5467315 L10.9082213,12.5467315 L10.9082213,16.1343412 C10.9081601,16.4263846 11.0806891,16.6908678 11.3479933,16.8085021 C11.6152975,16.9261363 11.9268595,16.8746902 12.1421569,16.6773672 L15.5630186,13.5448618 Z M10.6464774,0.209733423 L21.5804338,0.209733423 C22.800352,0.211033086 23.7889669,1.19964802 23.7902666,2.41956624 L23.7902666,8.8627785 C23.7884106,10.0823568 22.8000125,11.0704535 21.5804338,11.0719376 L16.3667779,11.0719376 C16.1828657,11.0720045 16.005629,11.1408565 15.8699024,11.2649611 L12.3813309,14.4591127 L12.3813309,11.8100083 C12.3814203,11.6146481 12.3038764,11.4272588 12.1657675,11.2890867 C12.0276586,11.1509146 11.8403047,11.073285 11.6449445,11.073285 L10.6464774,11.073285 C9.42637332,11.0717994 8.43775826,10.082883 8.43664458,8.8627785 L8.43664458,2.41990311 C8.43775859,1.19985333 9.42642781,0.21103341 10.6464774,0.209733423 Z"/>
  </defs>
  <use fill="#222" fill-rule="evenodd" xlink:href="#chat-a"/>
</svg>
