<svg xmlns="http://www.w3.org/2000/svg" xmlns:xlink="http://www.w3.org/1999/xlink" width="24" height="24" viewBox="0 0 24 24">
  <defs>
    <path id="chat-robot-a" d="M21.3668248,1.26593288 L12.4116517,1.26593288 C11.4122731,1.26593288 10.406602,2.07765044 10.406602,3.07591868 L10.406602,8.35226788 C10.406602,9.35164654 11.4137536,10.4083969 12.4116517,10.4083969 L13.2292915,10.4083969 C13.5624178,10.4083969 13.6268222,10.4320859 13.6268222,10.7655823 L13.6268222,12.9364548 L16.5879441,10.445411 C16.6989862,10.3436224 16.9469802,10.4083969 17.0979974,10.4083969 L21.3668248,10.4083969 C22.3662035,10.4083969 23.2874826,9.35053612 23.2874826,8.35226788 L23.2874826,3.07591868 C23.2874826,2.07765044 22.3654632,1.26593288 21.3668248,1.26593288 Z M14.0306452,6.49786525 C13.6238892,6.49786525 13.257185,6.25284137 13.1015263,5.87704785 C12.9458675,5.50125434 13.0319084,5.06869729 13.3195284,4.78107739 C13.6071483,4.49345748 14.0397053,4.40741654 14.4154988,4.56307531 C14.7912923,4.71873408 15.0363162,5.08543823 15.0363162,5.4921942 C15.0363162,6.04761099 14.586062,6.49786525 14.0306452,6.49786525 Z M16.8896084,6.49786525 C16.4828525,6.49786525 16.1161483,6.25284137 15.9604895,5.87704785 C15.8048308,5.50125434 15.8908717,5.06869729 16.1784916,4.78107739 C16.4661115,4.49345748 16.8986686,4.40741654 17.2744621,4.56307531 C17.6502556,4.71873408 17.8952795,5.08543823 17.8952795,5.4921942 C17.8953777,5.75894485 17.7894549,6.0147983 17.6008337,6.2034195 C17.4122125,6.3920407 17.1563591,6.49796348 16.8896084,6.49786525 L16.8896084,6.49786525 Z M19.7485717,6.49786525 C19.3418157,6.49786525 18.9751116,6.25284137 18.8194528,5.87704785 C18.663794,5.50125434 18.749835,5.06869729 19.0374549,4.78107739 C19.3250748,4.49345748 19.7576318,4.40741654 20.1334253,4.56307531 C20.5092188,4.71873408 20.7542427,5.08543823 20.7542427,5.4921942 C20.7542427,6.04761099 20.3039885,6.49786525 19.7485717,6.49786525 Z M11.0557722,13.0734067 C12.6103613,13.0734067 13.8877153,14.4010998 13.8877153,15.9560589 L13.8877153,19.9147089 C13.8877153,21.4692979 12.6103613,22.7340671 11.0557722,22.7340671 L5.73463606,22.7340671 C4.18004703,22.7340671 3.15364813,21.4692979 3.15364813,19.9147089 L3.15364813,15.9564291 C3.15364813,14.4014699 4.18004703,13.0737769 5.73463606,13.0737769 L7.44616456,13.0737769 L7.44616456,11.741272 C7.44616456,11.6813092 7.34326557,11.6154243 7.26109444,11.5332532 C6.68663678,10.9584253 6.76880791,10.0271525 7.34326557,9.45269483 C7.61687919,9.17688203 7.9893013,9.0217458 8.37780756,9.0217458 C8.76631382,9.0217458 9.13873592,9.17688203 9.41234954,9.45269483 C9.9868072,10.0271525 9.96385851,10.9584253 9.38940085,11.532883 C9.30722971,11.6150541 9.07589206,11.6820495 9.07589206,11.7409018 L9.07589206,13.0734067 L11.0557722,13.0734067 Z M6.60872225,18.4404403 C6.18602209,18.4404403 5.84364237,18.8320487 5.84364237,19.2547488 C5.84364237,19.677449 6.18602209,20.0690574 6.60872225,20.0690574 L10.4330113,20.0690574 C10.8553413,20.0690574 11.197721,19.677449 11.197721,19.2547488 C11.197721,18.8320487 10.8557114,18.4404403 10.4330113,18.4404403 L6.60872225,18.4404403 Z M5.45708666,16.3972661 C5.45708666,16.8198081 5.7996246,17.162346 6.22216655,17.162346 C6.64440765,17.1621416 6.9865742,16.8197541 6.98650606,16.3975129 C6.98643792,15.9752718 6.64416087,15.6329948 6.22191973,15.6329266 C5.79967859,15.6328585 5.45729109,15.975025 5.45708666,16.3972661 Z M10.0468257,17.162346 L10.0464556,17.1619759 C10.2493333,17.1620741 10.4439353,17.08155 10.5874263,16.9381285 C10.7309173,16.7947069 10.8115355,16.6001439 10.8115355,16.3972661 C10.8115354,16.0877865 10.6250896,15.8087872 10.3391534,15.6903891 C10.0532172,15.571991 9.72411368,15.6375159 9.50533151,15.8564039 C9.28654934,16.075292 9.22118375,16.4044272 9.33972021,16.6903061 C9.45825667,16.976185 9.73734614,17.1624957 10.0468257,17.162346 Z M0.71251743,17.7445766 C0.71251743,16.8451358 1.78592414,16.1159595 2.34113451,16.1159595 L2.34113451,19.3731937 C1.78592414,19.3731937 0.71251743,18.6440174 0.71251743,17.7445766 Z M14.7002289,16.1159595 C16.0711149,16.1159595 16.7801939,16.8451358 16.7801939,17.7445766 C16.7801939,18.6440174 16.0711149,19.3731937 14.7002289,19.3731937 L14.7002289,16.1159595 Z"/>
  </defs>
  <use fill="#222" fill-rule="evenodd" xlink:href="#chat-robot-a"/>
</svg>
