<svg xmlns="http://www.w3.org/2000/svg" xmlns:xlink="http://www.w3.org/1999/xlink" width="24" height="24" viewBox="0 0 24 24">
  <defs>
    <path id="check-circle-fill-a" d="M12,23.4399274 C5.68190256,23.4399274 0.560072595,18.3180974 0.560072595,12 C0.560072595,5.68190256 5.68190256,0.560072595 12,0.560072595 C18.3180974,0.560072595 23.4399274,5.68190256 23.4399274,12 C23.4399274,18.3180974 18.3180974,23.4399274 12,23.4399274 Z M6.514762,12.2952924 C6.3582782,12.4583477 6.2800363,12.671988 6.2800363,12.8861663 C6.2800363,13.0998065 6.3582782,13.3139849 6.514762,13.4770403 L9.54157456,16.6299824 C9.85563646,16.9566313 10.3628409,16.9566313 10.6763557,16.6299824 L17.9058236,9.13676179 C18.2187912,8.8101129 18.2187912,8.28166279 17.9058236,7.95501389 C17.592856,7.628365 17.0845572,7.628365 16.7715896,7.95501389 L10.1089651,14.8573605 L7.64899599,12.2952924 C7.33602839,11.9686435 6.82827675,11.9686435 6.514762,12.2952924 Z"/>
  </defs>
  <use fill="#222" fill-rule="evenodd" xlink:href="#check-circle-fill-a"/>
</svg>
