<svg xmlns="http://www.w3.org/2000/svg" xmlns:xlink="http://www.w3.org/1999/xlink" width="24" height="24" viewBox="0 0 24 24">
  <defs>
    <path id="check-circle-outline-a" d="M12.0410884,23.5334041 C7.35968423,23.5330664 3.13939115,20.7129703 1.34794103,16.3879991 C-0.443509101,12.0630279 0.546638184,7.08481172 3.85672197,3.77446771 C8.3899052,-0.667943274 15.6551198,-0.631250194 20.1431978,3.85672281 C24.6312759,8.34469581 24.6679698,15.6097403 20.2254549,20.1428174 C18.0597794,22.3208686 15.1126041,23.5418126 12.0410884,23.5334041 Z M12,21.4587402 C6.77608202,21.4587402 2.54125977,17.223918 2.54125977,12 C2.54125977,6.77608202 6.77608202,2.54125977 12,2.54125977 C17.223918,2.54125977 21.4587402,6.77608202 21.4587402,12 C21.4587402,17.223918 17.223918,21.4587402 12,21.4587402 Z M6.514762,12.2952924 C6.3582782,12.4583477 6.2800363,12.671988 6.2800363,12.8861663 C6.2800363,13.0998065 6.3582782,13.3139849 6.514762,13.4770403 L9.54157456,16.6299824 C9.85563646,16.9566313 10.3628409,16.9566313 10.6763557,16.6299824 L17.9058236,9.13676179 C18.2187912,8.8101129 18.2187912,8.28166279 17.9058236,7.95501389 C17.592856,7.628365 17.0845572,7.628365 16.7715896,7.95501389 L10.1089651,14.8573605 L7.64899599,12.2952924 C7.33602839,11.9686435 6.82827675,11.9686435 6.514762,12.2952924 Z"/>
  </defs>
  <use fill="#222" fill-rule="evenodd" xlink:href="#check-circle-outline-a"/>
</svg>
