<svg xmlns="http://www.w3.org/2000/svg" width="24" height="24" viewBox="0 0 24 24">
  <path fill="#222" fill-rule="evenodd" d="M12,23.726459 C5.52365551,23.726459 0.273540964,18.4763445 0.273540964,12 C0.273540964,5.52365551 5.52365551,0.273540964 12,0.273540964 C18.4763445,0.273540964 23.726459,5.52365551 23.726459,12 C23.726459,18.4763445 18.4763445,23.726459 12,23.726459 Z M12.1666667,13.3999552 L14.7868638,16.0201523 C15.110548,16.3438365 15.6815389,16.3392928 16.0104158,16.0104158 C16.3392928,15.6815389 16.3438365,15.110548 16.0201523,14.7868638 L13.3999552,12.1666667 L16.0201523,9.54646952 C16.3438365,9.22278538 16.3392928,8.65179444 16.0104158,8.32291751 C15.6815389,7.99404058 15.110548,7.98949688 14.7868638,8.31318102 L12.1666667,10.9333782 L9.54646952,8.31318102 C9.22278538,7.98949688 8.65179444,7.99404058 8.32291751,8.32291751 C7.99404058,8.65179444 7.98949688,9.22278538 8.31318102,9.54646952 L10.9333782,12.1666667 L8.31318102,14.7868638 C7.98949688,15.110548 7.99404058,15.6815389 8.32291751,16.0104158 C8.65179444,16.3392928 9.22278538,16.3438365 9.54646952,16.0201523 L12.1666667,13.3999552 Z"/>
</svg>
