<svg xmlns="http://www.w3.org/2000/svg" xmlns:xlink="http://www.w3.org/1999/xlink" width="24" height="24" viewBox="0 0 24 24">
  <defs>
    <path id="cloud-a" d="M10.66273,3.89019277 C7.46487057,3.88866559 4.64335687,5.98167766 3.71713737,9.04246586 C1.61164115,9.89993386 0.123711918,11.9623361 0.123711918,14.3640609 C0.123711918,17.3236319 2.42771181,19.8271534 5.38049635,20.0853778 C5.55046545,20.1031622 5.72130439,20.1113189 5.8921947,20.1098091 L19.1780285,20.1098091 C19.2319808,20.1098091 19.2781287,20.1098091 19.3246158,20.1074338 C21.8790357,20.0273537 23.8762881,17.977167 23.8762881,15.4302122 C23.8762881,13.5822618 22.7938493,11.9813382 21.2271972,11.222613 C20.6740781,9.25726757 18.998366,7.81384042 16.9727715,7.55792985 C15.6817379,5.28987118 13.2724919,3.88948724 10.66273,3.89019277 L10.66273,3.89019277 Z M10.66273,6.36453256 C12.983696,6.36453256 14.9178343,8.00855015 15.3406302,10.1890366 C15.6561243,10.0572966 15.9949959,9.99069958 16.3368811,9.99324755 C17.7722153,9.99324755 18.9364309,11.1449082 18.9364309,12.5720987 C18.9363648,12.8028031 18.9046245,13.0324062 18.8420992,13.2544763 C18.9532552,13.2374087 19.0655704,13.2290135 19.1780285,13.2293664 C20.406376,13.2293664 21.4019483,14.2134017 21.4019483,15.4319089 C21.4019483,16.6324319 20.4392903,17.603573 19.2350347,17.6375052 L19.1780285,17.6375052 L5.8921947,17.6375052 C5.8039043,17.6390986 5.71560438,17.6349046 5.62786246,17.6249503 C3.93498242,17.4926145 2.59737306,16.085444 2.59737306,14.3674541 C2.59737306,12.5622583 4.07410466,11.0963851 5.8921947,11.0963851 C5.8921947,8.48360168 8.02992656,6.36792579 10.6623906,6.36792579 L10.66273,6.36453256 Z"/>
  </defs>
  <use fill="#222" fill-rule="evenodd" xlink:href="#cloud-a"/>
</svg>
