<svg xmlns="http://www.w3.org/2000/svg" xmlns:xlink="http://www.w3.org/1999/xlink" width="24" height="24" viewBox="0 0 24 24">
  <defs>
    <path id="connected-a" d="M14.1747924,5.05894764 C14.6657533,5.05915647 15.063645,5.4572175 15.063645,5.94817843 L15.063645,9.1253535 L13.2859399,9.1253535 L13.2859399,5.94817843 C13.2859398,5.4572175 13.6838315,5.05915647 14.1747924,5.05894764 Z M9.82508844,5.05894764 C10.0608923,5.05894762 10.2870328,5.15264624 10.4537359,5.31942024 C10.6204389,5.48619424 10.7140413,5.71237455 10.713941,5.94817843 L10.713941,9.1253535 L8.93623589,9.1253535 L8.93623589,5.94817843 C8.93623584,5.4572175 9.33412755,5.05915647 9.82508844,5.05894764 Z M20.3377556,3.66212532 C23.7094453,7.03330763 24.7190161,12.103296 22.8958943,16.5089048 C21.0727724,20.9145136 16.7758131,23.7885623 12.0078834,23.7914206 C11.7737655,23.7911254 11.5494381,23.6974475 11.3846389,23.5311572 C11.2198397,23.3648669 11.1281861,23.1397049 11.1299996,22.9055939 L11.1299996,18.9594668 L10.1488577,18.9594668 C9.00734409,18.8081728 8.10411861,17.8474555 8.10374037,16.672279 L8.10374037,12.7677578 C8.10374037,12.6259196 8.11886978,12.5294696 8.11886978,12.4159991 L7.77618875,12.4159991 C7.08684023,12.4159991 6.52801283,11.8571717 6.52801283,11.1678232 C6.52801283,10.4784747 7.08684023,9.91964726 7.77618875,9.91964726 L16.2229356,9.91964726 C16.9122841,9.91964726 17.4711115,10.4784747 17.4711115,11.1678232 C17.4711115,11.8571717 16.9122841,12.4159991 16.2229356,12.4159991 L15.8957622,12.4159991 L15.8957622,16.6719008 C15.8957622,17.848212 14.991402,18.8081728 13.8483755,18.9594668 L12.8698812,18.9594668 L12.8698812,21.9811872 C13.3560132,21.9394561 13.8384251,21.8620882 14.3132265,21.7497073 C16.4870868,21.2287997 18.4262579,20.0003697 19.8260034,18.2574624 C21.2541171,16.4854167 22.0287623,14.2758081 22.0197672,11.9999405 C21.9859147,6.49006464 17.5097311,2.0412981 11.9997513,2.0412981 C6.48977148,2.0412981 2.01358791,6.49006464 1.97973543,11.9999405 C1.97841938,15.7908064 4.11660489,19.2578375 7.50461593,20.9584395 C7.92434451,21.1867888 8.08732748,21.7068777 7.87298523,22.1339291 C7.65864299,22.5609805 7.14422912,22.7410758 6.71032216,22.5409752 C2.54075133,20.4476652 -0.0026070243,16.092875 0.222725306,11.4327792 C0.448057636,6.77268341 3.3997077,2.68359657 7.75179239,1.00233914 C12.1038771,-0.678918276 17.0380022,0.36380826 20.3377556,3.66212532 Z"/>
  </defs>
  <use fill="#222" fill-rule="evenodd" xlink:href="#connected-a"/>
</svg>
