<svg xmlns="http://www.w3.org/2000/svg" xmlns:xlink="http://www.w3.org/1999/xlink" width="24" height="24" viewBox="0 0 24 24">
  <defs>
    <path id="connected-building-a" d="M12,6.37714286 C12.2361701,6.37714173 12.4626275,6.47114727 12.6293674,6.63840187 C12.7961074,6.80565647 12.8894146,7.03240245 12.8886857,7.26857143 C12.887172,7.7590191 12.488626,8.15552079 11.9981771,8.15451241 C11.5077281,8.15350403 11.110816,7.75536685 11.111319,7.26491711 C11.111822,6.77446736 11.50955,6.37714519 12,6.37714286 Z M12,3.6264 C12.9658391,3.62557998 13.8921565,4.00982835 14.5738286,4.69405714 C14.7515496,4.86578023 14.8227598,5.12004846 14.7600795,5.35909816 C14.6973993,5.59814787 14.5105873,5.78476116 14.271471,5.84718703 C14.0323548,5.90961289 13.7781625,5.8381322 13.6066286,5.66022857 C13.1804241,5.23378825 12.6022252,4.99419673 11.9993143,4.99419673 C11.3964034,4.99419673 10.8182045,5.23378825 10.392,5.66022857 C10.1249151,5.92721879 9.69196166,5.92714203 9.42497144,5.66005713 C9.15798122,5.39297223 9.15805797,4.9600188 9.42514286,4.69302857 C10.1075793,4.00943802 11.034073,3.62564017 12,3.6264 Z M16.5082286,2.76 C16.680941,2.93295737 16.7482622,3.18491755 16.6848329,3.42096957 C16.6214036,3.65702158 16.4368603,3.84130352 16.2007186,3.90439815 C15.9645769,3.96749278 15.7127124,3.89981453 15.54,3.72685714 C14.6011146,2.78710884 13.3271948,2.25909114 11.9988,2.25909114 C10.6704052,2.25909114 9.39648537,2.78710884 8.4576,3.72685714 C8.28594042,3.9046411 8.03169646,3.97594305 7.79262327,3.91334785 C7.55355008,3.85075266 7.36686957,3.66400592 7.30435917,3.42491055 C7.24184877,3.18581517 7.31324089,2.93159652 7.49108571,2.76 C8.68639088,1.56341943 10.3083383,0.891080142 11.9996571,0.891080142 C13.690976,0.891080142 15.3129234,1.56341943 16.5082286,2.76 Z M4.50437015,23.0294793 L4.50437015,11.6387429 C4.50437015,11.3463502 4.71580461,11.0032605 4.97597116,10.8719982 L11.5284742,8.69241555 C11.7902128,8.56154627 12.2130817,8.56154627 12.4744272,8.69241555 L19.0230003,10.8723912 C19.2843458,11.0036535 19.4946013,11.3467432 19.4946013,11.6391359 L19.4946013,23.0294793 L13.0580335,23.0294793 L13.0580335,21.4425419 C13.0580338,21.1504844 12.8215045,20.9136034 12.5294474,20.9131697 L11.4714891,20.9131697 C11.1793044,20.9136026 10.9425498,21.1503572 10.9421169,21.4425419 L10.9421169,23.0294793 L4.50437015,23.0294793 Z M17.5771502,15.42452 C17.4780272,15.3248629 17.3435687,15.2683677 17.2030134,15.2673196 L15.615683,15.2673196 C15.4750801,15.2674234 15.3402945,15.3234582 15.2410577,15.4230636 C15.1418209,15.522669 15.0862863,15.6576615 15.0867038,15.7982638 L15.0867038,16.5056653 C15.0880013,16.7969549 15.3243905,17.0324661 15.615683,17.0326794 L17.2026204,17.0326794 C17.4939128,17.0324661 17.7303021,16.7969549 17.7315995,16.5056653 L17.7315995,15.7982638 C17.7312018,15.6581557 17.6755621,15.5238579 17.5767572,15.42452 L17.5771502,15.42452 Z M13.1676807,15.42452 C13.0685577,15.3248629 12.9340993,15.2683677 12.7935439,15.2673196 L11.2066065,15.2673196 C11.0660036,15.2674234 10.931218,15.3234582 10.8319812,15.4230636 C10.7327444,15.522669 10.6772098,15.6576615 10.6776274,15.7982638 L10.6776274,16.5056653 C10.6778441,16.7977226 10.9145492,17.0344277 11.2066065,17.0346444 L12.7935439,17.0346444 C13.0856012,17.0344277 13.3223063,16.7977226 13.322523,16.5056653 L13.322523,15.7982638 C13.3221253,15.6581557 13.2664856,15.5238579 13.1676807,15.42452 Z M17.5767572,12.6019879 C17.4772745,12.5031596 17.3428477,12.4475249 17.2026204,12.4471456 L15.615683,12.4471456 C15.475357,12.4470412 15.3407484,12.5027393 15.241523,12.6019647 C15.1422975,12.7011902 15.0865995,12.8357988 15.0867038,12.9761247 L15.0867038,13.6815612 C15.0865995,13.8218872 15.1422975,13.9564958 15.241523,14.0557212 C15.3407484,14.1549467 15.475357,14.2106447 15.615683,14.2105404 L17.2034064,14.2105404 C17.3437323,14.2106447 17.4783409,14.1549467 17.5775664,14.0557212 C17.6767918,13.9564958 17.7324899,13.8218872 17.7323855,13.6815612 L17.7323855,12.9765177 C17.7320062,12.8362904 17.6763715,12.7018636 17.5775432,12.6023809 L17.5767572,12.6019879 Z M13.1684667,12.6023809 C13.0689841,12.5035526 12.9345572,12.4479179 12.7943299,12.4475386 L11.2062135,12.4475386 C11.0658876,12.4474342 10.931279,12.5031323 10.8320535,12.6023577 C10.7328281,12.7015832 10.67713,12.8361918 10.6772344,12.9765177 L10.6772344,13.6819542 C10.6772343,13.8222121 10.7329785,13.9567197 10.8321926,14.0558601 C10.9314067,14.1550005 11.0659557,14.2106447 11.2062135,14.2105404 L12.7939369,14.2105404 C12.9342629,14.2106447 13.0688714,14.1549467 13.1680969,14.0557212 C13.2673224,13.9564958 13.3230204,13.8218872 13.3229161,13.6815612 L13.3229161,12.9765177 C13.3225367,12.8362904 13.2669021,12.7018636 13.1680737,12.6023809 L13.1684667,12.6023809 Z M8.75899727,12.6023809 C8.65951462,12.5035526 8.52508778,12.4479179 8.38486047,12.4475386 L6.79753007,12.4475386 C6.50531932,12.4475385 6.26837487,12.6843071 6.26815793,12.9765177 L6.26815793,13.6819542 C6.26837487,13.9741649 6.50531932,14.2109335 6.79753007,14.2109334 L8.38446747,14.2109334 C8.52479343,14.2110377 8.65940199,14.1553397 8.75862745,14.0561142 C8.85785292,13.9568888 8.91355097,13.8222802 8.9134466,13.6819542 L8.9134466,12.9765177 C8.91306727,12.8362904 8.85743263,12.7018636 8.75860427,12.6023809 L8.75899727,12.6023809 Z M8.75860427,15.424913 C8.65948127,15.3252559 8.52502283,15.2687607 8.38446747,15.2677126 L6.79753007,15.2677126 C6.65692337,15.2678168 6.52211696,15.3237726 6.42276672,15.4232702 C6.32341647,15.5227679 6.26766066,15.6576571 6.26776493,15.7982638 L6.26776493,16.5056653 C6.26841405,16.7976965 6.50510548,17.0342122 6.79713707,17.0346444 L8.38446747,17.0346444 C8.67652475,17.0344277 8.91322986,16.7977226 8.9134466,16.5056653 L8.9134466,15.7982638 C8.91304886,15.6581557 8.85740919,15.5238579 8.75860427,15.42452 L8.75860427,15.424913 Z M17.5771502,18.246659 C17.4776675,18.1478307 17.3432407,18.092196 17.2030134,18.0918167 L15.615683,18.0918167 C15.475357,18.0917123 15.3407484,18.1474104 15.241523,18.2466358 C15.1422975,18.3458613 15.0865995,18.4804699 15.0867038,18.6207958 L15.0867038,19.3262323 C15.0867038,19.4664902 15.1424479,19.6009978 15.241662,19.7001382 C15.3408762,19.7992786 15.4754251,19.8549227 15.615683,19.8548185 L17.2034064,19.8548185 C17.3437323,19.8549228 17.4783409,19.7992248 17.5775664,19.6999993 C17.6767918,19.6007739 17.7324899,19.4661653 17.7323855,19.3258393 L17.7323855,18.6207958 C17.7320062,18.4805685 17.6763715,18.3461417 17.5775432,18.246659 L17.5771502,18.246659 Z M13.1684667,18.246659 C13.0689841,18.1478307 12.9345572,18.092196 12.7943299,18.0918167 L11.2062135,18.0918167 C11.0658876,18.0917123 10.931279,18.1474104 10.8320535,18.2466358 C10.7328281,18.3458613 10.67713,18.4804699 10.6772344,18.6207958 L10.6772344,19.3262323 C10.67713,19.4665583 10.7328281,19.6011669 10.8320535,19.7003923 C10.931279,19.7996178 11.0658876,19.8553158 11.2062135,19.8552115 L12.7939369,19.8552115 C12.9342629,19.8553158 13.0688714,19.7996178 13.1680969,19.7003923 C13.2673224,19.6011669 13.3230204,19.4665583 13.3229161,19.3262323 L13.3229161,18.6207958 C13.3225367,18.4805685 13.2669021,18.3461417 13.1680737,18.246659 L13.1684667,18.246659 Z M8.75899727,18.246659 C8.65951462,18.1478307 8.52508778,18.092196 8.38486047,18.0918167 L6.79753007,18.0918167 C6.50531932,18.0918166 6.26837487,18.3285852 6.26815793,18.6207958 L6.26815793,19.3262323 C6.26837487,19.618443 6.50531932,19.8552115 6.79753007,19.8552115 L8.38446747,19.8552115 C8.52479343,19.8553158 8.65940199,19.7996178 8.75862745,19.7003923 C8.85785292,19.6011669 8.91355097,19.4665583 8.9134466,19.3262323 L8.9134466,18.6207958 C8.91306727,18.4805685 8.85743263,18.3461417 8.75860427,18.246659 L8.75899727,18.246659 Z"/>
  </defs>
  <use fill="#222" fill-rule="evenodd" xlink:href="#connected-building-a"/>
</svg>
