<svg xmlns="http://www.w3.org/2000/svg" xmlns:xlink="http://www.w3.org/1999/xlink" width="24" height="24" viewBox="0 0 24 24">
  <defs>
    <path id="connected-family-a" d="M11.9894239,17.6351652 C11.9367838,17.6356897 11.885684,17.6397323 11.8335492,17.6434298 C11.8342098,17.6426597 11.8348709,17.6418897 11.8355326,17.6411198 C11.1605122,17.6889963 10.5339423,18.0204543 10.1143811,18.5579276 C9.66076498,19.1390266 9.49949793,19.8964141 9.67703776,20.6119023 C9.53094556,20.7114394 9.39561544,20.8259189 9.27323674,20.9534886 C8.74342126,20.9709246 8.13831412,20.9816239 7.43215767,20.9816239 C6.72600121,20.9816239 6.12010153,20.9709246 5.58988978,20.9534886 C5.46765528,20.8259194 5.33245652,20.7114387 5.18648502,20.6119023 C5.36407438,19.8962119 5.20266332,19.138611 4.74877485,18.5574605 C4.29488638,17.9763099 3.59895176,17.636181 2.86155801,17.635108 C2.80489113,17.635108 2.75020562,17.639467 2.69433128,17.6434298 C3.22969457,17.0193016 4.1347795,16.4561993 5.67706959,16.1193682 C4.56843935,15.3518253 4.08732655,13.9528162 4.4893874,12.6657536 C4.89144824,11.378691 6.08336121,10.5023124 7.43176139,10.5023124 C8.78016158,10.5023124 9.97207455,11.378691 10.3741354,12.6657536 C10.7761962,13.9528162 10.2950834,15.3518253 9.1864532,16.1193682 C10.5780203,16.4218517 11.4508406,16.9111227 12.0013908,17.4623095 C12.5519434,16.9113781 13.4247549,16.4232743 14.8162875,16.1193682 C13.7076573,15.3518253 13.2265445,13.9528162 13.6286053,12.6657536 C14.0306662,11.378691 15.2225792,10.5023124 16.5709793,10.5023124 C17.9193795,10.5023124 19.1112925,11.378691 19.5133533,12.6657536 C19.9154142,13.9528162 19.4343014,15.3518253 18.3256712,16.1193682 C19.8679612,16.4546142 20.7730462,17.0193016 21.3084095,17.6434298 C21.2521389,17.639467 21.1966608,17.635108 21.1399939,17.635108 C20.402809,17.6365459 19.7072152,17.9768286 19.2535991,18.5579276 C18.7999829,19.1390266 18.6387159,19.8964141 18.8162557,20.6119023 C18.6700254,20.7114173 18.5345616,20.8258974 18.4120584,20.9534886 C17.8822429,20.9709246 17.2771358,20.9816239 16.5709793,20.9816239 C15.8648229,20.9816239 15.2589232,20.9709246 14.7287115,20.9534886 C14.606477,20.8259194 14.4712782,20.7114387 14.3253067,20.6119023 C14.5028795,19.8962793 14.3415165,19.1387495 13.8877188,18.5576162 C13.4682349,18.0204251 12.841945,17.6891256 12.1672351,17.6411512 C12.1678878,17.6419106 12.1685399,17.6426701 12.1691915,17.6434298 C12.115947,17.6396801 12.0634122,17.6355757 12.0099083,17.6351451 C12.0625916,17.6354256 12.1150582,17.6374412 12.1672351,17.6411512 C12.1154805,17.5809308 12.0602792,17.5212659 12.0013908,17.4623095 C11.9424973,17.5212435 11.8872914,17.5808964 11.8355326,17.6411198 C11.8865753,17.6374995 11.937895,17.6355007 11.9894232,17.635157 Z M12.000776,17.635108 C11.9969834,17.635108 11.9931997,17.6351276 11.9894239,17.6351652 Z M2.86195428,18.7125712 C3.43923737,18.7146475 3.94849778,19.0908582 4.1201355,19.6420392 C4.29177323,20.1932203 4.08613995,20.7920488 3.61209692,21.1215079 C5.11475982,21.4512061 5.20312844,22.2873397 5.22452712,22.7858497 C5.22888611,22.8920506 5.15082056,23.0188576 5.04818614,23.0462003 C4.78902435,23.1143591 4.2671343,23.2090681 2.86195428,23.2090681 C1.45677426,23.2090681 0.935676761,23.1143591 0.676118692,23.0462003 C0.573880551,23.0188576 0.495814995,22.8920506 0.500173985,22.7858497 C0.521968937,22.2889248 0.609941291,21.4531874 2.11181165,21.1215079 C1.63837758,20.7918075 1.43314175,20.1933612 1.60458921,19.6425002 C1.77603668,19.0916391 2.28464005,18.7153649 2.86155801,18.7125712 L2.86195428,18.7125712 Z M12.000776,18.7125712 C12.5780591,18.7146475 13.0873195,19.0908582 13.2589572,19.6420392 C13.4305949,20.1932203 13.2249616,20.7920488 12.7509186,21.1215079 C14.2535815,21.4512061 14.3419501,22.2873397 14.3625563,22.7858497 C14.3673115,22.8920506 14.2896422,23.0188576 14.1866116,23.0462003 C13.9274498,23.1143591 13.405956,23.2090681 12.0003797,23.2090681 C10.5948034,23.2090681 10.0741022,23.1143591 9.81414783,23.0462003 C9.71190969,23.0188576 9.6342404,22.8920506 9.63899567,22.7858497 C9.66039435,22.2889248 9.74876297,21.4531874 11.2506333,21.1215079 C10.776649,20.792091 10.5710001,20.193365 10.7425337,19.6422272 C10.9140672,19.0910893 11.4231695,18.7148192 12.0003797,18.7125712 L12.000776,18.7125712 Z M21.1399939,18.7125712 C21.7169127,18.715505 22.2253833,19.0920127 22.3965007,19.642978 C22.567618,20.1939433 22.3619059,20.79226 21.8881552,21.1215079 C23.3908181,21.4512061 23.4791867,22.2873397 23.4997929,22.7858497 C23.5045481,22.8920506 23.4268788,23.0188576 23.3238481,23.0462003 C23.0646863,23.1143591 22.5431926,23.2090681 21.1376163,23.2090681 C19.73204,23.2090681 19.2113388,23.1143591 18.9513844,23.0462003 C18.8491463,23.0188576 18.771477,22.8920506 18.7762323,22.7858497 C18.7976309,22.2889248 18.8859996,21.4531874 20.3878699,21.1215079 C19.9138856,20.792091 19.7082366,20.193365 19.8797702,19.6422272 C20.0513038,19.0910893 20.5604061,18.7148192 21.1376163,18.7125712 L21.1399939,18.7125712 Z M12.000776,7.13326954 C12.5680479,7.13326954 13.0279126,7.59313429 13.0279126,8.1604062 C13.0279126,8.72767812 12.5680479,9.18754287 12.000776,9.18754287 C11.433504,9.18754287 10.9736393,8.72767812 10.9736393,8.1604062 C10.9736393,7.59313429 11.433504,7.13326954 12.000776,7.13326954 Z M12.0019648,3.9523953 L12.0023611,3.95318784 C13.1184196,3.95213566 14.1888725,4.39594722 14.9767776,5.18638588 C15.1821863,5.3848622 15.2644906,5.67874364 15.1920452,5.95503559 C15.1195998,6.23132755 14.9036838,6.44701387 14.627315,6.51916524 C14.3509461,6.59131662 14.0571524,6.50869974 13.8588947,6.30307999 C13.3662906,5.81020327 12.6980124,5.53328509 12.0011722,5.53328509 C11.304332,5.53328509 10.6360539,5.81020327 10.1434497,6.30307999 C9.8347549,6.61166539 9.33435039,6.61157667 9.02576498,6.30288183 C8.71717956,5.99418699 8.71726827,5.49378248 9.02596309,5.18519706 C9.81471832,4.39510794 10.8855532,3.95151709 12.0019648,3.9523953 Z M17.2121472,2.95101631 C17.5207326,3.26003943 17.5203778,3.76071008 17.2113547,4.0692955 C16.9023315,4.37788092 16.4016609,4.37752608 16.0930755,4.06850296 C15.0079184,2.98234851 13.5355308,2.37206939 12.0001816,2.37206939 C10.4648323,2.37206939 8.99244471,2.98234851 7.90728763,4.06850296 C7.7088847,4.2739844 7.41503132,4.35639468 7.13871222,4.2840476 C6.86239313,4.21170052 6.6466291,3.99585995 6.57438003,3.71951521 C6.50213095,3.44317047 6.58464546,3.14934635 6.79019725,2.95101631 C8.17172251,1.56801694 10.0463578,0.790931945 12.0011722,0.790931945 C13.9559866,0.790931945 15.830622,1.56801694 17.2121472,2.95101631 Z"/>
  </defs>
  <use fill="#222" fill-rule="evenodd" xlink:href="#connected-family-a"/>
</svg>
