<svg xmlns="http://www.w3.org/2000/svg" xmlns:xlink="http://www.w3.org/1999/xlink" width="24" height="24" viewBox="0 0 24 24">
  <defs>
    <path id="contacts-a" d="M18.3921909,6.9285901 C18.3924057,9.01391021 17.3631604,10.966338 15.6387339,12.1517629 C22.9326596,13.7357275 23.3589491,17.7526844 23.4630901,20.1433462 C23.4849719,20.6541335 23.1069034,21.2640949 22.6121321,21.393102 C21.355956,21.7208605 18.8205064,22.1792387 12.0023067,22.1792387 C5.18410692,22.1792387 2.64987293,21.7212636 1.39167074,21.393102 C0.894062913,21.2632886 0.516399645,20.6537303 0.538281422,20.1433462 C0.642017255,17.7526844 1.06992757,13.7357275 8.36304291,12.1517629 C5.86819904,10.4319379 4.93367229,7.20336095 6.12703158,4.42685318 C7.32039087,1.65034541 10.3122942,0.0921643766 13.2856601,0.698644808 C16.2590259,1.30512524 18.3932681,3.90889135 18.3921909,6.9285901 L18.3921909,6.9285901 Z"/>
  </defs>
  <use fill="#222" fill-rule="evenodd" xlink:href="#contacts-a"/>
</svg>
