<svg xmlns="http://www.w3.org/2000/svg" xmlns:xlink="http://www.w3.org/1999/xlink" width="24" height="24" viewBox="0 0 24 24">
  <defs>
    <path id="content-a" d="M23.7902666,11.5920568 L23.7902666,13.9467414 C23.7902666,14.5221065 23.5696202,15.0947765 23.1717829,15.5549338 C22.7739456,16.0150911 22.252479,16.3159113 21.6912623,16.4045067 L21.3338488,16.4678373 L21.3338488,21.3338488 C21.3316279,22.1468751 20.6730918,22.8054112 19.8600655,22.8076321 L18.3728076,22.8076321 C17.7233923,23.263529 16.9809853,23.5697877 16.1990193,23.7043661 C15.8781913,23.7612763 15.5530008,23.7900193 15.2271644,23.7902666 C14.0568963,23.7902666 13.0126155,23.4247683 12.2378266,22.8076321 L6.10486675,22.8076321 C5.29184039,22.8054112 4.63330432,22.1468751 4.63108343,21.3338488 L4.63108343,17.8095696 C2.02476078,16.5934879 0.209733459,13.9538156 0.209733459,10.894073 C0.209733459,7.83433039 2.02509765,5.19533186 4.63108343,3.97925008 L4.63108343,1.68351675 C4.63348834,0.870566926 5.29191693,0.212138342 6.10486675,0.209733423 L15.322834,0.209733423 L15.322834,3.2984464 C15.3230199,4.92581638 16.6420202,6.24511824 18.2693901,6.24567618 L21.3348594,6.24567618 L21.3348594,9.4037833 C21.9591841,9.330502 22.5850234,9.52790672 23.0543126,9.94614004 C23.5236018,10.3643734 23.7914712,10.9634472 23.7902666,11.5920568 Z M21.5814444,10.8546598 L21.4514146,10.8661132 L17.8227074,11.509188 C17.4701654,11.5712496 17.2133206,11.8778429 17.2139928,12.2358053 L17.2139928,17.6256415 C16.7669553,17.4410048 16.2875326,17.3475483 15.8038769,17.3507598 C15.5646791,17.3511492 15.325963,17.3722256 15.0903973,17.4137535 C13.3531858,17.7199636 12.1364303,19.05159 12.3722356,20.3882694 C12.5743545,21.5373151 13.7870676,22.3158095 15.2271644,22.3158095 C15.4672757,22.3155446 15.7069072,22.2943543 15.9433389,22.252479 C17.4440714,21.9877032 18.5540408,20.957234 18.6769964,19.8209891 L18.6874392,19.5157896 L18.6874392,15.4397261 L21.4497303,14.9509353 C21.6649868,14.9196069 21.8839489,14.7912614 22.0513707,14.5958798 C22.2187925,14.4004983 22.314799,14.1660404 22.314799,13.9474152 L22.314799,11.5927305 C22.3149914,11.1868641 21.9873037,10.857069 21.5814444,10.8546598 L21.5814444,10.8546598 Z M7.8440995,4.73416401 C11.2464336,4.73416401 14.0050191,7.49241266 14.0050191,10.8947467 C14.004275,14.2963214 11.2463479,17.0533435 7.84477323,17.0529714 C4.4421023,17.0529714 1.68284305,14.2967439 1.68351678,10.8944099 C1.68419051,7.49207579 4.44176543,4.73416401 7.8440995,4.73416401 Z M12.0316653,10.4167356 L5.93643437,6.76006867 C5.54297633,6.53504301 5.22160735,6.76242672 5.22160735,7.26536581 L5.22160735,14.5264857 C5.22160735,15.0284142 5.54297633,15.2557979 5.93643437,15.0317828 L12.0336865,11.3781477 C12.4062589,11.1116876 12.4062589,10.6791533 12.0316653,10.4167356 Z M17.2281411,4.3403691 C16.9514118,4.06430203 16.796114,3.68933241 16.7966173,3.2984464 L16.7966173,0.209733423 L21.3345225,4.77155599 L18.2690532,4.77155599 C17.8784474,4.77247724 17.5036774,4.6172327 17.2281411,4.3403691 Z"/>
  </defs>
  <use fill="#222" fill-rule="evenodd" xlink:href="#content-a"/>
</svg>
