<svg xmlns="http://www.w3.org/2000/svg" xmlns:xlink="http://www.w3.org/1999/xlink" width="24" height="24" viewBox="0 0 24 24">
  <defs>
    <path id="copy-folder-a" d="M2.54322368,17.8540919 L2.54322368,17.8540919 C1.7980994,17.852565 1.19429365,17.2491733 1.19225564,16.5040503 L1.19225564,2.54198851 C1.19462868,1.79753679 1.79753679,1.19462868 2.54198851,1.19225564 L9.29929908,1.19225564 C10.0437508,1.19462868 10.6466589,1.79753679 10.649032,2.54198851 L10.649032,2.54198851 L18.7557666,2.54198851 C19.5008897,2.54402653 20.1042814,3.14783228 20.1058083,3.89295656 L20.1058083,6.14714324 L14.3394135,6.14714324 C13.8570747,5.31094359 12.9653394,4.79551209 12,4.79494002 L5.2442334,4.79494002 C3.75326231,4.79647157 2.5449257,6.00467004 2.54322368,7.49564094 L2.54322368,17.8540919 Z M12,6.14590807 L5.2442334,6.14590807 C4.49947086,6.14794388 3.89622754,6.7511872 3.89419173,7.49594974 L3.89419173,21.4577027 C3.8960587,22.2025354 4.49940067,22.8058774 5.2442334,22.8077444 L21.4577027,22.8077444 C22.2025354,22.8058774 22.8058774,22.2025354 22.8077444,21.4577027 L22.8077444,8.84660899 C22.805539,8.10196705 22.2023451,7.49891111 21.4577027,7.49687611 L13.350968,7.49687611 L13.350968,7.49687611 C13.3494392,6.75139126 12.7454849,6.14743692 12,6.14590807 L12,6.14590807 Z M5.91987181,11.0989429 C5.54681229,11.0989429 5.24438779,10.7965184 5.24438779,10.4234589 C5.24438779,10.0503994 5.54681229,9.74797487 5.91987181,9.74797487 L20.7814467,9.74797487 C21.1545062,9.74797487 21.4569307,10.0503994 21.4569307,10.4234589 C21.4569307,10.7965184 21.1545062,11.0989429 20.7814467,11.0989429 L5.92079819,11.0989429 L5.91987181,11.0989429 Z"/>
  </defs>
  <use fill="#222" fill-rule="evenodd" xlink:href="#copy-folder-a"/>
</svg>
