<svg xmlns="http://www.w3.org/2000/svg" xmlns:xlink="http://www.w3.org/1999/xlink" width="24" height="24" viewBox="0 0 24 24">
  <defs>
    <path id="core-router-a" d="M20.3373112,3.66301922 C24.9420056,8.26696156 24.9420056,15.7322449 20.3373112,20.3373153 C15.7326168,24.9423858 8.26620532,24.9412577 3.66263903,20.3373153 C-0.940927268,15.733373 -0.941679362,8.26620947 3.66263903,3.66264317 C8.26695741,-0.94092312 15.7322407,-0.941675214 20.3373112,3.66301922 Z M8.94948256,4.50762059 L7.59571368,5.86138947 L6.4416257,4.70466917 C5.96187341,4.22502074 5.18412546,4.22510492 4.70447701,4.70485721 C4.22482857,5.18460949 4.22491274,5.96235745 4.70466502,6.4420059 L5.85988113,7.59759806 L4.50987272,8.94723043 C4.24663988,9.21046326 4.21655613,9.48986612 4.39254608,9.66585607 C4.46689261,9.73642522 4.55863799,9.78599627 4.65841125,9.80950599 L10.5108293,11.1892221 C10.9620856,11.2678159 11.269316,10.963594 11.1910982,10.5100814 L9.81100603,4.65653516 C9.7877148,4.55710886 9.73869463,4.46555267 9.6688603,4.39104604 C9.49136616,4.21580818 9.21121121,4.24626798 8.94948256,4.50762059 Z M14.331466,4.39104604 C14.2616817,4.46564413 14.212558,4.55715152 14.1889442,4.65653516 L12.808476,10.5100814 C12.7302582,10.9613377 13.0359843,11.2678159 13.4887448,11.1892221 L19.3422911,9.80950599 C19.4412233,9.78581781 19.5320738,9.73623939 19.6055239,9.66585607 C19.7822659,9.48949007 19.7510541,9.20895908 19.4881973,8.94723043 L18.1385649,7.59759806 L19.2952852,6.4420059 C19.7750375,5.96235745 19.7751217,5.18460948 19.2954732,4.70485719 C18.8158248,4.2251049 18.0380768,4.22502072 17.5583245,4.70466917 L16.4038605,5.85988528 L15.0500916,4.5061164 C14.788739,4.24626798 14.5089601,4.21580818 14.331466,4.39104604 Z M15.0500916,19.4934661 L16.4038605,18.1396972 L17.5583245,19.2952893 C18.037973,19.7749378 18.8156367,19.7749378 19.2952852,19.2952893 C19.7749336,18.8156409 19.7749336,18.0379771 19.2952852,17.5583287 L18.1400691,16.4031125 L19.4897015,15.0534802 C19.7529343,14.7902473 19.7837701,14.5097163 19.6070281,14.3348545 C19.5336322,14.264242 19.4427866,14.2144067 19.3437952,14.1904525 L13.4887448,12.8107364 C13.0374885,12.7325186 12.7302582,13.0382448 12.808476,13.4910053 L14.1889442,19.3441754 C14.212578,19.4428873 14.261725,19.5336601 14.331466,19.6074083 C14.5089601,19.7864066 14.788739,19.7548187 15.0504677,19.4934661 L15.0500916,19.4934661 Z M9.66848425,19.6089125 C9.73827735,19.5352582 9.78732154,19.4444356 9.81062999,19.3456796 L11.1914742,13.4910053 C11.269692,13.039749 10.9639659,12.7325186 10.5112054,12.8107364 L4.6587873,14.1904525 C4.55895509,14.2142284 4.46721463,14.2640563 4.39292213,14.3348545 C4.21655613,14.5100924 4.24814407,14.7906234 4.51024877,15.0534802 L5.86025718,16.4031125 L4.70466502,17.5583287 C4.22501657,18.0379771 4.22501657,18.8156409 4.70466502,19.2952893 C5.18431347,19.7749378 5.96197726,19.7749378 6.4416257,19.2952893 L7.59646577,18.1396972 L8.95023465,19.4934661 C9.21121121,19.7548187 9.49136616,19.7864066 9.66848425,19.6089125 Z"/>
  </defs>
  <use fill="#222" fill-rule="evenodd" xlink:href="#core-router-a"/>
</svg>
