<svg xmlns="http://www.w3.org/2000/svg" xmlns:xlink="http://www.w3.org/1999/xlink" width="24" height="24" viewBox="0 0 24 24">
  <defs>
    <path id="cost-control-2-a" d="M18.0253391,6.79609263 C17.8820258,6.79609263 17.6584766,6.71561489 17.3546912,6.55465941 C16.3879917,6.03626677 15.4937946,5.77694962 14.6721,5.77670794 C13.7054004,5.77670794 12.8474545,6.01838283 12.0982624,6.50173261 C11.3490702,6.98508239 10.7318325,7.68195194 10.2465494,8.59234125 L16.9254766,8.59234125 C17.3723335,8.59234125 17.5958828,8.79776491 17.5961245,9.20861222 C17.595633,9.67506699 17.4605736,10.1314748 17.2071487,10.5230819 C16.9478316,10.9339293 16.6751014,11.1393529 16.3889584,11.1393529 L9.52224972,11.1393529 C9.5041241,11.2647822 9.49518213,11.5598672 9.49542381,12.024608 C9.49542381,12.4354554 9.50436578,12.6947725 9.52224972,12.8025595 L15.9865697,12.8025595 C16.4334266,12.8025595 16.6569758,13.0079832 16.6572175,13.4188305 C16.6567261,13.8852852 16.5216666,14.3416931 16.2682418,14.7333002 C16.0089246,15.1441475 15.7361945,15.3495712 15.4500514,15.3495712 L10.1660716,15.3495712 C10.5952862,16.2795362 11.1899273,16.9904228 11.9499948,17.4822313 C12.7100624,17.9740397 13.5902423,18.2209106 14.5905347,18.222844 C15.2880084,18.222844 16.1284328,18.0708304 17.111808,17.7668034 C17.8448079,17.5345539 18.3281577,17.4183082 18.5618573,17.4180666 C19.2412054,17.4180666 19.5810003,17.7131516 19.581242,18.3033217 C19.5815371,18.8044257 19.4716385,19.2994647 19.259331,19.753371 C19.0447237,20.2185952 18.7675226,20.576274 18.4277277,20.8264075 C18.034281,21.1125506 17.4619949,21.3450419 16.7108693,21.5238813 C15.9283485,21.706143 15.1271818,21.7961754 14.3237256,21.7921404 C12.3207241,21.7921404 10.5950446,21.2242044 9.14668694,20.0883324 C7.69832932,18.9524604 6.68800744,17.3743234 6.1157213,15.3539213 L4.98903297,15.3539213 C4.86384537,15.3539213 4.73418679,15.3047405 4.60005723,15.2063788 C4.46592767,15.1080171 4.29180091,14.933407 4.07767695,14.6825485 C3.88071192,14.432415 3.78235024,14.1820398 3.78259191,13.9314229 C3.78259191,13.6631638 3.9703733,13.4083176 4.34593608,13.1668844 C4.72149886,12.9254512 5.11494558,12.8046137 5.52627625,12.8043721 L5.76770946,12.8043721 C5.74958384,12.6970684 5.74064187,12.4377513 5.74088355,12.0264206 C5.74088355,11.5616798 5.74982552,11.2665947 5.76770946,11.1411655 L5.36459574,11.1411655 C5.23940815,11.1411655 5.10974957,11.0919846 4.97562001,10.993623 C4.84149044,10.8952613 4.66712201,10.7208928 4.45251471,10.4705177 C4.25554967,10.2203841 4.15718799,9.97000896 4.15742967,9.7193921 C4.15742967,9.45113297 4.34521106,9.1962868 4.72077384,8.95485359 C5.09633662,8.71342037 5.48978334,8.59258293 5.901114,8.59234125 L6.35715452,8.59234125 C7.05462825,6.64347494 8.16331181,5.09216382 9.6832052,3.93840789 C11.2030986,2.78465196 12.9019522,2.20825735 14.7797661,2.20922405 C16.442731,2.20922405 17.9627453,2.6563226 19.3398088,3.55051969 C19.5362905,3.65782334 19.6346522,3.87243064 19.6348938,4.1943416 C19.6348938,4.87417306 19.4694674,5.4777561 19.1386144,6.00509071 C18.8077615,6.53242532 18.4366697,6.79609263 18.0253391,6.79609263 Z"/>
  </defs>
  <use fill="#222" fill-rule="evenodd" xlink:href="#cost-control-2-a"/>
</svg>
