<svg xmlns="http://www.w3.org/2000/svg" xmlns:xlink="http://www.w3.org/1999/xlink" width="24" height="24" viewBox="0 0 24 24">
  <defs>
    <path id="credit-card-a" d="M15.4154031,15.2560166 L15.4154031,16.9961257 C15.4154031,17.3595168 15.6483103,17.524931 15.9333024,17.3623501 L20.3486812,14.7161113 C20.6203998,14.5243441 20.6204386,14.2109421 20.34872,14.0198348 L15.9332636,11.3722376 C15.6483103,11.2096178 15.4154031,11.3743722 15.4154031,11.7378021 L15.4154031,13.477135 L15.4154031,15.2560166 Z M1.98665907,7.03110496 L22.0521523,7.03110496 L22.0521523,5.3622148 L1.98665907,5.3622148 L1.98665907,7.03110496 Z M1.98665907,18.8685816 L22.0521523,18.8685816 L22.0521523,9.82552568 L1.98665907,9.82552568 L1.98665907,18.8685816 Z M22.1685865,3.49926765 L1.83141347,3.49926765 C0.888296477,3.49926765 0.123711918,4.26385221 0.123711918,5.20696921 L0.123711918,19.0626386 C0.123711918,20.0057556 0.888296477,20.7703402 1.83141347,20.7703402 L22.1685865,20.7703402 C23.1117035,20.7703402 23.8762881,20.0057556 23.8762881,19.0626386 L23.8762881,5.20696921 C23.8762881,4.26385221 23.1117035,3.49926765 22.1685865,3.49926765 L22.1685865,3.49926765 Z"/>
  </defs>
  <use fill="#222" fill-rule="evenodd" xlink:href="#credit-card-a"/>
</svg>
