<svg xmlns="http://www.w3.org/2000/svg" xmlns:xlink="http://www.w3.org/1999/xlink" width="24" height="24" viewBox="0 0 24 24">
  <defs>
    <path id="customer-dialogue-a" d="M21.144,0.445714286 L14.0571429,0.445714286 C12.9379025,0.44684787 12.0308086,1.35378837 12.0294857,2.47302857 L12.0294857,13.3841143 C12.031183,14.489603 12.9175379,15.3902883 14.0228571,15.4097143 L14.0228571,17.5491429 C14.0227905,17.8941538 14.234364,18.2038798 14.5557747,18.3292899 C14.8771854,18.4547 15.2426146,18.3701125 15.4762286,18.1162286 L17.9670857,15.4110857 L21.144,15.4110857 C22.2631065,15.4097632 23.1699918,14.5028779 23.1713143,13.3837714 L23.1713143,2.47302857 C23.1699918,1.35392206 22.2631065,0.447036773 21.144,0.445714286 L21.144,0.445714286 Z M21.4971429,13.3841143 C21.4969539,13.578882 21.3391106,13.7367253 21.1443429,13.7369143 L17.6012571,13.7369143 L17.5844571,13.7369143 C17.5532236,13.738265 17.5220896,13.7413555 17.4912,13.7461714 C17.4672,13.7492571 17.4432,13.7509714 17.4198857,13.7561143 C17.3922708,13.7631741 17.3650352,13.7716423 17.3382857,13.7814857 C17.3139429,13.7897143 17.2885714,13.7962286 17.2652571,13.8065143 C17.2419429,13.8168 17.2176,13.8318857 17.1939429,13.8452571 C17.1702857,13.8586286 17.1459429,13.8706286 17.1253714,13.8860571 C17.1048,13.9014857 17.0866286,13.9179429 17.0670857,13.9340571 C17.0431517,13.9527919 17.0202603,13.9728218 16.9985143,13.9940571 C16.9944,13.9981714 16.9896,14.0012571 16.9854857,14.0057143 L15.6990857,15.4028571 L15.6990857,14.5755429 C15.6990857,14.1131385 15.3242329,13.7382857 14.8618286,13.7382857 L14.0571429,13.7382857 C13.8622413,13.7382858 13.7041892,13.5803872 13.704,13.3854857 L13.704,2.47302857 C13.7041892,2.27812706 13.8622413,2.12022848 14.0571429,2.12022857 L21.144,2.12022857 C21.3389016,2.12022848 21.4969536,2.27812706 21.4971429,2.47302857 L21.4971429,13.3841143 Z M9.50091429,17.7665143 C13.6889143,18.6809143 13.9340571,20.9989714 13.9937143,22.3789714 C14.0064,22.6738286 13.7893714,23.0259429 13.5041143,23.1006857 C12.7817143,23.2899429 11.3266286,23.5542857 7.41188571,23.5542857 C3.49714286,23.5542857 2.04171429,23.2899429 1.32068571,23.1003429 C1.03645714,23.0256 0.818057143,22.6734857 0.830742857,22.3786286 C0.888685714,20.9989714 1.13451429,18.6805714 5.32217143,17.7665143 C4.00335183,16.8527192 3.43135662,15.1879163 3.91005654,13.6565271 C4.38875646,12.1251379 5.80707829,11.0824921 7.41154286,11.0824921 C9.01600742,11.0824921 10.4343293,12.1251379 10.9130292,13.6565271 C11.3917291,15.1879163 10.8197339,16.8527192 9.50091429,17.7665143 Z M14.8882286,4.40948571 L19.5603429,4.40948571 C20.0227472,4.40948571 20.3976,4.03463292 20.3976,3.57222857 C20.3976,3.10982422 20.0227472,2.73497143 19.5603429,2.73497143 L14.8882286,2.73497143 C14.4258242,2.73497144 14.0509714,3.10982423 14.0509714,3.57222857 C14.0509714,4.03463292 14.4258242,4.4094857 14.8882286,4.40948571 Z M14.8882286,6.47794286 L18.3044571,6.47794286 C18.7668615,6.47794286 19.1417143,6.10309007 19.1417143,5.64068571 C19.1417143,5.17828136 18.7668615,4.80342857 18.3044571,4.80342857 L14.8882286,4.80342857 C14.4258242,4.80342857 14.0509714,5.17828136 14.0509714,5.64068571 C14.0509714,6.10309007 14.4258242,6.47794286 14.8882286,6.47794286 Z M14.8882286,8.5464 L19.5603429,8.5464 C20.0227472,8.5464 20.3976,8.17154721 20.3976,7.70914286 C20.3976,7.24673851 20.0227472,6.87188571 19.5603429,6.87188571 L14.8882286,6.87188571 C14.4258242,6.87188571 14.0509714,7.24673851 14.0509714,7.70914286 C14.0509714,8.17154721 14.4258242,8.5464 14.8882286,8.5464 Z M14.8882286,10.6148571 L19.1581714,10.6148571 C19.6205758,10.6148571 19.9954286,10.2400044 19.9954286,9.7776 C19.9954286,9.31519565 19.6205758,8.94034286 19.1581714,8.94034286 L14.8882286,8.94034286 C14.4258242,8.94034286 14.0509714,9.31519565 14.0509714,9.7776 C14.0509714,10.2400044 14.4258242,10.6148571 14.8882286,10.6148571 Z M20.3136,11.0088 L14.8882286,11.0088 C14.4258242,11.0088 14.0509715,11.3836528 14.0509715,11.8460571 C14.0509715,12.3084615 14.4258242,12.6833143 14.8882286,12.6833143 L20.3136,12.6833143 C20.7760043,12.6833143 21.1508571,12.3084615 21.1508571,11.8460571 C21.1508571,11.3836528 20.7760043,11.0088 20.3136,11.0088 Z"/>
  </defs>
  <use fill="#222" fill-rule="evenodd" xlink:href="#customer-dialogue-a"/>
</svg>
