<svg xmlns="http://www.w3.org/2000/svg" xmlns:xlink="http://www.w3.org/1999/xlink" width="24" height="24" viewBox="0 0 24 24">
  <defs>
    <path id="daas-device-a" d="M7.62429535,21.9512383 L7.62393162,21.9512383 C7.23474128,21.9512383 6.91938799,21.6338505 6.91938799,21.2421492 C6.91938799,20.8500819 7.23474128,20.5326941 7.62393162,20.5326941 L7.62429535,20.5326941 C8.0134857,20.5326941 8.32883899,20.8500819 8.32883899,21.2421492 C8.32883899,21.6338505 8.0134857,21.9512383 7.62429535,21.9512383 Z M21.1539238,9.49348088 C21.3931365,9.70731255 21.3931365,10.0535449 21.1539238,10.2673766 L17.5264253,13.5065191 C17.4125305,13.6087602 17.2546233,13.6666667 17.0933564,13.6666667 C16.9320894,13.6666667 16.7741822,13.6087602 16.6602874,13.5065191 L14.8463702,11.8872494 C14.6068215,11.6737194 14.6068215,11.327487 14.8460342,11.1136553 C15.0855828,10.8998237 15.4736314,10.8998237 15.7125081,11.1136553 L17.0933564,12.3462788 L20.2874499,9.49348088 C20.5266626,9.27995082 20.9143752,9.27995082 21.1539238,9.49348088 Z M5.4604698,1.38216383 L9.70409944,1.38216383 C9.87177865,1.38216383 10.0074497,1.51871015 10.0074497,1.68710508 C10.0074497,1.85586608 9.87177865,1.99241241 9.70409944,1.99241241 L5.4604698,1.99241241 C5.29315432,1.99241241 5.1574833,1.85586608 5.1574833,1.68710508 C5.1574833,1.51871015 5.29315432,1.38216383 5.4604698,1.38216383 L5.4604698,1.38216383 Z M12.909282,14.9752954 L12.909282,19.2858395 C12.909282,19.3868764 12.8278066,19.4688774 12.7274173,19.4688774 L2.52044593,19.4688774 C2.42005664,19.4688774 2.33858128,19.3868764 2.33858128,19.2858395 L2.33858128,3.33847361 C2.33858128,3.23743665 2.42005664,3.15543564 2.52044593,3.15543564 L12.7274173,3.15543564 C12.8278066,3.15543564 12.909282,3.23743665 12.909282,3.33847361 L12.909282,7.6537767 L14.6711867,7.6537767 L14.6711867,2.18533442 C14.6711867,1.15775928 13.9095375,0.318347166 12.9783905,0.318347166 L2.26947272,0.318347166 C1.33832573,0.318347166 0.576676592,1.15775928 0.576676592,2.18533442 L0.576676592,21.4438571 C0.576676592,22.2554474 1.40779802,23.015055 2.24801269,23.015055 L12.9998506,23.015055 C13.8397015,23.015055 14.6711867,22.2554474 14.6711867,21.4438571 L14.6711867,14.9752954 L12.909282,14.9752954 Z"/>
  </defs>
  <use fill="#222" fill-rule="evenodd" xlink:href="#daas-device-a"/>
</svg>
