<svg xmlns="http://www.w3.org/2000/svg" xmlns:xlink="http://www.w3.org/1999/xlink" width="24" height="24" viewBox="0 0 24 24">
  <defs>
    <path id="default-doc-a" d="M19.7917714,21.1667714 C19.7896994,21.925303 19.175303,22.5396994 18.4167714,22.5417714 L5.58322857,22.5417714 C4.82469696,22.5396994 4.2103006,21.925303 4.20822857,21.1667714 L4.20822857,2.83322857 C4.2104723,2.07476837 4.82476837,1.4604723 5.58322857,1.45822857 L14.1833429,1.45822857 L14.1833429,4.33991429 C14.1835163,5.85820649 15.4141079,7.08907945 16.9324,7.0896 L19.7924,7.0896 L19.7924,21.1667714 L19.7917714,21.1667714 Z M15.96,5.312 C15.7021648,5.05428206 15.5576234,4.70446468 15.5583429,4.33991429 L15.5583429,1.45822857 L19.7911429,5.71428571 L16.9311429,5.71428571 C16.5667252,5.71511023 16.2170878,5.57027663 15.96,5.312 Z"/>
  </defs>
  <use fill="#222" fill-rule="evenodd" xlink:href="#default-doc-a"/>
</svg>
