<svg xmlns="http://www.w3.org/2000/svg" xmlns:xlink="http://www.w3.org/1999/xlink" width="24" height="24" viewBox="0 0 24 24">
  <defs>
    <path id="delete-a" d="M12.1666667,14.6332437 L6.92627238,19.873638 C6.2789041,20.5210062 5.13692222,20.5119188 4.47916835,19.854165 C3.82141449,19.1964111 3.8123271,18.0544292 4.45969538,17.407061 L9.70008967,12.1666667 L4.45969538,6.92627238 C3.8123271,6.2789041 3.82141449,5.13692222 4.47916835,4.47916835 C5.13692222,3.82141449 6.2789041,3.8123271 6.92627238,4.45969538 L12.1666667,9.70008967 L17.407061,4.45969538 C18.0544292,3.8123271 19.1964111,3.82141449 19.854165,4.47916835 C20.5119188,5.13692222 20.5210062,6.2789041 19.873638,6.92627238 L14.6332437,12.1666667 L19.873638,17.407061 C20.5210062,18.0544292 20.5119188,19.1964111 19.854165,19.854165 C19.1964111,20.5119188 18.0544292,20.5210062 17.407061,19.873638 L12.1666667,14.6332437 Z"/>
  </defs>
  <use fill="#222" fill-rule="evenodd" xlink:href="#delete-a"/>
</svg>
