<svg xmlns="http://www.w3.org/2000/svg" xmlns:xlink="http://www.w3.org/1999/xlink" width="24" height="24" viewBox="0 0 24 24">
  <defs>
    <path id="delivery-a" d="M18.8243004,9.41807767 L15.9639045,9.41807767 L15.9639045,18.3272693 L16.9948252,18.3272693 C16.9948252,20.0000155 18.2810216,21.2105746 19.8617667,21.2105746 C21.4422169,21.2121827 22.7250084,19.9328093 22.7276173,18.3523605 C22.7276173,18.3043599 22.7196172,18.2407229 22.7167081,18.1905405 C23.1058467,17.9755525 23.3469662,17.5656493 23.3458061,17.1210738 L23.3458061,13.9454016 C23.3475439,12.7451569 22.8719164,11.5934866 22.0237602,10.744239 C21.1756041,9.89499143 20.0245464,9.41788332 18.8243004,9.41807767 L18.8243004,9.41807767 Z M17.2366461,10.6908193 L18.7606633,10.6908193 C20.5919568,10.6908193 22.0767008,12.1817453 22.0767008,14.0726757 L17.2366461,14.0726757 L17.2366461,10.6908193 Z M19.8617667,19.5327375 C19.1875773,19.5327375 18.6388438,18.9436399 18.6388438,18.3098146 C18.6388438,17.6759892 19.1875773,17.0868916 19.8617667,17.0868916 C20.5359561,17.0868916 21.0846896,17.6759892 21.0846896,18.3098146 C21.0846896,18.9436399 20.5359561,19.5327375 19.8617667,19.5327375 Z M8.52345671,10.6504552 C7.65807903,11.5165126 6.48398656,12.003146 5.25967698,12.0032142 C4.03536739,12.0032824 2.86122071,11.5167799 1.99574655,10.6508189 C0.197180759,8.85188945 0.197180759,5.9234927 1.99574655,4.12456328 C3.16148487,2.95850017 4.86075876,2.50292741 6.4534682,2.92945485 C8.04617763,3.3559823 9.29035216,4.59981028 9.71732328,6.19240083 C10.1442944,7.78499139 9.68919503,9.48439212 8.52345671,10.6504552 Z M13.2969652,6.90895839 C14.0504283,6.90895839 14.4729785,7.34169056 14.4729785,8.09515362 L14.4729785,18.326542 L10.82821,18.326542 C10.8300045,18.3404119 10.8309759,18.3543759 10.8311192,18.3683607 C10.8287091,19.9513271 9.54350764,21.2326212 7.96054125,21.2302112 C6.37757487,21.2278012 5.09628074,19.9425997 5.09869072,18.3596333 C5.09869072,18.3392694 5.1030544,18.3221783 5.1030544,18.3029054 C4.16922566,18.2396319 3.71031138,17.4887144 3.71031138,16.5123397 L3.71031138,13.4195774 C4.11031591,13.5650336 4.74559582,13.6610347 5.31360224,13.6610347 C6.9852575,13.6610347 8.50418376,13.0253912 9.68674259,11.8428324 C11.0434852,10.4860897 11.6431283,8.58170457 11.4911266,6.90895839 L13.2969652,6.90895839 Z M9.18564601,18.3603606 C9.18564601,18.3432695 9.18346417,18.3272693 9.18310053,18.3098146 C9.15544392,17.6558756 8.61724658,17.1399588 7.9627231,17.1399588 C7.30819961,17.1399588 6.77000227,17.6558756 6.74234566,18.3098146 C6.74161838,18.326542 6.73980018,18.3432695 6.73980018,18.3603606 C6.73980018,19.0357623 7.28732142,19.5832835 7.9627231,19.5832835 C8.63812477,19.5832835 9.18564601,19.0357623 9.18564601,18.3603606 Z M4.32740927,5.03475538 L4.32740927,7.72351305 L6.36815961,9.75044506 C6.5288887,9.91371963 6.78416432,9.99553874 6.99653035,9.99553874 C7.32874606,9.99697396 7.62866658,9.7968609 7.75488155,9.48955142 C7.88109651,9.18224194 7.8084057,8.82909381 7.5710823,8.59661383 L6.0365195,7.04968725 L6.0365195,5.03475538 C6.0365195,4.58165935 5.63651498,4.21292791 5.18196439,4.21292791 C4.72741379,4.21292791 4.32740927,4.58093207 4.32740927,5.03475538 Z"/>
  </defs>
  <use fill="#222" fill-rule="evenodd" xlink:href="#delivery-a"/>
</svg>
