<svg xmlns="http://www.w3.org/2000/svg" xmlns:xlink="http://www.w3.org/1999/xlink" width="24" height="24" viewBox="0 0 24 24">
  <defs>
    <path id="devices-a" d="M21.0641143,0.354171429 L8.84571429,0.354171429 C8.51096804,0.354080453 8.189906,0.48701759 7.95320465,0.72371894 C7.7165033,0.96042029 7.58356617,1.28148232 7.58365714,1.61622857 L7.58365714,5.7648 L9.58354286,5.7648 L9.58354286,2.26285714 L20.3262857,2.26285714 L20.3262857,16.9570286 L12.4289143,16.9570286 L12.4289143,20.6022857 L21.0641143,20.6022857 C21.3988605,20.6023767 21.7199226,20.4694396 21.9566239,20.2327382 C22.1933253,19.9960369 22.3262624,19.6749748 22.3261714,19.3402286 L22.3261714,1.61622857 C22.3262624,1.28148232 22.1933253,0.96042029 21.9566239,0.72371894 C21.7199226,0.48701759 21.3988605,0.354080453 21.0641143,0.354171429 L21.0641143,0.354171429 Z M15.7182857,19.3402286 C15.3981383,19.7096233 14.8594662,19.7968621 14.4390933,19.5473957 C14.0187203,19.2979294 13.8372161,18.7833086 14.0080725,18.3253185 C14.1789289,17.8673284 14.6531418,17.5973275 15.1341925,17.6841436 C15.6152433,17.7709596 15.9651592,18.1896924 15.9651429,18.6785143 C15.9654126,18.9216493 15.8777338,19.1566774 15.7182857,19.3402286 Z M10.8281143,5.7648 C11.7124011,5.7648 12.4292571,6.48165607 12.4292571,7.36594286 L12.4292571,22.0457143 C12.4292571,22.4703638 12.2605658,22.8776207 11.9602933,23.1778933 C11.6600207,23.4781658 11.2527638,23.6468571 10.8281143,23.6468571 L3.27497143,23.6468571 C2.85032194,23.6468571 2.44306499,23.4781658 2.14279246,23.1778933 C1.84251992,22.8776207 1.67382857,22.4703638 1.67382857,22.0457143 L1.67382857,7.36594286 C1.67382857,6.48165607 2.39068465,5.7648 3.27497143,5.7648 L10.8281143,5.7648 Z M7.0512,21.6768 C7.25591439,21.676891 7.45227036,21.5956088 7.59702531,21.4508539 C7.74178026,21.3060989 7.82306243,21.109743 7.82297143,20.9050286 C7.82297143,20.5928762 7.63493536,20.3114603 7.34654414,20.1920047 C7.05815292,20.0725492 6.72620027,20.1385787 6.50547519,20.3593038 C6.28475011,20.5800288 6.21872062,20.9119815 6.33817617,21.2003727 C6.45763173,21.4887639 6.7390476,21.6768 7.0512,21.6768 Z M8.21314286,9.05142857 C8.43393051,8.90530521 8.53300988,8.63185615 8.45706853,8.37821835 C8.38112718,8.12458055 8.14807581,7.9505743 7.88331429,7.94982857 L6.21942857,7.94982857 C5.89594968,7.96076572 5.63937231,8.22616484 5.63937231,8.54982857 C5.63937231,8.87349231 5.89594968,9.13889143 6.21942857,9.14982857 L7.88331429,9.14982857 C8.00050182,9.14990384 8.11515215,9.11569943 8.21314286,9.05142857 Z"/>
  </defs>
  <use fill="#222" fill-rule="evenodd" xlink:href="#devices-a"/>
</svg>
