<svg xmlns="http://www.w3.org/2000/svg" xmlns:xlink="http://www.w3.org/1999/xlink" width="24" height="24" viewBox="0 0 24 24">
  <defs>
    <path id="digital-tv-a" d="M23.4267881,4.84095404 L23.4267881,17.8798987 C23.42499,18.6439424 22.8055802,19.2626223 22.0415349,19.2635194 L17.7646513,19.2635194 L17.7646513,19.8028638 C17.7650129,20.2103958 17.4353175,20.5412599 17.0277867,20.5423403 L6.37573492,20.5423403 C5.96807661,20.5414397 5.63818257,20.210523 5.63854385,19.8028638 L5.63854385,19.2635194 L1.95846514,19.2635194 C1.19441981,19.2626223 0.575010021,18.6439424 0.573211946,17.8798987 L0.573211946,4.84095404 C0.575010509,4.07696334 1.19447265,3.45837717 1.95846514,3.45765973 L22.0415349,3.45765973 C22.8055273,3.45837717 23.4249895,4.07696334 23.4267881,4.84095404 Z M20.4884711,5.80863975 L3.51152887,5.80863975 C3.46154383,5.80855146 3.41359491,5.82843602 3.37834218,5.86387268 C3.34308944,5.89930935 3.32345466,5.94736108 3.32380307,5.997345 L3.32380307,16.7267725 C3.32505811,16.8306856 3.41022578,16.9139541 3.51414071,16.9128659 L20.491083,16.9128659 C20.5948665,16.9123265 20.6786636,16.8279454 20.6784823,16.7241607 L20.6784823,5.99473316 C20.6781379,5.94491725 20.6579725,5.89728861 20.6224415,5.86237024 C20.5869106,5.82745187 20.5389384,5.80811783 20.4891241,5.80863975 L20.4884711,5.80863975 Z M6.22718668,9.126979 C6.03804613,9.126979 5.84912323,8.98550448 5.66041799,8.70255545 C5.53679102,8.50666765 5.47497754,8.3576841 5.47497754,8.25560479 C5.47497754,8.08148231 5.58946308,7.91976605 5.81843414,7.77045602 C6.03982811,7.62366607 6.29978523,7.545838 6.5654196,7.54681746 L11.0241523,7.54681746 C11.3071013,7.54681746 11.4485759,7.67740932 11.4485759,7.93859305 C11.4505244,8.22832765 11.3670617,8.51221431 11.2086133,8.75479219 C11.0486383,9.00204612 10.8745158,9.12556426 10.6862459,9.12534661 L9.23634969,9.12534661 L9.23634969,14.0535571 C9.23829826,14.3432917 9.15483558,14.6271783 8.99638714,14.8697562 C8.83641211,15.1170101 8.66228962,15.2405283 8.47401969,15.2403106 C8.28574975,15.240093 8.09682685,15.0986184 7.907251,14.8158871 C7.78362403,14.6199993 7.72181055,14.4710157 7.72181055,14.3689364 L7.72181055,9.126979 L6.22718668,9.126979 Z M15.1234309,15.241943 C14.9199252,15.241943 14.7200109,15.1004685 14.5236878,14.8175195 C14.4560553,14.7195466 14.4011991,14.613345 14.3604479,14.5014871 L12.0489719,8.43875988 C12.0127162,8.35964087 11.9906162,8.27477677 11.983676,8.18802351 C11.983676,8.01390102 12.0981616,7.85218476 12.3271326,7.70287473 C12.5484508,7.55618248 12.808274,7.47836049 13.0737916,7.47923617 C13.2990626,7.47923617 13.4371635,7.57010634 13.4880943,7.75184668 L15.3307455,12.9755212 L17.0206042,8.09138553 C17.0713174,7.93162815 17.2039769,7.79015363 17.4185829,7.66696197 C17.6251173,7.54552666 17.8603567,7.48150366 18.0999459,7.48152152 C18.382895,7.48152152 18.5243695,7.61211339 18.5243695,7.87329711 C18.5242742,8.05579391 18.4910894,8.23676123 18.4264256,8.40741784 L16.1694717,14.5125875 C16.0824105,14.7380761 15.9752163,14.9161163 15.8478893,15.0467082 C15.7205622,15.1773 15.5843113,15.242596 15.4391367,15.242596 L15.1231044,15.242596 L15.1234309,15.241943 Z"/>
  </defs>
  <use fill="#222" fill-rule="evenodd" xlink:href="#digital-tv-a"/>
</svg>
