<svg xmlns="http://www.w3.org/2000/svg" width="24" height="24" viewBox="0 0 24 24">
  <path fill="#222" fill-rule="evenodd" d="M23.2230857,12.2910857 C23.1925714,11.5885714 22.9577143,10.9745143 22.5610286,10.5099429 C22.9892571,10.0152 23.2162286,9.43851429 23.2042286,8.83645714 C23.1850286,7.95942857 22.9299429,7.32617143 22.4033143,6.88628571 C22.6460857,6.45190657 22.7619165,5.95805162 22.7376,5.46102857 C22.7132571,4.78697143 22.4499429,4.20857143 21.9990857,3.79131429 C22.1262857,3.4944 22.2092571,3.12754286 22.1993143,2.67497143 C22.1945007,2.15145551 22.0133128,1.644854 21.6850286,1.23702857 C21.2571429,0.708 20.6002286,0.411428571 19.8809143,0.411428571 L19.8761143,0.411428571 L7.37142857,0.377142857 L7.37142857,0.377142857 C7.32234506,0.377879456 7.27339493,0.382464948 7.22502857,0.390857143 C7.15115249,0.381105417 7.07668577,0.376522849 7.00217143,0.377142857 L2.36777143,0.377142857 C1.48834286,0.377142857 0.754285714,1.07554286 0.754285714,1.95428571 L0.754285714,12.6068571 C0.754285714,13.4808 1.4952,14.1942857 2.36777143,14.1942857 L7.69097143,14.1942857 C7.8972941,14.6669514 8.13865193,15.1235372 8.41302857,15.5602286 C9.10251429,16.6632 10.5627429,18.3061714 11.2405714,19.0230857 C11.2868571,19.0724571 11.3434286,19.1225143 11.4054857,19.1845714 C11.4846857,19.2617143 11.6708571,19.4393143 11.7699429,19.5617143 C11.7730286,19.6909714 11.7785143,19.8329143 11.7850286,20.0033143 C11.7980571,20.3496 11.8158857,20.8234286 11.8237714,21.4645714 C11.8372692,22.6781569 12.8232578,23.6557443 14.0369143,23.6588571 L14.0780571,23.6588571 C14.0835429,23.6588571 14.0893714,23.6674286 14.0948571,23.6670857 C15.5444571,23.6406857 16.3234286,22.6004571 16.5726857,21.9408 C16.7588571,21.5389714 17.6921143,19.2884571 16.6515429,16.5984 C16.4146286,15.9846857 16.2270857,15.5180571 16.0772571,15.1628571 L20.7469714,15.1817143 C21.2125714,15.1817143 21.9497143,14.976 22.5065143,14.3931429 C22.8596571,14.0228571 23.2710857,13.3566857 23.2230857,12.2910857 Z M21.12,13.1389714 C21.0130051,13.2314031 20.8824368,13.2922954 20.7428571,13.3148571 L15.3709714,13.2925714 C14.6581714,13.2795429 14.1750857,13.5010286 13.9344,13.9491429 C13.7385678,14.3257465 13.7674768,14.779842 14.0094857,15.1285714 L14.0156571,15.1374857 C14.0574857,15.2118857 14.2854857,15.6466286 14.9118857,17.2686857 C15.7182857,19.3529143 14.9321143,21.048 14.8776,21.1580571 C14.8577504,21.1962085 14.8422255,21.2364582 14.8313143,21.2780571 C14.7877714,21.3857143 14.5824,21.8396571 14.0667429,21.8396571 L14.0458286,21.8396571 C14.0424,21.8396571 14.0393143,21.8245714 14.0358857,21.8245714 C13.8486857,21.8245714 13.6892571,21.6486857 13.6868571,21.4518857 C13.6786286,20.7867429 13.6601143,20.2971429 13.6467429,19.9412571 C13.6378286,19.7012571 13.6306286,19.5130286 13.6306286,19.3769143 C13.6306286,18.7961143 13.2109714,18.3401143 12.7049143,17.8470857 C12.6630857,17.8066286 12.6157714,17.7603429 12.5986286,17.7418286 L12.5948571,17.7384 C11.8878857,16.992 10.5555429,15.4724571 9.99325714,14.5728 C9.67379048,14.0594379 9.40607767,13.5156283 9.19405714,12.9493714 C9.19097143,12.9401143 9.18411429,12.9312 9.18068571,12.9222857 C8.80834286,11.9142857 8.64,10.8425143 8.60571429,9.75462857 L8.60571429,2.23097143 L19.8641143,2.24708571 C20.0170286,2.24708571 20.1637714,2.30502857 20.2364571,2.3952 C20.2769143,2.44525714 20.3314286,2.53234286 20.3352,2.71302857 C20.3389714,2.87931429 20.3149714,3.09565714 20.1792,3.1896 C19.8541013,3.41195551 19.685451,3.80114225 19.7455117,4.19040289 C19.8055724,4.57966353 20.0836853,4.89991724 20.4606857,5.01394286 C20.8296,5.12708571 20.8676571,5.33862857 20.8745143,5.52822857 C20.8820571,5.73394286 20.8512,6.03394286 20.4946286,6.23657143 C20.1338078,6.44177912 19.9328702,6.84477642 19.9861142,7.25644003 C20.0393583,7.66810364 20.3362148,8.0067169 20.7373714,8.11337143 C21.0596571,8.20251429 21.1810286,8.2848 21.2262857,8.33828571 C21.2948571,8.41817143 21.3339429,8.6088 21.3397714,8.8752 C21.3476571,9.25714286 20.7912,9.6 20.6742857,9.66857143 C20.4812215,9.77983447 20.3296826,9.95099273 20.2426286,10.1561143 L20.2374857,10.1681143 C20.1313705,10.4265199 20.1356857,10.7171053 20.249427,10.9722461 C20.3631684,11.2273868 20.5764158,11.4248306 20.8395429,11.5186286 C21.1690286,11.6372571 21.3387429,11.9170286 21.3586286,12.3740571 C21.384,12.9058286 21.1854857,13.0813714 21.12,13.1389714 Z"/>
</svg>
