<svg xmlns="http://www.w3.org/2000/svg" xmlns:xlink="http://www.w3.org/1999/xlink" width="24" height="24" viewBox="0 0 24 24">
  <defs>
    <path id="door-alarm-a" d="M18.8084058,18.3624566 C19.4813168,18.5009428 20.1753671,18.5010887 20.8483363,18.3628853 L20.8483363,23.4700001 L18.8084058,23.4700001 L18.8084058,18.3624566 Z M16.1588113,3.73137887 C16.8058036,3.73302722 17.3299508,4.2569829 17.3318357,4.90397447 L17.3318357,9.03185398 C15.7552098,9.9290999 14.7815074,11.6035627 14.7815074,13.4176188 C14.7815074,15.2316748 15.7552098,16.9061377 17.3318357,17.8033836 L17.3318357,22.6172422 C17.3301863,23.2644012 16.8059704,23.7886172 16.1588113,23.7902666 L5.20972669,23.7902666 C4.56323441,23.7886219 4.03929284,23.2654464 4.03670235,22.6189572 L4.03670235,18.9884126 L4.03670235,6.97863265 L4.03670235,4.90440321 C4.03835177,4.2572442 4.56256768,3.73302829 5.20972669,3.73137887 L16.1588113,3.73137887 Z M7.4447325,13.9974855 C7.70888121,13.7355371 7.76264272,13.3281835 7.57549727,13.0066744 C7.5033638,12.8821591 7.39989668,12.778692 7.2753814,12.7065585 C7.15103697,12.6331194 7.00905952,12.5948833 6.86465138,12.5959444 C6.72017621,12.5943582 6.57806002,12.6326316 6.45392137,12.7065585 C6.32940609,12.778692 6.22593897,12.8821591 6.15380549,13.0066744 C6.08036641,13.1310188 6.04213031,13.2729963 6.04319136,13.4174044 C6.04327451,13.4921854 6.05278163,13.5666578 6.071488,13.6390614 C6.08992959,13.7070542 6.11778092,13.7721369 6.15423423,13.8324218 C6.19125763,13.8923393 6.2351423,13.9477347 6.28499901,13.9974855 C6.33422347,14.0479292 6.38969427,14.0918736 6.45006274,14.1282503 C6.51034766,14.1647036 6.57543029,14.1925549 6.64342311,14.2109965 C6.71563334,14.2306909 6.79023806,14.2402149 6.86508012,14.2392932 C7.08338827,14.2421385 7.29316487,14.1546281 7.4447325,13.9974855 Z M19.828371,9.75684819 C21.6304226,9.75689495 23.1644489,11.0683328 23.4447137,12.8484568 C23.7249786,14.6285809 22.6681231,16.3479303 20.9532626,16.9016839 C19.238402,17.4554376 17.3755858,16.678893 16.5618241,15.0710429 L16.5579655,15.0633256 C16.545675,15.0390305 16.5336704,15.0145925 16.5219516,14.9900116 L16.5155205,14.9758633 C16.504945,14.9532831 16.4945124,14.9305601 16.4842227,14.9076941 L16.4760767,14.8888297 C16.4666445,14.8676787 16.4574981,14.8462418 16.4486375,14.8245191 L16.4392053,14.8017961 C16.4309164,14.7812167 16.4227704,14.7606373 16.4147673,14.740058 L16.4049064,14.7143337 C16.3974749,14.6946118 16.3901864,14.674747 16.3830408,14.6547393 L16.3731798,14.6264427 C16.36632,14.6072924 16.3597461,14.5879992 16.3534579,14.5685632 L16.343597,14.5381228 C16.3375947,14.5192584 16.3317353,14.5002511 16.3260188,14.4811008 L16.3161578,14.4485168 C16.3107271,14.4299382 16.3054394,14.4113596 16.3002945,14.392781 L16.2908623,14.3584821 C16.2860033,14.3399035 16.2812872,14.3214678 16.276714,14.303175 L16.2681393,14.2675898 C16.2638519,14.2491541 16.2587071,14.2251449 16.2557059,14.2127115 C16.2527047,14.2002781 16.2509898,14.1938471 16.2475599,14.1758401 C16.24413,14.1578332 16.2394139,14.1338239 16.2368415,14.1213905 C16.234269,14.1089571 16.2329828,14.1016686 16.2295529,14.0836617 C16.226123,14.0656547 16.2222644,14.0420742 16.2201207,14.0292121 C16.217977,14.01635 16.2166908,14.0086327 16.2136897,13.9906257 C16.2106885,13.9726188 16.2076874,13.9490382 16.2055437,13.9361761 C16.2034,13.923314 16.2021138,13.9155968 16.1999701,13.8971611 C16.1978264,13.8787254 16.1948252,13.8547161 16.193539,13.841854 C16.1922528,13.8289919 16.1909666,13.8212746 16.1892517,13.8028389 C16.1875367,13.7844033 16.185393,13.7595365 16.1841068,13.7466744 C16.1828206,13.7338123 16.1806769,13.7209502 16.1806769,13.7080881 C16.1793907,13.6883662 16.1768183,13.669073 16.1768183,13.6493511 C16.1746746,13.6369177 16.1746746,13.6249131 16.1746746,13.6124797 C16.1721022,13.5901854 16.1721022,13.5691773 16.1721022,13.5473117 L16.1721022,13.5168714 L16.1721022,13.4204056 L16.1721022,13.3239398 L16.1721022,13.2934994 C16.1746746,13.2712051 16.1746746,13.250197 16.1746746,13.2283314 C16.1768183,13.215898 16.1768183,13.2038934 16.1768183,13.19146 C16.1781045,13.1717381 16.1806769,13.1520162 16.1806769,13.1327231 C16.1815344,13.119861 16.1823919,13.1130012 16.1841068,13.0941367 C16.1858218,13.0752723 16.1879655,13.0508343 16.1892517,13.0379722 C16.1905379,13.0251101 16.1913954,13.0173928 16.193539,12.9989571 C16.1956827,12.9805214 16.1982551,12.9569409 16.1999701,12.9436501 C16.201685,12.9303592 16.2029713,12.922642 16.2055437,12.904635 C16.2081161,12.886628 16.211546,12.8630475 16.2136897,12.8501854 C16.2158334,12.8373233 16.2171196,12.8300348 16.2201207,12.8115991 C16.2231219,12.7931634 16.2269805,12.7700116 16.2295529,12.7571495 C16.2321254,12.7442874 16.2334116,12.7374276 16.2368415,12.7194206 C16.2402714,12.7014137 16.2449875,12.6774044 16.2475599,12.664971 C16.2501323,12.6525377 16.2518473,12.6465353 16.2557059,12.6280997 C16.2595645,12.609664 16.2638519,12.5912283 16.2681393,12.5732213 L16.276714,12.5376362 C16.2812872,12.5190576 16.2860033,12.5006219 16.2908623,12.4823291 L16.3002945,12.4480301 C16.3054394,12.4294515 16.3107271,12.4108729 16.3161578,12.3922943 L16.3260188,12.3597103 C16.3317353,12.3405601 16.3375947,12.3215527 16.343597,12.3026883 L16.3534579,12.272248 C16.3597461,12.2528119 16.36632,12.2335187 16.3731798,12.2143685 L16.3813258,12.1839282 C16.3884714,12.1639204 16.39576,12.1440556 16.4031914,12.1243337 L16.4130524,12.0986095 C16.4213413,12.0780301 16.4296302,12.0574508 16.4379191,12.0368714 L16.4473513,12.0141483 C16.4564977,11.9927115 16.465787,11.9712746 16.4752192,11.9498378 L16.4833652,11.9309733 C16.4936549,11.9081074 16.5040875,11.8853843 16.514663,11.8628042 L16.5210941,11.8486559 C16.5328129,11.8240749 16.5448175,11.7996369 16.557108,11.7753418 L16.5609666,11.7676246 C17.1842564,10.5352847 18.4473749,9.75795556 19.828371,9.75684819 Z M20.8483363,3.60147156 L20.8483363,4.746628 L20.8483363,8.47492466 C20.1753962,8.33657988 19.4813459,8.33657988 18.8084058,8.47492466 L18.8084058,4.74834295 L18.8131219,4.74834295 L18.8131219,2.38771721 L2.54469771,2.38771721 L2.54469771,4.53997678 L2.55713108,4.53997678 L2.55713108,23.7821206 L0.509912067,23.7821206 L0.509912067,4.53997678 L0.509912067,3.60147156 L0.509912067,1.74246808 C0.509912067,0.899571202 1.1551612,0.209733423 1.94360848,0.209733423 L19.4154973,0.209733423 C20.2052308,0.209733423 20.8483363,0.899571202 20.8483363,1.74246808 L20.8483363,3.60147156 Z M21.7752656,14.8656779 C21.8133909,14.7746194 21.7940421,14.6696311 21.7259609,14.598146 C21.7216735,14.5938586 21.3036549,14.1428274 21.3006538,13.044832 C21.2979064,12.4207351 20.903184,11.865721 20.3145588,11.6582966 C20.319679,11.6307073 20.3225467,11.6027472 20.3231335,11.5746929 C20.315282,11.3088701 20.0975253,11.0974502 19.8315866,11.0974502 C19.5656478,11.0974502 19.3478911,11.3088701 19.3400396,11.5746929 C19.3404949,11.6025929 19.3432192,11.6304097 19.3481856,11.6578679 C18.7583072,11.8643749 18.3630128,12.4207088 18.3620906,13.0456895 C18.3620906,14.1423986 17.9414996,14.5930012 17.9389272,14.5955736 C17.8683885,14.6654739 17.846871,14.7709676 17.8843986,14.8629102 C17.9219262,14.9548528 18.0111173,15.0151593 18.110422,15.0157358 L18.8821486,15.0157358 C18.9924975,15.4493147 19.3828995,15.7528022 19.8303004,15.7528022 C20.2777012,15.7528022 20.6681032,15.4493147 20.7784522,15.0157358 L21.5501787,15.0157358 C21.6485058,15.0153638 21.7371041,14.9562983 21.7752656,14.8656779 Z"/>
  </defs>
  <use fill="#222" fill-rule="evenodd" xlink:href="#door-alarm-a"/>
</svg>
