<svg xmlns="http://www.w3.org/2000/svg" xmlns:xlink="http://www.w3.org/1999/xlink" width="24" height="24" viewBox="0 0 24 24">
  <defs>
    <path id="download-a" d="M11.4561765,14.312257 L7.33110369,7.42965656 C7.07782643,6.98547062 7.33490665,6.62266805 7.90154798,6.62266805 L10.6119189,6.62266805 L10.6119189,1.59629333 C10.6119189,0.830517437 11.2327029,0.209733423 11.9984788,0.209733423 C12.7642547,0.209733423 13.3850387,0.830517437 13.3850387,1.59629333 L13.3850387,6.62190746 L16.0976914,6.62190746 C16.6654736,6.62190746 16.9221736,6.98471002 16.6681357,7.42889597 L12.5415418,14.312257 C12.2437699,14.7359069 11.7550893,14.7359069 11.4561765,14.312257 Z M20.5973559,11.8658116 C22.2805836,11.8681164 23.6444759,13.2321788 23.6465708,14.9154067 L23.6465708,20.7400232 C23.6444755,22.4231893 22.2805221,23.7871427 20.5973559,23.789238 L3.40264406,23.789238 C1.71977434,23.7871436 0.355943423,22.4236529 0.353429224,20.7407838 L0.353429224,14.9154067 C0.355524083,13.2321788 1.71941637,11.8681164 3.40264406,11.8658116 L5.84756826,11.8658116 C6.60449672,11.8783468 7.21154301,12.4955294 7.21154301,13.2525617 C7.21154301,14.0095939 6.60449672,14.6267765 5.84756826,14.6393117 L4.78920397,14.6393117 C3.87198553,14.6418189 3.12905625,15.3847482 3.12654903,16.3019666 L3.12654903,19.3546042 C3.12947158,20.2716498 3.87215829,21.0143365 4.78920397,21.0172591 L19.210796,21.0172591 C20.1278417,21.0143365 20.8705284,20.2716498 20.873451,19.3546042 L20.873451,16.3019666 C20.8709438,15.3847482 20.1280145,14.6418189 19.210796,14.6393117 L18.1524317,14.6393117 C17.3955033,14.6267765 16.788457,14.0095939 16.788457,13.2525617 C16.788457,12.4955294 17.3955033,11.8783468 18.1524317,11.8658116 L20.5973559,11.8658116 Z"/>
  </defs>
  <use fill="#222" fill-rule="evenodd" xlink:href="#download-a"/>
</svg>
