<svg xmlns="http://www.w3.org/2000/svg" xmlns:xlink="http://www.w3.org/1999/xlink" width="24" height="24" viewBox="0 0 24 24">
  <defs>
    <path id="e-settings-a" d="M23.5288951,9.75294683 C23.4652072,9.42299599 23.186233,9.17800922 22.8508193,9.15748097 L21.3483302,9.06610427 C21.1689264,8.49383691 20.9369674,7.93939296 20.6554183,7.40985947 L21.6565158,6.27928357 C21.8788883,6.0278984 21.9031536,5.65795647 21.7155229,5.37967829 C20.8789114,4.1394643 19.8121102,3.07128945 18.5729737,2.23308291 C18.294635,2.04515773 17.9244544,2.06914321 17.672694,2.29141563 L16.5404322,3.2948734 C16.0108976,3.01323635 15.456456,2.78116549 14.8841874,2.60162435 L14.7931479,1.10216982 C14.7728457,0.767016441 14.5283082,0.488079977 14.1986936,0.42409403 C12.7300994,0.138962076 11.2204349,0.138275292 9.75158189,0.422070929 C9.42176404,0.485894702 9.17694497,0.764835859 9.15645321,1.10014672 L9.06608806,2.60128717 C8.49372136,2.78099682 7.93917287,3.01317802 7.40950608,3.2948734 L6.27893017,2.2941131 C6.02732861,2.07162982 5.65713936,2.04736648 5.37865053,2.23510601 C4.13867965,3.07192283 3.07074264,4.13882968 2.23272952,5.37799237 C2.04456149,5.65626521 2.06855751,6.02660831 2.29106224,6.27827202 L3.29384564,7.41053383 C3.01243907,7.93990073 2.78048493,8.49410746 2.60093378,9.06610427 L1.10147925,9.15714378 C0.766223153,9.1774825 0.487253674,9.42218771 0.423403456,9.75193528 C0.138040404,11.2204855 0.137124692,12.7301517 0.420705988,14.199047 C0.484420394,14.5289276 0.763422914,14.7738005 1.09878178,14.7941757 L2.60160814,14.8852152 C2.78136189,15.4568642 3.01342665,16.0107269 3.29485719,16.5397741 L2.29308534,17.6713615 C2.07054136,17.9228065 2.04627171,18.2929533 2.23407825,18.571304 C3.07071894,19.8115136 4.13765283,20.8795921 5.37696461,21.7175622 C5.65523745,21.9057302 6.02558055,21.8817342 6.27724426,21.6592295 L7.41051763,20.6554345 C7.93991245,20.9367821 8.49411363,21.168734 9.06608806,21.3483464 L9.15712758,22.8491496 C9.17742978,23.184303 9.42196732,23.4632395 9.75158189,23.5272254 C11.2201367,23.8126527 12.7298366,23.8134539 14.1986936,23.5295857 C14.5285114,23.4657619 14.7733305,23.1868208 14.7938223,22.8515099 L14.885199,21.347672 C15.4567658,21.1682708 16.0105282,20.9364265 16.5394207,20.6550973 L17.6713453,21.6572064 C17.9225738,21.8796396 18.2924734,21.9039113 18.5706134,21.7162134 C19.8107024,20.8799765 20.8787736,19.8135078 21.7168716,18.5746758 C21.9049181,18.29637 21.8809274,17.9261082 21.6585389,17.6743962 L20.6547439,16.5407856 C20.9361831,16.0115085 21.1682474,15.4574211 21.347993,14.8855524 L22.8484591,14.7945129 C23.1837152,14.7741741 23.4626846,14.5294689 23.5265348,14.1997214 C23.8116511,12.73125 23.8124524,11.2217201 23.5288951,9.75294683 L23.5288951,9.75294683 Z M9.86791016,17.2104318 C9.85071381,17.2036882 9.8325059,17.2023394 9.81497237,17.1966073 C9.79743883,17.1908752 9.78125403,17.1746904 9.76304612,17.166598 C8.42128876,16.5974349 7.35297517,15.529484 6.78335652,14.1879199 C6.77627567,14.1710608 6.76481144,14.1575734 6.75638185,14.1413886 C6.74795227,14.1252038 6.74862663,14.101601 6.74087142,14.0823815 C6.47001827,13.4131639 6.33091355,12.6979481 6.3311936,11.9759969 L6.3311936,11.9739738 C6.33095356,11.252593 6.46958569,10.5379106 6.73952268,9.86893792 C6.74660353,9.85174156 6.74795227,9.83521958 6.7533472,9.81633731 C6.75874214,9.79745504 6.77560131,9.78261897 6.78369371,9.76407388 C7.06538005,9.09939967 7.47273255,8.49535476 7.9833922,7.98509433 L7.9833922,7.98509433 C8.49352635,7.47450989 9.09731274,7.06706283 9.76169739,6.78505865 C9.77956811,6.77730343 9.79541573,6.76482764 9.81160053,6.75606088 C9.82778534,6.74729411 9.84936507,6.74864284 9.86757298,6.74122481 C11.2194877,6.1953899 12.7304506,6.1953899 14.0823653,6.74122481 C14.0995617,6.74830566 14.118444,6.74965439 14.1359775,6.75538651 C14.153511,6.76111863 14.1696958,6.77730343 14.1872294,6.78539583 C14.8517477,7.06715376 15.4555787,7.47463092 15.9655346,7.98543151 L15.9655346,7.98543151 C16.4764653,8.49567881 16.8841525,9.09971072 17.1662446,9.76441107 C17.1733254,9.7819446 17.1858012,9.7961063 17.1938936,9.81262829 C17.201986,9.82915028 17.2016489,9.8510672 17.2090669,9.86994947 C17.7553606,11.221775 17.7553606,12.7329163 17.2090669,14.0847418 C17.201986,14.1026125 17.2003001,14.1211576 17.194568,14.1393655 C17.1888359,14.1575734 17.1729883,14.1730839 17.165233,14.1896059 C16.8836204,14.8541209 16.4762536,15.4579581 15.9655346,15.967911 L15.9655346,15.967911 C15.454808,16.478574 14.8506112,16.8862179 14.1858806,17.1686211 C14.1686843,17.1757019 14.1551969,17.1878405 14.1390121,17.1962701 C14.1228273,17.2046997 14.100236,17.203351 14.0813538,17.2111062 C12.7297752,17.7565028 11.2193141,17.7562611 9.86791016,17.2104318 Z"/>
  </defs>
  <use fill="#222" fill-rule="evenodd" xlink:href="#e-settings-a"/>
</svg>
