<svg xmlns="http://www.w3.org/2000/svg" xmlns:xlink="http://www.w3.org/1999/xlink" width="24" height="24" viewBox="0 0 24 24">
  <defs>
    <path id="e-support-a" d="M15.3953284,14.3827677 C22.2032865,15.8703065 22.6038214,19.6351074 22.6987546,21.8802207 C22.7203131,22.3590471 22.3689468,22.9309156 21.9044928,23.0527024 C20.7282289,23.3609516 18.3662457,23.7906094 12.0019394,23.7906094 C5.63763319,23.7906094 3.27111129,23.3609516 2.0986296,23.0527024 C1.63417557,22.9309156 1.27978352,22.3586689 1.3002074,21.8802207 C1.36563944,20.3934383 1.56420488,18.2406106 3.66824218,16.5223576 C3.86529475,16.7538282 4.06650773,16.9811384 4.28133664,17.1955891 C5.82146777,18.734227 7.78677401,19.776814 9.92437752,20.1891996 C10.7639351,20.9844143 11.9830644,21.2321055 13.0663776,20.8275614 C14.1496908,20.4230173 14.9080626,19.4368633 15.0208907,18.285997 C15.0311026,18.1842559 15.0363977,18.0806236 15.0363977,17.9758567 C15.0399996,16.9226979 14.4957268,15.9434304 13.5994293,15.3904319 C12.7031319,14.8374334 11.5837689,14.7902694 10.64413,15.2659111 C8.59403041,14.7891894 6.94847222,13.2645922 6.31691613,11.2567802 C6.31537983,11.2502514 6.31348587,11.243812 6.31124283,11.237491 C6.25526629,11.0567019 6.20685414,10.8725088 6.16903215,10.6833989 C6.16751927,10.6765909 6.16487173,10.6694047 6.16487173,10.6622185 C6.08587338,10.2706405 6.04596439,9.87218411 6.04573246,9.47271696 C6.04759548,6.86665454 7.74158481,4.56368677 10.2288445,3.78580256 C10.4115248,3.72831314 10.6006347,3.67914455 10.7897446,3.64132256 L10.8018477,3.63905324 C10.8408043,3.63111062 10.8839214,3.62808487 10.9217434,3.62089869 C11.2787282,3.55405962 11.6410242,3.51962758 12.0042087,3.51802288 C12.2099604,3.51852717 12.4136948,3.52886518 12.6154121,3.54903691 C13.3962359,3.62832692 14.1535615,3.8617853 14.8435055,4.23588424 C15.3478322,4.51122125 15.8103746,4.8569819 16.2172002,5.26275127 C17.3373395,6.37728617 17.9655134,7.89331919 17.9619286,9.4734734 C17.9619286,9.49200617 17.9672237,9.50902607 17.9672237,9.5268024 C17.9536884,11.468163 16.9936635,13.2807747 15.3953284,14.3827677 Z M12.0026959,0.209733423 C17.1203893,0.210868083 21.2690834,4.35653639 21.2698398,9.47233874 C21.2762502,9.77214148 21.1199741,10.0519552 20.861353,10.2037376 C20.602732,10.3555201 20.2822356,10.3555201 20.0236145,10.2037376 C19.7649935,10.0519552 19.6087173,9.77214148 19.6151278,9.47233874 C19.6146221,5.9701596 17.2241465,2.92043903 13.8234563,2.0834412 C10.4227662,1.24644338 6.88988503,2.83827262 5.26395193,5.9401431 C5.13523367,6.18690526 5.02020662,6.44057083 4.9193936,6.69998688 C4.89896973,6.75255945 4.88081517,6.80626667 4.86114774,6.85959568 C4.78399088,7.0710206 4.71666774,7.28471484 4.65804365,7.50256951 C4.63761978,7.57821349 4.61757413,7.65385747 4.59979779,7.72950144 C4.55025098,7.93790061 4.51242899,8.15008197 4.48065852,8.36415443 C4.46969014,8.44168951 4.45456135,8.51808993 4.44548407,8.59675967 C4.37263529,9.17959834 4.37263529,9.76923955 4.44548407,10.3520782 C4.45380491,10.4311262 4.46931192,10.5079048 4.48065852,10.5861963 C4.51242899,10.8002688 4.55025098,11.0113155 4.59904135,11.2189582 C4.61719591,11.2968715 4.63724156,11.3725155 4.65766543,11.4481595 C4.71628952,11.664123 4.78399088,11.8766826 4.85963486,12.0850818 C4.87968051,12.1399237 4.89859151,12.1959002 4.91977182,12.2503639 C5.01976295,12.5062666 5.13339175,12.7566287 5.26016973,13.000374 C6.41101035,15.1957011 8.55880613,16.6930902 11.0166766,17.0136653 C11.4289332,16.5896033 12.0661964,16.4767134 12.599038,16.7333533 C13.1318795,16.9899931 13.4408819,17.5586459 13.3663088,18.1453511 C13.2917356,18.7320563 12.8502999,19.2053247 12.2701983,19.3205039 C11.6900967,19.4356832 11.1013384,19.1669599 10.8082774,18.6532486 C7.74010392,18.2547288 5.07367078,16.3501945 3.70152553,13.5771593 C2.70892613,13.5425499 1.86273981,12.8468759 1.63682311,11.8797084 C1.26175939,10.2990085 1.26175939,8.65247696 1.63682311,7.07177704 C1.86306381,6.10407474 2.70984191,5.40811398 3.70303841,5.3735697 C5.21743088,2.31679648 8.36043824,0.209733423 12.0026959,0.209733423 Z"/>
  </defs>
  <use fill="#222" fill-rule="evenodd" xlink:href="#e-support-a"/>
</svg>
