<svg xmlns="http://www.w3.org/2000/svg" xmlns:xlink="http://www.w3.org/1999/xlink" width="24" height="24" viewBox="0 0 24 24">
  <defs>
    <path id="edit-a" d="M14.6201143,4.704 C14.3387211,4.42282112 14.1806038,4.04134138 14.1805714,3.64354286 L14.1805714,0.499885714 L18.7995429,5.14285714 L15.6795429,5.14285714 C15.2820114,5.14368035 14.9006169,4.98569173 14.6201143,4.704 Z M18.3024,20.5830857 L18.7988571,20.088 L18.7988571,22.0001143 C18.7965967,22.8276033 18.1263462,23.4978539 17.2988571,23.5001143 L3.29931429,23.5001143 C2.47182526,23.4978539 1.80157468,22.8276033 1.79931429,22.0001143 L1.79931429,1.99988571 C1.80176199,1.17247458 2.47190315,0.502333414 3.29931429,0.499885714 L12.6802286,0.499885714 L12.6802286,3.64354286 C12.6800467,4.43897893 12.9958815,5.20190326 13.5582433,5.76445796 C14.1206051,6.32701266 14.8834211,6.64310908 15.6788571,6.6432 L18.7988571,6.6432 L18.7988571,10.5257143 C18.3984727,10.7005344 18.0344568,10.948949 17.7257143,11.2580571 L16.6224,12.3593143 C16.5979648,12.35568 16.5733623,12.353277 16.5486857,12.3521143 L4.04948571,12.3521143 C3.6415201,12.3608375 3.31535088,12.6940554 3.31535088,13.1021143 C3.31535088,13.5101731 3.6415201,13.8433911 4.04948571,13.8521143 L15.1289143,13.8521143 L13.044,15.9377143 L12.8725714,16.1091429 L12.8568,16.1410286 C12.8139429,16.1914286 12.7782857,16.2469714 12.7381714,16.2997714 L4.05051429,16.2997714 C3.64254867,16.3084946 3.31637945,16.6417126 3.31637945,17.0497714 C3.31637945,17.4578303 3.64254867,17.7910483 4.05051429,17.7997714 L12.0733714,17.7997714 L11.556,19.8637714 L11.5422857,19.9189714 L11.5323429,19.9752 C11.5207863,20.066181 11.5147182,20.1577753 11.5141714,20.2494857 L4.04948571,20.2494857 C3.6415201,20.2582089 3.31535088,20.5914269 3.31535088,20.9994857 C3.31535088,21.4075446 3.6415201,21.7407625 4.04948571,21.7494857 L12.0154286,21.7494857 C12.4086954,22.1891949 12.9718082,22.4389123 13.5617143,22.4352 C13.6951345,22.4351337 13.8283049,22.4236634 13.9597714,22.4009143 L14.0139429,22.3909714 L14.0677714,22.3779429 L16.1804571,21.8485714 C16.3040616,21.8221549 16.4261764,21.7891942 16.5462857,21.7498286 L16.5486857,21.7498286 C16.735183,21.74924 16.9147163,21.6789187 17.052,21.5526857 C17.4006806,21.3856521 17.7190053,21.1615385 17.9938286,20.8896 L18.3024,20.5830857 Z M4.04948571,8.40582857 C3.63527215,8.40582857 3.29948571,8.74161501 3.29948571,9.15582857 C3.29948571,9.57004213 3.63527215,9.90582857 4.04948571,9.90582857 L16.5486857,9.90582857 C16.9566513,9.8971054 17.2828206,9.56388743 17.2828206,9.15582857 C17.2828206,8.74776971 16.9566513,8.41455174 16.5486857,8.40582857 L4.04948571,8.40582857 Z M21.3051429,15.4570286 L18.4758857,12.6270857 L18.7844571,12.3185143 C19.5653562,11.5372365 20.8317508,11.5369295 21.6130286,12.3178286 C22.3943064,13.0987276 22.3946134,14.3651222 21.6137143,15.1464 L21.3051429,15.4570286 Z M20.2446857,16.5174857 L17.2453714,19.5216 L16.9368,19.8301714 C16.6454513,20.1208294 16.2711001,20.3139347 15.8653714,20.3828571 L13.7053714,20.9238857 C13.6586936,20.9318305 13.6114607,20.9360723 13.5641143,20.9365714 C13.1842286,20.9365714 12.9418286,20.6430857 13.0128,20.2316571 L13.5538286,18.0716571 C13.6223277,17.6663849 13.8155278,17.2925692 14.1065143,17.0022857 L14.1065143,17.0002286 L17.4171429,13.6885714 L20.2446857,16.5174857 Z"/>
  </defs>
  <use fill="#222" fill-rule="evenodd" xlink:href="#edit-a"/>
</svg>
