<svg xmlns="http://www.w3.org/2000/svg" xmlns:xlink="http://www.w3.org/1999/xlink" width="24" height="24" viewBox="0 0 24 24">
  <defs>
    <path id="edit-pen-a" d="M11.137422,19.8366694 L10.3766301,20.5975686 C9.65897929,21.3146059 8.73661799,21.7913594 7.73668236,21.9621144 L2.41113936,23.2953787 C2.29613532,23.3155906 2.17963032,23.3260549 2.06286575,23.3266602 C1.12371047,23.3266602 0.529447497,22.6063423 0.7035843,21.5892738 L2.03835135,16.2629798 C2.20788097,15.2659221 2.68354413,14.346374 3.39932345,13.6319596 L3.39932345,13.626887 L11.5626201,5.46243916 L18.5365454,12.437348 L11.137422,19.8366694 Z M21.9212239,9.05388312 L21.160432,9.81478226 L14.1865067,2.83987345 L14.9472985,2.07897431 C16.879286,0.189701275 19.9716032,0.20709528 21.8822211,2.11798262 C23.792839,4.02886996 23.8102305,7.12162323 21.9212239,9.05388312 Z"/>
  </defs>
  <use fill="#222" fill-rule="evenodd" xlink:href="#edit-pen-a"/>
</svg>
