<svg xmlns="http://www.w3.org/2000/svg" xmlns:xlink="http://www.w3.org/1999/xlink" width="24" height="24" viewBox="0 0 24 24">
  <defs>
    <path id="education-a" d="M20.2506571,0.209733423 L5.29245311,0.209733423 C3.7507467,0.209733423 2.50094672,1.4595334 2.50094672,3.00123981 L2.50094672,8.0822016 L2.50094672,8.0822016 L2.50094672,20.9987602 C2.50064367,22.5189601 3.71682038,23.759914 5.2367173,23.7902666 L5.2367173,23.7902666 L20.2506571,23.7902666 C20.9390453,23.7893239 21.497058,23.2318863 21.4987104,22.5434995 L21.4987104,22.0654578 L5.74348439,22.0654578 C4.94386185,22.0654577 4.29563972,21.4172356 4.29563972,20.617613 C4.29563972,19.8179905 4.94386185,19.1697683 5.74348439,19.1697683 L20.2506571,19.1697683 C20.9390453,19.1688257 21.497058,18.611388 21.4987104,17.9230012 L21.4987104,2.39629195 L21.4987104,2.39629195 L21.4987104,1.45650052 C21.497058,0.76811373 20.9390453,0.210676055 20.2506571,0.209733423 L20.2506571,0.209733423 Z M7.23591777,15.4093164 C7.21249459,15.88892 6.81681728,16.2657446 6.33664199,16.2657446 C5.85646669,16.2657446 5.46078938,15.88892 5.4373662,15.4093164 L5.4373662,3.87629196 C5.42116371,3.54453632 5.58893299,3.23080675 5.87384482,3.06007429 C6.15875665,2.88934183 6.51452732,2.88934183 6.79943915,3.06007429 C7.08435099,3.23080675 7.25212026,3.54453632 7.23591777,3.87629196 L7.23591777,15.4093164 L7.23591777,15.4093164 Z"/>
  </defs>
  <use fill="#222" fill-rule="evenodd" xlink:href="#education-a"/>
</svg>
