<svg xmlns="http://www.w3.org/2000/svg" xmlns:xlink="http://www.w3.org/1999/xlink" width="24" height="24" viewBox="0 0 24 24">
  <defs>
    <path id="email-a" d="M3.50331429,3.49988571 L20.496,3.49988571 L18.7097143,5.28582857 L18.6915429,5.26765714 L16.9241143,7.03542857 L16.9422857,7.0536 L13.0601143,10.9371429 C12.474492,11.5226194 11.5251652,11.5226194 10.9395429,10.9371429 L3.50331429,3.49988571 Z M20.4586286,7.03405714 L23.2738286,4.21714286 C23.4206993,4.45150475 23.4990813,4.72227906 23.5001143,4.99885714 L23.5001143,19.0011429 C23.4978539,19.8280638 22.8280638,20.4978539 22.0011429,20.5001143 L1.99885714,20.5001143 C1.17153452,20.4984189 0.50111998,19.8284641 0.498857143,19.0011429 L0.498857143,4.9968 C0.500079367,4.72094196 0.578334124,4.45090962 0.7248,4.21714286 L9.87908571,13.3714286 C10.4416312,13.9339782 11.2046091,14.2500156 12.0001714,14.2500156 C12.7957338,14.2500156 13.5587117,13.9339782 14.1212571,13.3714286 L18.6905143,8.80182857 L20.4586286,7.03405714 Z"/>
  </defs>
  <use fill="#222" fill-rule="evenodd" xlink:href="#email-a"/>
</svg>
