<svg xmlns="http://www.w3.org/2000/svg" xmlns:xlink="http://www.w3.org/1999/xlink" width="24" height="24" viewBox="0 0 24 24">
  <defs>
    <path id="end-user-device-a" d="M20.2285955,1.6390506 L20.2285955,22.3609494 C20.2278552,23.149244 19.5895922,23.7884108 18.8012995,23.7902666 L5.19903737,23.7902666 C4.41068991,23.7884113 3.77233025,23.1492985 3.77140452,22.3609494 L3.77140452,1.6390506 C3.77233025,0.850701493 4.41068991,0.211588693 5.19903737,0.209733423 L18.8012995,0.209733423 C19.5895922,0.211589197 20.2278552,0.85075602 20.2285955,1.6390506 Z M18.7548122,18.1912374 L18.7548122,1.87721398 C18.7549942,1.82561111 18.7345063,1.7760839 18.6979225,1.73969 C18.6613387,1.7032961 18.6117055,1.68306613 18.5601043,1.68351675 L5.43720076,1.68351675 C5.3299823,1.6848117 5.24406502,1.7726885 5.24518785,1.8799089 L5.24518785,18.1929217 C5.24574446,18.3000065 5.33280959,18.3864691 5.43989568,18.3862821 L18.5627992,18.3862821 C18.614228,18.3860167 18.6634244,18.3652384 18.699473,18.3285574 C18.7355215,18.2918765 18.7554411,18.2423262 18.7548122,18.1909005 L18.7548122,18.1912374 Z M12,19.8600654 C11.3216789,19.8600654 10.7717911,20.4099533 10.7717911,21.0882743 C10.7717911,21.7665954 11.3216789,22.3164833 12,22.3164833 C12.6783211,22.3164833 13.2282089,21.7665954 13.2282089,21.0882743 C13.2282089,20.4099533 12.6783211,19.8600654 12,19.8600654 Z M12,6.68461096 C11.1377524,6.68411325 10.375306,7.2442302 10.117996,8.06718993 C9.86068598,8.89014966 10.1682704,9.78482689 10.8772298,10.2755893 C8.62798376,10.767075 8.4966065,12.0121271 8.46292003,12.7535665 C8.45618273,12.9118929 8.57273794,13.100874 8.72634827,13.1412978 C9.11441647,13.2423572 9.89594271,13.384851 11.9996631,13.384851 C14.1033836,13.384851 14.8838992,13.2426941 15.2726411,13.1412978 C15.4255777,13.100874 15.5421329,12.9118929 15.5353956,12.7535665 C15.5017092,12.012464 15.3713425,10.7660644 13.1214228,10.2755893 C13.8303411,9.78511403 14.1381037,8.89073605 13.8811118,8.06788345 C13.6241199,7.24503085 12.8620506,6.68478087 12,6.68494783 L12,6.68461096 Z M15.4451159,8.6562804 C15.4451695,8.96659824 15.4032426,9.27549709 15.3204759,9.57457373 C16.3826105,10.2587461 16.9488802,11.3006688 17.0088421,12.6905728 C17.0452235,13.5458724 16.4604263,14.3519897 15.6468979,14.5662357 C15.1277893,14.7009816 14.2445299,14.8579606 12.0006737,14.8579606 C9.75681757,14.8579606 8.87221071,14.7019922 8.35310212,14.5658989 C7.54058432,14.3530003 6.95511336,13.5465461 6.99149476,12.6902359 C7.05078296,11.3010056 7.61705262,10.2584092 8.67986093,9.5739 C8.32207473,8.28017345 8.74827973,6.89643446 9.77196625,6.02821487 C10.7956528,5.15999527 12.2304059,4.9653992 13.4483698,5.52958295 C14.6663337,6.09376671 15.4457153,7.31399157 15.4454528,8.6562804 L15.4451159,8.6562804 Z"/>
  </defs>
  <use fill="#222" fill-rule="evenodd" xlink:href="#end-user-device-a"/>
</svg>
