<svg xmlns="http://www.w3.org/2000/svg" xmlns:xlink="http://www.w3.org/1999/xlink" width="24" height="24" viewBox="0 0 24 24">
  <defs>
    <path id="end-user-a" d="M11.9999768,4.06977129 C14.1278531,4.068316 16.0095327,5.45052132 16.6445018,7.48145061 C17.279471,9.51237991 16.5202324,11.7202672 14.7704831,12.9311499 C20.3230636,14.1434633 20.9855173,16.5418696 21.0645644,18.371522 C21.0811451,18.7625162 20.7946473,19.2294728 20.4156066,19.3277997 C19.4577865,19.5780515 17.1908684,19.9301005 11.9999768,19.9301005 C6.80908524,19.9301005 4.54332392,19.5784371 3.58550379,19.3262574 C3.20723424,19.2275448 2.91919413,18.7605882 2.93577475,18.3699796 C3.01482191,16.5403272 3.6776612,14.1415353 9.2294705,12.9296075 C7.48060258,11.7185493 6.72200274,9.51125204 7.35688614,7.48095056 C7.99176955,5.45064909 9.87272506,4.06875136 11.9999768,4.06977129 L11.9999768,4.06977129 Z M11.9999768,1.25800623 C7.76651978,1.25800623 4.3219919,4.70176292 4.3219919,8.93483434 C4.32218115,9.79935564 4.46872139,10.6576069 4.75540165,11.4732119 C1.78168632,12.927294 0.260510628,15.1668347 0.127094458,18.2504449 C0.0542168396,19.9883255 1.23529698,21.6205528 2.87485061,22.0489498 C4.63393895,22.5085801 7.70405325,22.7430223 11.9995912,22.7430223 C16.2951292,22.7430223 19.3667858,22.5116648 21.1262598,22.0489498 C22.7654278,21.6201672 23.946508,19.9883255 23.8732447,18.2535297 C23.7402142,15.1676059 22.2182673,12.925366 19.2437808,11.4732119 C19.5306053,10.6576443 19.6771498,9.79936824 19.6771905,8.93483434 C19.6771905,4.70176292 16.2330482,1.25800623 11.9999768,1.25800623 L11.9999768,1.25800623 Z"/>
  </defs>
  <use fill="#222" fill-rule="evenodd" xlink:href="#end-user-a"/>
</svg>
