<svg xmlns="http://www.w3.org/2000/svg" xmlns:xlink="http://www.w3.org/1999/xlink" width="24" height="24" viewBox="0 0 24 24">
  <defs>
    <path id="entertainment-a" d="M22.1158264,9.15184336 L10.5433236,9.15184336 L21.6066968,7.19952208 C22.363794,7.06594108 22.8706271,6.34567358 22.7407271,5.58793612 L22.0523496,1.67408451 C21.9162819,0.916711295 21.1939037,0.411560968 20.4358303,0.543672072 L1.64177792,3.85761904 C0.883345831,3.99279492 0.488671718,4.61407775 0.488671718,5.47216505 L0.488671718,22.1517508 C0.490483096,22.9214473 1.11447554,23.5447044 1.8841736,23.5456082 L22.1158264,23.5456082 C22.8855245,23.5447044 23.5095169,22.9214473 23.5113283,22.1517508 L23.5113283,10.5453719 C23.5095164,9.77572884 22.8854712,9.15256611 22.1158264,9.15184336 L22.1158264,9.15184336 Z M17.3281005,2.99328273 L20.1618606,2.49336219 L19.0080967,5.66456868 L16.1736787,6.16383143 L17.3281005,2.99328273 Z M4.05126337,5.33435801 L6.88568129,4.83443747 L5.73158841,8.00531506 L2.89717049,8.50490671 L4.05126337,5.33435801 Z M4.90375946,13.9931791 L3.21652763,11.0702884 L6.0943597,11.0702884 L7.78159153,13.9931791 L4.90375946,13.9931791 Z M10.6640281,4.1684249 L13.498446,3.66883325 L12.3443532,6.83773748 L9.50993525,7.33765802 L10.6640281,4.1684249 Z M11.6711049,13.9931791 L9.98387308,11.0702884 L12.8617051,11.0702884 L14.548937,13.9931791 L11.6711049,13.9931791 Z M18.386156,13.9931791 L16.6989242,11.0702884 L19.5767563,11.0702884 L21.2639881,13.9931791 L18.386156,13.9931791 L18.386156,13.9931791 Z M2.64721022,21.1463185 C2.25585805,21.1379506 1.94297129,20.8183021 1.94297129,20.4268605 C1.94297129,20.0354189 2.25585805,19.7157704 2.64721022,19.7074025 L21.3527898,19.7074025 C21.744142,19.7157704 22.0570287,20.0354189 22.0570287,20.4268605 C22.0570287,20.8183021 21.744142,21.1379506 21.3527898,21.1463185 L2.64721022,21.1463185 L2.64721022,21.1463185 Z"/>
  </defs>
  <use fill="#222" fill-rule="evenodd" xlink:href="#entertainment-a"/>
</svg>
