<svg xmlns="http://www.w3.org/2000/svg" xmlns:xlink="http://www.w3.org/1999/xlink" width="24" height="24" viewBox="0 0 24 24">
  <defs>
    <path id="error-outline-a" d="M12.0410884,23.5334041 C7.35968423,23.5330664 3.13939115,20.7129703 1.34794103,16.3879991 C-0.443509101,12.0630279 0.546638184,7.08481172 3.85672197,3.77446771 C8.3899052,-0.667943274 15.6551198,-0.631250194 20.1431978,3.85672281 C24.6312759,8.34469581 24.6679698,15.6097403 20.2254549,20.1428174 C18.0597794,22.3208686 15.1126041,23.5418126 12.0410884,23.5334041 Z M12,5.07993164 C11.3630253,5.07993164 10.8466553,5.59630166 10.8466553,6.23327637 L10.8466553,13.2474527 C10.8466553,13.8844274 11.3630253,14.4007974 12,14.4007974 C12.6369747,14.4007974 13.1533447,13.8844274 13.1533447,13.2474527 L13.1533447,6.23327637 C13.1533447,5.59630166 12.6369747,5.07993164 12,5.07993164 Z M12,18.343396 C12.6369747,18.343396 13.1533447,17.827026 13.1533447,17.1900513 C13.1533447,16.5530766 12.6369747,16.0367065 12,16.0367065 C11.3630253,16.0367065 10.8466553,16.5530766 10.8466553,17.1900513 C10.8466553,17.827026 11.3630253,18.343396 12,18.343396 Z M12,21.4587402 C17.223918,21.4587402 21.4587402,17.223918 21.4587402,12 C21.4587402,6.77608202 17.223918,2.54125977 12,2.54125977 C6.77608202,2.54125977 2.54125977,6.77608202 2.54125977,12 C2.54125977,17.223918 6.77608202,21.4587402 12,21.4587402 Z"/>
  </defs>
  <use fill="#222" fill-rule="evenodd" xlink:href="#error-outline-a"/>
</svg>
