<svg xmlns="http://www.w3.org/2000/svg" xmlns:xlink="http://www.w3.org/1999/xlink" width="24" height="24" viewBox="0 0 24 24">
  <defs>
    <path id="error-fill-a" d="M4.00247619,4.0031619 C8.32830476,-0.321980952 15.3397333,-0.321980952 19.6648762,4.0031619 C23.990019,8.32830476 23.9883048,15.3393905 19.6648762,19.6641905 C15.3414476,23.9889905 8.32830476,23.9889905 4.00247619,19.6641905 C-0.323352381,15.3393905 -0.321980952,8.32830476 4.00247619,4.0031619 Z M11.3648576,4.57500732 C11.654328,4.31723883 12.0123816,4.31723883 12.301852,4.57500732 C12.5913224,4.83277581 12.7673382,5.30835558 12.7624697,5.81955725 L12.7624697,12.2359383 C12.7673382,12.74714 12.5913224,13.2227198 12.301852,13.4804883 C12.0123816,13.7382568 11.654328,13.7382568 11.3648576,13.4804883 C11.0753872,13.2227198 10.8993714,12.74714 10.9042398,12.2359383 L10.9042398,5.81955725 C10.8993714,5.30835558 11.0753872,4.83277581 11.3648576,4.57500732 Z M12.8333547,16.9260468 C12.8333547,17.3305031 12.5897161,17.6951341 12.2160472,17.8499128 C11.8423783,18.0046916 11.4122667,17.9191371 11.1262729,17.6331432 C10.8402791,17.3471494 10.7547246,16.9170379 10.9095034,16.543369 C11.0642821,16.1697 11.428913,15.9260614 11.8333694,15.9260614 C12.0985991,15.9260055 12.3529819,16.0313428 12.5405276,16.2188886 C12.7280734,16.4064343 12.8334107,16.660817 12.8333547,16.9260468 Z"/>
  </defs>
  <use fill="#222" fill-rule="evenodd" xlink:href="#error-fill-a"/>
</svg>
