<svg xmlns="http://www.w3.org/2000/svg" xmlns:xlink="http://www.w3.org/1999/xlink" width="24" height="24" viewBox="0 0 24 24">
  <defs>
    <path id="external-a" d="M10.181897,0.209733423 C10.9970166,0.209733423 11.4390215,0.924682109 11.4390215,1.61244766 C11.4390215,2.30021321 10.9970166,3.10868882 10.181897,3.10868882 L4.18851145,3.10868882 C3.59097981,3.10868882 3.19209716,3.50668965 3.19209716,4.13982228 L3.19209716,19.8601777 C3.19209716,20.597431 3.49490162,20.8329114 4.18851145,20.8329114 L19.8106147,20.8329114 C20.4538882,20.8329114 20.8044937,20.5435775 20.8044937,19.8601777 L20.8044937,14.9966928 C20.8044937,14.1242332 21.5482564,13.7191998 22.2360219,13.7191998 C22.9237875,13.7191998 23.7407035,14.1802318 23.7407035,14.9966928 L23.7407035,21.0883305 C23.7407035,22.5621138 22.5125508,23.7902666 20.9896413,23.7902666 L2.96035868,23.7902666 C1.43744925,23.7902666 0.209296478,22.5621138 0.209296478,21.0883305 L0.209296478,2.91166951 C0.209296478,1.43788619 1.43744925,0.209733423 2.96035868,0.209733423 L10.181897,0.209733423 Z M13.0458183,13.3196398 C12.5176712,13.8477869 11.6607717,13.8481696 11.1322419,13.3196398 C10.6037121,12.79111 10.6040948,11.9342105 11.1322419,11.4060634 L14.6792471,7.85905824 L12.8062385,5.98604967 C12.5176712,5.69748235 12.4820787,5.38939655 12.6768807,5.19459447 C12.7457695,5.12570572 12.8441273,5.07097744 12.9704234,5.03653306 L20.5673216,3.13443813 C21.0652342,3.04756176 21.4024064,3.38473392 21.3162954,3.88341193 L19.4134351,11.4795448 C19.3789907,11.6050754 19.3242624,11.7034332 19.2553737,11.772322 C19.0605716,11.967124 18.7517204,11.9315315 18.4627703,11.6425815 L16.5928235,9.77263463 L13.0458183,13.3196398 Z"/>
  </defs>
  <use fill="#222" fill-rule="evenodd" xlink:href="#external-a"/>
</svg>
