<svg xmlns="http://www.w3.org/2000/svg" xmlns:xlink="http://www.w3.org/1999/xlink" width="24" height="24" viewBox="0 0 24 24">
  <defs>
    <path id="filter-a" d="M10.7860169,15.5432662 C11.4102785,13.6474085 13.1808596,12.3663221 15.1768504,12.3663221 C17.1728411,12.3663221 18.9434222,13.6474085 19.5676838,15.5432662 L22.107004,15.5432662 C22.9045787,15.5432662 23.5511408,16.1898283 23.5511408,16.9874031 C23.5511408,17.7849778 22.9045787,18.4315399 22.107004,18.4315399 L19.5680799,18.4315399 C18.9438183,20.3273976 17.1732372,21.6084841 15.1772465,21.6084841 C13.1812557,21.6084841 11.4106746,20.3273976 10.786413,18.4315399 L1.89265319,18.4315399 C1.09507845,18.4315399 0.448516368,17.7849778 0.448516368,16.9874031 C0.448516368,16.1898283 1.09507845,15.5432662 1.89265319,15.5432662 L10.7860169,15.5432662 L10.7860169,15.5432662 Z M15.1770484,18.720288 C16.1340944,18.720288 16.9099334,17.944449 16.9099334,16.9874031 C16.9099334,16.0303571 16.1340944,15.2545181 15.1770484,15.2545181 C14.2200025,15.2545181 13.4441634,16.0303571 13.4441634,16.9874031 C13.4441634,17.944449 14.2200025,18.720288 15.1770484,18.720288 L15.1770484,18.720288 Z M5.29861385,4.56846011 C5.92287548,2.67260237 7.69345654,1.39151594 9.68944731,1.39151594 C11.6854381,1.39151594 13.4560191,2.67260237 14.0802808,4.56846011 L22.1074,4.56846011 C22.9049748,4.56846011 23.5515369,5.21502219 23.5515369,6.01259693 C23.5515369,6.81017168 22.9049748,7.45673376 22.1074,7.45673376 L14.0802808,7.45673376 C13.4560191,9.3525915 11.6854381,10.6336779 9.68944731,10.6336779 C7.69345654,10.6336779 5.92287548,9.3525915 5.29861385,7.45673376 L1.89225711,7.45673376 C1.3763167,7.45673378 0.8995681,7.18148285 0.641597893,6.73466536 C0.383627686,6.28784786 0.383627686,5.737346 0.641597893,5.29052851 C0.8995681,4.84371101 1.3763167,4.56846009 1.89225711,4.56846011 L5.29861385,4.56846011 L5.29861385,4.56846011 Z M9.68964535,7.74548191 C10.6466913,7.74548191 11.4225303,6.96964288 11.4225303,6.01259693 C11.4225303,5.05555099 10.6466913,4.27971196 9.68964535,4.27971196 C8.73259941,4.27971196 7.95676038,5.05555099 7.95676038,6.01259693 C7.95676038,6.96964288 8.73259941,7.74548191 9.68964535,7.74548191 L9.68964535,7.74548191 Z"/>
  </defs>
  <use fill="#222" fill-rule="evenodd" xlink:href="#filter-a"/>
</svg>
