<svg xmlns="http://www.w3.org/2000/svg" xmlns:xlink="http://www.w3.org/1999/xlink" width="24" height="24" viewBox="0 0 24 24">
  <defs>
    <path id="final-notice-a" d="M19.0392779,23.5644031 C19.0435147,23.5646779 19.0477543,23.5649172 19.0519963,23.565121 L19.0911222,23.565121 L19.1302481,23.565121 C19.1664054,23.563384 19.2023923,23.5590655 19.237934,23.5521987 C19.2490616,23.550045 19.2601891,23.5478913 19.2709577,23.5450196 C19.2871106,23.5410712 19.3082888,23.534969 19.3190574,23.5317384 C19.329826,23.5285078 19.3405946,23.5249183 19.3510043,23.5209698 C19.3555447,23.519611 19.3599829,23.5179317 19.3642855,23.5159444 C19.3724218,23.5130728 19.3806777,23.5098422 19.3890533,23.5062527 L19.4181285,23.4933304 C19.4498488,23.4783357 19.48044,23.4610606 19.5096616,23.4416411 C19.5125724,23.4401025 19.5153359,23.4383002 19.5179175,23.4362568 C19.5233018,23.4326673 19.5290451,23.4290778 19.5344294,23.4247703 L19.5484285,23.4147196 C19.5595561,23.4064637 19.5717605,23.3960541 19.5807343,23.388875 C19.5897082,23.3816959 19.598323,23.3741579 19.606579,23.3666199 L19.6313467,23.342929 L22.9761704,19.9970397 C22.9882993,19.9863538 23.0001196,19.975252 23.011609,19.9637436 C23.0291977,19.945437 23.0453506,19.9282073 23.0607855,19.9095417 L23.0694004,19.8987731 C23.0705565,19.8976137 23.0715253,19.8962817 23.072272,19.8948246 C23.077776,19.8883634 23.0828013,19.8819023 23.0873481,19.8754411 C23.0995525,19.8560577 23.1121158,19.8388279 23.1232434,19.8201623 C23.1275508,19.8129833 23.1318583,19.8058042 23.1358068,19.7986252 C23.1440627,19.784267 23.1516007,19.7699089 23.1584208,19.7551918 C23.1605745,19.7512433 23.1623693,19.7469359 23.1641641,19.7429874 C23.1674007,19.736572 23.1702768,19.7299809 23.1727789,19.723245 C23.1735289,19.7218772 23.1741306,19.7204332 23.1745737,19.7189375 C23.1747294,19.7182281 23.1747294,19.7174933 23.1745737,19.7167838 C23.1781632,19.7081689 23.1821117,19.6974004 23.1846244,19.6909392 C23.1871371,19.684478 23.1900087,19.6755042 23.1914445,19.6715557 C23.1928803,19.6676072 23.1928803,19.6668893 23.195393,19.6597103 C23.1979057,19.6525312 23.1989825,19.6475059 23.2018541,19.638532 C23.2047258,19.6295582 23.2079564,19.615918 23.2090332,19.6119695 C23.2101101,19.608021 23.2119048,19.6040725 23.2119048,19.600483 C23.222305,19.5564031 23.2286727,19.5114684 23.2309294,19.4662345 L23.2309294,19.4274675 L23.2309294,19.423878 C23.2296156,19.4206983 23.2279286,19.4176859 23.225904,19.4149042 C23.2264466,19.40522 23.2264466,19.3955131 23.225904,19.385829 C23.2248272,19.3607023 23.2223145,19.3373703 23.2190839,19.3140383 C23.2172891,19.3021929 23.2154944,19.2903474 23.2129817,19.278143 C23.2035475,19.22988 23.1894833,19.1826387 23.1709842,19.1370744 C23.1673946,19.1284595 23.1638051,19.1198447 23.1598566,19.1112298 C23.156985,19.1044097 23.1533955,19.0972306 23.1501649,19.0907695 C23.1426269,19.0749755 23.1343709,19.0595405 23.1253971,19.0441055 C23.1221665,19.0380033 23.118577,19.0322601 23.1149875,19.0265168 C23.0985636,18.9994754 23.0803353,18.973572 23.0604266,18.9489829 C23.0546833,18.9414449 23.0485811,18.9342659 23.04212,18.9270868 C23.0302745,18.9130876 23.0173522,18.8990884 23.0040709,18.8858072 C22.9815181,18.8630103 22.9575396,18.8416694 22.9322803,18.8219135 L22.9107431,18.8057606 C22.9024872,18.7996584 22.8942313,18.7942741 22.8852574,18.7881719 C22.8762836,18.7820697 22.8673098,18.7766854 22.8583359,18.7713011 C22.852319,18.7673676 22.8460875,18.7637725 22.8396704,18.7605325 C22.8317734,18.7558661 22.8231585,18.7515587 22.8152616,18.7472512 C22.8073646,18.7429438 22.7991087,18.7389953 22.7908527,18.7354058 C22.7812804,18.730467 22.7714555,18.7260338 22.7614186,18.7221245 C22.7545148,18.7188842 22.7474457,18.7160087 22.7402403,18.7135096 C22.7244464,18.7070485 22.7057808,18.7009463 22.6885511,18.695562 L22.6759877,18.6919725 C22.6634244,18.6883829 22.650861,18.6851523 22.6379387,18.6822807 L22.627529,18.680127 C22.617348,18.6775761 22.607045,18.6755394 22.5966591,18.6740248 L22.5858905,18.6740248 C22.5783524,18.6707942 22.5708144,18.6736658 22.5632764,18.6707942 C22.5557384,18.6679226 22.5478414,18.6679226 22.5403034,18.6679226 L22.5044081,18.6654099 L22.4656411,18.6654099 L21.7111215,18.6654099 L21.7111215,13.005077 L15.4100572,13.005077 L15.4100572,22.0420826 L18.3297824,22.0420826 L18.3272698,22.0420826 L18.3272698,22.8066529 L18.3272698,22.8457788 C18.3290068,22.8819361 18.3333253,22.9179231 18.3401921,22.9534648 C18.3423458,22.9645923 18.3444995,22.9757199 18.3473711,22.9864885 C18.3509607,23.0022824 18.3552681,23.0180764 18.3602935,23.0338703 C18.3628061,23.0428441 18.3660367,23.051818 18.3689083,23.0600739 C18.37178,23.0683298 18.3742926,23.0740731 18.3782411,23.0848416 C18.3821896,23.0956102 18.3890097,23.1106863 18.3915224,23.1167885 C18.3940351,23.1228907 18.3965477,23.128275 18.3997783,23.1350951 C18.4030089,23.1419152 18.4062395,23.1487353 18.409829,23.1551965 L18.4162902,23.1670419 C18.4241871,23.1824769 18.433161,23.1979119 18.4428527,23.2129879 C18.4468012,23.2194491 18.4507497,23.2259103 18.4550571,23.2320125 C18.4825236,23.2732108 18.5140279,23.3115691 18.5491028,23.3465185 C18.5573588,23.3547744 18.5656147,23.3626714 18.5738706,23.3702094 C18.5821265,23.3777475 18.5907414,23.3852855 18.5997152,23.3924645 C18.6102445,23.4013187 18.6210131,23.4099336 18.632021,23.4183092 L18.6388411,23.4233345 C18.6467381,23.4290778 18.6546351,23.434821 18.6625321,23.4398464 L18.6790439,23.450615 C18.6800914,23.4509705 18.681227,23.4509705 18.6822745,23.450615 C18.6901714,23.4559992 18.6987863,23.4610246 18.7070422,23.4660499 L18.7336048,23.480767 C18.7523741,23.4908732 18.7716649,23.4999794 18.7913962,23.5080475 L18.8036007,23.5130728 L18.8179588,23.5184571 C18.8193809,23.5187377 18.8208441,23.5187377 18.8222662,23.5184571 C18.8351885,23.5234825 18.8481109,23.5277899 18.8613921,23.5317384 L18.8753913,23.5360458 C18.8883136,23.5392764 18.900518,23.542148 18.9112866,23.5450196 C18.9220552,23.5478913 18.9331828,23.550045 18.9443103,23.5521987 C18.9756823,23.5582599 19.0074012,23.5623356 19.0392779,23.5644031 L14.6487174,23.5644031 C14.2287428,23.5644043 13.8880083,23.2244727 13.8870188,22.8044992 L13.8870188,21.3119718 L4.48782935,21.3119718 C3.04411961,21.3119718 1.85742035,20.7301087 1.23104702,19.7175017 C0.604673697,18.7048948 0.615442293,17.384306 1.26155804,16.0920745 L8.08310455,2.46298062 C8.10141116,2.42995693 8.11756406,2.39729219 8.13730648,2.36606326 C8.89649249,1.13844334 10.0146317,0.434536122 11.2056384,0.434536122 C12.3966451,0.434536122 13.5147843,1.13880229 14.2736113,2.36606326 C14.2929948,2.39765114 14.3109425,2.42995693 14.3274543,2.46298062 L18.8412907,11.4806028 L22.4688717,11.4806028 C22.8896044,11.4806027 23.2307312,11.8215688 23.2309294,12.2423015 L23.2309294,19.4274675 L23.2309294,19.4662345 C23.2286727,19.5114684 23.222305,19.5564031 23.2119048,19.600483 C23.2119048,19.6040725 23.2101101,19.608021 23.2090332,19.6119695 C23.2079564,19.615918 23.2047258,19.6295582 23.2018541,19.638532 C23.1989825,19.6475059 23.1979057,19.6525312 23.195393,19.6597103 C23.1928803,19.6668893 23.1928803,19.6676072 23.1914445,19.6715557 C23.1900087,19.6755042 23.1871371,19.684478 23.1846244,19.6909392 C23.1821117,19.6974004 23.1781632,19.7081689 23.1745737,19.7167838 C23.1741306,19.7182795 23.1735289,19.7197235 23.1727789,19.7210913 C23.1702768,19.7278272 23.1674007,19.7344183 23.1641641,19.7408337 C23.1623693,19.7447822 23.1605745,19.7490896 23.1584208,19.7530381 C23.1516007,19.7677552 23.1440627,19.7821133 23.1358068,19.7964714 C23.1318583,19.8036505 23.1275508,19.8108296 23.1232434,19.8180086 C23.1121158,19.8366742 23.0995525,19.8539039 23.0873481,19.8732874 C23.0828013,19.8797486 23.077776,19.8862097 23.072272,19.8926709 C23.0715253,19.8941279 23.0705565,19.89546 23.0694004,19.8966194 L23.0607855,19.907388 C23.0453506,19.9260535 23.0291977,19.9432833 23.011609,19.9615899 C22.7938044,20.1795454 22.4661394,20.2448089 22.1814461,20.1269397 C21.8967528,20.0090705 21.7111159,19.731289 21.7111215,19.4231601 L21.7111215,18.6654099 Z M16.0726848,11.4806028 L14.6487174,11.4806028 C14.2280429,11.4806028 13.8870188,11.8216269 13.8870188,12.2423015 L13.8870188,18.8351948 L4.48782935,18.8351948 C3.92965714,18.8351948 3.49963121,18.6779733 3.33702541,18.4152195 C3.17441962,18.1524658 3.22610888,17.6973132 3.47558135,17.1980093 L10.2694885,3.62527107 C10.3927433,3.42435269 10.5494753,3.24601081 10.732897,3.09796883 C10.8933491,2.97556579 11.0559549,2.90880049 11.2052794,2.90880049 C11.5053643,2.90880049 11.8513952,3.17514376 12.1407115,3.62383526 L16.0726848,11.4806028 Z M19.8542567,20.1888073 L20.6299545,20.1888073 L20.6321082,20.1866536 L19.8542567,20.1866536 L19.8542567,20.1888073 Z M12.4005936,16.2378095 C12.4007388,16.7206083 12.1100003,17.1559416 11.6639801,17.3407678 C11.2179599,17.525594 10.704519,17.4235043 10.3631286,17.082114 C10.0217383,16.7407237 9.91964864,16.2272827 10.1044748,15.7812625 C10.289301,15.3352423 10.7246343,15.0445039 11.2074332,15.044649 C11.5239082,15.0445538 11.8274485,15.1702308 12.0512302,15.3940125 C12.2750118,15.6177941 12.4006888,15.9213345 12.4005936,16.2378095 Z M12.4005936,12.6407395 L12.4005936,7.23669916 C12.3893026,6.58570335 11.8583474,6.06387726 11.2072537,6.06387726 C10.55616,6.06387726 10.0252048,6.58570335 10.0139138,7.23669916 L10.0139138,12.6407395 C10.0064337,13.0720118 10.2322329,13.4737637 10.6045289,13.6915881 C10.9768248,13.9094124 11.4376826,13.9094124 11.8099785,13.6915881 C12.1822745,13.4737637 12.4080736,13.0720118 12.4005936,12.6407395 Z M20.3435099,16.5536883 L19.6363721,15.8479863 L20.342074,15.1419254 C20.425498,15.058888 20.4883169,14.9574682 20.5254991,14.845789 C20.6380283,14.5106206 20.5051306,14.1420799 20.2045886,13.9558671 C19.9040467,13.7696543 19.5148778,13.8147278 19.2648555,14.0647068 L18.5591535,14.7707678 L17.8530926,14.0647068 C17.6624327,13.8641428 17.3779955,13.7827601 17.1101042,13.8521244 C16.8422129,13.9214886 16.6330148,14.1306867 16.5636506,14.398578 C16.4942863,14.6664693 16.575669,14.9509065 16.776233,15.1415664 L17.4822939,15.8476273 L16.776233,16.5533293 C16.575669,16.7439892 16.4942863,17.0284265 16.5636506,17.2963177 C16.6330148,17.564209 16.8422129,17.7734071 17.1101042,17.8427714 C17.3779955,17.9121356 17.6624327,17.8307529 17.8530926,17.6301889 L18.5591535,16.9244869 L19.2648555,17.6301889 C19.5642125,17.9149545 20.0360127,17.9091413 20.3282625,17.6170863 C20.6205123,17.3250312 20.62664,16.8532351 20.342074,16.5536883 L20.3435099,16.5536883 Z"/>
  </defs>
  <use fill="#222" fill-rule="evenodd" xlink:href="#final-notice-a"/>
</svg>
