<svg xmlns="http://www.w3.org/2000/svg" xmlns:xlink="http://www.w3.org/1999/xlink" width="24" height="24" viewBox="0 0 24 24">
  <defs>
    <path id="fingerprint-a" d="M11.6178386,15.4411988 C12.6757872,13.046625 12.6878295,10.8137316 12.6878295,10.7199076 C12.6878295,10.2132045 12.2717118,9.80252287 11.7583016,9.80252287 C11.2448914,9.80252287 10.828592,10.2132045 10.828592,10.7199076 C10.828592,10.7388787 10.8183219,12.6602067 9.9135148,14.7080983 C8.7340073,17.3783136 6.63924087,18.9417022 3.68729112,19.3547608 C3.17906135,19.4260258 2.82538178,19.8903018 2.89759004,20.3921165 C2.96343633,20.8499343 3.36128608,21.1806951 3.81675702,21.1806951 C3.86010924,21.1806951 3.90427942,21.1777799 3.94849505,21.1715011 C7.53127864,20.6698658 10.1834891,18.68853 11.6178386,15.4411988 M20.503998,19.2576629 C18.0835901,19.2576629 17.5538206,18.4006896 17.4819304,18.2564555 C17.4214463,17.8403472 17.0854439,17.5661409 16.6569659,17.5264496 C16.2166273,17.4867134 15.8209588,17.8060826 15.6903114,18.2199933 C15.6844493,18.2388299 15.0716562,20.1258484 13.0974035,21.46867 C12.6746057,21.7562862 12.5681338,22.3274821 12.8594207,22.7448014 C13.0397823,23.0030415 13.3303875,23.1416695 13.6258097,23.1416695 C13.8075346,23.1416695 13.9914861,23.0891065 14.1524437,22.9796303 C15.4621442,22.0887064 16.2958792,21.0160547 16.8002009,20.1735228 C17.5111954,20.6675337 18.6592567,21.0926118 20.503998,21.0926118 C21.0174537,21.0926118 21.4335259,20.6819302 21.4335259,20.1750477 C21.4335259,19.6683445 21.0174537,19.2576629 20.503998,19.2576629 M20.8757638,15.9799689 C20.2421579,15.9799689 19.8133163,15.8725558 19.6009632,15.6611379 C19.1635329,15.2253409 19.1753934,13.9461599 19.1893443,12.4647102 C19.1941612,11.9379596 19.1996598,11.3407961 19.1872994,10.7107136 C19.1026853,6.47271444 15.9783265,3.39679578 11.7583016,3.39679578 C7.66192604,3.39679578 4.32916751,6.68583653 4.32916751,10.7288774 L4.33348456,10.8164674 C4.33452974,10.8257959 4.39796757,11.7667712 3.83447963,12.37869 C3.45912395,12.7864564 2.84701245,12.9931651 2.01532242,12.9931651 C1.50173043,12.9931651 1.0856582,13.4038018 1.0856582,13.9105498 C1.0856582,14.417253 1.50173043,14.8279346 2.01532242,14.8279346 C3.39309589,14.8279346 4.46808547,14.4191366 5.21052627,13.6125736 C6.24720776,12.4864619 6.21176255,11.0263603 6.1885414,10.6940746 C6.20730918,7.67874688 8.69874386,5.2315653 11.7583016,5.2315653 C14.9731367,5.2315653 17.2635788,7.49953058 17.3282436,10.7468618 C17.3402405,11.3504835 17.3351054,11.908449 17.3299704,12.4478918 C17.3117025,14.4175669 17.2972972,15.9736901 18.2800838,16.9525179 C18.8626576,17.5328629 19.7117067,17.8149178 20.8757638,17.8149178 C21.389174,17.8149178 21.8054734,17.4042362 21.8054734,16.8973537 C21.8054734,16.3906505 21.389174,15.9799689 20.8757638,15.9799689 M16.0928417,10.7288774 C16.0928417,8.36991366 14.1483085,6.45064877 11.7583016,6.45064877 C9.368113,6.45064877 7.42362517,8.36991366 7.42362517,10.7288774 C7.42362517,13.5682628 5.42669661,15.8640793 2.67523951,16.1875297 C2.16541925,16.2475825 1.80142422,16.7040997 1.8621355,17.2070804 C1.91834796,17.6733746 2.31983312,18.0161998 2.78393815,18.0161998 C2.8207012,18.0161998 2.85782778,18.0139574 2.89518158,18.0095622 C4.67598525,17.8001625 6.30255682,16.9455663 7.47538427,15.6031034 C8.64098634,14.2689376 9.28286273,12.5380382 9.28286273,10.7288774 C9.28286273,9.38166056 10.3932521,8.28559768 11.7583016,8.28559768 C13.1232148,8.28559768 14.2336042,9.38166056 14.2336042,10.7288774 C14.2336042,13.0355473 13.4667153,15.4966769 12.1292039,17.4812867 C10.5151745,19.8765781 8.14098168,21.4893454 5.26369409,22.1452161 C4.76332588,22.2592669 4.45140804,22.7520669 4.56696851,23.2455396 C4.66635143,23.669945 5.04893247,23.9569332 5.47191197,23.9569332 C5.54139367,23.9569332 5.61169334,23.9490847 5.68203844,23.9331633 C9.03061099,23.1698795 11.7954736,21.2901265 13.6772053,18.4974288 C15.2124827,16.2194173 16.0928417,13.3878805 16.0928417,10.7288774 M22.2476751,10.7288774 C22.2476751,12.5499232 22.2093216,13.6425775 22.2076402,13.6882337 C22.1899176,14.1834107 21.7774354,14.5731927 21.2792938,14.5731927 C21.268115,14.5731927 21.2569815,14.5730133 21.2458027,14.57252 C20.7327105,14.5547149 20.3315435,14.1297714 20.3495842,13.623427 C20.3499477,13.6125736 20.388483,12.5142683 20.388483,10.7288774 C20.388483,6.1117703 16.4363876,2.21130415 11.7583016,2.21130415 C9.43723116,2.21130415 7.23449317,3.10034439 5.55566264,4.71450204 C3.87196975,6.33323429 2.94485032,8.46902979 2.94485032,10.7288774 C2.94485032,11.2355806 2.52877809,11.6462622 2.01532242,11.6462622 C1.50173043,11.6462622 1.0856582,11.2355806 1.0856582,10.7288774 C1.0856582,7.96977155 2.21236143,5.3671436 4.25832254,3.4002043 C6.28624294,1.4502179 8.94981409,0.37640009 11.7583016,0.37640009 C14.5460219,0.37640009 17.1811914,1.47344964 19.1788471,3.46568373 C21.1579167,5.43926067 22.2476751,8.01865688 22.2476751,10.7288774"/>
  </defs>
  <use fill="#222" fill-rule="evenodd" xlink:href="#fingerprint-a"/>
</svg>
