<svg xmlns="http://www.w3.org/2000/svg" xmlns:xlink="http://www.w3.org/1999/xlink" width="24" height="24" viewBox="0 0 24 24">
  <defs>
    <path id="focus-a" d="M17.2167636,17.3009812 C16.1058941,18.4118507 14.6832702,19.119849 13.187882,19.3702926 L13.187882,18.1050922 C13.187882,17.4293467 12.6400941,16.8815928 11.9643826,16.8815928 C11.288671,16.8815928 10.7408831,17.4293467 10.7408831,18.1050922 L10.7408831,19.3704625 C9.21150887,19.1202229 7.81828289,18.4123945 6.70765128,17.3017629 C5.57112228,16.1647581 4.8786216,14.7737752 4.63409165,13.278387 L5.89494179,13.278387 C6.57061935,13.278387 7.11844121,12.7305651 7.11844121,12.0548875 C7.11844121,11.379176 6.57068732,10.8313881 5.89494179,10.8313881 L4.63409165,10.8313881 C4.87858762,9.36998603 5.57095235,7.93060693 6.70727744,6.79387401 C7.81814694,5.68286856 9.21150887,4.95991634 10.7408831,4.70964274 L10.7408831,5.97494506 C10.7408831,6.6506566 11.288671,7.19844448 11.9643826,7.19844448 C12.6400941,7.19844448 13.187882,6.6506566 13.187882,5.97494506 L13.187882,4.70964274 C14.6832702,4.96022222 16.1054863,5.6830045 17.2161179,6.7936361 C18.3528848,7.93050497 19.0412052,9.36998603 19.2859391,10.8313881 L18.0250549,10.8313881 C17.3493774,10.8313881 16.8015555,11.379176 16.8015555,12.0548875 C16.8015555,12.7305991 17.3493774,13.278387 18.0250549,13.278387 L19.2859391,13.278387 C19.0414431,14.7737752 18.3533266,16.1642143 17.2167636,17.3009812 M22.5916646,10.8313881 L21.7566262,10.8313881 C21.495715,8.72425022 20.5607235,6.67777751 18.946486,5.063404 C17.372318,3.48923605 15.3629921,2.50431901 13.187882,2.2371883 L13.187882,1.4083694 C13.187882,0.73265786 12.6400941,0.184869979 11.9643826,0.184869979 C11.288671,0.184869979 10.7408831,0.73265786 10.7408831,1.4083694 L10.7408831,2.23708635 C8.56577306,2.50404712 6.5511793,3.48916808 4.97680743,5.06381184 C3.36311365,6.67801541 2.42414581,8.72425022 2.16340449,10.8313881 L1.32836614,10.8313881 C0.652688579,10.8313881 0.104866711,11.37921 0.104866711,12.0548875 C0.104866711,12.7305991 0.652620606,13.278387 1.32836614,13.278387 L2.16340449,13.278387 C2.42421379,15.3855249 3.36331757,17.4173156 4.97718128,19.031893 C6.55145119,20.6060949 8.56577306,21.5760921 10.7408831,21.8430189 L10.7408831,22.6716339 C10.7408831,23.3473794 11.288671,23.8951333 11.9643826,23.8951333 C12.6400941,23.8951333 13.187882,23.3473794 13.187882,22.6716339 L13.187882,21.8428829 C15.3629921,21.5757522 17.3727258,20.6055852 18.9471317,19.0312133 C20.5611653,17.4169078 21.4959529,15.3855249 21.7566942,13.278387 L22.5916646,13.278387 C23.2673421,13.278387 23.815164,12.7305991 23.815164,12.0548875 C23.815164,11.379176 23.2673421,10.8313881 22.5916646,10.8313881"/>
  </defs>
  <use fill="#222" fill-rule="evenodd" xlink:href="#focus-a"/>
</svg>
