<svg xmlns="http://www.w3.org/2000/svg" xmlns:xlink="http://www.w3.org/1999/xlink" width="24" height="24" viewBox="0 0 24 24">
  <defs>
    <path id="folder-open-a" d="M1.60824793,7.62573413 L1.60824793,4.16192988 C1.61067038,3.3437984 2.27329517,2.68117361 3.09142665,2.67875116 L10.5168213,2.67875116 C11.3349528,2.68117361 11.9975775,3.3437984 12,4.16192988 L12,4.16192988 L20.908234,4.16192988 C21.726498,4.16416607 22.3893287,4.82684515 22.3917521,5.6451086 L22.3917521,7.62573413 L1.60824793,7.62573413 Z M22.39277,9.11027014 L1.60722996,9.11027014 C0.788382956,9.11269603 0.125388975,9.77629659 0.123711918,10.5951455 L1.60824793,19.5043975 C1.61029866,20.3227385 2.27308606,20.9856776 3.09142665,20.9879155 L20.908234,20.9879155 C21.7267071,20.985864 22.3897005,20.3228706 22.3917521,19.5043975 L23.8762881,10.5951455 C23.8738656,9.77682659 23.2110889,9.11404988 22.39277,9.11162743 L22.39277,9.11027014 Z M3.83488228,13.0705032 C3.42484528,13.0705032 3.09244462,12.7381026 3.09244462,12.3280656 C3.09244462,11.9180286 3.42484528,11.5856279 3.83488228,11.5856279 L20.1651177,11.5856279 C20.5751547,11.5856279 20.9075554,11.9180286 20.9075554,12.3280656 C20.9075554,12.7381026 20.5751547,13.0705032 20.1651177,13.0705032 L3.83488228,13.0705032 L3.83488228,13.0705032 Z"/>
  </defs>
  <use fill="#222" fill-rule="evenodd" xlink:href="#folder-open-a"/>
</svg>
