<svg xmlns="http://www.w3.org/2000/svg" xmlns:xlink="http://www.w3.org/1999/xlink" width="24" height="24" viewBox="0 0 24 24">
  <defs>
    <path id="games-a" d="M3.27561974,20.8392621 C1.11544309,20.8392621 0.449580895,18.3712098 0.449580895,14.3810838 C0.449580895,10.3909578 2.27736721,3.82534741 5.98557433,3.82534741 C9.69378144,3.82534741 7.4304989,5.02764867 11.9999647,5.02764867 C16.5694305,5.02764867 14.3072295,3.82534741 18.0147156,3.82534741 C21.7222017,3.82534741 23.5517905,10.3920393 23.5517905,14.3810838 C23.5517905,18.3701283 22.8873704,20.8392621 20.7261122,20.8392621 C18.564854,20.8392621 17.8185981,14.3810838 11.9999647,14.3810838 C6.18133132,14.3810838 5.43543588,20.8392621 3.27561974,20.8392621 Z M5.55079912,7.60169094 C4.48743436,7.60125346 3.52853209,8.24147227 3.12129685,9.22376768 C2.7140616,10.2060631 2.93870694,11.3369513 3.69046472,12.0890185 C4.44222249,12.8410857 5.57301817,13.0661963 6.55548107,12.6593653 C7.53794397,12.2525343 8.17855731,11.2938956 8.1785574,10.2305308 C8.17865307,9.53322729 7.90166804,8.86446138 7.40856623,8.37142718 C6.91546441,7.87839298 6.24666052,7.60149966 5.54935708,7.60169094 L5.55079912,7.60169094 Z M17.7504617,6.37595653 C17.0245276,6.37595653 16.4360417,6.96444236 16.4360417,7.69037643 C16.4360417,8.4163105 17.0245276,9.00479634 17.7504617,9.00479634 C18.4763957,9.00479634 19.0648816,8.4163105 19.0648816,7.69037643 C19.0644993,7.34177053 18.9256495,7.00759449 18.6788774,6.76136333 C18.4321054,6.51513218 18.0976255,6.3770159 17.7490196,6.37739857 L17.7504617,6.37595653 Z M15.2117494,8.9143083 C14.6800834,8.91416247 14.2006875,9.23431813 13.9971267,9.72547163 C13.7935659,10.2166251 13.9059331,10.7820397 14.2818262,11.1580359 C14.6577193,11.5340321 15.223103,11.6465544 15.7143123,11.4431283 C16.2055216,11.2397022 16.5258087,10.7603942 16.5258088,10.2287282 C16.5248139,9.50307572 15.9359602,8.91551308 15.2103073,8.91611085 L15.2117494,8.9143083 Z M17.7504617,11.4526601 C17.0245276,11.4526601 16.4360417,12.0411459 16.4360417,12.76708 C16.4360417,13.493014 17.0245276,14.0814999 17.7504617,14.0814999 C18.4763957,14.0814999 19.0648816,13.493014 19.0648816,12.76708 C19.0638867,12.0412866 18.4748132,11.4536657 17.7490196,11.4544626 L17.7504617,11.4526601 Z M20.2888134,8.9143083 C19.5628794,8.9143083 18.9743935,9.50279413 18.9743935,10.2287282 C18.9743935,10.9546623 19.5628794,11.5431481 20.2888134,11.5431481 C21.0147475,11.5431481 21.6032333,10.9546623 21.6032333,10.2287282 C21.6022384,9.50293481 21.013165,8.9153139 20.2873714,8.91611085 L20.2888134,8.9143083 Z"/>
  </defs>
  <use fill="#222" fill-rule="evenodd" xlink:href="#games-a"/>
</svg>
