<svg xmlns="http://www.w3.org/2000/svg" xmlns:xlink="http://www.w3.org/1999/xlink" width="24" height="24" viewBox="0 0 24 24">
  <defs>
    <path id="getting-started-a" d="M11.6666667,18.9140981 C12.4909911,18.9140981 13.1593486,19.5821358 13.1597432,20.4064601 C13.1597432,21.2310642 11.6666667,23.7902666 11.6666667,23.7902666 C11.6666667,23.7902666 10.1735902,21.2317787 10.1735902,20.4071746 C10.1735902,19.5825713 10.8420633,18.9140981 11.6666667,18.9140981 Z M17.4960603,15.8586327 L17.4946312,15.8586327 L14.2390885,15.8586327 C14.1017763,17.1761029 12.9912731,18.17688 11.6666667,18.17688 C10.3420602,18.17688 9.23155708,17.1761029 9.09424487,15.8586327 L5.83727305,15.8586327 C5.83727305,14.215141 6.46287174,12.7467169 7.47540554,11.6980977 C7.41503685,11.3480945 7.38467671,10.9935741 7.38465621,10.6384029 C7.38465621,3.13657778 11.6666667,0.209733423 11.6666667,0.209733423 C11.6666667,0.209733423 15.9486771,3.18230972 15.9486771,10.6844921 C15.9486732,11.0219031 15.9183009,11.358629 15.8579278,11.6905948 C16.8701043,12.739214 17.4960603,14.215141 17.4960603,15.8586327 Z M11.6666667,6.31709151 C10.6699996,6.31709151 9.86204132,7.1250498 9.86204132,8.12171686 C9.86204132,9.11838392 10.6699996,9.92634221 11.6666667,9.92634221 C12.6633337,9.92634221 13.471292,9.11838392 13.471292,8.12171686 C13.471292,7.1250498 12.6633337,6.31709151 11.6666667,6.31709151 Z"/>
  </defs>
  <use fill="#222" fill-rule="evenodd" xlink:href="#getting-started-a"/>
</svg>
