<svg xmlns="http://www.w3.org/2000/svg" xmlns:xlink="http://www.w3.org/1999/xlink" width="24" height="24" viewBox="0 0 24 24">
  <defs>
    <path id="gif-a" d="M17.28,5.26899048 C16.8870857,5.26899048 16.5692571,5.06533333 16.2905143,4.78624762 C16.0117714,4.5071619 15.9109714,4.08510476 15.9109714,3.69081905 L15.9109714,0.592419048 L20.3544,5.26899048 L17.28,5.26899048 Z M17.28,6.66579048 L20.3808,6.66579048 L20.3808,14.4880762 L3.6192,14.4880762 L3.6192,2.07081905 C3.6192,1.2575619 4.26514286,0.519733333 5.0784,0.519733333 L14.2333714,0.519733333 L14.2333714,3.69081905 C14.2333714,4.5071619 14.6098286,5.25561905 15.1450286,5.79081905 C15.7153542,6.34972946 16.4814714,6.66370586 17.28,6.66579048 Z M3.6192,15.8848762 L20.3808,15.8848762 L20.3808,21.782019 C20.3808,22.5952762 19.6902857,23.1469333 18.8770286,23.1469333 L5.0784,23.1469333 C4.26514286,23.1469333 3.6192,22.5952762 3.6192,21.782019 L3.6192,15.8848762 Z M11.1620571,20.5041905 L11.1603429,20.5038476 L11.1603429,19.4289905 C11.1603429,19.2897905 11.1665143,19.2369905 11.0149714,19.2369905 L10.2473143,19.2369905 C10.1068019,19.2344705 9.9687949,19.2743791 9.85131429,19.3515048 C9.73062857,19.430019 9.67028571,19.5112762 9.67028571,19.6014476 C9.67028571,19.650819 9.7032,19.7351619 9.76868571,19.8414476 C9.86708571,19.9888762 9.96685714,20.0752762 10.0697143,20.0752762 L10.3227429,20.0752762 L10.3227429,20.6265905 C10.3227429,20.7534476 9.90548571,20.8168762 9.6312,20.8168762 C9.41326783,20.8203699 9.19896505,20.7608413 9.01405714,20.6454476 C8.81566185,20.5288765 8.65316099,20.3599705 8.54434286,20.157219 C8.42444353,19.9336468 8.36410799,19.6829769 8.36914286,19.4293333 C8.37142857,19.0343619 8.50148571,18.7088762 8.75931429,18.4528762 C9.01714286,18.1968762 9.34674286,18.0688762 9.74811429,18.0688762 C9.86378344,18.0680897 9.97905493,18.0824986 10.0909714,18.1117333 C10.2201406,18.1492858 10.345583,18.1986364 10.4657143,18.2591619 C10.5109856,18.2844085 10.5613921,18.2990616 10.6131429,18.302019 C10.6789487,18.2978874 10.7405045,18.2680944 10.7845714,18.2190476 C10.8479187,18.1546762 10.8980092,18.0784921 10.932,17.994819 C10.9726549,17.9018437 10.9935535,17.8014371 10.9933714,17.6999619 C10.9933714,17.614019 10.9626286,17.5526476 10.9011429,17.5158476 C10.5567442,17.3016354 10.1581159,17.1907334 9.75257143,17.1963048 C9.36479337,17.1949346 8.98347223,17.2955561 8.64685714,17.4880762 C8.30105322,17.6842678 8.01208977,17.9668518 7.80822857,18.3081905 C7.59363322,18.6588941 7.48173585,19.06277 7.48525714,19.4739048 C7.48213575,19.8518104 7.57359757,20.2244937 7.75131429,20.558019 C7.92668378,20.8902018 8.18694486,21.1699824 8.5056,21.3688762 C8.83285105,21.5754761 9.21302518,21.682668 9.6,21.6774476 C9.81917878,21.677773 10.0371986,21.6456534 10.2469714,21.5821333 C10.4420823,21.5240918 10.6261081,21.4338171 10.7914286,21.3150476 C11.0657143,21.126819 11.1620571,20.8563048 11.1620571,20.5041905 Z M12.8379429,20.954019 L12.8376,20.954019 L12.8376,17.469219 C12.8376,17.3217905 12.7625143,17.2480762 12.6027429,17.2480762 C12.4545471,17.2475087 12.3095769,17.2913341 12.1865143,17.3739048 C12.0576,17.4589333 11.9996571,17.5497905 11.9996571,17.6481905 L11.9996571,21.131619 C11.9996571,21.189219 12.0288,21.273219 12.0973714,21.383619 C12.2043429,21.5437333 12.3034286,21.623619 12.4100571,21.623619 C12.5166857,21.623619 12.6140571,21.554019 12.7042286,21.414819 C12.7932085,21.2777397 12.8397253,21.1174357 12.8379429,20.954019 Z M16.5349714,17.8216762 L16.5353143,17.8199619 C16.57776,17.7185422 16.5995564,17.6096768 16.5994286,17.4997333 C16.5994286,17.356419 16.5236571,17.2827048 16.3721143,17.2827048 L14.3883429,17.2827048 C14.223166,17.2826639 14.0609866,17.3268194 13.9186286,17.4105905 C13.7897143,17.4935619 13.6762286,17.5864762 13.6762286,17.6848762 L13.6762286,21.131619 C13.6762286,21.189219 13.7468571,21.273219 13.8154286,21.383619 C13.9217143,21.5437333 14.0633143,21.623619 14.1696,21.623619 C14.2758857,21.623619 14.3461714,21.554019 14.436,21.414819 C14.5258286,21.275619 14.5141714,21.122019 14.5141714,20.954019 L14.5141714,19.7985905 L15.8136,19.7985905 C15.9116571,19.7985905 16.0008,19.7382476 16.0806857,19.6155048 C16.1605621,19.493296 16.2022195,19.3500614 16.2003429,19.2040762 C16.2003429,19.0689905 16.1286857,18.9592762 15.9853714,18.9592762 L14.5141714,18.9592762 L14.5141714,18.1213333 L16.188,18.1213333 C16.2575868,18.122618 16.3248658,18.0963718 16.3752,18.0483048 C16.4452613,17.9861295 16.4999508,17.9085549 16.5349714,17.8216762 Z"/>
  </defs>
  <use fill="#222" fill-rule="evenodd" xlink:href="#gif-a"/>
</svg>
