<svg xmlns="http://www.w3.org/2000/svg" width="24" height="24" viewBox="0 0 24 24">
  <path fill="#222" fill-rule="evenodd" d="M7.41883641,16.6637106 C7.48983641,16.6387106 7.56083641,16.6127106 7.63283641,16.5887106 C8.74583641,16.2067106 9.93083641,15.9787106 11.1658364,15.9077106 L11.1658364,12.7987106 L6.79883641,12.7987106 C6.85983641,14.1657106 7.07083641,15.4747106 7.41883641,16.6617106 C7.41883641,16.6627106 7.41883641,16.6637106 7.41883641,16.6637106 L7.41883641,16.6637106 Z M7.98483641,18.2307106 C8.12683641,18.5527106 8.27983641,18.8587106 8.44483641,19.1507106 C9.21983641,20.5277106 10.1648364,21.4197106 11.1638364,21.7387106 L11.1658364,21.7387106 L11.1658364,17.5787106 C10.1188364,17.6487106 9.09783641,17.8487106 8.17183641,18.1657106 C8.10883641,18.1867106 8.04683641,18.2087106 7.98483641,18.2307106 L7.98483641,18.2307106 Z M16.5808364,16.6577106 C16.9268364,15.4707106 17.1378364,14.1637106 17.1988364,12.7987106 L12.8328364,12.7987106 L12.8328364,15.9067106 C14.0738364,15.9767106 15.2658364,16.2057106 16.3848364,16.5897106 C16.4498364,16.6117106 16.5158364,16.6347106 16.5808364,16.6577106 L16.5808364,16.6577106 Z M16.0118364,18.2257106 C15.9558364,18.2047106 15.8998364,18.1847106 15.8448364,18.1667106 C14.9118364,17.8467106 13.8858364,17.6457106 12.8328364,17.5777106 L12.8328364,21.7377106 C13.8308364,21.4187106 14.7738364,20.5267106 15.5508364,19.1507106 C15.7158364,18.8567106 15.8688364,18.5497106 16.0108364,18.2277106 C16.0108364,18.2267106 16.0118364,18.2257106 16.0118364,18.2257106 L16.0118364,18.2257106 Z M19.9608364,18.6817106 C21.3828364,16.9957106 22.2098364,14.9317106 22.3818364,12.7987106 L18.8638364,12.7987106 C18.7998364,14.4037106 18.5408364,15.9477106 18.1108364,17.3467106 C18.8118364,17.7287106 19.4348364,18.1787106 19.9608364,18.6817106 L19.9608364,18.6817106 Z M18.7878364,19.8657106 C18.4248364,19.5217106 17.9998364,19.2077106 17.5228364,18.9287106 C17.5228364,18.9297106 17.5228364,18.9317106 17.5218364,18.9327106 C17.3618364,19.2927106 17.1898364,19.6397106 17.0028364,19.9687106 C16.8358364,20.2657106 16.6608364,20.5447106 16.4788364,20.8067106 C16.2608364,21.1187106 16.0318364,21.4057106 15.7928364,21.6677106 C16.8798364,21.2427106 17.8938364,20.6367106 18.7878364,19.8657106 L18.7878364,19.8657106 Z M4.04583641,18.6897106 C4.56983641,18.1867106 5.19083641,17.7377106 5.88883641,17.3537106 C5.88883641,17.3527106 5.88783641,17.3517106 5.88783641,17.3507106 C5.45783641,15.9527106 5.19983641,14.4067106 5.13283641,12.7987106 L1.61483641,12.7987106 C1.78383641,14.9097106 2.59383641,16.9787106 4.04583641,18.6897106 L4.04583641,18.6897106 Z M5.21983641,19.8727106 C6.11183641,20.6387106 7.12083641,21.2427106 8.20183641,21.6657106 C7.96383641,21.4037106 7.73583641,21.1177106 7.51983641,20.8077106 C7.33683641,20.5457106 7.16183641,20.2667106 6.99483641,19.9697106 C6.80883641,19.6407106 6.63683641,19.2957106 6.47783641,18.9357106 C6.00383641,19.2147106 5.58183641,19.5287106 5.21983641,19.8727106 L5.21983641,19.8727106 Z M6.79883641,11.1317106 L11.1658364,11.1317106 L11.1658364,8.02271057 C9.92883641,7.95171057 8.74183641,7.72371057 7.62583641,7.34171057 C7.55583641,7.31671057 7.48583641,7.29271057 7.41683641,7.26771057 C7.41683641,7.26771057 7.41683641,7.26871057 7.41683641,7.26871057 C7.07083641,8.45771057 6.85983641,9.76571057 6.79883641,11.1317106 L6.79883641,11.1317106 Z M17.1988364,11.1307106 C17.1378364,9.76571057 16.9268364,8.45871057 16.5798364,7.27071057 C16.5138364,7.29471057 16.4468364,7.31871057 16.3798364,7.34171057 C15.2618364,7.72471057 14.0718364,7.95271057 12.8328364,8.02271057 L12.8328364,11.1317106 L17.1988364,11.1317106 L17.1988364,11.1307106 Z M22.3828364,11.1317106 C22.2958364,10.0407106 22.0368364,8.95471057 21.5968364,7.91071057 C21.1878364,6.94371057 20.6358364,6.04571057 19.9588364,5.24671057 C19.4338364,5.74871057 18.8128364,6.19771057 18.1128364,6.58071057 C18.5428364,7.97871057 18.8008364,9.52371057 18.8668364,11.1317106 L22.3828364,11.1317106 Z M1.61583641,11.1317106 L5.13283641,11.1317106 C5.19883641,9.52371057 5.45683641,7.97871057 5.88783641,6.57971057 C5.88783641,6.57971057 5.88783641,6.57871057 5.88783641,6.57871057 C5.18983641,6.19471057 4.56783641,5.74671057 4.04383641,5.24371057 C2.59383641,6.95471057 1.78383641,9.02171057 1.61583641,11.1317106 L1.61583641,11.1317106 Z M11.1658364,2.19071057 C11.1648364,2.19071057 11.1648364,2.19071057 11.1638364,2.19071057 C10.1638364,2.51071057 9.21983641,3.40271057 8.44383641,4.77971057 C8.27983641,5.07271057 8.12683641,5.37971057 7.98383641,5.70071057 C8.04483641,5.72271057 8.10583641,5.74371057 8.16683641,5.76471057 C9.09483641,6.08271057 10.1168364,6.28271057 11.1658364,6.35171057 L11.1658364,2.19071057 Z M12.8328364,2.19171057 L12.8328364,6.35171057 C13.8838364,6.28271057 14.9078364,6.08271057 15.8388364,5.76471057 C15.8968364,5.74471057 15.9538364,5.72471057 16.0108364,5.70371057 C16.0108364,5.70371057 16.0108364,5.70271057 16.0098364,5.70271057 C15.8678364,5.37971057 15.7148364,5.07271057 15.5498364,4.77971057 C14.7738364,3.40371057 13.8308364,2.51171057 12.8328364,2.19171057 L12.8328364,2.19171057 Z M18.7848364,4.06271057 C17.8928364,3.29471057 16.8818364,2.68971057 15.7988364,2.26571057 C16.0368364,2.52671057 16.2648364,2.81271057 16.4808364,3.12371057 C16.6638364,3.38471057 16.8388364,3.66371057 17.0058364,3.96171057 C17.1908364,4.29071057 17.3638364,4.63771057 17.5238364,4.99771057 L17.5238364,4.99871057 C17.9988364,4.72071057 18.4228364,4.40671057 18.7848364,4.06271057 L18.7848364,4.06271057 Z M5.21783641,4.06071057 C5.57983641,4.40371057 6.00283641,4.71771057 6.47683641,4.99671057 C6.63583641,4.63671057 6.80883641,4.29071057 6.99483641,3.96171057 C7.16183641,3.66471057 7.33683641,3.38571057 7.51983641,3.12271057 C7.73683641,2.81271057 7.96383641,2.52571057 8.20283641,2.26471057 C7.11983641,2.68871057 6.10983641,3.29371057 5.21783641,4.06071057 L5.21783641,4.06071057 Z M11.9988364,23.8807106 C5.41383641,23.8807106 0.0748364069,18.5417106 0.0748364069,11.9557106 C0.0748364069,5.37071057 5.41383641,0.031710574 11.9988364,0.031710574 C18.5848364,0.031710574 23.9238364,5.37071057 23.9238364,11.9557106 C23.9238364,18.5417106 18.5848364,23.8807106 11.9988364,23.8807106 L11.9988364,23.8807106 Z"/>
</svg>
