<svg xmlns="http://www.w3.org/2000/svg" xmlns:xlink="http://www.w3.org/1999/xlink" width="24" height="24" viewBox="0 0 24 24">
  <defs>
    <path id="go-out-alarm-a" d="M18.9790047,7.96063955 L18.9790047,5.95733275 C18.9805274,5.81811216 18.9385646,5.68188686 18.8589682,5.5676542 L18.8177826,5.50675592 C18.8031499,5.48755755 18.7871504,5.46944047 18.7699089,5.4525459 C18.7498983,5.43154277 18.7271678,5.41331105 18.7023223,5.39833588 C18.6731393,5.38060387 18.6429305,5.36461789 18.611855,5.35046209 C18.5700208,5.33087977 18.5257377,5.31702651 18.480202,5.30927655 L11.7637913,3.96529037 C11.7068208,3.94752757 11.6474594,3.93862337 11.5877847,3.93888938 C11.4391868,3.93799337 11.2946994,3.9876454 11.1780414,4.07969464 C11.0093153,4.203396 10.9116626,4.40172423 10.9164956,4.61088247 L10.9164956,19.3880422 C10.911436,19.5980356 11.0100327,19.797072 11.1801535,19.9202861 C11.3447083,20.0508621 11.5620117,20.094349 11.7641433,20.0371545 L18.4805541,18.6931683 C18.6259151,18.6643035 18.75671,18.5857768 18.8505199,18.471048 C18.9360591,18.3724843 18.9786527,18.2323831 18.9786527,18.0486322 L18.9786527,15.3698122 C17.540954,14.6967207 16.6225326,13.2525741 16.622608,11.6651139 C16.6226834,10.0776538 17.541242,8.6335944 18.9790047,7.96063955 L18.9790047,7.96063955 Z M13.7741383,12.1390356 C13.6502604,12.2674843 13.478763,12.3389628 13.3003286,12.3365149 C13.239247,12.3373294 13.1783499,12.3296284 13.1193939,12.3136341 C13.063817,12.2985809 13.0106175,12.2758319 12.96134,12.2460476 C12.9121014,12.2167085 12.8667971,12.1812221 12.8265189,12.1404436 C12.7862133,12.0997464 12.7507742,12.0545025 12.720915,12.0056226 C12.6911348,11.9563429 12.668386,11.903144 12.6533285,11.8475687 C12.6381396,11.7884561 12.6304522,11.7276667 12.6304476,11.6666339 C12.6295236,11.54871 12.6606726,11.432753 12.720563,11.3311654 C12.7796563,11.2288314 12.8646382,11.1438495 12.9669722,11.0847562 C13.0683555,11.0243424 13.1844286,10.9930404 13.3024407,10.9942888 C13.4196816,10.9938536 13.534861,11.0251114 13.6357972,11.0847562 C13.7381311,11.1438495 13.823113,11.2288314 13.8822064,11.3311654 C14.0333818,11.5938374 13.9890379,11.9253331 13.7741383,12.1390356 Z M9.02125685,11.3568624 C9.26238585,11.5265327 9.26238585,11.8046231 9.02090484,11.9757015 L6.43044011,13.5280794 L5.69121251,13.971264 L5.10299855,14.3232771 C5.04677953,14.3575577 4.98260138,14.3766049 4.91678359,14.3785432 C4.75591359,14.3785432 4.64326938,14.2366819 4.64326938,13.998369 L4.64326938,12.4554954 L1.71733613,12.4554954 C1.28136836,12.4554954 0.927946654,12.1020737 0.927946654,11.6661059 C0.927946654,11.2301381 1.28136836,10.8767164 1.71733613,10.8767164 L4.64326938,10.8767164 L4.64326938,9.33173075 C4.64326938,9.09271382 4.75591359,8.95190856 4.91643158,8.95190856 C4.98243374,8.95399864 5.04674533,8.97329212 5.10299855,9.00787865 L9.02125685,11.3568624 Z M6.99366114,6.85039009 L6.99366114,8.92480355 L5.69121251,8.1440384 L5.69121251,6.46528771 C5.69275872,5.95929322 6.10256426,5.54948767 6.60855876,5.54794146 L9.59644633,5.54794146 L9.59644633,6.85039009 L6.99366114,6.85039009 Z M5.69121251,15.9502819 L5.69121251,15.1874694 L6.99366114,14.4070563 L6.99366114,17.2636429 L9.59644633,17.2636429 L9.59644633,18.5660915 L6.60855876,18.5660915 C6.10248429,18.5647376 5.69256643,18.1548198 5.69121251,17.6487453 L5.69121251,15.9502819 Z M20.7140775,8.64072894 C22.0502044,8.64096199 23.2277864,9.51808882 23.6105865,10.7982058 C23.9933866,12.0783227 23.4906462,13.4579252 22.3739915,14.1916264 C21.2573368,14.9253277 19.7915168,14.8391735 18.7685008,13.9797123 L18.7625166,13.9747841 C18.7418651,13.9574181 18.7214484,13.9397001 18.7012663,13.9216301 L18.6970421,13.917758 C18.632037,13.8593238 18.5696134,13.7983082 18.5097711,13.7347111 L18.5041389,13.7287269 C18.4863036,13.7099529 18.4688203,13.6908268 18.451689,13.6713488 L18.4442967,13.6632525 C18.425992,13.642601 18.4080393,13.6217149 18.3904387,13.6005941 L18.3904387,13.5988341 C18.3531253,13.5540111 18.3171026,13.508132 18.2823707,13.4611969 L18.2774425,13.4541567 C18.2626579,13.4337399 18.2479907,13.4132058 18.2334408,13.3925544 L18.2246405,13.3798819 C18.2110293,13.3599345 18.1975355,13.3398697 18.184159,13.3196877 L18.1767667,13.3087752 C18.1453202,13.2606668 18.1152817,13.2115023 18.0866513,13.1612817 L18.0831312,13.1552975 C18.0716321,13.1341767 18.0598983,13.1118826 18.0479299,13.088415 L18.0391296,13.0715184 C18.0288039,13.0518056 18.0187128,13.0320929 18.0088564,13.0123802 L17.9997041,12.9940755 C17.9891437,12.97272 17.978818,12.9511299 17.9687269,12.9293051 L17.9634467,12.9180407 C17.9512436,12.8915223 17.9395099,12.8648867 17.9282454,12.8381337 C17.9174504,12.812554 17.9070073,12.7868571 17.8969163,12.7610428 L17.889172,12.740978 C17.8816624,12.7212653 17.8743874,12.7014352 17.8673472,12.6814878 L17.8588988,12.6575509 C17.8520933,12.6378382 17.845405,12.6180081 17.8388341,12.5980607 L17.8317938,12.5765879 C17.8233455,12.5505389 17.8153665,12.5242553 17.8078569,12.497737 L17.8078569,12.4956249 C17.8001126,12.4679332 17.7927204,12.4402415 17.7856801,12.4125498 L17.7803999,12.391429 C17.7754717,12.3710122 17.7706609,12.3504781 17.7659674,12.3298267 L17.7599831,12.3020177 C17.7559937,12.2827743 17.7521215,12.2635309 17.7483667,12.2442875 L17.7430865,12.2164785 C17.739097,12.195123 17.7353422,12.1736502 17.7318221,12.1520601 C17.730414,12.1450198 17.728302,12.1383315 17.728302,12.1316433 C17.7238431,12.1034822 17.7198536,12.0750865 17.7163335,12.0464561 C17.7142214,12.0404719 17.7142214,12.0344877 17.7142214,12.0285034 C17.7114053,12.0066786 17.7089412,11.9840324 17.7068292,11.9605649 C17.7043651,11.9507085 17.7043651,11.9412042 17.7043651,11.9313478 C17.7027223,11.9118698 17.701197,11.8923917 17.6997889,11.8729136 C17.6976768,11.8627052 17.6976768,11.8521449 17.6976768,11.8419365 C17.6957994,11.8217544 17.6948607,11.8015723 17.6948607,11.7813902 L17.6948607,11.7539332 L17.6948607,11.6659299 L17.6948607,11.5779266 L17.6948607,11.5504696 C17.6967381,11.5302875 17.6976768,11.5101054 17.6976768,11.4899233 C17.6997889,11.4797149 17.6997889,11.4691546 17.6997889,11.4589462 C17.701197,11.4394681 17.7027223,11.4199901 17.7043651,11.400512 C17.7068292,11.3906556 17.7068292,11.3811513 17.7068292,11.3712949 C17.7089412,11.3494701 17.7114053,11.3268239 17.7142214,11.3033564 C17.7163335,11.2973721 17.7163335,11.2913879 17.7163335,11.2854037 C17.7198536,11.257008 17.7238431,11.2286122 17.728302,11.2002165 C17.729358,11.1931763 17.7318221,11.186488 17.7318221,11.1797998 C17.7353422,11.1582096 17.739097,11.1367368 17.7430865,11.1153813 L17.7483667,11.0875723 C17.7518868,11.0683289 17.755759,11.0490855 17.7599831,11.0298422 L17.7659674,11.0020331 C17.7704262,10.9813817 17.7752371,10.9608476 17.7803999,10.9404308 L17.7856801,10.91931 C17.7927204,10.8913836 17.8001126,10.8636919 17.8078569,10.8362349 L17.8078569,10.8341228 C17.8156012,10.8076045 17.8235802,10.7813209 17.8317938,10.7552719 L17.8388341,10.7337991 C17.845405,10.7138517 17.8520933,10.6940216 17.8588988,10.6743089 L17.8673472,10.650372 C17.8743874,10.6304246 17.8816624,10.6105945 17.889172,10.5908818 L17.8969163,10.570817 C17.9070073,10.544768 17.9174504,10.5189537 17.9282454,10.4933741 C17.9397445,10.4666211 17.9514783,10.4399855 17.9634467,10.4134671 L17.9687269,10.4022027 C17.978818,10.3803779 17.9891437,10.3586704 17.9997041,10.3370803 L18.0088564,10.3187756 C18.0187128,10.2990629 18.0288039,10.2793501 18.0391296,10.2596374 L18.0479299,10.2427408 C18.0598983,10.2202119 18.0722188,10.1978004 18.0848913,10.1755063 L18.0884114,10.169522 C18.1170418,10.1193015 18.1470803,10.0700196 18.1785268,10.0216765 L18.185567,10.0107641 C18.1987089,9.99058201 18.2122027,9.97051726 18.2260486,9.95056985 L18.2348489,9.93789738 C18.2493988,9.91724594 18.2641833,9.89671184 18.2792025,9.87629508 L18.2841307,9.86925482 C18.3188627,9.82231973 18.3548854,9.77644068 18.3921988,9.73161768 L18.3921988,9.72985761 C18.4097994,9.7089715 18.4276347,9.68820272 18.4457048,9.66755128 L18.453097,9.65910297 C18.4702283,9.63985958 18.4875943,9.62073354 18.505195,9.60172483 L18.5108272,9.5957406 C18.5697307,9.53237824 18.6321544,9.47136263 18.6980982,9.41269377 L18.7026743,9.40882162 C18.7226218,9.39075162 18.7429212,9.37303362 18.7635726,9.35566764 L18.7699089,9.35038744 C19.313745,8.89152765 20.002523,8.64011059 20.7140775,8.64072894 Z M22.3044728,12.84799 C22.3365184,12.7736003 22.3213021,12.6872819 22.2657514,12.6283338 C22.2622313,12.6262218 21.9207785,12.2559039 21.9183144,11.3589744 C21.9158339,10.8486981 21.5926512,10.395143 21.1111483,10.2261961 C21.1152259,10.2036517 21.1174627,10.1808128 21.1178365,10.1579056 C21.1178365,9.93608208 20.938013,9.7562586 20.7161895,9.7562586 C20.494366,9.7562586 20.3145425,9.93608208 20.3145425,10.1579056 C20.3149167,10.1806962 20.3171536,10.2034181 20.3212308,10.2258441 C19.8386987,10.3940351 19.5150447,10.8486751 19.5140646,11.3596785 C19.5140646,12.256608 19.1704998,12.6248137 19.1683877,12.6269258 C19.1107583,12.6841997 19.0932778,12.7705363 19.1240895,12.8457168 C19.1549011,12.9208972 19.2279444,12.9701339 19.309193,12.9704906 L19.9407046,12.9704906 C20.0307649,13.3246946 20.3496593,13.5726532 20.7151335,13.5726532 C21.0806076,13.5726532 21.3995021,13.3246946 21.4895624,12.9704906 L22.120722,12.9704906 C22.2009558,12.9700691 22.2732245,12.9218899 22.3044728,12.84799 Z"/>
  </defs>
  <use fill="#222" fill-rule="evenodd" xlink:href="#go-out-alarm-a"/>
</svg>
