<svg xmlns="http://www.w3.org/2000/svg" xmlns:xlink="http://www.w3.org/1999/xlink" width="24" height="24" viewBox="0 0 24 24">
  <defs>
    <path id="graph-a" d="M22.3655238,23.1002667 L0.967809524,23.1002667 C0.43895426,23.0993231 0.0104673537,22.6708362 0.00952380952,22.141981 L0.00952380952,1.19135238 C0.019400495,0.669264206 0.445456507,0.251191945 0.967638095,0.251191945 C1.48981968,0.251191945 1.9158757,0.669264206 1.92575238,1.19135238 L1.92575238,21.1840381 L22.3655238,21.1840381 C22.7121452,21.1774808 23.03528,21.3586487 23.2105113,21.6577865 C23.3857426,21.9569242 23.3857426,22.3273805 23.2105113,22.6265183 C23.03528,22.9256561 22.7121452,23.1068239 22.3655238,23.1002667 Z M22.5928381,5.07866667 C23.0224381,4.95626667 23.3502095,5.22095238 23.3200381,5.66632381 L22.3514667,12.5234667 C22.3384708,12.6223731 22.2999505,12.7161926 22.2396952,12.7956952 C22.086781,12.9849524 21.8118095,12.9822095 21.5310095,12.7552381 L19.7138667,11.284381 L19.5729524,11.1702095 L15.6945524,16.0761524 C15.5306766,16.283361 15.2885294,16.4137265 15.0253287,16.4364442 C14.7621279,16.4591619 14.501224,16.3722164 14.3042667,16.1961524 L10.3878095,12.6952381 L5.41466667,18.7878095 C5.20044791,19.0601026 4.85593621,19.1955641 4.51362878,19.1420964 C4.17132135,19.0886288 3.88452961,18.854559 3.76355202,18.5299091 C3.64257443,18.2052591 3.70625221,17.8405904 3.93009524,17.5761524 L9.5368381,10.7066667 C9.70218654,10.5039198 9.94323985,10.3775911 10.2040509,10.3570008 C10.464862,10.3364105 10.7227522,10.4233488 10.9178667,10.5976381 L14.8226667,14.0889524 L18.0832381,9.96609524 L17.8538667,9.78060952 L16.0332952,8.30632381 C15.7528381,8.07935238 15.6928381,7.81158095 15.8460952,7.62232381 C15.9113866,7.54665787 15.9952941,7.48934078 16.0895238,7.4560381 L22.5928381,5.07866667 Z"/>
  </defs>
  <use fill="#222" fill-rule="evenodd" xlink:href="#graph-a"/>
</svg>
