<svg xmlns="http://www.w3.org/2000/svg" xmlns:xlink="http://www.w3.org/1999/xlink" width="24" height="24" viewBox="0 0 24 24">
  <defs>
    <path id="hand-shake-a" d="M3.5879619,6.57737143 C3.87287619,6.57737143 4.1039619,6.74571429 4.10224762,6.95382857 L4.10224762,15.6888 C4.10224762,15.8972571 3.87287619,16.0659429 3.5879619,16.0659429 L1.15367619,16.0659429 C0.87047619,16.0659429 0.639390476,15.8965714 0.639390476,15.6888 L0.639390476,6.95451429 C0.639390476,6.74605714 0.868761905,6.57737143 1.15367619,6.57737143 L3.5879619,6.57737143 Z M22.5126476,5.88102857 C22.7975619,5.88102857 23.0286476,6.04937143 23.0269333,6.25714286 L23.0269333,14.9924571 C23.0269333,15.2009143 22.7975619,15.3696 22.5126476,15.3696 L20.0783619,15.3696 C19.7951619,15.3696 19.5640762,15.2002286 19.5640762,14.9924571 L19.5640762,6.25817143 C19.5640762,6.04971429 19.7934476,5.88102857 20.0783619,5.88102857 L22.5126476,5.88102857 Z M17.9200762,7.3584 C18.2927619,7.51234286 18.3839619,7.74857143 18.3795048,8.10788571 C18.3678476,8.95165714 18.390819,12.1978286 18.3795048,12.9764571 C18.374019,13.3570286 18.4024762,13.8034286 17.9039619,13.9477714 C17.4513905,14.0787429 17.1849905,13.7496 16.9278476,13.4585143 C15.834819,12.216 14.742819,10.9725714 13.6518476,9.72822857 C13.1598476,9.16731429 12.9256762,8.93245714 12.4456762,8.36194286 C11.5840762,7.33714286 9.95001905,8.36228571 9.55024762,8.56045714 C9.23481905,8.71508571 8.90841905,8.86354286 8.57241905,9.02365714 C7.35184762,9.60582857 6.51767619,8.28994286 7.42041905,7.50514286 C8.21570845,6.80937562 9.06081989,6.17270591 9.94899048,5.60022857 C10.9000762,4.99165714 12.0003048,5.064 13.0576762,5.39005714 C14.7335619,5.90742857 16.3035048,6.69154286 17.9200762,7.3584 Z M13.5537905,11.5337143 C14.315619,12.4028571 16.0247619,14.3293714 16.5249905,14.9043429 C16.7979048,15.2180571 17.200419,16.0762286 16.6693333,16.5678857 C16.0381333,17.1517714 15.2763048,16.6224 15.2763048,16.6289143 C15.3712762,16.7629714 15.4069333,17.3184 14.8683048,17.6269714 C14.3711619,17.9108571 13.8328762,17.6328 13.658019,17.4188571 C13.6398476,17.3989714 13.7015619,17.9801143 13.1461333,18.2602286 C12.441219,18.6154286 12.0147048,18.1443429 12.0147048,18.1553143 C11.9992762,18.3102857 11.9169905,18.5736 11.5535619,18.7638857 C10.9093333,19.0416 10.6744762,18.6366857 10.408419,18.4244571 C10.0816762,18.1638857 9.75939048,17.8810286 9.75939048,17.8810286 L8.99721905,17.2981714 C7.91481905,16.4650286 6.87184762,15.5756571 5.68419048,14.8899429 C5.34647619,14.6945143 5.28853333,14.4198857 5.28853333,14.0742857 C5.29607619,12.5465143 5.31904762,11.0177143 5.2847619,9.49062857 C5.27310476,8.98285714 5.63550476,8.61942857 5.98179048,8.38937143 C6.25264762,8.20971429 6.19161905,8.23062857 6.25264762,8.20971429 C5.75070476,8.72125714 6.38224762,10.3710857 7.3679619,10.4965714 C7.7471619,10.5449143 8.14521905,10.5356571 8.54121905,10.3470857 C8.66464762,10.2891429 8.78704762,10.2322286 8.90773333,10.1756571 C9.1103619,10.0803429 9.32121905,9.98194286 9.52487619,9.88114286 C9.5687619,9.8592 9.62019048,9.83177143 9.67984762,9.79988571 C10.4307048,9.3984 11.3512762,9.00685714 11.8117333,9.55542857 C12.1093333,9.90925714 12.3184762,10.1410286 12.5399619,10.3865143 C12.6846476,10.5469714 12.8344762,10.7129143 13.0247619,10.9299429 L13.5537905,11.5337143 Z"/>
  </defs>
  <use fill="#222" fill-rule="evenodd" xlink:href="#hand-shake-a"/>
</svg>
