<svg xmlns="http://www.w3.org/2000/svg" width="24" height="24" viewBox="0 0 24 24">
  <path fill="#222" fill-rule="evenodd" d="M12.9668292,11.9741644 C12.5998199,12.512074 12.7221563,13.2638869 11.7089883,13.2638869 C11.0487423,13.2638869 10.7258483,12.7267188 10.7258483,12.2355195 C10.7258483,10.4089995 13.4131718,9.99527999 13.4131718,8.48980049 C13.4131718,7.66199066 12.8593214,7.17079136 11.9399446,7.17079136 C9.97551816,7.17079136 10.7425305,9.19638604 9.25262108,9.19638604 C8.71693581,9.19638604 8.25576455,8.87423345 8.25576455,8.26032701 C8.25576455,6.75595965 9.97551816,5.42100972 11.8468948,5.42100972 C13.8120627,5.42100972 15.7446075,6.32555785 15.7446075,8.48980049 C15.7446075,10.4864793 13.4580285,11.2531209 12.9668292,11.9741644 Z M11.7708979,17.7786496 C11.0798825,17.7786496 10.5112034,17.210712 10.5112034,16.5196965 C10.5112034,15.8290518 11.0798825,15.2618556 11.7708979,15.2618556 C12.461172,15.2618556 13.029851,15.8290518 13.029851,16.5196965 C13.029851,17.210712 12.461172,17.7786496 11.7708979,17.7786496 Z M12.0410884,23.5334041 C7.35968423,23.5330664 3.13939115,20.7129703 1.34794103,16.3879991 C-0.443509101,12.0630279 0.546638184,7.08481172 3.85672197,3.77446771 C8.3899052,-0.667943274 15.6551198,-0.631250194 20.1431978,3.85672281 C24.6312759,8.34469581 24.6679698,15.6097403 20.2254549,20.1428174 C18.0597794,22.3208686 15.1126041,23.5418126 12.0410884,23.5334041 Z M12,21.4587402 C17.223918,21.4587402 21.4587402,17.223918 21.4587402,12 C21.4587402,6.77608202 17.223918,2.54125977 12,2.54125977 C6.77608202,2.54125977 2.54125977,6.77608202 2.54125977,12 C2.54125977,17.223918 6.77608202,21.4587402 12,21.4587402 Z"/>
</svg>
