<svg xmlns="http://www.w3.org/2000/svg" xmlns:xlink="http://www.w3.org/1999/xlink" width="24" height="24" viewBox="0 0 24 24">
  <defs>
    <path id="help-2-a" d="M12.9668292,11.9741644 C12.5998199,12.512074 12.7221563,13.2638869 11.7089883,13.2638869 C11.0487423,13.2638869 10.7258483,12.7267188 10.7258483,12.2355195 C10.7258483,10.4089995 13.4131718,9.99527999 13.4131718,8.48980049 C13.4131718,7.66199066 12.8593214,7.17079136 11.9399446,7.17079136 C9.97551816,7.17079136 10.7425305,9.19638604 9.25262108,9.19638604 C8.71693581,9.19638604 8.25576455,8.87423345 8.25576455,8.26032701 C8.25576455,6.75595965 9.97551816,5.42100972 11.8468948,5.42100972 C13.8120627,5.42100972 15.7446075,6.32555785 15.7446075,8.48980049 C15.7446075,10.4864793 13.4580285,11.2531209 12.9668292,11.9741644 M11.7708979,17.7786496 C11.0798825,17.7786496 10.5112034,17.210712 10.5112034,16.5196965 C10.5112034,15.8290518 11.0798825,15.2618556 11.7708979,15.2618556 C12.461172,15.2618556 13.029851,15.8290518 13.029851,16.5196965 C13.029851,17.210712 12.461172,17.7786496 11.7708979,17.7786496 M19.7785853,4.22166474 C15.4814974,-0.0738882461 8.51733982,-0.0738882461 4.22127521,4.22166474 C-0.0732545319,8.51772934 -0.0732545319,15.4813753 4.22127521,19.7779515 C8.51733982,24.0740162 15.4814974,24.0740162 19.7785853,19.7779515 C24.0741382,15.4813753 24.0741382,8.51772934 19.7785853,4.22166474"/>
  </defs>
  <use fill="#222" fill-rule="evenodd" xlink:href="#help-2-a"/>
</svg>
