<svg xmlns="http://www.w3.org/2000/svg" xmlns:xlink="http://www.w3.org/1999/xlink" width="24" height="24" viewBox="0 0 24 24">
  <defs>
    <path id="help-3-a" d="M11.5146191,0.37640009 C15.5954162,0.37640009 19.6078655,2.25383163 19.6078655,6.74727928 C19.6078655,10.8908711 14.8593947,12.4855132 13.8410109,13.9819051 C13.0793589,15.0989662 13.3331005,16.6598615 11.2292666,16.6598615 C9.85846386,16.6598615 9.18822721,15.544082 9.18822721,14.5239895 C9.18822721,10.731535 14.7679794,9.87248729 14.7679794,6.74685211 C14.7679794,5.0274751 13.6175987,4.00780977 11.7085562,4.00780977 C7.62989495,4.00780977 9.22197399,8.21419622 6.12880407,8.21419622 C5.01815059,8.21419622 4.05914404,7.54481391 4.05914404,6.26969829 C4.05871686,3.14705333 7.62946778,0.37640009 11.5146191,0.37640009 Z M11.3578461,18.732939 C12.8007012,18.7345902 13.9691383,19.9053854 13.9678806,21.3482409 C13.9666228,22.7910964 12.7961463,23.9598528 11.3532905,23.9589885 C9.91043466,23.9581243 8.74135914,22.7879665 8.74182995,21.3451105 C8.74182995,19.9098045 9.92254003,18.7316574 11.3574189,18.7316574 L11.3578461,18.732939 Z"/>
  </defs>
  <use fill="#222" fill-rule="evenodd" xlink:href="#help-3-a"/>
</svg>
