<svg xmlns="http://www.w3.org/2000/svg" xmlns:xlink="http://www.w3.org/1999/xlink" width="24" height="24" viewBox="0 0 24 24">
  <defs>
    <path id="helppi-a" d="M18.512647,22.5433989 C20.8043392,22.5433989 22.6681444,20.679104 22.6681444,18.3879014 L22.6681444,13.7594762 C22.6681444,13.2013627 22.2157788,12.748997 21.6581549,12.748997 C21.1000414,12.748997 20.6476758,13.2013627 20.6476758,13.7594762 L20.6476758,18.3879014 C20.6476758,19.565325 19.6900706,20.5234198 18.512647,20.5234198 L5.73674423,20.5234198 C4.55932064,20.5234198 3.60122585,19.565325 3.60122585,18.3879014 L3.60122585,5.61199863 C3.60122585,4.43457504 4.55932064,3.47648025 5.73674423,3.47648025 L15.9472833,3.47648025 C16.5053968,3.47648025 16.9572728,3.02411459 16.9572728,2.4664907 C16.9572728,1.90837723 16.5053968,1.45650115 15.9472833,1.45650115 L5.73674423,1.45650115 C3.44505199,1.45650115 1.58075717,3.32079597 1.58075717,5.61199863 L1.58075717,18.3879014 C1.58075717,20.679104 3.44505199,22.5433989 5.73674423,22.5433989 L18.512647,22.5433989 M21.8525155,2.97907386 C22.5354701,2.29562964 23.6433743,2.29562964 24.3268185,2.97858429 C25.0097732,3.6620285 25.0097732,4.7699327 24.3268185,5.45337691 L13.9694075,15.8117671 C13.6438413,16.1383124 13.1929444,16.3243502 12.732256,16.3243502 C12.2715676,16.3243502 11.8211602,16.1383124 11.495594,15.8117671 L6.31590935,10.6330616 C5.63246513,9.9505965 5.63246513,8.84318188 6.31541977,8.15924809 C6.99886399,7.47580388 8.10676818,7.47580388 8.78972282,8.15924809 L12.732256,12.1012917 L21.8525155,2.97907386"/>
  </defs>
  <use fill="#222" fill-rule="evenodd" xlink:href="#helppi-a"/>
</svg>
