<svg xmlns="http://www.w3.org/2000/svg" xmlns:xlink="http://www.w3.org/1999/xlink" width="24" height="24" viewBox="0 0 24 24">
  <defs>
    <path id="home-a" d="M21.9005873,10.2008511 L12.9036821,1.20394589 C12.2459093,0.549201858 11.1826577,0.549201858 10.5248849,1.20394589 L1.95091117,9.77791966 L1.95091117,9.77791966 L1.52797973,10.2008511 C0.220737087,11.5080937 0.662892686,12.5796482 2.5130255,12.5796482 L2.82907063,12.5796482 L2.82907063,23.4628277 L8.43637258,23.4628277 L8.43637258,16.503683 C8.437009,16.0395245 8.81346271,15.663587 9.27762167,15.6635874 L14.1509453,15.6635874 C14.6155544,15.6635874 14.9921944,16.0402274 14.9921944,16.5048365 L14.9921944,23.4639811 L20.5987274,23.4639811 L20.5987274,12.5792637 L20.9147725,12.5792637 C22.7649053,12.5792637 23.2101368,11.5088627 21.9005873,10.2008511 Z"/>
  </defs>
  <use fill="#222" fill-rule="evenodd" xlink:href="#home-a"/>
</svg>
