<svg xmlns="http://www.w3.org/2000/svg" xmlns:xlink="http://www.w3.org/1999/xlink" width="24" height="24" viewBox="0 0 24 24">
  <defs>
    <path id="home-installation-a" d="M14.9551981,11.642454 C15.2991452,11.2985069 15.9356789,11.3726008 16.3718223,11.8104282 C16.8079658,12.2482556 16.8841646,12.8818424 16.5402175,13.2257895 L14.330452,15.435555 L12.7454326,13.8505355 L14.9551981,11.642454 Z M12.6894412,9.37669719 L10.4805177,11.5864626 L8.89591931,10.0027062 L11.1056848,7.79294073 C11.4492109,7.44773066 12.0844816,7.52350848 12.5210461,7.96133589 C12.9576105,8.3991633 13.0333883,9.03275008 12.6894412,9.37669719 Z M6.9278009,9.88440859 L14.4512756,17.4040944 C14.8585156,17.801807 15.0204856,18.3877546 14.875329,18.938163 C14.7301725,19.4885714 14.3003069,19.918437 13.7498985,20.0635936 C13.1994901,20.2087502 12.6135425,20.0467801 12.2158298,19.6395401 L11.9110346,19.3347448 L8.13056332,23.1152161 C7.09417475,24.1522403 5.44333895,24.2429456 4.29957348,23.3257101 L1.00618518,20.0323218 C0.0914888103,18.8892845 0.182133713,17.2413601 1.21667913,16.2055418 L4.6919342,12.7298658 L4.99715042,12.4254915 L4.69235519,12.1202753 C4.07493768,11.502974 4.07484345,10.5020366 4.69214473,9.88461912 C5.309446,9.26720159 6.31038336,9.26710733 6.9278009,9.88440859 Z M22.8714544,5.96332735 C23.8196606,6.89862954 24.1939322,8.27033921 23.8521569,9.55761339 C23.5103816,10.8448876 22.5049796,11.8502896 21.2177054,12.1920649 C19.9304312,12.5338402 18.5587215,12.1595686 17.6234193,11.2113624 L13.1188489,6.70679197 C11.6757065,5.25508118 11.6757065,2.91046766 13.1188489,1.45875688 C14.5705597,0.0156144938 16.9151732,0.0156144938 18.366884,1.45875688 L22.8714544,5.96332735 Z"/>
  </defs>
  <use fill="#222" fill-rule="evenodd" xlink:href="#home-installation-a"/>
</svg>
