<svg xmlns="http://www.w3.org/2000/svg" width="32" height="32" viewBox="0 0 32 32">
  <g fill="none" fill-rule="evenodd">
    <path fill="#990AE3" d="M17.5884347,21.857785 L7.58164956,23.910834 L6.80668222,26.3866146 L22.7518068,26.3866146 C23.4444767,26.3866146 24.0034134,26.9455513 24,27.6347921 C24,28.324033 23.4410477,28.8829696 22.7518068,28.8829696 L21.5824977,28.8829696 C21.9836976,29.2053012 22.2443061,29.6922276 22.2443061,30.2443061 C22.2443061,31.2113007 21.4624806,31.9931262 20.495486,31.9931262 C19.5284913,31.9931262 18.7466658,31.2113007 18.7466658,30.2443061 C18.7466658,29.6922276 19.0072743,29.2053012 19.4084742,28.8829696 L9.00128001,28.8829696 C9.40247992,29.2053012 9.66308841,29.6922276 9.66308841,30.2443061 C9.66308841,31.2113007 8.88126295,31.9931262 7.91426829,31.9931262 C6.94727364,31.9931262 6.16544818,31.2113007 6.16544818,30.2443061 C6.16544818,29.6922276 6.42605666,29.2053012 6.82725657,28.8829696 L5.10586893,28.8829696 C4.70809808,28.8829696 4.33090158,28.6909423 4.09772557,28.3720398 C3.86454955,28.0531373 3.79253931,27.6382212 3.91255638,27.2610247 L5.33218683,22.7106633 L3.98799568,10.496355 L1.24817749,10.496355 C0.558936626,10.496355 1.59872116e-14,9.93741836 1.59872116e-14,9.24817749 C1.59872116e-14,8.55893663 0.558936626,8 1.24817749,8 L5.10586893,8 C5.74367391,8 6.27517807,8.47663921 6.34718831,9.11444419 L6.58722244,11.2884676 L9.69462741,11.2884676 C9.70218473,5.2197694 14.6241526,0.302464095 20.6946187,0.302464095 C26.7697509,0.302464095 31.6946187,5.22733185 31.6946187,11.3024641 C31.6946187,17.3775963 26.7697509,22.3024641 20.6946187,22.3024641 C19.6159153,22.3024641 18.5734771,22.1471942 17.5884347,21.857785 Z M11.3578055,17.1210982 L11.730811,20.5057784 L13.3047491,20.1834468 L13.2152087,19.3684107 C12.5015671,18.706354 11.8759325,17.9507496 11.3578055,17.1210982 Z M8.47320492,13.7848226 L8.47320492,13.7813936 L6.86154716,13.7813936 L7.69480851,21.3321816 L9.26874662,21.00985 L8.47320492,13.7848226 Z M20.6946187,20.3024641 C25.6651814,20.3024641 29.6946187,16.2730268 29.6946187,11.3024641 C29.6946187,6.33190135 25.6651814,2.30246409 20.6946187,2.30246409 C15.724056,2.30246409 11.6946187,6.33190135 11.6946187,11.3024641 C11.6946187,16.2730268 15.724056,20.3024641 20.6946187,20.3024641 Z"/>
    <text fill="#990AE3" font-family="HelveticaNeue-Medium, Helvetica Neue" font-size="14" font-weight="400">
      <tspan x="17.106" y="16.201">1</tspan>
    </text>
  </g>
</svg>
