<svg xmlns="http://www.w3.org/2000/svg" xmlns:xlink="http://www.w3.org/1999/xlink" width="24" height="24" viewBox="0 0 24 24">
  <defs>
    <path id="infinite-a" d="M17.8285714,6.7247619 C16.6340571,6.7247619 15.1659429,7.51984762 13.4653714,9.08807619 C12.8804571,9.62739048 12.3726857,10.161219 12,10.5729905 C11.6273143,10.1615619 11.1195429,9.62704762 10.5346286,9.08807619 C8.83405714,7.52019048 7.36594286,6.7247619 6.17142857,6.7247619 C3.35451429,6.7247619 1.06285714,9.01641905 1.06285714,11.8333333 C1.06285714,14.6502476 3.35451429,16.9419048 6.17142857,16.9419048 C7.36594286,16.9419048 8.83405714,16.146819 10.5346286,14.5785905 C11.1195429,14.0392762 11.6273143,13.5054476 12,13.0936762 C12.3726857,13.5051048 12.8804571,14.039619 13.4653714,14.5785905 C15.1659429,16.1464762 16.6340571,16.9419048 17.8285714,16.9419048 C20.6454857,16.9419048 22.9371429,14.6502476 22.9371429,11.8333333 C22.9371429,9.01641905 20.6454857,6.7247619 17.8285714,6.7247619 Z M9.42102857,13.3981333 C7.60388571,15.0695619 6.60548571,15.3181333 6.17142857,15.3181333 C4.24625861,15.3181333 2.6856,13.7574747 2.6856,11.8323048 C2.6856,9.9071348 4.24625861,8.34647619 6.17142857,8.34647619 C6.60548571,8.34647619 7.60457143,8.59607619 9.42102857,10.2664762 C10.0498286,10.845219 10.5946286,11.4321905 10.9501714,11.8312762 C10.5942857,12.2341333 10.0498286,12.8193905 9.42102857,13.3981333 Z M17.8285714,15.3181333 C17.3945143,15.3181333 16.3954286,15.0685333 14.5789714,13.3981333 C13.9498286,12.8193905 13.4053714,12.232419 13.0498286,11.8329905 C13.4019429,11.4359619 13.9412571,10.857219 14.5652571,10.2808762 C16.3899429,8.59847619 17.3931429,8.3471619 17.8285714,8.3471619 C19.7538361,8.3471619 21.3145714,9.90789727 21.3145714,11.8331619 C21.3145714,13.7584265 19.7538361,15.3191619 17.8285714,15.3191619 L17.8285714,15.3181333 Z"/>
  </defs>
  <use fill="#222" fill-rule="evenodd" xlink:href="#infinite-a"/>
</svg>
