<svg xmlns="http://www.w3.org/2000/svg" xmlns:xlink="http://www.w3.org/1999/xlink" width="24" height="24" viewBox="0 0 24 24">
  <defs>
    <path id="info-1-a" d="M12.0410884,23.5334041 C7.35968423,23.5330664 3.13939115,20.7129703 1.34794103,16.3879991 C-0.443509101,12.0630279 0.546638184,7.08481172 3.85672197,3.77446771 C8.3899052,-0.667943274 15.6551198,-0.631250194 20.1431978,3.85672281 C24.6312759,8.34469581 24.6679698,15.6097403 20.2254549,20.1428174 C18.0597794,22.3208686 15.1126041,23.5418126 12.0410884,23.5334041 Z M12,21.4587402 C17.223918,21.4587402 21.4587402,17.223918 21.4587402,12 C21.4587402,6.77608202 17.223918,2.54125977 12,2.54125977 C6.77608202,2.54125977 2.54125977,6.77608202 2.54125977,12 C2.54125977,17.223918 6.77608202,21.4587402 12,21.4587402 Z M12.9926225,17.1232904 C12.9975877,17.644647 12.8180754,18.1296741 12.5228547,18.3925631 C12.227634,18.6554521 11.8624678,18.6554521 11.5672471,18.3925631 C11.2720264,18.1296741 11.0925141,17.644647 11.0974793,17.1232904 L11.0974793,10.579449 C11.0925141,10.0580924 11.2720264,9.57306537 11.5672471,9.31017635 C11.8624678,9.04728734 12.227634,9.04728734 12.5228547,9.31017635 C12.8180754,9.57306537 12.9975877,10.0580924 12.9926225,10.579449 L12.9926225,17.1232904 Z M12.0450301,7.69150155 L12.0450301,7.69060187 C11.2603156,7.69060203 10.6240395,7.05472865 10.6235428,6.27001428 C10.6235428,5.69507635 10.9698771,5.17675051 11.5010505,4.95673129 C12.0322239,4.73671207 12.6436309,4.85832848 13.0501734,5.26487099 C13.4567159,5.6714135 13.5783323,6.28282052 13.3583131,6.81399391 C13.1382939,7.34516729 12.619968,7.69150155 12.0450301,7.69150155 Z"/>
  </defs>
  <use fill="#222" fill-rule="evenodd" xlink:href="#info-1-a"/>
</svg>
