<svg xmlns="http://www.w3.org/2000/svg" xmlns:xlink="http://www.w3.org/1999/xlink" width="24" height="24" viewBox="0 0 24 24">
  <defs>
    <path id="info-2-a" d="M19.6889068,19.6214551 C15.3230091,23.9866399 8.24660462,23.9866399 3.88177625,19.6214551 C-0.483052126,15.2562703 -0.481626294,8.17915287 3.88177625,3.81575032 C8.24517879,-0.547652217 15.3240785,-0.549078049 19.6889068,3.81575032 C24.0537352,8.1805787 24.0533788,15.2562703 19.6889068,19.6214551 Z M13.08461,17.6479124 L13.08461,10.4688144 C13.0900572,9.89684603 12.8931183,9.36473398 12.5692385,9.07632448 C12.2453586,8.78791498 11.8447431,8.78791498 11.5208633,9.07632448 C11.1969835,9.36473398 11.0000446,9.89684603 11.0054918,10.4688144 L11.0054918,17.6479124 C11.0000446,18.2198807 11.1969835,18.7519928 11.5208633,19.0404023 C11.8447431,19.3288118 12.2453586,19.3288118 12.5692385,19.0404023 C12.8931183,18.7519928 13.0900572,18.2198807 13.08461,17.6479124 L13.08461,17.6479124 Z M12.0450281,7.30051355 C12.6757793,7.30051355 13.2444227,6.92055819 13.4858007,6.33782008 C13.7271787,5.75508196 13.5937561,5.08432137 13.1477477,4.63831293 C12.7017393,4.19230448 12.0309787,4.05888191 11.4482406,4.30025994 C10.8655024,4.54163797 10.4855471,5.11028134 10.4855471,5.74103253 C10.486092,6.60192463 11.1841358,7.2995267 12.0450281,7.29952653 L12.0450281,7.30051355 Z"/>
  </defs>
  <use fill="#222" fill-rule="evenodd" xlink:href="#info-2-a"/>
</svg>
