<svg xmlns="http://www.w3.org/2000/svg" xmlns:xlink="http://www.w3.org/1999/xlink" width="24" height="24" viewBox="0 0 24 24">
  <defs>
    <path id="instagram-a" d="M12,0.51030816 C15.120272,0.51030816 15.513876,0.523767513 16.7370358,0.579574588 C17.9601956,0.635381662 18.795332,0.829393316 19.5257482,1.11203974 C20.2924981,1.40050505 20.9870862,1.85277152 21.561065,2.43729362 C22.1455871,3.01127242 22.5978536,3.7058605 22.8863189,4.47261046 C23.1702784,5.20466797 23.3642901,6.03849132 23.4204254,7.26296419 C23.4765608,8.48743707 23.4896918,8.87972797 23.4896918,12 C23.4896918,15.120272 23.4765608,15.5115781 23.4207537,16.7357227 C23.3649466,17.9598673 23.1706067,18.795332 22.8866472,19.5260764 C22.2898585,21.0691104 21.0702486,22.2890779 19.5273895,22.8863189 C18.795332,23.1702784 17.9615087,23.3642901 16.7370358,23.4204254 C15.5125629,23.4765608 15.120272,23.4896918 12,23.4896918 C8.87972797,23.4896918 8.48875017,23.4778739 7.26460558,23.4220668 C6.04046098,23.3662597 5.20499625,23.1719198 4.47425184,22.8879603 C3.70750188,22.5994949 3.0129138,22.1472285 2.438935,21.5627064 C1.85442111,20.9887209 1.4021559,20.2941347 1.11368112,19.5273895 C0.829721593,18.795332 0.635709939,17.9615087 0.579574588,16.7370358 C0.523439236,15.5125629 0.51030816,15.120272 0.51030816,12 C0.51030816,8.87972797 0.523767513,8.48612396 0.579574588,7.26296419 C0.635381662,6.03980443 0.829393316,5.20466797 1.11203974,4.47425184 C1.40050505,3.70750188 1.85277152,3.0129138 2.43729362,2.438935 C3.01127242,1.8544129 3.7058605,1.40214644 4.47261046,1.11368112 C5.20466797,0.829721593 6.03849132,0.635709939 7.26296419,0.579574588 C8.48743707,0.523439236 8.87972797,0.51030816 12,0.51030816 Z M12,2.58042235 L12,2.58140718 C8.93290883,2.58140718 8.56884974,2.59191204 7.35717967,2.64706257 C6.23677057,2.69827376 5.62814518,2.8853916 5.22337975,3.04263624 C4.68730356,3.25109208 4.30453268,3.50025425 3.90239347,3.90206519 C3.50025425,4.30387613 3.25142036,4.68664701 3.04296452,5.22305148 C2.88571988,5.62814518 2.69860204,6.23677057 2.64739084,7.35685139 C2.59355343,8.56852146 2.58173546,8.93258056 2.58173546,11.9996717 C2.58173546,15.0667629 2.59224032,15.430822 2.64739084,16.6424921 C2.69860204,17.7629012 2.88571988,18.3715265 3.04296452,18.776292 C3.25142036,19.3126964 3.50058253,19.6941542 3.90239347,20.0962934 C4.30420441,20.4984326 4.68697528,20.7472665 5.22337975,20.9557224 C5.62847346,21.112967 6.23709885,21.3000849 7.35717967,21.3512961 C8.56852146,21.4051335 8.93290883,21.4169514 12,21.4169514 C15.0670912,21.4169514 15.4314785,21.4064466 16.6428203,21.3512961 C17.7632294,21.3000849 18.3718548,21.112967 18.7766202,20.9557224 C19.3126964,20.7472665 19.6954673,20.4981044 20.0976065,20.0962934 C20.4997457,19.6944825 20.7485796,19.3117116 20.9570355,18.7753071 C21.1142801,18.3702134 21.301398,17.761588 21.3526092,16.6415072 C21.4064466,15.4298372 21.4182645,15.0657781 21.4182645,11.9986869 C21.4182645,8.93159572 21.4077597,8.56753663 21.3526092,7.35586656 C21.301398,6.23545747 21.1142801,5.62683207 20.9570355,5.22206664 C20.7485796,4.68599045 20.4994175,4.30321957 20.0976065,3.90108036 C19.6957956,3.49894115 19.3130247,3.25010725 18.7766202,3.04165141 C18.3715265,2.88440677 17.7629012,2.69728893 16.6428203,2.64607773 C15.4311503,2.59224032 15.0677477,2.58042235 12,2.58042235 Z M12,6.0998791 C13.5648094,6.0998791 15.0655282,6.7214972 16.1720155,7.8279845 C17.2785028,8.93447181 17.9001209,10.4351906 17.9001209,12 C17.9001209,15.2585468 15.2585468,17.9001209 12,17.9001209 C8.74145321,17.9001209 6.0998791,15.2585468 6.0998791,12 C6.0998791,8.74145321 8.74145321,6.0998791 12,6.0998791 Z M12,15.8300067 C13.0157809,15.8300067 13.9899581,15.4264893 14.7082237,14.7082237 C15.4264893,13.9899581 15.8300067,13.0157809 15.8300067,12 C15.8300067,9.8847457 14.1152543,8.16999329 12,8.16999329 C9.8847457,8.16999329 8.16999329,9.8847457 8.16999329,12 C8.16999329,14.1152543 9.8847457,15.8300067 12,15.8300067 Z M18.1331975,7.24556552 C17.3717277,7.24556552 16.7544345,6.62827229 16.7544345,5.8668025 C16.7544345,5.10533271 17.3717277,4.48803947 18.1331975,4.48803947 C18.8946673,4.48803947 19.5119605,5.10533271 19.5119605,5.8668025 C19.5119605,6.62827229 18.8946673,7.24556552 18.1331975,7.24556552 Z"/>
  </defs>
  <use fill="#222" fill-rule="evenodd" xlink:href="#instagram-a"/>
</svg>
