<svg xmlns="http://www.w3.org/2000/svg" xmlns:xlink="http://www.w3.org/1999/xlink" width="24" height="24" viewBox="0 0 24 24">
  <defs>
    <path id="internet-a" d="M19.6014857,4.39851429 C15.4027544,0.2006798 8.59621705,0.2006798 4.39748571,4.39851429 C0.200571429,8.5968 0.200571429,15.4025143 4.39748571,19.6011429 C6.41363248,21.6173732 9.14816449,22.7500867 11.9994857,22.7500867 C14.8508069,22.7500867 17.585339,21.6173732 19.6014857,19.6011429 C23.7994286,15.4025143 23.7994286,8.5968 19.6014857,4.39851429 Z M18.5410286,18.5406857 C16.5180954,20.5801128 13.6596895,21.5593071 10.8111532,21.1886827 C7.96261692,20.8180583 5.44994344,19.1400303 4.01622857,16.6508571 C4.05737143,16.5428571 4.10022857,16.4317714 4.14514286,16.3203429 C4.2432,16.0772571 4.35085714,15.8348571 4.44754286,15.6411429 C4.50656873,15.5150411 4.57873998,15.3955219 4.66285714,15.2845714 C4.76262857,15.1748571 4.87131429,15.0788571 5.00845714,14.9276571 C5.09242622,14.834627 5.16367687,14.730864 5.22034286,14.6190857 C5.29654245,14.4667449 5.33632999,14.2987922 5.33657143,14.1284571 C5.33592042,13.9830099 5.30861194,13.8389141 5.256,13.7033143 C5.18339024,13.5225928 5.08524925,13.353213 4.96457143,13.2003429 C4.82632246,13.0227845 4.67832334,12.8530377 4.52125714,12.6918857 C4.04948571,12.2005714 3.80982857,11.9115429 3.67748571,11.6777143 C3.6083819,11.5566362 3.55251701,11.4284688 3.51085714,11.2954286 C3.45167442,11.1015042 3.40246705,10.9046747 3.36342857,10.7057143 C3.3,10.4043429 3.2544,9.92434286 3.23108571,9.45531429 C3.2256,9.34628571 3.22114286,9.23794286 3.21737143,9.13097143 C3.9582507,6.83388236 5.5723578,4.92005473 7.71154286,3.80228571 C7.824,3.81291429 7.93268571,3.82525714 8.05817143,3.8256 C8.13874286,3.8256 8.2224,3.82354286 8.30914286,3.81942857 C9.18034286,3.77588571 9.38914286,3.76525714 9.52902857,3.76045714 C9.66891429,3.75565714 9.77657143,3.75497143 10.4307429,3.73302857 C10.7375256,3.72780174 11.0430285,3.69208317 11.3427429,3.6264 C11.6845739,3.5520101 12.0019184,3.39204019 12.2650286,3.16148571 C12.4460571,2.99931429 12.5461714,2.88274286 12.6586286,2.7816 C13.8822443,2.86544228 15.0766349,3.19373938 16.1712,3.74708571 C15.6068571,3.76114286 14.6321143,3.88971429 14.3557714,4.5816 C14.2282286,4.90045714 14.3729143,5.58205714 14.6448,5.88445714 C14.9166857,6.18685714 15.3099429,6.10457143 15.3099429,6.10457143 C15.6994456,5.96501696 16.1283312,6.16764009 16.2678857,6.55714286 C16.4074402,6.94664562 16.2048171,7.37553125 15.8153143,7.51508571 C15.3249687,7.68015237 14.7915443,7.6628666 14.3129143,7.4664 C13.9815743,7.32474612 13.6916076,7.10131367 13.4701714,6.81702857 L13.4701714,6.81702857 C13.1866286,6.45805714 13.0278857,5.0544 12.5101714,5.04 C11.9924571,5.0256 11.7085714,5.43462857 11.472,5.85257143 C11.2354286,6.27051429 11.8937143,6.41794286 11.8937143,7.01828571 C11.8937143,7.61862857 10.4766857,8.0184 11.1737143,8.63828571 C11.7644571,9.16525714 14.0369143,9.80914286 14.4634286,9.73542857 C15.0260571,9.63634286 15.4673143,9.69634286 15.732,10.0117714 C15.9966857,10.3272 15.8506286,10.7256 15.6504,10.8812571 C15.4527671,11.0401851 15.2395681,11.1787185 15.0140571,11.2947429 C14.6369143,11.4894857 14.1161143,11.4819429 13.6426286,11.1918857 C13.4709409,11.0836994 13.2920029,10.9874715 13.1070857,10.9038857 C12.9862389,10.8513045 12.8615286,10.8080914 12.7340571,10.7746286 C12.4748571,10.7033143 12.0881143,10.6296 11.4864,10.4036571 C11.0838857,10.2528 9.78171429,9.21085714 8.95577143,9.9384 C8.12982857,10.6659429 7.78285714,11.6688 7.77771429,12.2485714 C7.77627923,12.5019314 7.81909359,12.7535963 7.90422857,12.9922286 C8.05363225,13.3950962 8.32467126,13.7415037 8.67977143,13.9834286 C9.0528,14.244 9.51634286,14.4154286 10.0752,14.5107429 C10.8408,14.6365714 11.3780571,14.7973714 11.6180571,14.9513143 C11.7397714,15.0281143 11.7860571,15.0836571 11.8172571,15.1368 C11.8484571,15.1899429 11.8728,15.2626286 11.8745143,15.4203429 C11.8745143,15.5972571 11.8299429,15.8729143 11.7099429,16.2390857 C11.4822857,16.9450286 11.3424,17.5522286 11.3393143,18.1117714 C11.3371499,18.3152645 11.3618196,18.518155 11.4126857,18.7152 C11.4894857,19.0110857 11.664,19.3217143 11.9482286,19.5291429 C12.2324571,19.7365714 12.5718857,19.8171429 12.8914286,19.8171429 C13.1183061,19.8145181 13.3439998,19.7840034 13.5634286,19.7262857 C14.3945143,19.5168 15.0980571,19.1036571 15.6469714,18.6733714 C15.8987763,18.4759319 16.1345952,18.2589144 16.3522286,18.0243429 C16.5273901,17.8387424 16.6825304,17.6352213 16.8150857,17.4171429 C16.9830857,17.1281143 17.1106286,16.8730286 17.2532571,16.6416 C17.4023952,16.3928036 17.5814423,16.1632088 17.7864,15.9579429 C17.8645714,15.876 18.0363429,15.7635429 18.2437714,15.6150857 C18.9675429,15.0449143 18.1340571,14.5494857 17.8350857,14.4003429 C17.2046089,14.0760412 16.6248883,13.6613775 16.1142857,13.1694857 C15.8207858,12.8769326 15.8200183,12.4018428 16.1125714,12.1083429 C16.4051246,11.814843 16.8802144,11.8140755 17.1737143,12.1066286 L17.1737143,12.1066286 L17.1757714,12.1086857 L17.1918857,12.1237714 L17.2635429,12.1923429 C17.3283429,12.2513143 17.4257143,12.3363429 17.5477714,12.4323429 C17.8440043,12.6722244 18.1642169,12.8808738 18.5033143,13.0549714 C18.7724571,13.1897143 19.7547429,13.6203429 19.7492571,13.0484571 C19.7379429,11.8381714 20.3177143,12.2705143 20.4908571,12.3610286 C20.9787429,12.6150857 21.0984,13.1228571 21.108,13.5212571 C20.799449,15.4220476 19.9015132,17.1778616 18.5410286,18.5406857 L18.5410286,18.5406857 Z"/>
  </defs>
  <use fill="#222" fill-rule="evenodd" xlink:href="#internet-a"/>
</svg>
