<svg xmlns="http://www.w3.org/2000/svg" xmlns:xlink="http://www.w3.org/1999/xlink" width="24" height="24" viewBox="0 0 24 24">
  <defs>
    <path id="invoice-1-a" d="M19.1783238,0.511504762 L4.15500952,0.511504762 C3.68673517,0.511504762 3.30712381,0.891116127 3.30712381,1.35939048 L3.30712381,22.3079619 C3.30731302,22.7761579 3.68681357,23.1556584 4.15500952,23.1558476 L14.5319238,23.1558476 L14.5319238,19.1869333 C14.5319238,18.2495619 15.277981,17.4863619 16.194781,17.4863619 L20.0265524,17.4863619 L20.0265524,1.35973333 C20.0266434,1.13474124 19.9373059,0.918938113 19.7782125,0.759844669 C19.619119,0.600751224 19.4033159,0.511413764 19.1783238,0.511504762 L19.1783238,0.511504762 Z M11.6666667,15.6201905 L6.54540952,15.6201905 C6.07713517,15.6201905 5.69752381,15.2405791 5.69752381,14.7723048 C5.69752381,14.3040304 6.07713517,13.924419 6.54540952,13.924419 L11.6666667,13.924419 C12.134941,13.924419 12.5145524,14.3040304 12.5145524,14.7723048 C12.5145524,15.2405791 12.134941,15.6201905 11.6666667,15.6201905 Z M12.5145524,18.0568762 C12.5145524,18.525206 12.1349965,18.9049155 11.6666667,18.9051048 L6.54540952,18.9051048 C6.07713517,18.9051048 5.69752381,18.5254934 5.69752381,18.057219 C5.69752381,17.5889447 6.07713517,17.2093333 6.54540952,17.2093333 L11.6666667,17.2093333 C12.1349965,17.2093333 12.5147059,17.5888892 12.5148952,18.057219 L12.5145524,18.0568762 Z M11.6666667,12.3352762 L6.54540952,12.3352762 C6.24248913,12.3352762 5.96257913,12.1736701 5.81111893,11.9113333 C5.65965872,11.6489966 5.65965872,11.3257844 5.81111893,11.0634476 C5.96257913,10.8011109 6.24248913,10.6395047 6.54540952,10.6395048 L11.6666667,10.6395048 C11.9695871,10.6395047 12.2494971,10.8011109 12.4009573,11.0634476 C12.5524175,11.3257844 12.5524175,11.6489966 12.4009573,11.9113333 C12.2494971,12.1736701 11.9695871,12.3352762 11.6666667,12.3352762 L11.6666667,12.3352762 Z M6.54540952,8.3111619 C6.07721357,8.3109727 5.69771302,7.93147215 5.69752381,7.46327619 L5.69752381,3.69973333 C5.69725085,3.47465036 5.78644995,3.25868776 5.9454791,3.09940139 C6.10450825,2.94011502 6.32032641,2.850567 6.54540952,2.85047619 L16.7879238,2.85047619 C17.2561982,2.85047619 17.6358095,3.23008756 17.6358095,3.6983619 L17.6358095,7.46327619 C17.6356203,7.93147215 17.2561198,8.3109727 16.7879238,8.3111619 L6.54540952,8.3111619 Z M16.9590095,15.6201905 L15.153181,15.6201905 C14.6849066,15.6201905 14.3052952,15.2405791 14.3052952,14.7723048 C14.3052952,14.3040304 14.6849066,13.924419 15.153181,13.924419 L16.9586667,13.924419 C17.2615871,13.9243578 17.5415297,14.0859073 17.6930429,14.3482134 C17.8445562,14.6105196 17.8446215,14.9337318 17.6932144,15.1960992 C17.5418072,15.4584665 17.2619299,15.6201292 16.9590095,15.6201905 Z M16.9590095,12.3352762 L15.153181,12.3352762 C14.8502606,12.3352762 14.5703506,12.1736701 14.4188904,11.9113333 C14.2674302,11.6489966 14.2674302,11.3257844 14.4188904,11.0634476 C14.5703506,10.8011109 14.8502606,10.6395047 15.153181,10.6395048 L16.9586667,10.6395048 C17.426941,10.6394101 17.8066291,11.0189447 17.8067238,11.487219 C17.8068185,11.9554934 17.4272839,12.3351815 16.9590095,12.3352762 Z M17.5223238,18.8430476 L17.5223238,18.8427048 L19.8921524,18.8427048 C19.8596405,18.8944329 19.8213359,18.9422849 19.777981,18.9853333 L15.8889524,22.8753905 L15.8889524,19.1859048 C15.8889524,18.9973333 16.0257524,18.8430476 16.194781,18.8430476 L17.5223238,18.8430476 Z"/>
  </defs>
  <use fill="#222" fill-rule="evenodd" xlink:href="#invoice-1-a"/>
</svg>
