<svg xmlns="http://www.w3.org/2000/svg" xmlns:xlink="http://www.w3.org/1999/xlink" width="24" height="24" viewBox="0 0 24 24">
  <defs>
    <path id="ipad-a" d="M18.6609524,0.0780952381 L4.67238097,0.0780952381 C3.87462932,0.0780952381 3.22792383,0.724800729 3.22792383,1.52255238 L3.22792383,21.810781 C3.22783286,22.1939027 3.37998709,22.5613589 3.65089507,22.8322669 C3.92180305,23.1031748 4.28925924,23.2553291 4.67238097,23.2552381 L18.6609524,23.2552381 C19.4587041,23.2552381 20.1054095,22.6085326 20.1054095,21.810781 L20.1054095,1.52255238 C20.1052203,0.72487914 19.4586256,0.0782845069 18.6609524,0.0780952381 Z M12.5416381,21.810781 C12.1752553,22.2341298 11.558335,22.334446 11.0766952,22.0489924 C10.5950554,21.7635388 10.3868693,21.1742065 10.5823351,20.6495602 C10.7778009,20.1249139 11.3208432,19.8154644 11.871847,19.9147394 C12.4228507,20.0140145 12.8237435,20.4935339 12.8238095,21.0534095 C12.8241197,21.331626 12.7239128,21.6005895 12.5416381,21.810781 Z M17.8158095,19.0830095 L5.51752383,19.0830095 L5.51752383,2.26449524 L17.8158095,2.26449524 L17.8158095,19.0830095 Z"/>
  </defs>
  <use fill="#222" fill-rule="evenodd" xlink:href="#ipad-a"/>
</svg>
