<svg xmlns="http://www.w3.org/2000/svg" xmlns:xlink="http://www.w3.org/1999/xlink" width="24" height="24" viewBox="0 0 24 24">
  <defs>
    <path id="laptop-a" d="M19.5366095,2.70201905 L3.79672381,2.70201905 C2.53391684,2.70201905 1.51020952,3.72572636 1.51020952,4.98853333 L1.51020952,15.110019 C1.51020952,16.372826 2.53391684,17.3965333 3.79672381,17.3965333 L19.5366095,17.3965333 C20.7994165,17.3965333 21.8231238,16.372826 21.8231238,15.110019 L21.8231238,4.98853333 C21.8231238,3.72572636 20.7994165,2.70201905 19.5366095,2.70201905 L19.5366095,2.70201905 Z M19.5366095,15.1103619 L3.79672381,15.1103619 L3.79672381,4.98853333 L19.5366095,4.98853333 L19.5366095,15.110019 L19.5366095,15.1103619 Z M22.1183238,20.9646476 L1.21500952,20.9646476 C0.583606039,20.9646476 0.071752381,20.452794 0.071752381,19.8213905 C0.071752381,19.189987 0.583606039,18.6781333 1.21500952,18.6781333 L22.1183238,18.6781333 C22.7497273,18.6781333 23.261581,19.189987 23.261581,19.8213905 C23.261581,20.452794 22.7497273,20.9646476 22.1183238,20.9646476 Z"/>
  </defs>
  <use fill="#222" fill-rule="evenodd" xlink:href="#laptop-a"/>
</svg>
