<svg xmlns="http://www.w3.org/2000/svg" xmlns:xlink="http://www.w3.org/1999/xlink" width="24" height="24" viewBox="0 0 24 24">
  <defs>
    <path id="late-payment-a" d="M22.1574476,11.152381 C22.5766502,11.1559559 22.9146461,11.496706 22.914819,11.9159238 L22.914819,19.1183238 L22.914819,19.1577524 C22.9152057,19.1636889 22.9152057,19.1696444 22.914819,19.175581 L22.914819,19.1930667 C22.9137905,19.204381 22.9117333,19.2180952 22.9107048,19.2273524 C22.9096762,19.2366095 22.9083048,19.245181 22.9062476,19.2540952 C22.9064599,19.2554585 22.9064599,19.2568463 22.9062476,19.2582095 C22.9039619,19.2712381 22.9013333,19.2842667 22.8983619,19.2972952 C22.8969905,19.3034667 22.895619,19.307581 22.8939048,19.3144381 C22.8921905,19.3212952 22.890819,19.3257524 22.888419,19.3346667 C22.886019,19.343581 22.8832762,19.3521524 22.8801905,19.3607238 L22.8743619,19.3778667 C22.8709333,19.3878095 22.8678476,19.393981 22.8633905,19.4066667 C22.8589333,19.4193524 22.852419,19.4334095 22.8489905,19.4409524 C22.8455619,19.4484952 22.8417905,19.456381 22.838019,19.4639238 C22.8373141,19.4656347 22.8363923,19.4672479 22.8352762,19.4687238 C22.833219,19.4735238 22.8304762,19.4783238 22.8277333,19.4831238 C22.822019,19.4938667 22.8159619,19.5046095 22.8095619,19.5153524 C22.8083292,19.5177185 22.8069553,19.5200084 22.8054476,19.5222095 C22.8003048,19.5300952 22.7951619,19.5383238 22.7896762,19.5462095 C22.7858015,19.5523964 22.7815656,19.5583496 22.7769905,19.5640381 C22.7744581,19.5680682 22.7717113,19.5719595 22.7687619,19.5756952 C22.7673744,19.5780155 22.765767,19.580197 22.7639619,19.5822095 C22.7609835,19.5864915 22.757779,19.5906116 22.7543619,19.5945524 L22.7509333,19.5986667 C22.7451048,19.6065524 22.7385905,19.6140952 22.7320762,19.6212952 L22.7286476,19.6250667 C22.7187048,19.6377524 22.708419,19.6487238 22.6974476,19.6593524 L19.3127619,23.0440381 C19.2955506,23.0614 19.2774702,23.0778783 19.2585905,23.0934095 L19.2294476,23.116381 C19.2198476,23.123581 19.2099048,23.1304381 19.199619,23.1372952 L19.1838476,23.147581 L19.168419,23.157181 C19.1576762,23.163581 19.1469333,23.1696381 19.1361905,23.1753524 L19.118019,23.1852952 L19.1056762,23.1914667 L19.0995048,23.1942095 L19.0827048,23.2017524 C19.0731048,23.2062095 19.0631619,23.209981 19.0535619,23.2140952 C19.0439619,23.2182095 19.0333333,23.2216381 19.024419,23.2250667 C19.0155048,23.2284952 19.0059048,23.231581 18.9966476,23.2343238 C18.9706486,23.2423674 18.944204,23.2488927 18.9174476,23.2538667 C18.9054476,23.2562667 18.8934476,23.2600381 18.8811048,23.2600381 C18.8696762,23.2614095 18.8582476,23.2628952 18.846819,23.2644952 C18.8353905,23.2660952 18.8239619,23.2668952 18.8125333,23.2668952 L18.7861333,23.2668952 L14.3173333,23.2668952 C14.1148013,23.2669862 13.9205383,23.186571 13.7773265,23.0433592 C13.6341147,22.9001474 13.5536995,22.7058844 13.5537905,22.5033524 L13.5537905,20.7791238 C8.99976424,21.8087507 4.31341183,19.7044079 2.05723231,15.6167508 C-0.198947209,11.5290937 0.518244844,6.44226832 3.81664762,3.13775238 C6.81541327,0.138914504 11.3253724,-0.758194531 15.2434917,0.864755061 C19.161611,2.48770465 21.7162627,6.31109197 21.7161905,10.5520381 C21.7161905,10.7522667 21.7103619,10.9528381 21.6990476,11.152381 L22.1574476,11.152381 Z M19.5366476,20.6594667 L20.3139048,19.8818667 L19.5366476,19.8818667 L19.5366476,20.6594667 Z M15.0819048,20.2480381 L15.0819048,20.2466667 L15.0819048,21.7398095 L18.0095619,21.7398095 L18.0095619,19.1183238 C18.0095619,18.6966307 18.3514117,18.354781 18.7731048,18.354781 L21.3939048,18.354781 L21.3939048,12.6794667 L15.0819048,12.6794667 L15.0819048,20.2480381 Z M11.2309333,3.27420952 C11.5602515,3.27384554 11.8762063,3.4044116 12.1091981,3.6371462 C12.34219,3.8698808 12.473105,4.18569115 12.4731048,4.51500952 L12.4731048,10.5492952 C12.4731012,10.8783745 12.3423721,11.1939743 12.1096762,11.4266667 L9.36681905,14.1695238 C9.05672469,14.4978933 8.59269588,14.6318328 8.15531383,14.5192185 C7.71793178,14.4066042 7.3762851,14.0652245 7.26332884,13.6279306 C7.15037258,13.1906368 7.28394924,12.7265034 7.61207619,12.4161524 L9.99013333,10.0380952 L9.99013333,4.51500952 C9.99013333,3.82973461 10.5456584,3.27420952 11.2309333,3.27420952 Z M11.2309333,18.5556952 C12.0182245,18.556546 12.8013172,18.4410115 13.554819,18.2128381 L13.554819,11.9159238 C13.554819,11.4942307 13.8966688,11.152381 14.3183619,11.152381 L19.2123048,11.152381 C19.2270476,10.9528381 19.2345905,10.7526095 19.2345905,10.5520381 C19.2345905,6.13912381 15.6445333,2.54666667 11.2309333,2.54666667 C6.81733333,2.54666667 3.22761905,6.1384381 3.22761905,10.5520381 C3.22761905,14.9656381 6.81733333,18.5556952 11.2309333,18.5556952 Z M18.9455619,17.3176381 L18.2379048,16.609981 L17.5305905,17.3172952 C17.2324514,17.615529 16.7489957,17.6156058 16.4507619,17.3174667 C16.1525281,17.0193276 16.1524514,16.5358719 16.4505905,16.2376381 L17.1582476,15.529981 L16.4505905,14.8226667 C16.2500454,14.6313212 16.168889,14.3463537 16.2385329,14.0780607 C16.3081768,13.8097676 16.5176915,13.600253 16.7859845,13.5306091 C17.0542775,13.4609652 17.339245,13.5421216 17.5305905,13.7426667 L18.2379048,14.4503238 L18.9455619,13.7430095 C19.2437957,13.4448704 19.7272514,13.4449472 20.0253905,13.743181 C20.3235295,14.0414147 20.3234528,14.5248704 20.025219,14.8230095 L19.3179048,15.5303238 L20.025219,16.237981 C20.2235758,16.4297163 20.3030788,16.7135404 20.2331855,16.9804163 C20.1632921,17.2472922 19.9548732,17.4557111 19.6879973,17.5256045 C19.4211214,17.5954979 19.1372973,17.5159948 18.9455619,17.3176381 Z"/>
  </defs>
  <use fill="#222" fill-rule="evenodd" xlink:href="#late-payment-a"/>
</svg>
