<svg xmlns="http://www.w3.org/2000/svg" xmlns:xlink="http://www.w3.org/1999/xlink" width="24" height="24" viewBox="0 0 24 24">
  <defs>
    <path id="like-a" d="M22.3398476,9.29340952 C21.7830476,8.71055238 21.0459048,8.5048381 20.5803048,8.5048381 L15.9105905,8.52438095 C16.060419,8.16918095 16.2479619,7.70358095 16.4848762,7.08986667 C17.5254476,4.39980952 16.5921905,2.15272381 16.406019,1.74986667 C16.1557333,1.09020952 15.3774476,0.053752381 13.9281905,0.0276952381 C13.9223619,0.0276952381 13.9168762,0.0444952381 13.9113905,0.0444952381 L13.8702476,0.0444952381 C12.6580257,0.0436638339 11.67101,1.01875276 11.6571048,2.23089524 C11.6488762,2.8720381 11.6310476,3.3376381 11.6183619,3.68392381 C11.6118476,3.85535238 11.6063619,3.99660952 11.6032762,4.12586667 C11.5041905,4.24758095 11.318019,4.42655238 11.238819,4.50300952 C11.1753905,4.56472381 11.1201905,4.61718095 11.0739048,4.66655238 C10.3960762,5.3824381 8.93584762,7.02952381 8.2463619,8.13249524 C7.9719489,8.57202244 7.73059781,9.03134589 7.52430476,9.50666667 L2.20110476,9.50666667 C1.32853333,9.50666667 0.587619048,10.2033524 0.587619048,11.0772952 L0.587619048,21.729181 C0.587619048,22.6086095 1.32167619,23.3238095 2.20110476,23.3238095 L6.83550476,23.3238095 C6.9100191,23.3244295 6.98448583,23.319847 7.0583619,23.3100952 C7.10672827,23.3184874 7.15567839,23.3230729 7.2047619,23.3238095 L7.2047619,23.3238095 L19.7077333,23.2895238 L19.7125333,23.2895238 C20.4325333,23.2895238 21.0897905,22.984381 21.5176762,22.4553524 C21.8416762,22.0545524 22.0189333,21.5560381 22.0319619,21.009181 C22.0422476,20.5562667 21.9592762,20.1894095 21.8317333,19.8928381 C22.2825905,19.475581 22.5459048,18.8985524 22.5702476,18.2231238 C22.5945641,17.7261008 22.4787333,17.2322458 22.2359619,16.7978667 C22.7632762,16.3583238 23.0176762,15.7247238 23.0368762,14.8476952 C23.0488762,14.2456381 22.8219048,13.6686095 22.3936762,13.1742095 C22.7903619,12.7096381 23.025219,12.0959238 23.0557333,11.3930667 C23.104419,10.3274667 22.6929905,9.66300952 22.3398476,9.29340952 Z M21.1933333,11.3104381 C21.1734476,11.7674667 21.0037333,12.0472381 20.6742476,12.1658667 C20.4107514,12.2596986 20.1972444,12.457453 20.0835314,12.7129995 C19.9698184,12.9685461 19.9658433,13.2595379 20.0725333,13.5180952 L20.0776762,13.5300952 C20.1645971,13.7343247 20.3154746,13.9048138 20.507619,14.0159238 C20.6231619,14.0844952 21.1792762,14.4273524 21.1717333,14.8086095 C21.1659048,15.0750095 21.1254476,15.2656381 21.0582476,15.3455238 C21.0129905,15.3990095 20.8912762,15.4826667 20.5693333,15.5704381 C20.1684241,15.6773782 19.8718557,16.0159421 19.8186329,16.4274415 C19.7654101,16.8389409 19.9660816,17.2418172 20.3265905,17.4472381 C20.682819,17.6498667 20.714019,17.9481524 20.7064762,18.155581 C20.699619,18.3448381 20.6615619,18.556381 20.2926476,18.6698667 C20.036638,18.7465941 19.8211074,18.9209892 19.6926476,19.1553524 C19.4382836,19.6170827 19.5761242,20.1964879 20.0111619,20.4942095 C20.1483048,20.5884952 20.1709333,20.8048381 20.1671619,20.970781 C20.1633905,21.150781 20.1088762,21.2385524 20.068419,21.2886095 C19.9957333,21.3784381 19.8493333,21.4350095 19.6960762,21.4367238 L8.43904762,21.453181 L8.43904762,13.9295238 C8.47333333,12.8416381 8.64167619,11.7695238 9.01470476,10.7618667 C9.01813333,10.7529524 9.02464762,10.7440381 9.02807619,10.734781 C9.24009464,10.1685232 9.50780755,9.62471337 9.82727619,9.11135238 C10.3895619,8.21169524 11.7215619,6.69249524 12.4288762,5.94609524 L12.4326476,5.94266667 C12.4497905,5.92415238 12.4974476,5.87820952 12.5389333,5.83775238 C13.0456762,5.34472381 13.4646476,4.88940952 13.4646476,4.30826667 C13.4646476,4.17112381 13.4718476,3.98358095 13.4807619,3.74495238 C13.4941333,3.38906667 13.5123048,2.90152381 13.5208762,2.23638095 C13.523619,2.03958095 13.6847619,1.86780952 13.8705905,1.86780952 C13.874019,1.86780952 13.8771048,1.86095238 13.8805333,1.86095238 L13.9014476,1.86095238 C14.4157333,1.86095238 14.6214476,2.30666667 14.666019,2.41432381 C14.6773234,2.45331793 14.6932054,2.49083628 14.7133333,2.52609524 C14.7664762,2.63649524 15.5526476,4.3312381 14.747619,6.41546667 C14.121219,8.03718095 13.8928762,8.47260952 13.8513905,8.54666667 L13.845219,8.55558095 C13.6032101,8.90431038 13.5743011,9.35840591 13.7701333,9.73500952 C14.0101333,10.182781 14.4939048,10.4042667 15.2067048,10.391581 L20.5761905,10.3689524 C20.7157701,10.3915141 20.8463385,10.4524064 20.9533333,10.5448381 C21.018819,10.6038095 21.2173333,10.7783238 21.1933333,11.3104381 Z"/>
  </defs>
  <use fill="#222" fill-rule="evenodd" xlink:href="#like-a"/>
</svg>
