<svg xmlns="http://www.w3.org/2000/svg" width="24" height="24" viewBox="0 0 24 24">
  <path fill="#222" fill-rule="evenodd" d="M17.949,8.115 C22.682,8.115 23.556,11.235 23.556,15.292 L23.556,23.557 L18.886,23.557 L18.886,16.23 C18.886,14.482 18.853,12.234 16.456,12.234 C14.023,12.234 13.651,14.138 13.651,16.103 L13.651,23.557 L8.979,23.557 L8.979,8.49 L13.464,8.49 L13.464,10.548 L13.526,10.548 C14.15,9.364 15.675,8.115 17.949,8.115 Z M3.7107,0.9997 C5.2057,0.9997 6.4197,2.2167 6.4197,3.7137 C6.4197,5.2127 5.2057,6.4297 3.7107,6.4297 C2.2127,6.4297 0.9997,5.2127 0.9997,3.7137 C0.9997,2.2167 2.2127,0.9997 3.7107,0.9997 Z M1.373,23.5566 L1.373,8.4896 L6.048,8.4896 L6.048,23.5566 L1.373,23.5566 Z"/>
</svg>
