<svg xmlns="http://www.w3.org/2000/svg" xmlns:xlink="http://www.w3.org/1999/xlink" width="24" height="24" viewBox="0 0 24 24">
  <defs>
    <path id="link-a" d="M12.0202042,16.4677508 C12.0300908,16.5907842 12.0374142,16.7134514 12.0374142,16.8364848 C12.0383311,18.0399143 11.5601942,19.1942151 10.7085802,20.0445074 L8.66131914,22.0899377 C6.88810713,23.8598553 4.01665503,23.8598553 2.24344302,22.0899377 C0.471541099,20.316975 0.471541099,17.4435595 2.24344302,15.6705969 L4.28923944,13.625899 C5.13995993,12.7736723 6.29492725,12.2951369 7.49909293,12.2959665 C7.62176016,12.2959665 7.74479356,12.3032899 7.86709461,12.3131766 L7.69865603,12.4816151 C7.01978633,13.1609285 6.71701285,14.1298583 6.88831999,15.0748369 C6.62068347,15.1649744 6.37728667,15.3152966 6.17685007,15.5142419 L4.13105364,17.5589399 C3.40069796,18.2888911 3.40037008,19.4727037 4.1303213,20.2030594 C4.86027252,20.9334151 6.04408517,20.933743 6.77444086,20.2037918 L8.82023728,18.1576292 C9.01909823,17.9574111 9.16941616,17.7142718 9.25964228,17.4468916 C10.2046936,17.6171622 11.1731885,17.3134387 11.8517656,16.6339923 L12.0202042,16.4677508 Z M10.7184669,15.5025245 C10.1972176,16.0237737 9.35210553,16.0237737 8.83085625,15.5025245 C8.30960698,14.9812752 8.30960697,14.1361631 8.83085624,13.6149138 L13.614512,8.83089196 C14.1357612,8.3096427 14.9808733,8.3096427 15.5021226,8.83089198 C16.0233718,9.35214125 16.0233718,10.1972533 15.5021226,10.7185026 L10.7184669,15.5025245 Z M22.089902,2.24347874 C23.8615599,4.01639942 23.8615599,6.88953271 22.089902,8.66245338 L20.0426409,10.7067851 C19.1916515,11.5592816 18.0362352,12.0378393 16.8316889,12.0367176 C16.7104863,12.0370837 16.5881853,12.0293942 16.465518,12.0195075 L16.6339566,11.851069 C17.3137538,11.1722514 17.6175059,10.2032551 17.4468558,9.25784715 C17.7146959,9.16791476 17.9582559,9.01756905 18.1586919,8.81844216 L20.2044884,6.7730119 C20.9339554,6.04286019 20.9339554,4.8597764 20.2044884,4.12962469 C19.4740434,3.39982981 18.2904476,3.39982981 17.5600026,4.12962469 L15.5142062,6.17542111 C15.31555,6.37580057 15.1652632,6.61888943 15.0748012,6.88615869 C14.1293436,6.71465977 13.1598932,7.0177413 12.4804809,7.69722708 L12.3131408,7.86456715 C12.3032542,7.7433646 12.2959308,7.62106354 12.2959308,7.49839632 C12.2951825,6.29460572 12.773421,5.13998232 13.6251309,4.28927517 L15.6709273,2.24347874 C17.443848,0.471820781 20.3169813,0.471820781 22.089902,2.24347874 Z"/>
  </defs>
  <use fill="#222" fill-rule="evenodd" xlink:href="#link-a"/>
</svg>
