<svg xmlns="http://www.w3.org/2000/svg" xmlns:xlink="http://www.w3.org/1999/xlink" width="24" height="24" viewBox="0 0 24 24">
  <defs>
    <path id="listen-a" d="M22.9081609,11.1860058 C23.3167041,12.9003645 23.3178282,14.6866051 22.9114431,16.4014767 C22.5930814,17.6748821 21.3232363,18.4672654 20.0394878,18.1935768 C19.9399135,18.1673505 19.8423011,18.1341732 19.7473689,18.0942892 C19.4631839,17.9893817 19.2018634,17.8307228 18.9776849,17.626981 C19.7557406,16.1600305 20.0657333,14.4899358 19.8659397,12.8414829 C19.8565032,12.7594271 19.8405024,12.6773712 19.8286043,12.5953153 C19.7937305,12.3585842 19.7514717,12.1243147 19.6973149,11.894148 C19.6792626,11.8174257 19.6587486,11.741524 19.6382346,11.6652121 C19.5734105,11.4190445 19.4970986,11.17739 19.4092988,10.9410691 C19.3908362,10.8930664 19.3748353,10.8446534 19.3559625,10.7966507 C19.2451972,10.5113195 19.1187758,10.232316 18.9772746,9.96091175 C17.7601693,7.63384605 15.5078193,6.02530175 12.9117394,5.62913303 C10.3156596,5.23296432 7.68606196,6.09651035 5.83028377,7.95464582 C5.02482799,8.75973754 4.39603571,9.7238857 3.98402678,10.7855732 C3.9618717,10.842602 3.94176801,10.9004514 3.92084377,10.9578905 C3.8374203,11.1862793 3.76384354,11.418771 3.70011349,11.6553654 C3.6779584,11.7374212 3.65662388,11.8194771 3.63693047,11.901533 C3.58318388,12.1275969 3.54215594,12.3585842 3.50769248,12.5916228 C3.4953841,12.6757301 3.47897293,12.7581962 3.4695365,12.8427138 C3.26907897,14.4912736 3.57895552,16.1616571 4.35738097,17.6286222 C4.13300052,17.8320934 3.87173515,17.9907188 3.58769695,18.0959303 C3.4929891,18.1352969 3.39582137,18.1684628 3.2968089,18.1952179 C2.01288878,18.4683972 0.743224698,17.675764 0.424853591,16.4022972 C0.0177852264,14.6876358 0.0177852264,12.9014879 0.424853591,11.1868264 C0.669703023,10.137856 1.5868637,9.38291312 2.66333762,9.34426191 C4.30609606,6.02879464 7.71428646,3.74189765 11.666097,3.74271821 C15.6179075,3.74353877 19.0285596,6.02838436 20.6696769,9.34426191 C21.7459632,9.38267739 22.6631204,10.1372813 22.9081609,11.1860058 Z M11.6665072,7.32281565 C15.2383278,7.32304223 18.1337403,10.2186384 18.1337403,13.790459 C18.1335137,17.3621598 15.2379345,20.2574329 11.6662337,20.2572818 C8.09453295,20.2571308 5.19919865,17.3616128 5.19927418,13.789912 C5.1993497,10.2182112 8.09480645,7.32281566 11.6665072,7.32281565 Z"/>
  </defs>
  <use fill="#222" fill-rule="evenodd" xlink:href="#listen-a"/>
</svg>
