<svg xmlns="http://www.w3.org/2000/svg" xmlns:xlink="http://www.w3.org/1999/xlink" width="24" height="24" viewBox="0 0 24 24">
  <defs>
    <path id="login-a" d="M7.81122527,13.0344451 L2.74669759,13.0344451 C1.99212224,13.0344451 1.38041805,12.422741 1.38041805,11.6681656 C1.38041805,10.9135903 1.99212224,10.3018861 2.74669759,10.3018861 L7.81122527,10.3018861 L7.81122527,7.62778547 C7.81122527,7.21557826 8.00571213,6.9701276 8.28376463,6.9701276 C8.39789352,6.97373208 8.5091062,7.00705713 8.60641046,7.06680893 L15.3890927,11.1330457 C15.8065462,11.4264623 15.8065462,11.9079953 15.3890927,12.202536 L8.60641046,16.2668991 C8.50928866,16.3263947 8.39835283,16.359585 8.2845141,16.3632057 C8.0064616,16.3632057 7.81122527,16.1170056 7.81122527,15.7047984 L7.81122527,13.0344451 Z M19.6149661,0.19044319 C21.273453,0.192301427 22.6175169,1.53619762 22.6195819,3.19468429 L22.6195819,20.1382743 C22.6175173,21.7968218 21.2735137,23.1408255 19.6149661,23.1428901 L5.67674139,23.1428901 C4.01819385,23.1408255 2.67419023,21.7968218 2.67212556,20.1382743 L2.67212556,17.7291105 C2.67212556,16.9745352 3.28382974,16.362831 4.03840509,16.362831 C4.79298045,16.362831 5.40468463,16.9745352 5.40468463,17.7291105 L5.40468463,18.7719948 C5.40736188,19.676004 6.13976002,20.4080673 7.04377039,20.4103311 L18.2483118,20.4103311 C19.1520295,20.4076558 19.8839729,19.6757125 19.8866481,18.7719948 L19.8866481,4.56133856 C19.8839729,3.65762086 19.1520295,2.92567752 18.2483118,2.92300226 L7.04377039,2.92300226 C6.14005269,2.92567752 5.40810936,3.65762086 5.4054341,4.56133856 L5.4054341,5.60384807 C5.4054341,6.35842342 4.79372991,6.9701276 4.03915456,6.9701276 C3.28457921,6.9701276 2.67287503,6.35842342 2.67287503,5.60384807 L2.67287503,3.19468429 C2.67494012,1.53619762 4.01900394,0.192301427 5.67749086,0.19044319 L19.6149661,0.19044319 Z"/>
  </defs>
  <use fill="#222" fill-rule="evenodd" xlink:href="#login-a"/>
</svg>
