<svg xmlns="http://www.w3.org/2000/svg" xmlns:xlink="http://www.w3.org/1999/xlink" width="24" height="24" viewBox="0 0 24 24">
  <defs>
    <path id="logout-a" d="M4.86898569,23.3648541 L18.6727997,23.3648541 C20.3133015,23.3648541 21.6485434,22.0301534 21.6485434,20.3891103 L21.6485434,18.0033193 C21.6485434,17.2558653 21.0428946,16.6502165 20.2954406,16.6502165 C19.5479866,16.6502165 18.9423377,17.2558653 18.9423377,18.0033193 L18.9423377,19.0360074 C18.9423377,19.9279728 18.2122034,20.6586484 17.3196968,20.6586484 L6.22208853,20.6586484 C5.32958189,20.6586484 4.5994476,19.9279728 4.5994476,19.0360074 L4.5994476,4.96157291 C4.5994476,4.06960751 5.32958189,3.33893198 6.22208853,3.33893198 L17.3196968,3.33893198 C18.2122034,3.33893198 18.9423377,4.06960751 18.9423377,4.96157291 L18.9423377,5.994261 C18.9423377,6.74171501 19.5479866,7.34736384 20.2954406,7.34736384 C21.0428946,7.34736384 21.6485434,6.74171501 21.6485434,5.994261 L21.6485434,3.60847006 C21.6485434,1.96796818 20.3133015,0.63272629 18.6727997,0.63272629 L4.86898569,0.63272629 C3.2284838,0.63272629 1.89324191,1.96796818 1.89324191,3.60847006 L1.89324191,20.3891103 C1.89324191,22.0301534 3.2284838,23.3648541 4.86898569,23.3648541 L4.86898569,23.3648541 Z M8.81788102,13.3535167 C8.07096825,13.3535167 7.46477818,12.7478679 7.46477818,12.0004139 C7.46477818,11.2529599 8.07096825,10.6473111 8.81788102,10.6473111 L13.8341039,10.6473111 L13.8341039,7.99847693 C13.8341039,7.59038111 14.0267857,7.34736384 14.3022775,7.34736384 C14.3997009,7.34736384 14.5079491,7.37821458 14.6216097,7.44316352 L21.3384123,11.4699976 C21.7519205,11.7606441 21.7519205,12.2374775 21.3384123,12.5292065 L14.6216097,16.5549581 C14.5084903,16.6193658 14.4002421,16.6502165 14.3028187,16.6502165 C14.027327,16.6502165 13.8341039,16.406658 13.8341039,15.9980209 L13.8341039,13.3535167 L8.81788102,13.3535167 Z"/>
  </defs>
  <use fill="#222" fill-rule="evenodd" xlink:href="#logout-a"/>
</svg>
