<svg xmlns="http://www.w3.org/2000/svg" xmlns:xlink="http://www.w3.org/1999/xlink" width="24" height="24" viewBox="0 0 24 24">
  <defs>
    <path id="malicious-02-a" d="M20.2037208,1.88022789 L20.2037208,22.1197721 C20.2029977,22.8897171 19.5795919,23.5140057 18.8096487,23.5158183 L5.52401364,23.5158183 C4.75401696,23.5140062 4.13051673,22.8897704 4.12961256,22.1197721 L4.12961256,1.88022789 C4.13051673,1.11022961 4.75401696,0.485993775 5.52401364,0.484181691 L18.8096487,0.484181691 C19.5795919,0.485994267 20.2029977,1.11028287 20.2037208,1.88022789 Z M18.7642435,18.0471207 L18.7642435,2.11284742 C18.7644213,2.06244574 18.7444103,2.0140714 18.7086781,1.97852466 C18.6729459,1.94297792 18.624468,1.92321886 18.574068,1.92365898 L5.75663317,1.92365898 C5.6519105,1.9249238 5.56799316,2.01075504 5.56908985,2.11547961 L5.56908985,18.0487658 C5.5696335,18.153358 5.65467198,18.2378079 5.75926536,18.2376252 L18.5767002,18.2376252 C18.6269318,18.237366 18.674983,18.2170714 18.7101925,18.1812443 C18.7454019,18.1454171 18.7648578,18.0970203 18.7642435,18.0467917 L18.7642435,18.0471207 Z M12.1666667,19.6771025 C12.8291981,19.6771025 13.3662859,20.2141904 13.3662859,20.8767218 C13.3662859,21.5392532 12.8291981,22.076341 12.1666667,22.076341 C11.5041353,22.076341 10.9670474,21.5392532 10.9670474,20.8767218 C10.9670474,20.2141904 11.5041353,19.6771025 12.1666667,19.6771025 Z M16.6660614,15.2306806 C17.2091353,15.483664 17.4822076,16.0986145 17.3057017,16.6711314 C17.1291959,17.2436483 16.5572632,17.5980854 15.9660154,17.5013596 C15.3747675,17.4046337 14.9455972,16.88642 14.9607332,16.2875037 L12.1666667,14.9849001 L9.3722711,16.2891488 C9.38642001,16.8568682 9.00044235,17.3566828 8.44759342,17.4865428 C7.8947445,17.6164029 7.32660445,17.3407034 7.08651355,16.826056 C6.84642266,16.3114086 7.00020906,15.6989194 7.45493605,15.3587298 C7.90966303,15.0185402 8.54065353,15.0439235 8.96658527,15.41954 L11.0305489,14.4571466 L8.96625625,13.4947532 C8.54001047,13.8705446 7.90861727,13.8958312 7.45368482,13.5553299 C6.99875236,13.2148287 6.84503235,12.6019119 7.08543173,12.0870209 C7.32583111,11.5721298 7.89442749,11.296458 8.44756652,11.4266189 C9.00070555,11.5567799 9.38670529,12.0570808 9.3722711,12.6251444 L12.1666667,13.9261029 L14.9597461,12.6251444 C14.9445157,12.0573288 15.3297116,11.5567063 15.8824697,11.4259203 C16.4352278,11.2951343 17.0039233,11.5700601 17.2447603,12.0844958 C17.4855973,12.5989314 17.3325129,13.2117641 16.8780517,13.5525156 C16.4235905,13.893267 15.792414,13.868467 15.36609,13.4931081 L13.3017973,14.4555015 L15.365761,15.4178949 C15.7233951,15.1024555 16.2339656,15.0289447 16.6660614,15.2306806 Z M12.1666667,2.64389116 C12.1666667,2.64389116 16.3781659,2.54255196 16.3781659,6.70996209 C16.3781659,9.95150043 15.9803767,9.94162973 15.9803767,9.94162973 C14.6554956,9.94162973 13.5814672,11.0156581 13.5814672,12.3405392 L10.7518661,12.3405392 C10.7516846,11.0159902 9.67816358,9.94217465 8.35361471,9.94162973 C8.35361471,9.94162973 7.95253521,9.95182946 7.95253521,6.70996209 C7.95253521,2.54255196 12.1666667,2.64389116 12.1666667,2.64389116 Z M10.186604,9.38689631 C10.5047895,9.38698362 10.8099681,9.26062356 11.0349593,9.03563239 C11.2599505,8.81064121 11.3863105,8.50546263 11.3862232,8.18727707 C11.3862232,7.52474566 10.8491354,6.98765783 10.186604,6.98765783 C9.52407255,6.98765783 8.98698472,7.52474566 8.98698472,8.18727707 C8.98698472,8.84980848 9.52407255,9.38689631 10.186604,9.38689631 Z M12.2163492,10.9004039 L12.2163492,10.9013909 C13.0079794,10.9013909 12.9471101,10.6779841 12.9484262,10.676997 C12.9484262,10.2463054 12.5993324,9.37603854 12.1679828,9.37603854 C11.7366331,9.37603854 11.3872103,10.2459764 11.3872103,10.676997 C11.3872103,10.676997 11.326341,10.9004039 12.1176422,10.9004039 L12.2163492,10.9004039 Z M14.1454133,9.38689631 C14.4635988,9.38698362 14.7687774,9.26062356 14.9937686,9.03563239 C15.2187598,8.81064121 15.3451198,8.50546263 15.3450325,8.18727707 C15.3450325,7.70207638 15.0527547,7.26465167 14.6044877,7.0789734 C14.1562207,6.89329514 13.6402431,6.99592947 13.2971544,7.33901817 C12.9540657,7.68210687 12.8514313,8.19808449 13.0371096,8.64635148 C13.2227879,9.09461847 13.6602126,9.38689631 14.1454133,9.38689631 Z"/>
  </defs>
  <use fill="#222" fill-rule="evenodd" xlink:href="#malicious-02-a"/>
</svg>
