<svg xmlns="http://www.w3.org/2000/svg" xmlns:xlink="http://www.w3.org/1999/xlink" width="24" height="24" viewBox="0 0 24 24">
  <defs>
    <path id="malicious-01-a" d="M11.9999751,0.557254165 C15.0358246,0.552930985 17.9481052,1.759222 20.091737,3.90892982 C24.5602729,8.3778307 24.5602729,15.6250127 20.091737,20.0924536 C15.6230821,24.5611066 8.37796306,24.5611066 3.90930819,20.0924536 C-0.559592691,15.6235527 -0.559592691,8.37637075 3.90930819,3.90892982 C6.05292418,1.75986774 8.964593,0.55366686 11.9999751,0.557254165 L11.9999751,0.557254165 L11.9999751,0.557254165 Z M11.9999751,2.13107813 C14.6181855,2.12740701 17.1298073,3.16778591 18.9785266,5.0217752 C22.8324244,8.87603796 22.8324244,15.1249805 18.9785266,18.9792432 C17.1277508,20.8300268 14.6175554,21.8697868 12.0001576,21.8697868 C9.38275982,21.8697868 6.87256444,20.8300268 5.02178857,18.9792432 C1.16752581,15.1249805 1.16752581,8.87603796 5.02178857,5.0217752 C6.87064765,3.16821793 9.38197121,2.12790815 11.9999751,2.13107813 Z M16.9919024,17.1827772 C16.5125767,16.9589907 15.9461987,17.0405366 15.5494737,17.3904548 L13.2599102,16.3228678 L15.5498387,15.2552808 C16.0224705,15.6717665 16.7224202,15.6996728 17.2267089,15.3221359 C17.7309975,14.944599 17.9013665,14.2651266 17.634862,13.6943232 C17.3683576,13.1235198 16.7380459,12.8178801 16.1248239,12.9621019 C15.5116019,13.1063237 15.0835939,13.6608663 15.0994447,14.2906202 L11.9999751,15.7345088 L8.90123544,14.2895252 C8.91724735,13.6593698 8.48905623,13.104384 7.87545681,12.9599959 C7.26185738,12.8156078 6.63111105,13.1214117 6.36443502,13.6925825 C6.09775899,14.2637533 6.26828123,14.9436644 6.7729397,15.3213839 C7.27759816,15.6991033 7.97800527,15.6710528 8.45084148,15.2541859 L10.7407699,16.3217728 L8.45120646,17.3893598 C7.97871861,16.9726869 7.27875823,16.9445291 6.77432769,17.3219028 C6.26989716,17.6992765 6.09930127,18.3787134 6.36563509,18.9496139 C6.63196892,19.5205143 7.26220904,19.8263489 7.87548665,19.6822947 C8.48876426,19.5382404 8.91693088,18.983794 8.90123544,18.3540205 L11.9999751,16.9090369 L15.0994447,18.3540205 C15.082282,19.0183812 15.5580255,19.5934989 16.2138267,19.7011766 C16.8696279,19.8088543 17.5042958,19.416058 17.7004732,18.7810901 C17.8966506,18.1461223 17.5941528,17.4637826 16.9919024,17.1827772 Z M11.9999751,3.21910439 C11.9999751,3.21910439 7.32631652,3.1063234 7.32631652,7.72961378 C7.32631652,11.3258307 7.77123568,11.3145161 7.77123568,11.3145161 C9.24084832,11.3147177 10.4321544,12.5060237 10.4323559,13.9756364 L13.5694192,13.9756364 C13.5694192,12.5059403 14.7608433,11.3145161 16.2305395,11.3145161 C16.2305395,11.3145161 16.6739987,11.3254657 16.6739987,7.72961378 C16.6739987,3.1063234 11.9999751,3.21910439 11.9999751,3.21910439 Z M9.80457827,10.699148 C9.26634313,10.699148 8.78110608,10.374923 8.57513241,9.87765858 C8.36915874,9.38039415 8.48301143,8.80801802 8.86360115,8.4274283 C9.24419087,8.04683858 9.81656699,7.93298589 10.3138314,8.13895956 C10.8110959,8.34493324 11.1353209,8.83017028 11.1353209,9.36840543 C11.1354177,9.72137 10.995246,10.0599059 10.7456624,10.3094895 C10.4960787,10.5590732 10.1575428,10.6992449 9.80457827,10.699148 Z M12.0561831,12.3780883 L11.946687,12.3780883 C11.0688933,12.3780883 11.1364159,12.1302621 11.1364159,12.1302621 C11.1364159,11.6521291 11.5240321,10.6871035 12.00253,10.6871035 C12.481028,10.6871035 12.8682792,11.6524941 12.8682792,12.1302621 C12.8664543,12.1309921 12.9339768,12.3788182 12.0561831,12.3788182 L12.0561831,12.3780883 Z M14.1961019,10.699148 C13.6578668,10.699148 13.1726297,10.374923 12.966656,9.87765858 C12.7606824,9.38039415 12.8745351,8.80801802 13.2551248,8.4274283 C13.6357145,8.04683858 14.2080906,7.93298589 14.7053551,8.13895956 C15.2026195,8.34493324 15.5268445,8.83017028 15.5268445,9.36840543 C15.5269414,9.72137 15.3867696,10.0599059 15.137186,10.3094895 C14.8876023,10.5590732 14.5490665,10.6992449 14.1961019,10.699148 Z"/>
  </defs>
  <use fill="#222" fill-rule="evenodd" xlink:href="#malicious-01-a"/>
</svg>
