<svg xmlns="http://www.w3.org/2000/svg" xmlns:xlink="http://www.w3.org/1999/xlink" width="24" height="24" viewBox="0 0 24 24">
  <defs>
    <path id="malicious-03-a" d="M20.0631711,20.0635192 C15.6104283,24.5169894 8.38849624,24.516262 3.93684451,20.0635192 C-0.514807214,15.6107764 -0.516625699,8.38884431 3.93684451,3.93646519 C8.39031473,-0.515913936 15.6115194,-0.51664133 20.0631711,3.93646519 C24.5148228,8.3895717 24.5159139,15.610049 20.0631711,20.0635192 Z M16.9735648,17.1644901 C16.4959332,16.9414946 15.9315569,17.0227522 15.5362341,17.3714337 L13.2547626,16.3058014 L15.5365978,15.2419876 C16.0075592,15.6570013 16.7050351,15.6848089 17.2075414,15.3086064 C17.7100478,14.9324038 17.8798147,14.2553328 17.6142521,13.6865468 C17.3486895,13.1177608 16.7206056,12.8132013 16.1095509,12.9569134 C15.4984961,13.1006255 15.0720008,13.6532082 15.0877957,14.2807363 L12.0000078,15.7206129 L8.91185628,14.2807363 C8.9278116,13.6528081 8.50113383,13.0997837 7.88970304,12.9559059 C7.27827225,12.8120282 6.64975515,13.1167512 6.38402163,13.6859034 C6.1182881,14.2550555 6.28820768,14.9325636 6.79108254,15.3089481 C7.29395739,15.6853326 7.99188906,15.6573812 8.46305413,15.2419876 L10.7448893,16.3058014 L8.46341783,17.3696152 C7.99259988,16.954415 7.29511336,16.9263567 6.79246563,17.3023966 C6.28981789,17.6784366 6.11982493,18.3554721 6.38521746,18.9243549 C6.65060998,19.4932376 7.27862266,19.7979913 7.88973277,19.6544462 C8.50084289,19.510901 8.92749625,18.9584142 8.91185628,18.3308665 L12.0000078,16.8909899 L15.0885231,18.3308665 C15.0708884,18.9930967 15.5448238,19.5666886 16.1984994,19.6742428 C16.8521751,19.7817971 17.484905,19.3902931 17.6803793,18.7573243 C17.8758536,18.1243555 17.5740595,17.4442505 16.9735648,17.1644901 Z M12.0000078,3.24944148 C12.0000078,3.24944148 7.34213987,3.1374228 7.34213987,7.74473686 C7.34213987,11.3282438 7.78548656,11.3169692 7.78548656,11.3169692 C9.24919512,11.3177719 10.4355086,12.5042482 10.4361106,13.9679569 L13.5639051,13.9679569 C13.5639051,12.503455 14.7511184,11.3162418 16.2156202,11.3162418 C16.2156202,11.3162418 16.6553299,11.3271527 16.6553299,7.74473686 C16.6553299,3.1374228 12.0000078,3.24944148 12.0000078,3.24944148 Z M11.1373184,9.37700916 C11.1373184,8.64465782 10.5436304,8.05096976 9.81127905,8.05096976 C9.07892771,8.05096976 8.48523965,8.64465782 8.48523965,9.37700916 C8.48523965,10.1093605 9.07892771,10.7030486 9.81127905,10.7030486 C10.1629961,10.7031451 10.5003355,10.5634687 10.7490371,10.3147672 C10.9977386,10.0660656 11.137415,9.72872625 11.1373184,9.37700916 L11.1373184,9.37700916 Z M12.8626972,12.129832 C12.8626972,11.6533889 12.4768146,10.6917739 12.0000078,10.6917739 C11.523201,10.6917739 11.1369547,11.6537526 11.1369547,12.129832 C11.1369547,12.129832 11.0696708,12.3767823 11.9443622,12.3767823 L12.0534713,12.3767823 C12.9299811,12.377146 12.8626972,12.1301957 12.8626972,12.1301957 L12.8626972,12.129832 Z M15.5133212,9.37700916 C15.5133212,8.84067629 15.1902421,8.3571542 14.6947351,8.1519085 C14.1992281,7.9466628 13.628875,8.0601131 13.2496303,8.43935771 C12.8703857,8.81860232 12.7569354,9.3889555 12.9621811,9.88446246 C13.1674268,10.3799694 13.6509489,10.7030486 14.1872818,10.7030486 C14.5390619,10.7032416 14.8764947,10.5636079 15.125275,10.3148959 C15.3740552,10.0661838 15.5137814,9.72878929 15.5136849,9.37700916 L15.5133212,9.37700916 Z"/>
  </defs>
  <use fill="#222" fill-rule="evenodd" xlink:href="#malicious-03-a"/>
</svg>
