<svg xmlns="http://www.w3.org/2000/svg" xmlns:xlink="http://www.w3.org/1999/xlink" width="24" height="24" viewBox="0 0 24 24">
  <defs>
    <path id="map-a" d="M3.26958053,9.3326466 C3.26958053,4.69438412 7.02917192,0.935560461 11.6666667,0.935560461 C16.3041614,0.935560461 20.0637528,4.69438412 20.0637528,9.3326466 C20.0637528,15.5324792 11.6666667,23.7311062 11.6666667,23.7311062 C11.6666667,23.7311062 3.26958053,15.5324792 3.26958053,9.3326466 Z M11.6666667,5.1339116 C9.34776936,5.1339116 7.46793166,7.01374929 7.46793166,9.3326466 C7.46793166,11.6515439 9.34776936,13.5313816 11.6666667,13.5313816 C13.985564,13.5313816 15.8654017,11.6515439 15.8654017,9.3326466 C15.8655035,8.21904163 15.4231707,7.15101779 14.6357331,6.36358016 C13.8482955,5.57614253 12.7802716,5.13380977 11.6666667,5.1339116 L11.6666667,5.1339116 Z"/>
  </defs>
  <use fill="#222" fill-rule="evenodd" xlink:href="#map-a"/>
</svg>
