<svg xmlns="http://www.w3.org/2000/svg" xmlns:xlink="http://www.w3.org/1999/xlink" width="24" height="24" viewBox="0 0 24 24">
  <defs>
    <path id="megaphone-a" d="M15.280381,3.81047619 C15.0210136,3.70107341 14.721336,3.7578203 14.5199238,3.95447619 L11.1256381,7.2695619 L3.67535238,7.2695619 C1.65380084,7.2695619 0.0150095238,8.90835322 0.0150095238,10.9299048 C0.0150095238,12.9514563 1.65380084,14.5902476 3.67535238,14.5902476 L3.88106667,14.5902476 L3.88106667,17.9361905 C3.86215489,18.6534057 4.23397743,19.3243836 4.85214364,19.6885619 C5.47030984,20.0527402 6.23742349,20.0527402 6.8555897,19.6885619 C7.47375591,19.3243836 7.84557844,18.6534057 7.82666667,17.9361905 L7.82666667,14.5912762 L10.9528381,14.5912762 L14.5199238,18.0733333 C14.7213261,18.2700176 15.0209791,18.3268661 15.2804226,18.217611 C15.539866,18.1083559 15.7085809,17.8542714 15.7086095,17.5727619 L15.7086095,4.45607619 C15.7088762,4.17428359 15.5400926,3.91982434 15.280381,3.81047619 L15.280381,3.81047619 Z M8.47809524,8.66979048 L10.6932952,8.66979048 L10.6932952,13.1920762 L8.47809524,13.1920762 L8.47809524,8.66979048 Z M17.6162667,8.79904762 C18.8387779,10.0238379 18.8386245,12.0072465 17.6159238,13.2318476 C17.4219127,13.4524972 17.1213192,13.5469884 16.8359557,13.4770297 C16.5505922,13.407071 16.3277862,13.1842649 16.2578274,12.8989015 C16.1878687,12.613538 16.28236,12.3129444 16.5030095,12.1189333 C17.1110898,11.5094684 17.1110898,10.5227983 16.5030095,9.91333333 C16.2867618,9.71818008 16.1957063,9.4197111 16.2661943,9.13708182 C16.3366824,8.85445255 16.5572327,8.63369842 16.8397968,8.56294938 C17.1223608,8.49220035 17.4209138,8.5829802 17.6162667,8.79904762 Z M18.9736381,6.57767619 C20.1511868,7.75406075 20.8128248,9.35027951 20.8128248,11.0147619 C20.8128248,12.6792443 20.1511868,14.2754631 18.9736381,15.4518476 C18.6613125,15.7264669 18.1894018,15.7113244 17.8953244,15.417247 C17.601247,15.1231696 17.5861045,14.6512589 17.8607238,14.3389333 C18.7433169,13.4578223 19.2392773,12.2618895 19.2392773,11.0147619 C19.2392773,9.76763434 18.7433169,8.57170148 17.8607238,7.69059048 C17.6400742,7.49657937 17.545583,7.19598584 17.6155417,6.91062235 C17.6855004,6.62525886 17.9083065,6.40245283 18.19367,6.33249411 C18.4790335,6.26253539 18.779627,6.35702662 18.9736381,6.57767619 Z M20.7924952,4.92167619 C22.4094237,6.53702383 23.3179377,8.72885442 23.3179377,11.014419 C23.3179377,13.2999837 22.4094237,15.4918143 20.7924952,17.1071619 C20.4801697,17.3817812 20.008259,17.3666387 19.7141816,17.0725613 C19.4201042,16.7784839 19.4049617,16.3065732 19.679581,15.9942476 C21.0013853,14.674084 21.7441054,12.8825729 21.7441054,11.014419 C21.7441054,9.14626522 21.0013853,7.35475407 19.679581,6.03459048 C19.4049617,5.72226491 19.4201042,5.25035421 19.7141816,4.95627682 C20.008259,4.66219943 20.4801697,4.64705689 20.7924952,4.92167619 Z"/>
  </defs>
  <use fill="#222" fill-rule="evenodd" xlink:href="#megaphone-a"/>
</svg>
