<svg xmlns="http://www.w3.org/2000/svg" xmlns:xlink="http://www.w3.org/1999/xlink" width="24" height="24" viewBox="0 0 24 24">
  <defs>
    <path id="menu-a" d="M21.4134133,17.3816035 C22.4348368,17.3816035 23.2628641,18.2096308 23.2628641,19.2310543 C23.2628641,20.2524777 22.4348368,21.0805051 21.4134133,21.0805051 L2.91991999,21.0805051 C1.89849656,21.080505 1.07046929,20.2524777 1.07046929,19.2310543 C1.07046929,18.2096308 1.89849656,17.3816035 2.91991999,17.3816035 L21.4134133,17.3816035 Z M21.4134133,9.98380035 C22.4348368,9.98380035 23.2628641,10.8118277 23.2628641,11.8332511 C23.2628641,12.8546746 22.4348368,13.6827019 21.4134133,13.6827019 L2.91991999,13.6827019 C1.89849653,13.6827019 1.07046921,12.8546746 1.07046921,11.8332511 C1.07046921,10.8118277 1.89849653,9.98380035 2.91991999,9.98380035 L21.4134133,9.98380035 Z M2.91991999,6.28540603 C1.89849653,6.28540603 1.07046921,5.45737871 1.07046921,4.43595525 C1.07046921,3.41453178 1.89849653,2.58650446 2.91991999,2.58650446 L21.4134133,2.58650446 C22.4348368,2.58650446 23.2628641,3.41453178 23.2628641,4.43595525 C23.2628641,5.45737871 22.4348368,6.28540603 21.4134133,6.28540603 L2.91991999,6.28540603 Z"/>
  </defs>
  <use fill="#222" fill-rule="evenodd" xlink:href="#menu-a"/>
</svg>
