<svg xmlns="http://www.w3.org/2000/svg" xmlns:xlink="http://www.w3.org/1999/xlink" width="24" height="24" viewBox="0 0 24 24">
  <defs>
    <path id="microphone-a" d="M11.9813596,18.2812428 C9.77024092,18.2812428 8.45833284,16.4887864 8.45833284,14.2776677 L8.45833284,10.230847 L10.7674998,10.230847 C11.2204703,10.230847 11.5876754,9.86364185 11.5876754,9.4106714 C11.5876754,8.95770095 11.2204703,8.59049585 10.7674998,8.59049585 L8.45833284,8.59049585 L8.45833284,6.95014474 L10.7674998,6.95014474 C11.2234429,6.95014474 11.5932675,6.60455259 11.5932675,6.14860954 C11.5932675,5.6926665 11.2234429,5.34707434 10.7674998,5.34707434 L8.45833284,5.34707434 L8.45833284,4.71330233 C8.45833284,2.50069237 9.77024092,0.709727205 11.9813596,0.709727205 C14.1924784,0.709727205 15.5043865,2.5021836 15.5043865,4.71330233 L15.5043865,14.2776677 C15.5043865,16.4887864 14.1924784,18.2812428 11.9813596,18.2812428 Z M17.4989043,10.0399697 C17.9571034,10.0388998 18.3309862,10.4064681 18.3377202,10.864619 L18.3377202,14.4469221 C18.3377202,17.6526901 15.9144742,20.3081949 12.8201756,20.7141818 L12.8201756,21.3032169 L14.7774127,21.3032169 C15.2303831,21.3032169 15.5975882,21.670422 15.5975882,22.1233925 C15.5975882,22.5763629 15.2303831,22.943568 14.7774127,22.943568 L9.22258733,22.943568 C8.76961688,22.943568 8.40241178,22.5763629 8.40241178,22.1233925 C8.40241178,21.670422 8.76961688,21.3032169 9.22258733,21.3032169 L11.1798244,21.3032169 L11.1798244,20.7130633 C8.08552577,20.3074492 5.66227982,17.6519445 5.66227982,14.4458037 L5.66227982,10.864619 C5.66227982,10.4013537 6.03783049,10.0258031 6.50109572,10.0258031 C6.96436096,10.0258031 7.33991163,10.4013537 7.33991163,10.864619 L7.33991163,14.4469221 C7.33991163,17.0215277 9.42502157,19.115585 12,19.115585 C14.5749784,19.115585 16.6600884,17.0207821 16.6600884,14.4458037 L16.6600884,10.864619 C16.6668224,10.4064681 17.0407051,10.0388998 17.4989043,10.0399697 Z"/>
  </defs>
  <use fill="#222" fill-rule="evenodd" xlink:href="#microphone-a"/>
</svg>
