<svg xmlns="http://www.w3.org/2000/svg" xmlns:xlink="http://www.w3.org/1999/xlink" width="24" height="24" viewBox="0 0 24 24">
  <defs>
    <path id="mobile-recycling-a" d="M16.1202464,7.63377164 C15.8676284,7.63377164 15.7171175,7.75354438 15.7167642,7.92454733 C15.719071,7.99430653 15.7395296,8.06225831 15.7761206,8.12169537 L17.9366228,11.61595 C18.1171652,11.8721011 18.412534,11.8721011 18.5930763,11.61595 L20.7542852,8.12204868 C20.7911031,8.06262543 20.8113531,7.99443424 20.8129349,7.92454733 C20.8129349,7.75389769 20.6627774,7.63341833 20.4090994,7.63412496 L19.4166463,7.63412496 L19.4166463,1.94015051 C19.4156758,1.17497146 18.7961343,0.55464013 18.0309571,0.552694714 L4.96866316,0.552694714 C4.20334796,0.554445841 3.5835918,1.17483392 3.58262061,1.94015051 L3.58262061,22.0598495 C3.5835918,22.8251661 4.20334796,23.4455542 4.96866316,23.4473053 L18.0309571,23.4473053 C18.7961343,23.4453599 19.4156758,22.8250285 19.4166463,22.0598495 L19.4166463,14.053802 C19.4166463,13.8997524 19.3554504,13.7520123 19.2465209,13.6430828 C19.1375913,13.5341532 18.9898512,13.4729573 18.8358016,13.4729573 L17.6426673,13.4729573 C17.3218756,13.4729573 17.0618226,13.7330103 17.0618226,14.053802 L17.0618226,18.0108952 C17.0623876,18.0607743 17.0430653,18.108825 17.0081262,18.144427 C16.9731871,18.1800291 16.9255082,18.2002511 16.8756272,18.2006237 L6.12681955,18.2006237 C6.02289552,18.20082 5.93838134,18.1169376 5.93779768,18.0130151 L5.93779768,3.12798509 C5.93681566,3.02405726 6.02006945,2.93890775 6.12399305,2.93754998 L16.8724474,2.93754998 C16.9225714,2.93717203 16.9707623,2.95686814 17.0062727,2.99224575 C17.041783,3.02762336 17.0616595,3.07574013 17.0614693,3.12586522 L17.0614693,7.63341833 L16.1202464,7.63341833 L16.1202464,7.63377164 Z M10.3036727,20.6208102 C10.4063923,20.0228665 10.9414802,19.5972139 11.5472073,19.6316011 C12.1529345,19.6659882 12.636411,20.1494648 12.6707982,20.7551919 C12.7051853,21.3609191 12.2795327,21.896007 11.6815891,21.9987265 C11.2996276,22.0650037 10.9092979,21.9413482 10.6351745,21.6672248 C10.3610511,21.3931014 10.2373955,21.0027717 10.3036727,20.6208102 Z"/>
  </defs>
  <use fill="#222" fill-rule="evenodd" xlink:href="#mobile-recycling-a"/>
</svg>
