<svg xmlns="http://www.w3.org/2000/svg" xmlns:xlink="http://www.w3.org/1999/xlink" width="24" height="24" viewBox="0 0 24 24">
  <defs>
    <path id="mobile-a" d="M19.6186331,2.10772273 L19.6186331,21.8922773 C19.6179268,22.6447886 19.0087308,23.2549913 18.2562217,23.25694 L5.41108823,23.25694 C4.65840125,23.2551687 4.04891746,22.6449658 4.04803361,21.8922773 L4.04803361,2.10772273 C4.04891746,1.35503418 4.65840125,0.744831318 5.41108823,0.74305997 L18.2562217,0.74305997 C19.0087308,0.745008691 19.6179268,1.35521145 19.6186331,2.10772273 Z M17.3029197,17.91118 L17.3029197,3.27329846 C17.3030935,3.22402982 17.2835323,3.17674294 17.2486034,3.1419953 C17.2136745,3.10724766 17.1662864,3.08793279 17.1170194,3.08836302 L6.5470743,3.08836302 C6.44483256,3.08959957 6.36285347,3.17330454 6.36374699,3.27554985 L6.36374699,17.9127882 C6.36427842,18.015029 6.44740521,18.0975806 6.54964731,18.097402 L17.1195924,18.097402 C17.1686678,18.0970627 17.2155885,18.0771971 17.2499878,18.0421942 C17.2843872,18.0071914 17.3034338,17.9599323 17.3029197,17.9108584 L17.3029197,17.91118 Z M11.8137141,19.5045195 C11.1660765,19.5045195 10.6410626,20.0295334 10.6410626,20.677171 C10.6410626,21.3248086 11.1660765,21.8498225 11.8137141,21.8498225 C12.4613516,21.8498225 12.9863656,21.3248086 12.9863656,20.677171 C12.9863656,20.0295334 12.4613516,19.5045195 11.8137141,19.5045195 Z"/>
  </defs>
  <use fill="#222" fill-rule="evenodd" xlink:href="#mobile-a"/>
</svg>
