<svg xmlns="http://www.w3.org/2000/svg" xmlns:xlink="http://www.w3.org/1999/xlink" width="24" height="24" viewBox="0 0 24 24">
  <defs>
    <path id="mobile-data-a" d="M19.8842557,2.03575992 L19.8842557,21.9642401 C19.8834831,22.7222935 19.2667634,23.3368958 18.5051307,23.3386301 L5.50571711,23.3386301 C4.7440273,23.3368963 4.12720668,22.7223501 4.12624058,21.9642401 L4.12624058,2.03575992 C4.12720668,1.2776499 4.7440273,0.663103677 5.50571711,0.661369921 L18.5051307,0.661369921 C19.2666832,0.663296039 19.8832903,1.27778608 19.8842557,2.03575992 Z M12.3025825,9.92214899 C12.1163092,9.92214899 12.0052482,9.83399773 12.0052482,9.70911679 C12.0067049,9.65786547 12.0217391,9.60790672 12.0488291,9.56429687 L13.6409383,7.00196376 C13.7734383,6.81376783 13.9916943,6.81376783 14.1248973,7.00196376 L15.7170065,9.56394706 C15.7442356,9.60760288 15.7591669,9.65774399 15.760236,9.70911679 C15.760236,9.83364793 15.6491749,9.92214899 15.4629017,9.92214899 L14.5023643,9.92214899 L14.5023643,13.4481992 C14.5023643,13.788122 14.2255007,14.0636838 13.8839722,14.0636838 C13.5424437,14.0636838 13.2655801,13.788122 13.2655801,13.4481992 L13.2655801,9.92214899 L12.3025825,9.92214899 Z M11.7079139,10.9680706 C11.8941871,10.9680706 12.0052482,11.0555223 12.0052482,11.1814526 C12.003808,11.2327066 11.9887725,11.2826696 11.9616672,11.3262726 L10.369558,13.8889555 C10.237058,14.0775012 10.018802,14.0775012 9.885599,13.8889555 L8.29348979,11.3262726 C8.26626073,11.2826167 8.25132943,11.2324756 8.25026034,11.1811028 C8.25026034,11.0565717 8.36132138,10.9680706 8.54759464,10.9680706 L9.50813205,10.9680706 L9.50813205,7.44237023 C9.50813205,7.10244744 9.78499562,6.82688558 10.1265241,6.82688558 C10.4680527,6.82688558 10.7449162,7.10244744 10.7449162,7.44237023 L10.7449162,10.9680706 L11.7079139,10.9680706 Z M17.5407272,17.9540576 L17.5407272,3.20971077 C17.5409175,3.16002182 17.5210971,3.11232856 17.4856966,3.07729166 C17.450296,3.04225476 17.402267,3.02279562 17.3523452,3.02326386 L6.65533945,3.02326386 C6.55182302,3.024417 6.46879331,3.10877799 6.46976911,3.2118096 L6.46976911,17.9558066 C6.46995518,18.0053483 6.48990714,18.0527873 6.5252357,18.0876873 C6.56056425,18.1225874 6.60837543,18.1420896 6.65815112,18.1419037 L17.3551569,18.1419037 C17.4048373,18.1416275 17.4523566,18.1216469 17.4871885,18.0863879 C17.5220203,18.0511289 17.5412893,18.0035021 17.5407272,17.9540576 Z M11.985215,19.5593199 C11.5051361,19.5591784 11.0722498,19.8469024 10.8884331,20.2883116 C10.7046163,20.7297207 10.8060737,21.2378749 11.1454905,21.5757959 C11.4849073,21.913717 11.9954318,22.0148478 12.4389805,21.832026 C12.8825292,21.6492043 13.1717405,21.2184385 13.1717405,20.7406167 C13.1718338,20.4273495 13.0468663,20.1268811 12.8243395,19.9053349 C12.6018127,19.6837888 12.299962,19.5593199 11.985215,19.5593199 Z"/>
  </defs>
  <use fill="#222" fill-rule="evenodd" xlink:href="#mobile-data-a"/>
</svg>
