<svg xmlns="http://www.w3.org/2000/svg" xmlns:xlink="http://www.w3.org/1999/xlink" width="24" height="24" viewBox="0 0 24 24">
  <defs>
    <path id="money-a" d="M8.73884461,5.69550559 L8.73884461,5.69511312 C5.18117114,5.69511312 2.29735595,5.04754983 2.29735595,4.24810352 L2.29735595,2.16334218 C2.29735595,1.36428833 5.18117114,0.716725035 8.73884461,0.716725035 C12.2965181,0.716725035 15.1803333,1.36428833 15.1803333,2.16334218 L15.1803333,4.24849598 C15.1803333,5.0479423 12.2965181,5.69550559 8.73884461,5.69550559 Z M8.73884461,11.31557 L8.76906423,11.31557 C8.26501287,11.9398065 7.85390368,12.6336689 7.54850554,13.3756062 C4.55990284,13.2488408 2.29735595,12.6601469 2.29735595,11.9537142 L2.29735595,9.86856042 C2.29735595,10.6680067 5.18117114,11.31557 8.73884461,11.31557 Z M15.1803333,6.12917676 L15.1803333,8.18685818 C13.5616587,8.20396724 11.9833064,8.69397946 10.639541,9.59658384 C10.0386807,9.63857733 9.40053656,9.6609477 8.73884461,9.6609477 C5.18117114,9.6609477 2.29735595,9.01299195 2.29735595,8.21393809 L2.29735595,6.12917676 C2.29735595,6.92823061 5.18117114,7.57618637 8.73884461,7.57618637 C12.2965181,7.57618637 15.1803333,6.92823061 15.1803333,6.12917676 Z M7.03555693,15.1844663 C6.96419847,15.6154798 6.92627819,16.0513662 6.92213523,16.4882271 C6.92017292,16.7488223 6.93076941,17.0074551 6.95196239,17.2641257 C4.26398604,17.0906572 2.29735595,16.5337528 2.29735595,15.8740231 L2.29735595,13.7892618 C2.29735595,14.4556633 4.30480215,15.0164924 7.03555693,15.1844663 Z M2.29735595,17.5729937 L2.2989258,17.5722088 C2.2989258,18.2582334 4.42568063,18.8324062 7.27888374,18.9811495 C7.50439589,19.7307786 7.83570165,20.4444009 8.26278748,21.1004476 C4.92685537,21.0455028 2.29735595,20.4207024 2.29735595,19.6577551 L2.29735595,17.5729937 Z M15.3271143,9.81597043 C19.0700301,9.83559356 22.0527459,12.8512762 22.0366549,16.5985091 C22.0193866,20.2927596 19.0052738,23.2829321 15.3082761,23.2829321 L15.2690298,23.2829321 C11.5221894,23.2637014 8.52142033,20.2323203 8.55360226,16.5019633 C8.5857842,12.8006485 11.5975422,9.81597043 15.2910077,9.81597043 L15.3271143,9.81597043 Z"/>
  </defs>
  <use fill="#222" fill-rule="evenodd" xlink:href="#money-a"/>
</svg>
