<svg xmlns="http://www.w3.org/2000/svg" xmlns:xlink="http://www.w3.org/1999/xlink" width="24" height="24" viewBox="0 0 24 24">
  <defs>
    <path id="money-back-e-a" d="M25.4419048,18.1603048 C25.4419958,18.3221905 25.3777272,18.4774719 25.2632567,18.5919424 C25.1487862,18.706413 24.9935048,18.7706815 24.831619,18.7705905 L22.5512762,18.7705905 C22.3893905,18.7706815 22.234109,18.706413 22.1196385,18.5919424 C22.005168,18.4774719 21.9408995,18.3221905 21.9409905,18.1603048 L21.9409905,11.0288762 C21.9408995,10.8669905 22.005168,10.711709 22.1196385,10.5972385 C22.234109,10.482768 22.3893905,10.4184995 22.5512762,10.4185905 L24.831619,10.4185905 C24.9935048,10.4184995 25.1487862,10.482768 25.2632567,10.5972385 C25.3777272,10.711709 25.4419958,10.8669905 25.4419048,11.0288762 L25.4419048,18.1603048 Z M21.2343619,18.6101333 C18.7291048,18.6101333 16.0966476,20.6014476 14.3943619,20.6014476 C12.6920762,20.6014476 8.86990476,20.8904762 7.16761905,19.1881905 C5.46361905,17.5181333 3.6303619,14.7557333 3.6303619,14.7557333 C3.6303619,14.7557333 2.9559619,13.8893333 3.34133333,12.8607619 C3.91939048,11.3189333 5.5575619,13.2139048 5.5575619,13.2139048 L8.1591619,16.0081905 C8.1591619,16.0081905 8.76944762,17.9353905 10.6003048,17.9353905 L15.7088762,17.9353905 C15.7088762,17.9353905 16.0301333,17.9353905 16.0301333,17.550019 C16.0301333,17.1646476 15.6769905,17.1646476 15.6769905,17.1646476 L10.6027048,17.1646476 C10.6027048,17.1646476 8.83630476,17.1649905 8.83630476,15.4945905 C8.83630476,13.8241905 10.6027048,13.856419 10.6027048,13.856419 L14.9710476,13.856419 C14.9710476,13.856419 17.4763048,11.2232762 21.2343619,13.2461333 L21.2343619,18.6101333 Z M11.2761905,0.0251246549 C14.3209411,0.0251246549 16.7891992,2.49338271 16.7891992,5.53813333 C16.7891992,8.58288395 14.3209411,11.051142 11.2761905,11.051142 C8.23143986,11.051142 5.7631818,8.58288395 5.7631818,5.53813333 C5.7631818,2.49338271 8.23143986,0.0251246549 11.2761905,0.0251246549 Z M12.4339223,4.50454942 L12.4356057,4.50370774 L10.4109427,4.50370774 C10.5395927,4.2471121 10.7329516,4.0285135 10.9719229,3.86950132 C11.2050612,3.72151014 11.4764788,3.64513279 11.7525818,3.64982265 C12.0019998,3.64982265 12.273021,3.72837952 12.5656453,3.88549325 C12.6273944,3.92413668 12.6967044,3.94910549 12.7689112,3.95871947 C12.8929188,3.95871947 13.0051429,3.87875981 13.1055835,3.71884047 C13.2069057,3.55457625 13.2590429,3.36472094 13.2558235,3.17174801 C13.255543,3.07411304 13.2256633,3.00902307 13.1661845,2.97647808 C12.2633749,2.39379869 11.0918743,2.44095513 10.238819,3.09431338 C9.77701684,3.44389144 9.44034456,3.9141104 9.22880214,4.50497026 L9.0907665,4.50497026 C8.96335262,4.50581357 8.83898303,4.54400235 8.7330522,4.61480959 C8.61914474,4.68803581 8.56219101,4.76533016 8.56219101,4.84669263 C8.56517859,4.9305971 8.59681369,5.0109473 8.65183001,5.07436726 C8.69894238,5.13272709 8.75212699,5.1859117 8.81048682,5.23302407 C8.84395989,5.26015457 8.88527411,5.27579496 8.92832212,5.27763315 L9.05036583,5.27763315 C9.04301671,5.366931 9.04034773,5.45655237 9.04236986,5.5461293 C9.0403107,5.62477542 9.04298084,5.70347421 9.05036583,5.7817999 L8.97713961,5.7817999 C8.84972573,5.78264321 8.72535614,5.82083199 8.6194253,5.89163923 C8.50551784,5.96486546 8.44856412,6.0421598 8.44856412,6.12352227 C8.45155169,6.20742675 8.4831868,6.28777694 8.53820311,6.3511969 C8.58531785,6.40955461 8.63850222,6.46273898 8.69685993,6.50985372 C8.73031789,6.53701049 8.77164113,6.55265429 8.81469523,6.5544628 L9.1564176,6.5544628 C9.32980382,7.1669258 9.63603532,7.645281 10.0751121,7.98952841 C10.5141889,8.33377583 11.0372934,8.50589953 11.6444258,8.50589953 C11.8880503,8.50716302 12.1309853,8.47990345 12.3682712,8.42467734 C12.5960861,8.37109034 12.7696126,8.30095028 12.8888507,8.21425716 C12.99934,8.12908452 13.086253,8.01711164 13.1413549,7.88894757 C13.2052158,7.75073842 13.237833,7.60015367 13.2368857,7.44790687 C13.2368857,7.26890944 13.1339201,7.17941073 12.9279889,7.17941073 C12.8575683,7.17941073 12.7112561,7.21462104 12.4890524,7.28504166 C12.1910974,7.37706541 11.9363487,7.42307729 11.7248063,7.42307729 C11.4421193,7.42867343 11.1640356,7.35095637 10.9252096,7.19961106 C10.6864249,7.04075482 10.4986323,6.81628057 10.3844298,6.55320027 L11.9869898,6.55320027 C12.073683,6.55348083 12.1563079,6.49119646 12.2348648,6.36634716 C12.3116758,6.24760901 12.352591,6.10922799 12.3527001,5.96781134 C12.3527001,5.84324259 12.2849448,5.78095822 12.1494342,5.78095822 L10.1895807,5.78095822 C10.1822028,5.70263207 10.1795326,5.62393371 10.1815847,5.54528762 C10.179571,5.45571072 10.18224,5.36608979 10.1895807,5.27679147 L12.2714779,5.27679147 C12.358171,5.27707203 12.440796,5.21478766 12.5193529,5.08993835 C12.5961639,4.97120021 12.6370791,4.83281918 12.6371882,4.69140253 C12.6371882,4.56683379 12.5694329,4.50454942 12.4339223,4.50454942 Z"/>
  </defs>
  <use fill="#222" fill-rule="evenodd" xlink:href="#money-back-e-a"/>
</svg>
