<svg xmlns="http://www.w3.org/2000/svg" xmlns:xlink="http://www.w3.org/1999/xlink" width="24" height="24" viewBox="0 0 24 24">
  <defs>
    <path id="more-a" d="M5.67558688,11.9999603 C5.67558688,13.5040833 4.4562542,14.723416 2.95213112,14.723416 C1.44800804,14.723416 0.228675362,13.5040833 0.228675362,11.9999603 C0.228675362,10.4958372 1.44800804,9.2765045 2.95213112,9.2765045 C3.6744365,9.2765045 4.36715813,9.56343919 4.87790515,10.0741862 C5.38865218,10.5849333 5.67558688,11.2776549 5.67558688,11.9999603 Z M11.6670402,9.2765045 C10.1629171,9.2765045 8.94358439,10.4958372 8.94358439,11.9999603 C8.94358439,13.5040833 10.1629171,14.723416 11.6670402,14.723416 C13.1711632,14.723416 14.3904959,13.5040833 14.3904959,11.9999603 C14.3906941,11.2775941 14.1038231,10.5847573 13.5930331,10.0739673 C13.0822431,9.56317734 12.3894063,9.27630629 11.6670402,9.2765045 L11.6670402,9.2765045 Z M20.3819492,9.2765045 C19.2803462,9.27620236 18.2870462,9.93955946 17.8652716,10.9572212 C17.4434971,11.9748829 17.67632,13.1464123 18.4551641,13.92547 C19.2340082,14.7045278 20.4054736,14.9376721 21.423251,14.5161767 C22.4410284,14.0946813 23.1046579,13.1015633 23.104658,11.9999603 C23.104658,10.4961288 21.8857805,9.27691696 20.3819492,9.2765045 Z"/>
  </defs>
  <use fill="#222" fill-rule="evenodd" xlink:href="#more-a"/>
</svg>
