<svg xmlns="http://www.w3.org/2000/svg" xmlns:xlink="http://www.w3.org/1999/xlink" width="24" height="24" viewBox="0 0 24 24">
  <defs>
    <path id="more-2-a" d="M6.00892021,11.6666269 C6.00892021,13.17075 4.78958754,14.3900827 3.28546445,14.3900827 C1.78134137,14.3900827 0.562008695,13.17075 0.562008695,11.6666269 C0.562008695,10.1625038 1.78134137,8.94317117 3.28546445,8.94317117 C4.00776983,8.94317117 4.70049146,9.23010586 5.21123849,9.74085289 C5.72198552,10.2515999 6.00892021,10.9443215 6.00892021,11.6666269 Z M12.0003735,8.94317117 C10.4962504,8.94317117 9.27691773,10.1625038 9.27691773,11.6666269 C9.27691773,13.17075 10.4962504,14.3900827 12.0003735,14.3900827 C13.5044966,14.3900827 14.7238292,13.17075 14.7238292,11.6666269 C14.7240275,10.9442608 14.4371564,10.251424 13.9263664,9.740634 C13.4155764,9.229844 12.7227396,8.94297296 12.0003735,8.94317117 L12.0003735,8.94317117 Z M20.7152825,8.94317117 C19.6136796,8.94286903 18.6203795,9.60622612 18.198605,10.6238878 C17.7768304,11.6415496 18.0096533,12.8130789 18.7884974,13.5921367 C19.5673415,14.3711945 20.738807,14.6043387 21.7565843,14.1828433 C22.7743617,13.7613479 23.4379913,12.7682299 23.4379913,11.6666269 C23.4379914,10.1627955 22.2191139,8.94358363 20.7152825,8.94317117 Z"/>
  </defs>
  <use fill="#222" fill-rule="evenodd" transform="rotate(90 12 11.667)" xlink:href="#more-2-a"/>
</svg>
