<svg xmlns="http://www.w3.org/2000/svg" xmlns:xlink="http://www.w3.org/1999/xlink" width="24" height="24" viewBox="0 0 24 24">
  <defs>
    <path id="move-folder-a" d="M21.5835048,3.26666667 L21.5835048,15.8032381 L17.363619,13.2729524 L17.3499048,13.2650667 L17.3361905,13.257181 C17.0202987,13.0730817 16.6619108,12.9744157 16.2963048,12.9708952 C15.1947048,12.9708952 14.3646476,13.8743238 14.3646476,15.0726095 L14.3646476,16.0209524 L11.2305905,16.0209524 C9.71301537,16.0226513 8.48298923,17.252064 8.48053333,18.7696381 L2.08247619,18.7696381 C1.25568912,18.7671895 0.586107106,18.0974543 0.583847619,17.2706667 L0.583847619,1.76700952 C0.586482444,0.940433658 1.25590032,0.271015777 2.08247619,0.268380952 L9.58487619,0.268380952 C10.4114521,0.271015777 11.0808699,0.940433658 11.0835048,1.76700952 L11.0835048,1.76700952 L20.0841905,1.76700952 C20.9115902,1.76889554 21.5818079,2.43926654 21.5835048,3.26666667 Z M2.83367619,5.76952381 L19.3333333,5.76952381 C19.7475469,5.76952381 20.0833333,5.43373737 20.0833333,5.01952381 C20.0833333,4.60531025 19.7475469,4.26952381 19.3333333,4.26952381 L2.83367619,4.26952381 C2.42571058,4.27824698 2.09954135,4.61146495 2.09954135,5.01952381 C2.09954135,5.42758267 2.42571058,5.76080064 2.83367619,5.76952381 L2.83367619,5.76952381 Z M16.2963048,14.4712381 C16.0422476,14.4712381 15.8646476,14.6958095 15.8646476,15.0726095 L15.8646476,17.5192381 L11.2305905,17.5192381 C10.540203,17.5192381 9.98053333,18.0789077 9.98053333,18.7692952 C9.98053333,19.4596827 10.540203,20.0193524 11.2305905,20.0193524 L15.8646476,20.0193524 L15.8646476,22.4625524 C15.8646476,22.8396952 16.0422476,23.0646095 16.2973333,23.0646095 C16.4015315,23.0611951 16.5030879,23.0309644 16.5921905,22.9768381 L22.7979048,19.2582095 C23.1798476,18.9887238 23.1798476,18.5481524 22.7979048,18.2796952 L16.5921905,14.5593524 C16.5029175,14.5046713 16.4009416,14.4741849 16.2963048,14.4708952 L16.2963048,14.4712381 Z"/>
  </defs>
  <use fill="#222" fill-rule="evenodd" xlink:href="#move-folder-a"/>
</svg>
