<svg xmlns="http://www.w3.org/2000/svg" xmlns:xlink="http://www.w3.org/1999/xlink" width="24" height="24" viewBox="0 0 24 24">
  <defs>
    <path id="music-a" d="M20.7655821,15.4224371 C20.0367783,15.1144068 19.1489262,15.0073008 18.2288617,15.1695704 C16.1507643,15.5351802 14.6975859,17.1268716 14.9794437,18.7242001 C15.2613015,20.3215286 17.1718949,21.3185 19.2475764,20.9520849 C21.0414001,20.6355988 22.3689504,19.4042828 22.5155165,18.0457281 C22.5155165,18.0457281 22.5292067,17.7143438 22.5275961,17.6809235 L22.5275961,5.30736525 L22.5251802,4.56889776 L22.5251802,1.47732013 C22.5249721,1.21701977 22.4096657,0.970135374 22.2101949,0.802899895 C22.0107241,0.635664416 21.7475093,0.565198355 21.4911646,0.610406011 L8.02279006,2.98606478 C7.60160943,3.0600431 7.29461794,3.42615635 7.29519423,3.85378421 L7.29519423,17.7980959 C6.56639044,17.4900655 5.6785383,17.3829596 4.75847385,17.5452291 C2.68198703,17.9112416 1.22760068,19.502933 1.5094585,21.1006642 C1.79131632,22.6983954 3.70190968,23.6949641 5.77759119,23.3285489 C7.57141489,23.0120629 8.89815991,21.7807468 9.04512863,20.4221922 C9.04512863,20.4221922 9.05962418,20.0908079 9.05761091,20.0573876 L9.05761091,7.68262136 L20.7643741,5.61821416 L20.7655821,15.4224371 Z"/>
  </defs>
  <use fill="#222" fill-rule="evenodd" xlink:href="#music-a"/>
</svg>
