<svg xmlns="http://www.w3.org/2000/svg" xmlns:xlink="http://www.w3.org/1999/xlink" width="24" height="24" viewBox="0 0 24 24">
  <defs>
    <path id="my-account-a" d="M23.0322939,19.3567699 C23.0263051,21.3812085 21.3866612,23.0208524 19.3622226,23.0268412 L4.30570241,23.0268412 C2.28077243,23.0215432 0.640364944,21.3816979 0.634372745,19.3567699 L0.634372745,4.30989678 C0.640361566,2.28545818 2.2800055,0.645814244 4.3044441,0.639825423 L19.3609643,0.639825423 C21.3854029,0.645814244 23.0250468,2.28545818 23.0310356,4.30989678 L23.0310356,19.3567699 L23.0322939,19.3567699 Z M7.78325231,9.2827386 C7.78308737,10.6107828 8.43535263,11.8541635 9.52810909,12.6088718 C4.90759411,13.61552 4.35561538,15.6132971 4.29018325,17.1362719 C4.27634184,17.4617548 4.51584021,17.8493143 4.83083719,17.9332016 C5.62776697,18.14292 7.51523224,18.4335897 11.8354305,18.4335897 C16.1556288,18.4335897 18.0405774,18.1399839 18.8375072,17.9332016 C19.1529236,17.8493143 19.392422,17.4625936 19.3785806,17.1362719 C19.312729,15.6137165 18.7607503,13.6171977 14.1406548,12.6088718 C15.7195767,11.5125341 16.3098691,9.45706014 15.553259,7.6900027 C14.7966489,5.92294526 12.9017674,4.93156108 11.0186971,5.31756251 C9.13562676,5.70356394 7.78361427,7.36051313 7.78325231,9.2827386 L7.78325231,9.2827386 Z"/>
  </defs>
  <use fill="#222" fill-rule="evenodd" xlink:href="#my-account-a"/>
</svg>
