<svg xmlns="http://www.w3.org/2000/svg" xmlns:xlink="http://www.w3.org/1999/xlink" width="24" height="24" viewBox="0 0 24 24">
  <defs>
    <path id="my-invoices-a" d="M18.7208894,5.08727619 C18.3297063,5.08727629 17.95456,4.93180902 17.6780482,4.65510431 C17.4015364,4.37839961 17.2463308,4.00314497 17.2466037,3.6119619 L17.2466037,0.519047619 L21.7894608,5.08727619 L18.7208894,5.08727619 Z M18.7208894,6.56293333 L21.7884323,6.56293333 L21.7884323,21.6733333 C21.785424,22.4863095 21.1271228,23.1446108 20.3141466,23.147619 L6.54020371,23.147619 C5.72722752,23.1446108 5.06892626,22.4863095 5.06591799,21.6733333 L5.06591799,19.6329905 C8.25833853,21.230585 12.1325925,20.38751 14.3724684,17.6077954 C16.6123443,14.8280809 16.6123443,10.8631572 14.3724684,8.08344267 C12.1325925,5.30372811 8.25833853,4.46065311 5.06591799,6.05824762 L5.06591799,1.99333333 C5.06911287,1.18043485 5.72730523,0.522242495 6.54020371,0.519047619 L15.7702608,0.519047619 L15.7702608,3.6119619 C15.7704501,5.24152614 17.0913252,6.56255473 18.7208894,6.56293333 Z M12.892318,8.42087619 C15.1566005,10.6850945 15.3464406,14.2932748 13.3322602,16.7825993 C11.3180797,19.2719239 7.74972584,19.8392468 5.06283228,18.0973333 C4.69511914,17.8577466 4.35338624,17.5804765 4.04317513,17.270019 C1.59966049,14.8263507 1.59966049,10.8645445 4.04317513,8.42087619 C4.35338624,8.11041877 4.69511914,7.8331486 5.06283228,7.5935619 C7.54130132,5.98888716 10.8039601,6.33364087 12.892318,8.42087619 Z M11.4557466,15.4878476 C11.5952894,15.4511619 11.701918,15.2787048 11.6957466,15.134019 C11.6666037,14.4575619 11.5462608,13.3213333 9.49357513,12.873219 C10.1405134,12.4252599 10.4212375,11.6088254 10.1865813,10.8577375 C9.9519252,10.1066495 9.25635131,9.59523169 8.46946085,9.59523169 C7.68257039,9.59523169 6.9869965,10.1066495 6.75234035,10.8577375 C6.5176842,11.6088254 6.79840826,12.4252599 7.44534656,12.873219 C5.39266085,13.3213333 5.27231799,14.4575619 5.24317513,15.134019 C5.23666085,15.2787048 5.34328942,15.4511619 5.48317513,15.4878476 C5.83734656,15.5807619 6.55014656,15.7103619 8.46946085,15.7103619 C10.3887751,15.7103619 11.1015751,15.580419 11.4557466,15.4878476 Z"/>
  </defs>
  <use fill="#222" fill-rule="evenodd" xlink:href="#my-invoices-a"/>
</svg>
