<svg xmlns="http://www.w3.org/2000/svg" xmlns:xlink="http://www.w3.org/1999/xlink" width="24" height="24" viewBox="0 0 24 24">
  <defs>
    <path id="network-a" d="M20.9711238,9.76559118 C20.8067579,9.76574835 20.6429106,9.78403027 20.4825524,9.82010547 L17.490781,5.55461975 C17.9925193,4.83505855 18.0263239,3.88833992 17.5771848,3.13482565 C17.1280456,2.38131139 16.2792252,1.96068955 15.4076164,2.05972455 C14.5360077,2.15875955 13.8031914,2.75909208 13.5345524,3.59416261 L9.77820952,3.59416261 C9.51408559,2.7777033 8.80521435,2.18500494 7.95488445,2.06965193 C7.10455455,1.95429891 6.26340095,2.33672589 5.79130894,3.05331251 C5.31921693,3.76989913 5.29981706,4.69370291 5.74140952,5.4294769 L2.79866667,9.80639118 C1.92247194,9.63203473 1.02676495,9.99726942 0.522319897,10.7345974 C0.017874847,11.4719254 0.00200706314,12.4391046 0.481993564,13.1925834 C0.961980065,13.9460622 1.84522397,14.3404828 2.72666667,14.1949626 L5.78049524,18.4967912 C5.31965163,19.1937046 5.28733215,20.0898413 5.69677494,20.8181419 C6.10621772,21.5464425 6.88863191,21.9845447 7.7235392,21.9530009 C8.55844649,21.9214571 9.30557335,21.4255671 9.65889524,20.6684483 L13.6552381,20.6684483 C14.0005366,21.4059205 14.7205742,21.8963477 15.533267,21.9475988 C16.3459598,21.99885 17.1219039,21.6027644 17.5571133,20.9145138 C17.9923227,20.2262631 18.0174998,19.3554364 17.622781,18.6431912 L20.4102095,14.1517626 C21.246096,14.3679123 22.1316216,14.0818061 22.6830192,13.4174361 C23.2344169,12.7530661 23.3524627,11.8299857 22.9859982,11.0482372 C22.6195336,10.2664887 21.8345041,9.76674792 20.9711238,9.76559118 Z M18.9009524,11.1713055 L13.033981,11.1713055 L15.4559238,6.50399118 C15.5244952,6.51016261 15.5910095,6.51290547 15.6616381,6.51290547 C15.8133314,6.51280678 15.9646223,6.4972986 16.113181,6.46661975 L19.120381,10.7540483 C19.034697,10.8861692 18.9612496,11.0258341 18.9009524,11.1713055 L18.9009524,11.1713055 Z M13.9833524,5.75999118 L11.6666667,10.2215912 L9.34038095,5.74936261 C9.46615477,5.60501897 9.57317477,5.44535298 9.65889524,5.27416261 L13.6552381,5.27416261 C13.7442376,5.44896878 13.8544395,5.6121413 13.9833524,5.75999118 L13.9833524,5.75999118 Z M7.65318095,6.5118769 C7.72792381,6.5118769 7.80129524,6.50981975 7.87398095,6.50261975 L10.2952381,11.1713055 L4.43238095,11.1713055 C4.36923356,11.0075544 4.28534955,10.8525764 4.18278095,10.7101626 L7.05900952,6.43233404 C7.25258544,6.48546229 7.45244698,6.51221813 7.65318095,6.5118769 Z M4.43238095,12.8170198 L10.3140952,12.8170198 L7.89078095,17.4874198 C7.63541891,17.4611677 7.37745158,17.4785587 7.12792381,17.5388483 L4.14506667,13.3337055 C4.26748024,13.1777021 4.36444964,13.0033192 4.43238095,12.8170198 L4.43238095,12.8170198 Z M9.35135238,18.2585055 L11.6649524,13.8013626 L13.9720381,18.2434198 C13.778055,18.4730602 13.6295814,18.7375434 13.5345524,19.022734 L9.77820952,19.022734 C9.68587381,18.7431395 9.54099309,18.4837507 9.35135238,18.2585055 Z M15.6599238,17.4764483 C15.5855238,17.4764483 15.5118095,17.4785055 15.4391238,17.4857055 L13.0164952,12.8170198 L18.9009524,12.8170198 C18.9458425,12.9397752 19.0046244,13.0569939 19.0761524,13.1663912 L16.336381,17.580334 C16.1175891,17.5110825 15.8894134,17.4760408 15.6599238,17.4764483 Z"/>
  </defs>
  <use fill="#222" fill-rule="evenodd" xlink:href="#network-a"/>
</svg>
