<svg xmlns="http://www.w3.org/2000/svg" xmlns:xlink="http://www.w3.org/1999/xlink" width="24" height="24" viewBox="0 0 24 24">
  <defs>
    <path id="new-contact-a" d="M11.0939203,18.4797371 C11.0971297,18.732565 11.1309917,18.9840704 11.1947648,19.2287441 L11.055134,19.2287441 C5.3009675,19.2287441 3.16427205,18.8408809 2.10023392,18.5603265 C1.68177259,18.4504319 1.36156995,17.93285 1.38010119,17.499736 C1.46801685,15.4716423 1.8282987,12.0636174 7.98498106,10.7198868 C6.04561856,9.37673888 5.20420266,6.92906056 5.90779945,4.67736683 C6.61139625,2.4256731 8.69671854,0.892525736 11.0557805,0.892525736 C13.4148424,0.892525736 15.5001647,2.4256731 16.2037615,4.67736683 C16.9073582,6.92906056 16.0659423,9.37673888 14.1265798,10.7198868 C15.3474871,10.9862195 16.3317978,11.3361583 17.1402772,11.7382432 C15.7732517,12.105186 14.8219367,13.3429906 14.8191312,14.7584049 L14.8191312,15.337183 L14.2399221,15.337183 C13.4058327,15.3361534 12.6055593,15.6668022 12.0154453,16.2562694 C11.4253313,16.8457367 11.0938053,17.6456471 11.0939203,18.4797371 Z M21.6808627,16.9084601 C22.5488931,16.9081031 23.2528601,17.6114913 23.2532171,18.4795217 C23.2535741,19.347552 22.5501859,20.0515191 21.6821556,20.0518761 L19.5329623,20.0518761 L19.5329623,22.2023622 C19.5329623,23.0701546 18.8294776,23.7736392 17.9616853,23.7736392 C17.093893,23.7736392 16.3904083,23.0701546 16.3904082,22.2023622 L16.3904082,20.0510142 L14.2399221,20.0510142 C13.3721298,20.0510142 12.6686451,19.3475295 12.6686451,18.4797371 C12.6686451,17.6119448 13.3721298,16.9084601 14.2399221,16.9084601 L16.3886844,16.9084601 L16.3886844,14.7584049 C16.3886844,13.8906126 17.0921691,13.1871279 17.9599614,13.1871279 C18.8277538,13.1871279 19.5312385,13.8906126 19.5312385,14.7584049 L19.5312385,16.9084601 L21.6808627,16.9084601 Z"/>
  </defs>
  <use fill="#222" fill-rule="evenodd" xlink:href="#new-contact-a"/>
</svg>
