<svg xmlns="http://www.w3.org/2000/svg" xmlns:xlink="http://www.w3.org/1999/xlink" width="24" height="24" viewBox="0 0 24 24">
  <defs>
    <path id="new-group-a" d="M3.73553566,16.103696 C2.49087445,15.9925528 1.7834053,15.8475679 1.32458342,15.7278752 C0.977617188,15.6366808 0.713652116,15.2095633 0.729326155,14.850129 C0.800571789,13.1740755 1.09980345,10.3573794 6.18781037,9.24630373 C4.8258256,8.30133412 4.10103363,6.6783807 4.30639958,5.03345063 C4.51176552,3.38852056 5.61333446,1.99358433 7.16584584,1.41248323 C8.71835723,0.831382128 10.465121,1.16019461 11.700085,2.26601278 C9.09961942,2.93109077 7.17100012,5.28611519 7.17100012,8.08963087 C7.17117463,9.10225324 7.42740784,10.098389 7.91587322,10.9854096 C4.77607814,12.3490511 3.96922134,14.553391 3.73553566,16.103696 Z M13.1880501,3.63072289 L13.1876939,3.63072289 C15.1379133,3.6297399 16.8622643,4.89685085 17.4438917,6.75831969 C18.0255191,8.61978854 17.329317,10.6432162 15.7254633,11.7527251 C16.7343015,11.9728741 17.5489953,12.2621314 18.2165669,12.5944923 C17.0866643,12.897913 16.3003641,13.9210085 16.297922,15.0909393 L16.297922,15.5697099 L15.8191514,15.5697099 C15.0189499,15.5611597 14.2604245,15.9258212 13.767348,16.5561156 C13.2742714,17.18641 13.1029127,18.0104093 13.3038243,18.7850254 L13.1880501,18.7850254 C8.43133538,18.7850254 6.66373121,18.4637076 5.785985,18.2339404 C5.44008745,18.142746 5.17540992,17.7156284 5.19072773,17.3569067 C5.26304205,15.6804969 5.56120503,12.8634446 10.6492119,11.7527251 C9.04569838,10.6428444 8.34991367,8.61939385 8.93174385,6.75805976 C9.51357403,4.89672567 11.2378988,3.62977161 13.1880501,3.63072289 Z M21.9708556,16.8678054 C22.6882658,16.8678054 23.2698416,17.4493812 23.2698416,18.1667914 C23.2698416,18.8842016 22.6882658,19.4657774 21.9708556,19.4657774 L20.193277,19.4657774 L20.193277,21.243356 C20.193277,21.9606678 19.6117809,22.5421639 18.8944691,22.5421639 C18.1771573,22.5421639 17.5956612,21.9606678 17.5956612,21.243356 L17.5956612,19.4657774 L15.8180827,19.4657774 C15.1007709,19.4657774 14.5192748,18.8842813 14.5192748,18.1669695 C14.5192748,17.4496577 15.1007709,16.8681616 15.8180827,16.8681616 L17.5956612,16.8681616 L17.5956612,15.0909393 C17.5956612,14.3736275 18.1771573,13.7921314 18.8944691,13.7921314 C19.6117809,13.7921314 20.193277,14.3736275 20.193277,15.0909393 L20.193277,16.8678054 L21.9708556,16.8678054 Z"/>
  </defs>
  <use fill="#222" fill-rule="evenodd" xlink:href="#new-group-a"/>
</svg>
