<svg xmlns="http://www.w3.org/2000/svg" xmlns:xlink="http://www.w3.org/1999/xlink" width="24" height="24" viewBox="0 0 24 24">
  <defs>
    <path id="open-security-a" d="M17.8628571,10.2990012 L17.8628571,10.2883727 L8.31291429,10.2883727 L7.66148571,8.01625838 C7.07289995,5.90687597 8.29643574,3.7177293 10.4014907,3.11384943 C12.5065457,2.50996955 14.704515,3.71758458 15.3236571,5.81820124 L15.9085714,7.86265838 L15.9229714,7.91340124 C16.082874,8.39359687 16.5978009,8.65737085 17.0809331,8.50657306 C17.5640653,8.35577528 17.8375248,7.84592593 17.6958857,7.36002981 L17.6907429,7.34220124 L17.1078857,5.30665838 C16.2113476,2.21075248 12.9819168,0.420982527 9.88148571,1.3017441 C6.78514286,2.18940124 4.98822857,5.43145838 5.87657143,8.52780124 L6.38125714,10.2883727 L6.17862857,10.2883727 L6.17862857,10.2969441 C5.07908648,10.3835197 4.23086754,11.3008561 4.23051429,12.4038012 L4.23051429,15.1531727 C4.23051429,19.4262012 7.72765714,22.9226584 12,22.9226584 L12,22.9226584 C16.2730286,22.9226584 19.7694857,19.4255155 19.7694857,15.1531727 L19.7694857,12.4034584 C19.769156,11.3162482 18.9447585,10.4063125 17.8628571,10.2990012 Z M12.8273143,16.1347727 L12.8273143,19.2023155 C12.8265627,19.3892752 12.6751882,19.5406496 12.4882286,19.5414012 L11.4058286,19.5414012 C11.2188689,19.5406496 11.0674945,19.3892752 11.0667429,19.2023155 L11.0667429,16.1347727 C10.3442596,15.7336109 9.98438204,14.89472 10.1915815,14.0947317 C10.3987809,13.2947435 11.1206432,12.7360265 11.9470286,12.7360265 C12.7734139,12.7360265 13.4952763,13.2947435 13.7024757,14.0947317 C13.9096751,14.89472 13.5497975,15.7336109 12.8273143,16.1347727 Z"/>
  </defs>
  <use fill="#222" fill-rule="evenodd" xlink:href="#open-security-a"/>
</svg>
