<svg xmlns="http://www.w3.org/2000/svg" xmlns:xlink="http://www.w3.org/1999/xlink" width="24" height="24" viewBox="0 0 24 24">
  <defs>
    <path id="parental-guide-a" d="M15.7599503,18.0113723 C15.5261404,18.1709328 15.3093801,18.3541422 15.1130977,18.5581026 C14.2656066,18.5860896 13.2971015,18.6030394 12.1669819,18.6030394 C11.0368623,18.6030394 10.0667806,18.5860896 9.21850105,18.5581026 C9.02247998,18.3541702 8.80598389,18.1709608 8.57243685,18.0113723 C8.64730688,17.709089 8.68516308,17.3988271 8.68517289,17.0874098 C8.68517289,14.9698645 6.96575128,13.2476836 4.85214773,13.2476836 C4.76188007,13.2476836 4.67358332,13.2543847 4.5844982,13.2610858 C5.44144973,12.2618346 6.89006835,11.3603405 9.35804145,10.8214938 C7.58408427,9.59302851 6.81437323,7.35420505 7.45788961,5.29460858 C8.10140599,3.2350121 10.0087993,1.83264399 12.1665878,1.83264399 C14.3243762,1.83264399 16.2317695,3.2350121 16.8752859,5.29460858 C17.5188023,7.35420505 16.7490912,9.59302851 14.9751341,10.8214938 C17.4431072,11.3607347 18.89212,12.2622287 19.7486773,13.2610858 C19.6588038,13.2543847 19.5701129,13.2476836 19.4790569,13.2476836 C17.3662417,13.2476836 15.6472143,14.9698645 15.6472143,17.0874098 C15.6472708,17.3988242 15.6851263,17.7090806 15.7599503,18.0113723 Z M4.85254192,14.9718354 C5.77635927,14.9754146 6.59119334,15.5775867 6.86579691,16.4596548 C7.14040048,17.341723 6.81136294,18.3000027 6.05282591,18.8273289 C8.45733573,19.3551385 8.59924122,20.6933862 8.63353505,21.4884512 C8.64102451,21.6579494 8.51528047,21.8613473 8.35169497,21.9051015 C7.93662139,22.0138957 7.10134986,22.1656557 4.85254192,22.1656557 C2.60373397,22.1656557 1.76925081,22.012319 1.35457141,21.9051015 C1.19059172,21.8613473 1.06603023,21.6579494 1.07351969,21.4884512 C1.10741933,20.6933862 1.2477481,19.3551385 3.65225792,18.8277231 C2.89493047,18.299918 2.56668207,17.3423974 2.84090756,16.4609648 C3.11513305,15.5795322 3.92866197,14.9772338 4.85175355,14.9722296 L4.85254192,14.9718354 Z M19.4790569,14.9718354 C20.4033962,14.9744851 21.2191679,15.5764982 21.494229,16.4589672 C21.7692901,17.3414362 21.4400496,18.3003439 20.6809176,18.8277231 C23.0854274,19.3555327 23.2273329,20.6937804 23.2608384,21.4888453 C23.268722,21.6583436 23.1425838,21.8617415 22.9797866,21.9054956 C22.5651072,22.0142899 21.7298357,22.1660499 19.4806336,22.1660499 C17.2314315,22.1660499 16.3977367,22.014684 15.9822689,21.9054956 C15.8182892,21.8617415 15.6941219,21.6583436 15.7016114,21.4888453 C15.7351168,20.6937804 15.8766281,19.3555327 18.281138,18.8277231 C17.5232647,18.3001989 17.1946067,17.3424011 17.4689175,16.4606941 C17.7432284,15.5789871 18.5572519,14.9766928 19.4806336,14.9722296 L19.4790569,14.9718354 Z"/>
  </defs>
  <use fill="#222" fill-rule="evenodd" xlink:href="#parental-guide-a"/>
</svg>
