<svg xmlns="http://www.w3.org/2000/svg" xmlns:xlink="http://www.w3.org/1999/xlink" width="24" height="24" viewBox="0 0 24 24">
  <defs>
    <path id="pay-once-a" d="M0.7358375,3.55489417 C0.7358375,1.99809304 1.99554634,0.7360375 3.55469417,0.7360375 L20.4453058,0.7360375 C22.002107,0.7360375 23.2641625,1.995277 23.2641625,3.55489417 L23.2641625,20.4450365 C23.2641625,22.0018376 22.0044537,23.2643625 20.4453058,23.2643625 L3.55469417,23.2643625 C1.99789304,23.2643625 0.7358375,22.0046537 0.7358375,20.4450365 L0.7358375,3.55489417 Z M2.14385781,3.55489417 L2.14385781,20.4450365 C2.14385781,21.2260184 2.77465091,21.8563422 3.55469417,21.8563422 L20.4453058,21.8563422 C21.2258184,21.8563422 21.8561422,21.2255491 21.8561422,20.4450365 L21.8561422,3.55489417 C21.8561422,2.77391223 21.2253491,2.14405781 20.4453058,2.14405781 L3.55469417,2.14405781 C2.77418157,2.14405781 2.14385781,2.77438157 2.14385781,3.55489417 L2.14385781,3.55489417 Z M10.4948263,13.6949871 C10.960881,14.7829175 11.7428016,15.3264133 12.8401188,15.3264133 C13.1602087,15.3264133 13.6070205,15.2391161 14.1800848,15.0645215 C14.5297432,14.957512 14.7869415,14.9040072 14.9521493,14.9040072 C15.2919515,14.9040072 15.4618526,15.0593588 15.4618526,15.3700619 C15.4618526,15.651666 15.4013077,15.9163738 15.2797486,16.1641854 C15.1581896,16.4115276 14.9957979,16.5987943 14.7916349,16.7250468 C14.5588422,16.8606861 14.2528325,16.9723891 13.874075,17.0596863 C13.4953176,17.1474529 13.1020106,17.1911016 12.694154,17.1911016 C11.6165491,17.1911016 10.6914798,16.8827451 9.91941532,16.2660322 C9.14735085,15.6493193 8.60620171,14.7923043 8.29549856,13.6949871 L7.72759703,13.6949871 C7.65954272,13.6949871 7.5891417,13.6687041 7.51639398,13.6151993 C7.44317693,13.5616945 7.34883957,13.4668878 7.23197388,13.3312485 C7.12543368,13.1951399 7.07192891,13.0590313 7.07192891,12.923392 C7.07192891,12.7774272 7.17377571,12.6389719 7.37793865,12.508026 C7.58163226,12.3770801 7.79518201,12.3113725 8.0185879,12.3113725 L8.10588516,12.3113725 C8.09649835,12.2531743 8.09133561,12.1123723 8.09133561,11.8889664 C8.09133561,11.6364614 8.09649835,11.4764164 8.10588516,11.4083621 L7.93129064,11.4083621 C7.86323632,11.4083621 7.79283531,11.3816097 7.72008759,11.328105 C7.64733987,11.2750695 7.55253317,11.1802628 7.43613683,11.0441542 C7.32912728,10.9085149 7.27562251,10.7724063 7.27562251,10.6362977 C7.27562251,10.4908022 7.37793865,10.3523469 7.58163226,10.221401 C7.7857952,10.0899858 7.99934495,10.0247475 8.22275084,10.0247475 L8.42644445,10.0247475 C8.80520191,8.95652942 9.39985582,8.11171724 10.2108755,7.49031094 C11.0218952,6.86890464 11.9319457,6.55820149 12.9419656,6.55820149 C13.7966339,6.55820149 14.5827786,6.78630078 15.3013383,7.24249936 C15.4473031,7.33965277 15.5200508,7.47059865 15.5200508,7.63580637 C15.5200508,7.8690684 15.4740555,8.08965825 15.3815955,8.2985146 C15.2896048,8.50737094 15.1779018,8.67257866 15.0464866,8.79366841 C14.9155407,8.9152275 14.7822481,8.97577237 14.6461395,8.97577237 C14.568229,8.97577237 14.4762384,8.94667328 14.3692288,8.88847511 C13.825733,8.57777196 13.3301099,8.42242039 12.8837674,8.42242039 C11.8446484,8.42242039 11.0627278,8.95652942 10.5384749,10.0247475 L14.0636884,10.0247475 C14.3063373,10.0247475 14.427427,10.1364504 14.427427,10.3598563 C14.427427,10.6123613 14.357026,10.8498474 14.216224,11.0732533 C14.0754219,11.2966592 13.9275798,11.4083621 13.7722282,11.4083621 L10.1451679,11.4083621 C10.1357811,11.4764164 10.1306184,11.6364614 10.1306184,11.8889664 C10.1306184,12.1123723 10.1357811,12.2531743 10.1451679,12.3113725 L13.5535157,12.3113725 C13.7966339,12.3113725 13.9177237,12.4230754 13.9177237,12.6464813 C13.9177237,12.8989863 13.8473226,13.1369417 13.7065206,13.3603476 C13.5657186,13.5837535 13.4178765,13.6949871 13.2625249,13.6949871 L10.4948263,13.6949871 Z"/>
  </defs>
  <use fill="#222" fill-rule="evenodd" xlink:href="#pay-once-a"/>
</svg>
