<svg xmlns="http://www.w3.org/2000/svg" xmlns:xlink="http://www.w3.org/1999/xlink" width="24" height="24" viewBox="0 0 24 24">
  <defs>
    <path id="pay-monthly-a" d="M0.657321875,3.49602708 C0.657321875,1.92837444 1.92581138,0.657521875 3.49582708,0.657521875 L20.5041729,0.657521875 C22.0718256,0.657521875 23.3426781,1.92553877 23.3426781,3.49602708 L23.3426781,20.5039003 C23.3426781,22.071553 22.0741886,23.3428781 20.5041729,23.3428781 L3.49582708,23.3428781 C1.92817444,23.3428781 0.657321875,22.0743886 0.657321875,20.5039003 L0.657321875,3.49602708 Z M2.07515664,3.49602708 L2.07515664,20.5039003 C2.07515664,21.290326 2.71034662,21.9250434 3.49582708,21.9250434 L20.5041729,21.9250434 C21.290126,21.9250434 21.9248434,21.2898534 21.9248434,20.5039003 L21.9248434,3.49602708 C21.9248434,2.70960139 21.2896534,2.07535664 20.5041729,2.07535664 L3.49582708,2.07535664 C2.709874,2.07535664 2.07515664,2.710074 2.07515664,3.49602708 L2.07515664,3.49602708 Z M8.58301821,6.63794892 C8.18602448,6.38273866 7.81455177,6.25513353 7.46860009,6.25513353 C6.87310949,6.25513353 6.47611575,6.64362026 6.27761889,7.42059371 L8.35332898,7.42059371 L8.08961172,8.03309833 L6.18404179,8.03309833 L6.17553478,8.39039269 L7.98752761,8.39039269 L7.72381035,9.00289731 L6.24359085,9.00289731 C6.4250737,9.89896888 6.84475279,10.3470047 7.50262812,10.3470047 C7.92797855,10.3470047 8.36467166,10.1683575 8.81270745,9.81106312 L8.80420044,11.0956214 C8.42422072,11.3168036 7.98752761,11.4273948 7.49412111,11.4273948 C6.77953239,11.4273948 6.20389148,11.1977055 5.76719837,10.7383271 C5.37020464,10.3243193 5.11215871,9.74584272 4.99306059,9.00289731 L4.33802093,9.00289731 L4.60173819,8.39039269 L4.94201854,8.39039269 L4.94201854,8.16921046 C4.94201854,8.08981172 4.94485421,8.044441 4.95052555,8.03309833 L4.32951392,8.03309833 L4.59323118,7.42059371 L5.02708862,7.42059371 C5.16320076,6.73436168 5.44393204,6.1927488 5.86928247,5.79575507 C6.31731826,5.3647333 6.87878083,5.14922241 7.55367017,5.14922241 C8.03006266,5.14922241 8.54615451,5.29100589 9.10194574,5.57457284 L8.58301821,6.63794892 Z M12.4749746,14.0277037 L13.4816373,14.0277037 L13.4816373,16.7428573 L14.7505994,15.424271 L15.9415806,15.424271 L14.5591918,16.771214 L16.0975425,19.0893738 L14.8782046,19.0893738 L13.8715419,17.4517747 L13.4816373,17.8275009 L13.4816373,19.0893738 L12.4749746,19.0893738 L12.4749746,14.0277037 Z M16.5441604,14.0277037 L17.5508231,14.0277037 L17.5508231,16.7428573 L18.8197852,15.424271 L20.0107664,15.424271 L18.6283775,16.771214 L20.1667283,19.0893738 L18.9473904,19.0893738 L17.9407277,17.4517747 L17.5508231,17.8275009 L17.5508231,19.0893738 L16.5441604,19.0893738 L16.5441604,14.0277037 Z M18.009729,5.238546 C18.2172054,5.03106952 18.5537049,5.03106952 18.761654,5.238546 C18.9691305,5.44602249 18.9691305,5.78299455 18.761654,5.99047104 L5.99074365,18.7613814 C5.78326716,18.9688579 5.4462951,18.9688579 5.23881861,18.7613814 C5.03134213,18.5534323 5.03134213,18.2169328 5.23881861,18.0094563 L18.009729,5.238546 Z"/>
  </defs>
  <use fill="#222" fill-rule="evenodd" xlink:href="#pay-monthly-a"/>
</svg>
