<svg xmlns="http://www.w3.org/2000/svg" xmlns:xlink="http://www.w3.org/1999/xlink" width="24" height="24" viewBox="0 0 24 24">
  <defs>
    <path id="payment-a" d="M18.8673905,10.4001524 L18.8673905,9.48369524 L2.05367619,9.48369524 L2.05367619,14.2247238 C2.05424324,14.6675234 2.41316214,15.0262889 2.8559619,15.0266667 L14.1826557,15.0266667 C14.1826339,15.0262095 14.1826121,15.0257524 14.1825905,15.0252952 C14.1789333,14.9530667 14.1771048,14.8804952 14.1771048,14.807581 C14.1808806,12.3702572 16.155781,10.3953568 18.5931048,10.391581 C18.6846476,10.391581 18.7761905,10.3943238 18.8673905,10.4001524 Z M20.2621333,10.7196952 C22.1249344,11.4799475 23.2383565,13.403235 22.9700333,15.3972295 C22.7017101,17.391224 21.1194837,18.9517697 19.121977,19.1925571 C17.1249579,19.4332858 15.2176586,18.29405 14.4827856,16.4217524 L2.8559619,16.4217524 C1.64306916,16.42043 0.660102091,15.4376163 0.658590476,14.2247238 L0.658590476,6.30815238 C0.660102091,5.09525986 1.64306916,4.11244616 2.8559619,4.11112381 L18.0651048,4.11112381 L18.0651048,4.10975238 C19.2779418,4.1110751 20.2608106,5.09394389 20.2621333,6.30678095 L20.2621333,10.7196952 Z M18.8673905,7.4152381 L18.8673905,6.30678095 C18.8668234,5.86398139 18.5079045,5.50521587 18.0651048,5.5048381 L2.8559619,5.5048381 C2.41316214,5.50521587 2.05424324,5.86398139 2.05367619,6.30678095 L2.05367619,7.4152381 L18.8673905,7.4152381 Z M21.1590476,13.0236952 C21.0457987,12.9096107 20.8915685,12.8456465 20.730819,12.8460952 C20.5700696,12.8456465 20.4158394,12.9096107 20.3025905,13.0236952 L20.2614476,13.0648381 L19.5640762,13.7625524 L18.8118476,14.5151238 L18.3568762,14.9700952 L17.7647619,15.5622095 L16.7121905,14.5065524 C16.5590767,14.3534386 16.3359084,14.2936408 16.126751,14.3496844 C15.9175936,14.4057279 15.7542231,14.5690984 15.6981796,14.7782558 C15.642136,14.9874132 15.7019338,15.2105814 15.8550476,15.3636952 L16.2143619,15.7230095 L16.9117333,16.420381 L17.3382476,16.8468952 C17.451788,16.9607925 17.6059962,17.0248093 17.766819,17.0248093 C17.9276419,17.0248093 18.0818501,16.9607925 18.1953905,16.8468952 L18.7213333,16.3206095 L20.1647619,14.8768381 L21.1593905,13.8801524 C21.2529702,13.7872057 21.3132337,13.6659554 21.330819,13.5352381 C21.33466,13.5076321 21.3366074,13.4797957 21.3366476,13.4519238 C21.3371347,13.2911667 21.2731647,13.1369223 21.1590476,13.0236952 Z"/>
  </defs>
  <use fill="#222" fill-rule="evenodd" xlink:href="#payment-a"/>
</svg>
