<svg xmlns="http://www.w3.org/2000/svg" width="24" height="24" viewBox="0 0 24 24">
  <path fill="#990AE3" fill-rule="evenodd" d="M13.3035928,20.5830105 C18.3339337,18.5632771 21.0456292,15.6938057 22.3103448,13.357303 C20.0676715,19.8268655 15.327429,24 11.864921,24 C9.887593,24 7.63318559,22.6220582 5.65517241,20.662139 L5.67358728,20.6764332 C6.95166438,21.691405 9.26422849,22.2099093 13.3035928,20.5830105 Z M13.6712324,11.7328042 C7.73139616,14.5487672 2.64813583,15.4710037 0.985415636,13.3019229 C0.673162938,12.3936876 0.5,11.5277054 0.5,10.7528968 C0.5,4.72477408 9.44717557,0 16.7384964,0 C19.1978679,0 21.4913656,0.732555416 22.6246802,2.65811775 C23.3156367,5.20072676 19.3561132,9.03601689 13.6712324,11.7328042 Z M16.3817251,17.9603354 C11.0766985,21.0043536 6.93774179,21.795325 4.42749278,19.5874086 C3.34777614,18.3334255 2.39883289,16.9362463 1.68965517,15.5511132 C3.7306635,17.7614897 8.30541718,16.981292 14.4027162,14.0834389 C19.4568295,11.6810033 23.2778996,8.00397042 23.4614969,5.0796498 C23.4866225,5.33312712 23.5,5.59754773 23.5,5.87325097 C23.5,7.84991593 23.2554323,9.72384963 22.8276961,11.4635795 C21.7875974,13.8819634 19.5332354,16.1508738 16.3817251,17.9603354 Z"/>
</svg>
