<svg xmlns="http://www.w3.org/2000/svg" xmlns:xlink="http://www.w3.org/1999/xlink" width="24" height="24" viewBox="0 0 24 24">
  <defs>
    <path id="people-a" d="M20.4932571,13.9295238 C23.4953143,14.584381 23.6712,16.2462095 23.7133714,17.2360381 C23.7229714,17.447581 23.5686857,17.6999238 23.3629714,17.7530667 C22.8449143,17.8888381 21.8019429,18.0780952 18.9956571,18.0780952 C18.2746286,18.0780952 17.6701714,18.0647238 17.1606857,18.0438095 C17.3517539,17.8066213 17.4517139,17.5089302 17.4425143,17.2044952 C17.424,16.7748952 17.3856,15.8810667 16.8164571,15.0482667 C16.6370428,14.7879487 16.422824,14.5534271 16.1797714,14.3512381 C16.6031185,14.1649356 17.0448534,14.0235896 17.4977143,13.9295238 C17.1476688,13.6867007 16.8614889,13.3628811 16.6635429,12.9856381 C16.2356571,13.0048381 15.7248,13.0178667 15.1131429,13.0199238 C15.4726885,12.1289217 15.4327021,11.1264842 15.0033291,10.2669514 C14.5739562,9.40741856 13.7964622,8.77339724 12.8681143,8.52575238 C12.3431638,7.43022135 12.7674286,6.11545647 13.8337216,5.53340786 C14.9000145,4.95135924 16.2353421,5.30562982 16.8728658,6.33971143 C17.5103895,7.37379304 17.2271011,8.72595982 16.2281143,9.41718095 C16.5970046,9.49421407 16.9575507,9.60685605 17.3046857,9.75352381 C18.0466763,9.13238333 19.0698459,8.9689214 19.9684306,9.327963 C20.8670154,9.6870046 21.4958191,10.5105346 21.6054737,11.4719613 C21.7151283,12.4333881 21.2879154,13.377361 20.4932571,13.9295238 Z M7.81988571,14.3502095 C7.57697825,14.5527072 7.3628832,14.7874504 7.18354286,15.0479238 C7.14468571,15.1046095 7.108,15.1617524 7.07348571,15.2193524 C6.68845714,15.8680381 6.59897143,16.5294095 6.56948571,16.965181 C6.56331429,17.0553524 6.55988571,17.1348952 6.55714286,17.2034667 C6.54790536,17.5081737 6.64799452,17.8061305 6.83931429,18.0434667 C6.33051429,18.0654095 5.72502857,18.0777524 5.00502857,18.0777524 C2.1984,18.0777524 1.15542857,17.8898667 0.637714286,17.7527238 C0.432685714,17.7009524 0.277371429,17.4468952 0.286285714,17.2356952 C0.329142857,16.2462095 0.504342857,14.584381 3.50674286,13.9288381 C2.71012519,13.3773851 2.28120286,12.4326135 2.39040529,11.469922 C2.49960772,10.5072305 3.12924849,9.68253653 4.02914405,9.32352668 C4.92903961,8.96451682 5.95344296,9.12933632 6.69531429,9.75249524 C7.04252279,9.60611206 7.40305221,9.49359014 7.77188571,9.41649524 C7.50193621,9.22904904 7.27535037,8.98586093 7.10742857,8.70335238 C6.55133785,7.76549412 6.73528937,6.56540683 7.54676195,5.83717112 C8.35823452,5.1089354 9.57115868,5.05543163 10.4436016,5.7093875 C11.3160446,6.36334337 11.6049511,7.54257224 11.1336,8.52575238 C9.85437829,8.87004241 8.89621825,9.93289006 8.68594286,11.2408381 C8.59032518,11.8410575 8.66002022,12.4559858 8.88754286,13.019581 C8.75611429,13.0191238 8.62914286,13.0182095 8.50662857,13.0168381 C8.05988571,13.0116952 7.67314286,13.000381 7.33714286,12.9849524 C7.13904442,13.3623827 6.85276523,13.6864169 6.50262857,13.9295238 C6.95517847,14.0234507 7.39666518,14.1644461 7.81988571,14.3502095 Z M15.4971429,14.7369524 C16.5942857,15.5135238 16.6882286,16.5407238 16.7177143,17.2353524 C16.7266286,17.4472381 16.5723429,17.6988952 16.3666286,17.7530667 C16.0811677,17.8257644 15.7913063,17.8799344 15.4988571,17.9152381 L15.4971429,17.9152381 C14.8189714,18.0040381 13.7530286,18.0784381 12,18.0784381 C10.2469714,18.0784381 9.18137143,18.004381 8.50285714,17.915581 L8.49977143,17.915581 C8.20766256,17.8802695 7.9181438,17.8260992 7.63302857,17.7534095 C7.428,17.6992381 7.27268571,17.4472381 7.2816,17.2356952 C7.28571429,17.140381 7.2912,17.0388952 7.30011429,16.9326095 C7.33577143,16.5095238 7.42937143,16.0120381 7.73314286,15.5320381 C7.93471104,15.2192109 8.19604936,14.9492506 8.50217143,14.7376381 C8.96571429,14.4095238 9.60891429,14.1246095 10.5020571,13.9295238 C10.1619011,13.6934853 9.88192859,13.3808649 9.68468571,13.0168381 C9.08755838,11.9098804 9.35738045,10.5351108 10.3286121,9.73597037 C11.2998438,8.93682996 12.7008419,8.93682996 13.6720736,9.73597037 C14.6433053,10.5351108 14.9131273,11.9098804 14.316,13.0168381 C14.118628,13.3808802 13.8385411,13.6934971 13.4982857,13.9295238 C14.3910857,14.1239238 15.0342857,14.4095238 15.4971429,14.7369524 Z"/>
  </defs>
  <use fill="#222" fill-rule="evenodd" xlink:href="#people-a"/>
</svg>
