<svg xmlns="http://www.w3.org/2000/svg" xmlns:xlink="http://www.w3.org/1999/xlink" width="24" height="24" viewBox="0 0 24 24">
  <defs>
    <path id="phone-a" d="M22.495391,20.2455774 C23.1393825,19.5981424 23.1393825,18.5520904 22.495391,17.9046554 L19.2712807,14.6790322 C18.6236751,14.0354544 17.5779644,14.0354544 16.9303588,14.6790322 L15.7007034,15.9071746 L15.5826928,16.0255635 C14.9356878,16.6698818 13.8895322,16.6698818 13.2425273,16.0255635 L7.97668216,10.7597183 C7.33351746,10.1119424 7.33351746,9.06657232 7.97668216,8.41879638 L8.09469277,8.30116401 L9.32396993,7.07188685 C9.96754767,6.42428119 9.96754767,5.37857055 9.32396993,4.73096489 L6.09948137,1.50571986 C5.45209044,0.861979208 4.40632859,0.861979208 3.75893765,1.50571986 L3.14921618,2.11544133 C-0.806786848,6.07144436 0.937273766,11.0744133 6.85595962,16.9927209 L7.01444182,17.1440166 C12.9312365,23.0608112 17.9342054,24.8060066 21.8902084,20.85076 L22.495391,20.2455774"/>
  </defs>
  <use fill="#222" fill-rule="evenodd" xlink:href="#phone-a"/>
</svg>
