<svg xmlns="http://www.w3.org/2000/svg" xmlns:xlink="http://www.w3.org/1999/xlink" width="24" height="24" viewBox="0 0 24 24">
  <defs>
    <path id="pie-chart-a" d="M23.2298436,11.7351315 C23.3318129,12.5501703 22.7203549,13.1616282 22.0080011,13.1609126 L12.0221668,13.1609126 C11.5126782,13.1609126 11.0031896,12.7533933 11.0031896,12.1419353 L11.0031896,2.15610108 C11.0031896,1.44374723 11.6135741,0.832289307 12.3270013,0.832289307 C15.0773098,1.13783938 17.7274378,2.46272452 19.6634231,4.39870979 C21.7013777,6.43666436 22.9242935,8.98374977 23.2298436,11.7351315 Z M10.1978111,14.0847186 C10.691797,14.5485194 11.3438576,14.8068106 12.0214513,14.8070904 L20.5092315,14.8070904 C19.7746948,19.5724551 15.6558513,23.2218821 10.6844014,23.2218821 C5.19416037,23.2218821 0.743290505,18.77137 0.743290505,13.2807712 C0.743290505,8.24205739 4.49397128,4.0774171 9.35665395,3.42803375 L9.35665395,12.1419353 C9.35234008,12.8788033 9.65751335,13.5836484 10.1978111,14.0847186 Z"/>
  </defs>
  <use fill="#222" fill-rule="evenodd" xlink:href="#pie-chart-a"/>
</svg>
