<svg xmlns="http://www.w3.org/2000/svg" xmlns:xlink="http://www.w3.org/1999/xlink" width="24" height="24" viewBox="0 0 24 24">
  <defs>
    <path id="play-a" d="M12.3374353,23.1676401 C7.75172032,23.1673093 3.61769118,20.404792 1.86285877,16.1681252 C0.108026372,11.9314584 1.07793478,7.05488419 4.32035956,3.81212859 C8.7608833,-0.53958019 15.8775949,-0.503636285 20.2739355,3.89270426 C24.670276,8.2890448 24.7062199,15.4057564 20.3545111,19.8462802 C18.2331027,21.9798613 15.3461684,23.1758769 12.3374353,23.1676401 Z M12.3374353,2.84855243 C8.05218602,2.84844012 4.36363207,5.87547183 3.52761405,10.0783798 C2.69159603,14.2812878 4.94096593,18.4894568 8.90005731,20.1292608 C12.8591487,21.7690648 17.4252553,20.3837773 19.8058442,16.8206104 C22.1864331,13.2574435 21.7184506,8.50882862 18.6881047,5.47891682 C17.0074994,3.78911024 14.7206761,2.84193785 12.3374353,2.84855243 Z M17.8566194,11.2298325 C18.3510057,11.5780027 18.3510057,12.1487421 17.8566194,12.4980575 L9.8151106,17.3170836 C9.29629126,17.6129519 8.87214978,17.313266 8.87214978,16.6512846 L8.87214978,7.0731696 C8.87214978,6.4111882 9.29629126,6.11150227 9.8151106,6.40813408 L17.8566194,11.2298325 Z"/>
  </defs>
  <use fill="#222" fill-rule="evenodd" xlink:href="#play-a"/>
</svg>
