<svg xmlns="http://www.w3.org/2000/svg" width="24" height="24" viewBox="0 0 24 24">
  <path fill="#222" fill-rule="evenodd" d="M10.1922586,13.8077414 L2.51094351,13.8077414 C1.56203786,13.8077414 0.73174542,12.9641287 0.73174542,12 C0.73174542,11.0358713 1.56203786,10.1922586 2.51094351,10.1922586 L10.1922586,10.1922586 L10.1922586,2.51094351 C10.1922586,1.56203786 11.0358713,0.73174542 12,0.73174542 C12.9641287,0.73174542 13.8077414,1.56203786 13.8077414,2.51094351 L13.8077414,10.1922586 L21.4890565,10.1922586 C22.4379621,10.1922586 23.2682546,11.0358713 23.2682546,12 C23.2682546,12.9641287 22.4379621,13.8077414 21.4890565,13.8077414 L13.8077414,13.8077414 L13.8077414,21.4890565 C13.8077414,22.4379621 12.9641287,23.2682546 12,23.2682546 C11.0358713,23.2682546 10.1922586,22.4379621 10.1922586,21.4890565 L10.1922586,13.8077414 Z"/>
</svg>
