<svg xmlns="http://www.w3.org/2000/svg" xmlns:xlink="http://www.w3.org/1999/xlink" width="24" height="24" viewBox="0 0 24 24">
  <defs>
    <path id="portal-a" d="M10.9272641,13.4932989 C8.76061018,13.9663797 8.63361409,15.1647168 8.60266791,15.8789117 C8.5961478,16.0314367 8.70848177,16.2134158 8.8562384,16.2522445 C9.22999294,16.3501759 9.9825624,16.4869359 12.0083042,16.4869359 C14.0330729,16.4869359 14.7858045,16.3507597 15.1598186,16.2522445 C15.3072184,16.2134158 15.4194875,16.0314367 15.4130322,15.8789117 C15.3820861,15.1647168 15.2550251,13.9663797 13.0883387,13.4932989 C13.582699,13.150523 13.9065634,12.5799651 13.9065634,11.9337285 C13.9065634,10.8854836 13.0565167,10.0355018 12.0083042,10.0355018 C10.9596052,10.0355018 10.1096234,10.8854836 10.1096234,11.9337285 C10.1096234,12.5799651 10.4334553,13.150523 10.9272641,13.4932989 L10.9272641,13.4932989 Z M2.20362171,19.087777 L21.7963783,19.087777 L21.7963783,7.21534504 L2.20362171,7.21534504 L2.20362171,19.087777 Z M2.39101799,5.34887547 C2.39101799,5.74306616 2.71047075,6.06248648 3.10466144,6.06248648 C3.49885214,6.06248648 3.81830489,5.74306616 3.81830489,5.34887547 C3.81830489,4.95465234 3.49885214,4.63519958 3.10466144,4.63519958 C2.71047075,4.63519958 2.39101799,4.95465234 2.39101799,5.34887547 L2.39101799,5.34887547 Z M4.98608509,5.34887547 C4.98608509,5.74306616 5.30553785,6.06248648 5.69972854,6.06248648 C6.09395167,6.06248648 6.41337199,5.74306616 6.41337199,5.34887547 C6.41337199,4.95465234 6.09395167,4.63519958 5.69972854,4.63519958 C5.30553785,4.63519958 4.98608509,4.95465234 4.98608509,5.34887547 L4.98608509,5.34887547 Z M23.3534185,4.7921687 L23.3534185,4.89490092 L23.3534185,7.23046131 L23.3534185,19.2161031 C23.3534185,20.004452 22.7221685,20.6448173 21.9338195,20.6448173 L2.08188062,20.6448173 C1.29353168,20.6448173 0.646581451,20.004452 0.646581451,19.2161031 L0.646581451,4.7921687 C0.646581451,4.00381975 1.29353168,3.35518273 2.08188062,3.35518273 L21.9338195,3.35518273 C22.7221685,3.35518273 23.3534185,4.00381975 23.3534185,4.7921687 L23.3534185,4.7921687 Z M15.6405872,14.1927344 C15.9217952,14.603793 16.0358159,15.0294165 16.0853168,15.3693054 C16.3346703,15.376604 16.6172407,15.3807885 16.9388668,15.3807885 C18.6164804,15.3807885 19.2400101,15.2674814 19.5500233,15.1863207 C19.6721537,15.1541743 19.7651868,15.0034009 19.7598345,14.8770211 C19.7341758,14.285281 19.6289134,13.2924083 17.8337108,12.9004234 C18.2433097,12.6164258 18.5116397,12.1437018 18.5116397,11.6082746 C18.5116397,10.7397381 17.8073385,10.0355018 16.9388668,10.0355018 C16.0699735,10.0355018 15.3657371,10.7397381 15.3657371,11.6082746 C15.3657371,12.1437018 15.6340346,12.6164258 16.0431794,12.9004234 C15.487089,13.0218401 15.09332,13.2009646 14.8136691,13.4079212 C15.156153,13.6267178 15.4325601,13.8886574 15.6405872,14.1927344 L15.6405872,14.1927344 Z M4.32077476,14.8770211 C4.34640105,14.285281 4.45163102,13.2924083 6.24680112,12.9004234 C5.83765636,12.6164258 5.56935886,12.1437018 5.56935886,11.6082746 C5.56935886,10.7397381 6.27359519,10.0355018 7.14248853,10.0355018 C8.01096017,10.0355018 8.71526138,10.7397381 8.71526138,11.6082746 C8.71526138,12.1437018 8.44693145,12.6164258 8.03733254,12.9004234 C8.57386267,13.0175907 8.95932744,13.188411 9.23696719,13.3861551 C8.87836135,13.6092984 8.59008183,13.8784069 8.37504809,14.1927668 C8.09335355,14.604604 7.97943011,15.0310708 7.9300914,15.3710895 C7.69702193,15.3772528 7.43621769,15.3807885 7.14248853,15.3807885 C5.46406401,15.3807885 4.84053426,15.2674814 4.53084544,15.1863207 C4.40845559,15.1541743 4.31535756,15.0034009 4.32077476,14.8770211 L4.32077476,14.8770211 Z"/>
  </defs>
  <use fill="#222" fill-rule="evenodd" xlink:href="#portal-a"/>
</svg>
