<svg xmlns="http://www.w3.org/2000/svg" xmlns:xlink="http://www.w3.org/1999/xlink" width="24" height="24" viewBox="0 0 24 24">
  <defs>
    <path id="premises-large-a" d="M0.896698472,22.6850846 L0.896698472,5.55866048 C0.896698472,5.11935355 1.2145414,4.60367705 1.60766291,4.40620713 L11.4557022,1.12922477 C11.8488237,0.93248218 12.4848733,0.93248218 12.8779948,1.12922477 L22.7260341,4.40657079 C23.1187919,4.60404071 23.4366349,5.11971722 23.4366349,5.55902414 L23.4366349,22.6850846 L13.7576996,22.6850846 L13.7576996,20.298717 C13.7574991,19.8596908 13.4017547,19.5037836 12.9627286,19.5033823 L11.3716957,19.5033823 C10.9323857,19.5035831 10.576361,19.8597706 10.5763611,20.2990806 L10.5763611,22.6850846 L0.896698472,22.6850846 Z M7.29356006,15.4939793 C7.14409027,15.3451543 6.94189699,15.2613754 6.73097081,15.2608703 L4.34423957,15.2608703 C4.13320723,15.2606773 3.93074157,15.3443245 3.78138277,15.4934105 C3.63202397,15.6424965 3.54800674,15.8448089 3.54781393,16.0558412 L3.54781393,17.1166511 C3.5480146,17.5558191 3.90398053,17.9117851 4.34314857,17.9119857 L6.72987982,17.9119857 C7.16933185,17.9119857 7.52557812,17.5557395 7.52557812,17.1162874 L7.52557812,16.0565686 C7.52536305,15.845798 7.44198524,15.6436264 7.29356006,15.4939793 L7.29356006,15.4939793 Z M13.9228034,15.4939793 C13.7733336,15.3451543 13.5711403,15.2613754 13.3602141,15.2608703 L10.9727555,15.2608703 C10.5333035,15.2608703 10.1770572,15.6171165 10.1770572,16.0565686 L10.1770572,17.1173784 C10.177258,17.5566884 10.5334455,17.9127131 10.9727555,17.9127131 L13.3598505,17.9127131 C13.7993025,17.9127131 14.1555488,17.5564668 14.1555488,17.1170148 L14.1555488,16.0565686 C14.1550436,15.8456424 14.0712647,15.6434491 13.9224397,15.4939793 L13.9228034,15.4939793 Z M20.5520467,15.4939793 C20.4025769,15.3451543 20.2003836,15.2613754 19.9894574,15.2608703 L17.6019989,15.2608703 C17.1626888,15.2610711 16.8066642,15.6172585 16.8066642,16.0565686 L16.8066642,17.1173784 C16.8068649,17.5565465 17.1628308,17.9125124 17.6019989,17.9127131 L19.9890938,17.9127131 C20.2002521,17.9129061 20.4028279,17.829159 20.5522077,17.6799157 C20.7015874,17.5306724 20.7855195,17.3281731 20.7855194,17.1170148 L20.7855194,16.0565686 C20.784821,15.8455385 20.7007747,15.6433307 20.551683,15.4939793 L20.5520467,15.4939793 Z M7.29356006,11.2514673 C7.14409027,11.1026422 6.94189699,11.0188634 6.73097081,11.0183582 L4.34423957,11.0183582 C3.90507108,11.017956 3.54861662,11.3734339 3.54781393,11.8126018 L3.54781393,12.8734117 C3.54781389,13.3127218 3.90383856,13.6689092 4.34314857,13.66911 L6.72987982,13.66911 C7.16918987,13.66911 7.52537734,13.3130854 7.52557812,12.8737754 L7.52557812,11.8129655 C7.52507604,11.602573 7.44171985,11.4008458 7.29356006,11.2514673 Z M7.29356006,7.00822786 C7.14409027,6.85940282 6.94189699,6.77562396 6.73097081,6.77511881 L4.34423957,6.77511881 C3.90507108,6.77471664 3.54861662,7.13019451 3.54781393,7.56936245 L3.54781393,8.6301723 C3.54781389,9.06948236 3.90383856,9.42566982 4.34314857,9.4258706 L6.72987982,9.4258706 C7.16918987,9.42587065 7.52537734,9.06984597 7.52557812,8.63053596 L7.52557812,7.56972611 C7.52526731,7.35908154 7.44189671,7.15705811 7.29356006,7.00750053 L7.29356006,7.00822786 Z M13.9228034,7.00822786 C13.7733336,6.85940282 13.5711403,6.77562396 13.3602141,6.77511881 L10.9727555,6.77511881 C10.5333035,6.77511881 10.1770572,7.13136507 10.1770572,7.57081711 L10.1770572,8.63162696 C10.1770572,9.071079 10.5333035,9.42732526 10.9727555,9.42732526 L13.3598505,9.42732526 C13.7991605,9.42732531 14.155348,9.07130063 14.1555488,8.63199062 L14.1555488,7.56972611 C14.1549478,7.35892601 14.0711762,7.1568809 13.9224397,7.00750053 L13.9228034,7.00822786 Z M20.5520467,7.00822786 C20.4025769,6.85940282 20.2003836,6.77562396 19.9894574,6.77511881 L17.6019989,6.77511881 C17.1626888,6.77531959 16.8066642,7.13150705 16.8066642,7.57081711 L16.8066642,8.63162696 C16.8066642,9.07093701 17.1626888,9.42712448 17.6019989,9.42732526 L19.9890938,9.42732526 C20.2004412,9.42751865 20.4031827,9.34362192 20.5525939,9.19414251 C20.7020051,9.04466311 20.7858093,8.84188333 20.7855194,8.63053596 L20.7855194,7.56972611 C20.7847252,7.35882218 20.7006862,7.15676256 20.551683,7.00750053 L20.5520467,7.00822786 Z M13.9224397,11.2514673 C13.7729699,11.1026422 13.5707766,11.0188634 13.3598505,11.0183582 L10.9734829,11.0183582 C10.5341729,11.018559 10.1781482,11.3747464 10.1781482,11.8140565 L10.1781482,12.8734117 C10.1781482,13.3128637 10.5343945,13.66911 10.9738465,13.66911 L13.3605778,13.66911 C13.7998878,13.66911 14.1560753,13.3130854 14.1562761,12.8737754 L14.1562761,11.8129655 C14.1552905,11.6023139 14.071266,11.4005505 13.9224397,11.2514673 Z M20.551683,11.2514673 C20.4022132,11.1026422 20.2000199,11.0188634 19.9890938,11.0183582 L17.6027262,11.0183582 C17.1634162,11.018559 16.8073915,11.3747464 16.8073916,11.8140565 L16.8073916,12.8734117 C16.8073915,13.3127218 17.1634162,13.6689092 17.6027262,13.66911 L19.9890938,13.66911 C20.2001891,13.669303 20.4027098,13.5856058 20.5520791,13.4364412 C20.7014483,13.2872766 20.785423,13.0848707 20.7855194,12.8737754 L20.7855194,11.8129655 C20.7845339,11.6023139 20.7005093,11.4005505 20.551683,11.2514673 L20.551683,11.2514673 Z"/>
  </defs>
  <use fill="#222" fill-rule="evenodd" xlink:href="#premises-large-a"/>
</svg>
