<svg xmlns="http://www.w3.org/2000/svg" xmlns:xlink="http://www.w3.org/1999/xlink" width="24" height="24" viewBox="0 0 24 24">
  <defs>
    <path id="premises-small-a" d="M0.244763481,21.8216715 L0.244763481,9.41657087 C0.244763481,8.78582074 0.701117464,8.04542034 1.26555529,7.76189607 L10.6453527,3.05633303 C11.2092684,2.77385305 12.1230206,2.77385305 12.6874585,3.05633303 L22.067778,7.76241821 C22.6311716,8.04594249 23.0885699,8.78634288 23.0885699,9.41709301 L23.0885699,21.8216715 L18.7103912,21.8216715 L18.7103912,18.3953616 C18.7103913,18.0921836 18.5898829,17.8014383 18.3754058,17.587157 C18.1609287,17.3728758 17.8700734,17.2526331 17.5668955,17.2529102 L15.2835592,17.2529102 C14.6528046,17.2531985 14.1416299,17.764607 14.1416299,18.3953616 L14.1416299,21.8221936 L0.244763481,21.8221936 L0.244763481,21.8216715 Z M9.42823471,11.4978374 C9.21362829,11.2841567 8.92332229,11.1638683 8.62047772,11.163143 L5.19207926,11.163143 C4.5613247,11.1634313 4.05014995,11.6748398 4.05015001,12.3055944 L4.05015001,13.8266003 C4.05043813,14.457151 4.56152853,14.9682414 5.19207926,14.9685296 L8.61838914,14.9685296 C9.24914377,14.9685296 9.76055226,14.4573549 9.76084054,13.8266003 L9.76084054,12.304028 C9.76025864,12.0020239 9.64076894,11.7123974 9.42823471,11.4978374 Z M18.9464003,11.4978374 C18.7326057,11.2844084 18.4433422,11.1637881 18.1412541,11.1620987 L14.7123335,11.1620987 C14.0815789,11.162387 13.5704042,11.6737955 13.5704042,12.3045501 L13.5704042,13.8266003 C13.5704042,14.4575588 14.0818971,14.9690517 14.7128556,14.9690517 L18.1412541,14.9690517 C18.7720087,14.9690518 19.2834172,14.457877 19.2837055,13.8271225 L19.2837055,12.304028 C19.2818745,12.0013539 19.1606574,11.7116338 18.9464003,11.4978374 L18.9464003,11.4978374 Z"/>
  </defs>
  <use fill="#222" fill-rule="evenodd" xlink:href="#premises-small-a"/>
</svg>
