<svg xmlns="http://www.w3.org/2000/svg" xmlns:xlink="http://www.w3.org/1999/xlink" width="24" height="24" viewBox="0 0 24 24">
  <defs>
    <path id="premises-datacenter-a" d="M1.1096874,21.0473172 L1.1096874,4.83058276 C1.1096874,3.60926255 2.09976305,2.61918691 3.32108326,2.61918691 L21.0122501,2.61918691 C21.5987898,2.61905279 22.1613449,2.85199541 22.5760912,3.26674165 C22.9908374,3.6814879 23.22378,4.24404301 23.2236459,4.83058276 L23.2236459,21.0473172 L18.9853478,21.0473172 L18.9853478,17.7304761 C18.9853479,17.4369845 18.8686897,17.1555284 18.661065,16.9480933 C18.4534403,16.7406582 18.1718777,16.6242572 17.8783862,16.6245255 L15.6680013,16.6245255 C15.057399,16.6248045 14.562556,17.1198738 14.5625561,17.7304761 L14.5625561,21.0478226 L1.1096874,21.0478226 L1.1096874,21.0473172 Z M9.99975145,11.0523134 C9.7920016,10.8454597 9.51097072,10.7290144 9.21780188,10.7283123 L5.89893899,10.7283123 C5.2895209,10.7297047 4.79607111,11.2238326 4.79551564,11.833252 L4.79551564,13.3076844 C4.79690535,13.9165118 5.29011167,14.4097181 5.89893899,14.4111078 L9.21578003,14.4111078 C9.82638238,14.4111078 10.3214516,13.9162649 10.3217307,13.3056626 L10.3217307,11.833252 C10.3213002,11.5407217 10.2056182,11.2601428 9.99975145,11.0523134 Z M19.2138166,11.0523134 C19.0066884,10.846074 18.7266868,10.729679 18.4343943,10.7283123 L15.115026,10.7283123 C14.5048182,10.7285909 14.0101385,11.2230445 14.0095808,11.833252 L14.0095808,13.3076844 C14.0109738,13.9172997 14.5054092,14.4108307 15.115026,14.4111078 L18.4343943,14.4111078 C19.0449967,14.4111078 19.5400659,13.9162649 19.540345,13.3056626 L19.540345,11.833252 C19.5387055,11.5400728 19.4213511,11.2594032 19.2138166,11.0523134 L19.2138166,11.0523134 Z M9.99975145,5.1550893 C9.7920016,4.94823559 9.51097072,4.83179034 9.21780188,4.83108822 L5.89893899,4.83108822 C5.28833671,4.83136729 4.79349373,5.32643653 4.7934938,5.93703888 L4.7934938,7.41046034 C4.79349373,8.02106268 5.28833671,8.51613193 5.89893899,8.516411 L9.21578003,8.516411 C9.82638238,8.51641106 10.3214516,8.02156808 10.3217307,7.4109658 L10.3217307,5.93703888 C10.3215663,5.64415832 10.2058642,5.36316761 9.99975145,5.1550893 L9.99975145,5.1550893 Z M19.2138166,5.1550893 C19.0066884,4.94884989 18.7266868,4.83245493 18.4343943,4.83108822 L15.115026,4.83108822 C14.5044237,4.83136729 14.0095807,5.32643653 14.0095808,5.93703888 L14.0095808,7.41046034 C14.0095808,8.02126002 14.5047318,8.516411 15.1155314,8.516411 L18.4343943,8.516411 C19.0449967,8.51641106 19.5400659,8.02156808 19.540345,7.4109658 L19.540345,5.93703888 C19.5389718,5.6435088 19.4215971,5.36242733 19.2138166,5.1550893 L19.2138166,5.1550893 Z"/>
  </defs>
  <use fill="#222" fill-rule="evenodd" xlink:href="#premises-datacenter-a"/>
</svg>
