<svg xmlns="http://www.w3.org/2000/svg" xmlns:xlink="http://www.w3.org/1999/xlink" width="24" height="24" viewBox="0 0 24 24">
  <defs>
    <path id="present-a" d="M3.67324704,22.5481222 L3.67324704,13.1654801 L10.9590384,13.1654801 L10.9590384,23.365588 L4.66921471,23.365588 C4.17633093,23.365588 3.67324704,23.041006 3.67324704,22.5481222 Z M21.0243591,7.84685247 C21.3474839,7.84685247 21.5598648,8.1353698 21.5598648,8.45849465 L21.5598648,10.9648069 C21.5598648,11.2879317 21.3471197,11.599035 21.0243591,11.599035 L12.7076283,11.599035 L12.7076283,7.84685247 L10.9590384,7.84685247 L10.9590384,11.599035 L2.70532966,11.599035 C2.3825691,11.599035 2.1068019,11.2879317 2.1068019,10.9651712 L2.1068019,8.45849465 C2.1068019,8.1353698 2.3825691,7.84685247 2.70642253,7.84685247 L9.08148995,7.84685247 C7.08700457,7.84685247 5.46482313,6.24397837 5.46482313,4.24876442 C5.46482313,2.25355046 7.0964761,0.642297706 9.09059719,0.642297706 C10.1488604,0.643003318 11.1538652,1.10657525 11.8413477,1.91111827 C12.5381513,1.11076356 13.5465856,0.650235502 14.6077627,0.647762049 C16.6018838,0.647762049 18.2448297,2.25427904 18.2448297,4.24840013 C18.247643,5.20312341 17.8698255,6.11959698 17.1950048,6.79496464 C16.5201841,7.47033231 15.6040169,7.84889228 14.6492917,7.84685247 L21.0243591,7.84685247 Z M19.9307618,13.1654801 C19.9431477,13.1654801 19.9934196,13.1367013 19.9934196,13.1494514 L19.9934196,22.5481222 C19.9934196,23.041006 19.5537221,23.365588 19.0608383,23.365588 L12.7076283,23.365588 L12.7076283,13.1654801 L19.9307618,13.1654801 Z M10.9590384,6.28040733 L10.9590384,4.26661461 C10.9590384,3.1912318 10.1204438,2.31475111 9.04506099,2.31475111 C7.96967819,2.31475111 7.11068339,3.222925 7.11068339,4.2983078 C7.11068339,5.3736906 8.00610715,6.28040733 9.08148995,6.28040733 L10.9590384,6.28040733 Z M12.7076283,4.26661461 L12.7076283,6.28040733 L14.6485631,6.28040733 C15.7239459,6.28040733 16.5967837,5.3736906 16.5967837,4.2983078 C16.5967837,3.222925 15.7286817,2.33332987 14.6532989,2.33332987 C14.1384761,2.33022669 13.6436631,2.53251738 13.2784612,2.8953944 C12.9132594,3.25827142 12.7078129,3.75178251 12.7076283,4.26661461 Z"/>
  </defs>
  <use fill="#222" fill-rule="evenodd" xlink:href="#present-a"/>
</svg>
