<svg xmlns="http://www.w3.org/2000/svg" xmlns:xlink="http://www.w3.org/1999/xlink" width="24" height="24" viewBox="0 0 24 24">
  <defs>
    <path id="press-buttons-a" d="M20.0331048,14.7819048 L20.0331048,14.7277333 L20.0238476,12.2841905 C20.0239908,11.7768448 19.8089211,11.2932494 19.4320762,10.9535619 C19.0240762,10.5819048 18.4552762,10.3984762 17.8717333,10.4502476 C17.6955973,10.4659099 17.5218682,10.5019213 17.354019,10.5575619 C17.2465868,10.3178715 17.0906175,10.1030634 16.8959619,9.92670476 C16.4667048,9.53550476 15.8673905,9.34384762 15.2523048,9.39733333 C15.0114416,9.41908058 14.7752086,9.47686752 14.5515048,9.5687619 C14.4449322,9.37154652 14.3058355,9.19373453 14.1400762,9.04281905 C13.691619,8.63379048 13.0645333,8.43253333 12.4206476,8.48979048 C12.2234643,8.5073195 12.0290036,8.54782255 11.841219,8.61047619 C11.841219,8.32864762 11.8381333,8.05059048 11.8347048,7.77013333 C11.8331048,7.6423619 11.831619,7.51459048 11.8302476,7.38681905 C11.8302476,7.29973333 11.8278476,7.21264762 11.826819,7.1255619 C11.9337784,7.0412341 12.0357769,6.95079773 12.1323048,6.85470476 C13.5300212,5.45698362 13.5300187,3.19083406 12.1322991,1.79311602 C10.7345795,0.39539798 8.46842998,0.39539798 7.07071039,1.79311602 C5.6729908,3.19083406 5.67298828,5.45698362 7.07070476,6.85470476 C7.1569307,6.94072354 7.24756713,7.02220477 7.34224762,7.09881905 L7.35459048,10.4183619 C6.75904762,9.94761905 5.89024762,9.81047619 5.08761905,10.1355048 C4.55731812,10.3444712 4.12058473,10.7383351 3.85813333,11.2443048 C3.59047011,11.758108 3.55809088,12.362562 3.76933333,12.902019 L4.23150476,14.049219 L6.50773333,19.7063619 C6.5175619,19.7310476 6.52899048,19.7552762 6.54201905,19.7790476 C7.18384762,21.0133333 8.19321905,21.8831619 9.62773333,22.4382476 C10.458819,22.7601905 11.368419,22.9213333 12.3441905,22.9213333 C12.8430006,22.920337 13.3410111,22.8813673 13.8339048,22.8047619 C16.7807619,22.3521905 19.0285333,20.5168762 19.6998476,18.0147048 C20.0190476,16.8253333 20.0478476,15.6695619 20.0331048,14.7819048 Z M18.1096762,17.5871619 C17.8648762,18.4995048 17.3211048,19.3120762 16.5383619,19.9377905 C15.7419048,20.5737905 14.721219,21.0023619 13.5839619,21.1768762 C12.3215619,21.3705905 11.1897905,21.2797333 10.2205333,20.9025905 C9.17550476,20.498019 8.47504762,19.9083048 8.01939048,19.0511619 L5.82819048,13.6069333 L5.29607619,12.2865905 C5.25184762,12.1765333 5.28750476,12.0651048 5.32521905,11.9907048 C5.40800574,11.8399599 5.54167528,11.7235458 5.7023619,11.6622476 C6.0359619,11.5278476 6.35379048,11.6427048 6.42819048,11.8299048 L6.42819048,11.8336762 L6.88761905,12.9575619 L6.88967619,12.9630476 C6.98681905,13.1959619 7.08327619,13.4291048 7.17904762,13.6624762 L7.32167619,14.0087619 C7.42796612,14.2661423 7.65721687,14.4523038 7.93093333,14.5035048 C8.01491947,14.5305099 8.10259802,14.5442748 8.19081905,14.5443048 C8.40941138,14.5442146 8.61898466,14.4571514 8.77329528,14.3023262 C8.92760591,14.147501 9.01397091,13.937639 9.01333333,13.7190476 L8.98933333,7.20133333 L8.98933333,5.64201905 C8.98933333,5.39893333 9.26807619,5.10167619 9.64384762,5.06841905 C9.81527619,5.05333333 9.96853333,5.09584762 10.0669333,5.18533333 C10.1285264,5.23835338 10.1634357,5.31595765 10.1622476,5.39721905 L10.1622476,5.40133333 L10.1728762,6.63561905 L10.1728762,6.64144762 C10.1767619,6.89630476 10.1799619,7.1511619 10.1824762,7.40601905 C10.1838476,7.53447619 10.1853333,7.66281905 10.1869333,7.79104762 C10.1934476,8.3207619 10.1944762,8.84807619 10.1955048,9.40659048 C10.1955048,9.65824762 10.1955048,9.91401905 10.1975619,10.1759619 C10.1975619,10.1949333 10.1982476,10.2137905 10.199619,10.2325333 L10.2081905,12.4953905 C10.2090182,12.7250289 10.3057689,12.9438742 10.4750597,13.0990358 C10.6443505,13.2541973 10.870778,13.3315572 11.099619,13.312419 L11.1071619,13.312419 C11.5346387,13.2766743 11.8629395,12.918528 11.8614476,12.4895619 L11.8549333,10.761219 C11.8549333,10.4937905 12.1453333,10.1701333 12.5646476,10.132419 C12.7511619,10.1159619 12.9201905,10.1632762 13.0288762,10.2623619 C13.0991096,10.3238024 13.1390494,10.4128219 13.1382476,10.5061333 L13.1423619,11.5689905 C13.1433597,11.786195 13.2306255,11.9941016 13.3849516,12.1469487 C13.5392777,12.2997959 13.748015,12.3850557 13.965219,12.3839619 L13.9683048,12.3839619 C14.1854561,12.3859237 14.3942205,12.3002203 14.5473559,12.146246 C14.7004913,11.9922716 14.7850528,11.7830421 14.7819048,11.5659048 L14.7819048,11.5659048 C14.7819048,11.3423619 15.0459048,11.0691048 15.3952762,11.0379048 C15.5526476,11.0238476 15.6966476,11.0625905 15.7861333,11.1441905 C15.8403086,11.1903462 15.8712043,11.258166 15.8704762,11.3293333 L15.875619,12.5190476 C15.8778698,12.9725635 16.2449603,13.339654 16.6984762,13.3419048 L16.7019048,13.3419048 C17.1587312,13.3370105 17.5261063,12.9645841 17.5247619,12.5077333 L17.5247619,12.5077333 C17.5247619,12.3363048 17.7400762,12.1158476 18.0205333,12.090819 C18.1443048,12.0798476 18.2577905,12.1096762 18.3249905,12.1710476 C18.3604294,12.2006732 18.3803824,12.2448729 18.3791619,12.2910476 L18.3880762,14.6687619 C18.386019,14.694819 18.3853333,14.7208762 18.3856762,14.747619 C18.4011048,15.5344762 18.3819048,16.5681905 18.1096762,17.5878476 L18.1096762,17.5871619 Z"/>
  </defs>
  <use fill="#222" fill-rule="evenodd" xlink:href="#press-buttons-a"/>
</svg>
