<svg xmlns="http://www.w3.org/2000/svg" xmlns:xlink="http://www.w3.org/1999/xlink" width="24" height="24" viewBox="0 0 24 24">
  <defs>
    <path id="print-a" d="M15.9866667,5.29988571 C15.7053374,5.01866414 15.5472315,4.63721209 15.5471238,4.23942857 L15.5471238,1.09714286 L20.1654095,5.74011429 L17.0454095,5.74011429 C16.6479405,5.74027748 16.2668408,5.58181505 15.9866667,5.29988571 Z M23.166781,11.748 L23.166781,18.9137143 C23.1645206,19.7412033 22.49427,20.4114539 21.666781,20.4137143 L20.166781,20.4137143 L20.166781,21.4028571 C20.1645206,22.2303462 19.49427,22.9005967 18.666781,22.9028571 L4.66689524,22.9028571 C3.83940621,22.9005967 3.16915564,22.2303462 3.16689524,21.4028571 L3.16689524,20.4150857 L1.66689524,20.4150857 C0.839406209,20.4128253 0.169155635,19.7425747 0.166895238,18.9150857 L0.166895238,11.7493714 C0.169154737,10.9218264 0.839350752,10.2514772 1.66689524,10.2490286 L3.16689524,10.2490286 L3.16689524,2.59577143 C3.16990819,1.76881802 3.83993942,1.09939939 4.66689524,1.09714286 L14.0484952,1.09714286 L14.0484952,4.2408 C14.0486844,5.89711876 15.391148,7.23988927 17.0474667,7.24045714 L20.1674667,7.24045714 L20.1674667,10.2493714 L21.6674667,10.2493714 C22.494077,10.252191 23.1635833,10.921391 23.166781,11.748 Z M18.666781,20.4044571 C18.6665918,19.9904166 18.3309929,19.6548178 17.9169524,19.6546286 L5.41706667,19.6546286 C5.14529484,19.6488175 4.89164315,19.7904822 4.754052,20.0249227 C4.61646086,20.2593633 4.61646086,20.5498939 4.754052,20.7843344 C4.89164315,21.018775 5.14529484,21.1604396 5.41706667,21.1546286 L17.9166095,21.1546286 C18.3309178,21.1546286 18.666781,20.8187654 18.666781,20.4044571 L18.666781,20.4044571 Z M18.666781,16.4561143 C18.6665918,16.0420738 18.3309929,15.7064749 17.9169524,15.7062857 L5.41706667,15.7062857 C5.00910106,15.7150089 4.68293183,16.0482269 4.68293183,16.4562857 C4.68293183,16.8643446 5.00910106,17.1975625 5.41706667,17.2062857 L17.9166095,17.2062857 C18.3305164,17.2062861 18.6662134,16.8710494 18.666781,16.4571429 L18.666781,16.4561143 Z M21.666781,11.7476571 L1.66689524,11.7476571 L1.66689524,18.9150857 L3.16689524,18.9150857 L3.16689524,13.1962286 L20.166781,13.1962286 L20.166781,18.9150857 L21.666781,18.9150857 L21.666781,11.7493714 L21.666781,11.7493714 L21.666781,11.7476571 Z"/>
  </defs>
  <use fill="#222" fill-rule="evenodd" xlink:href="#print-a"/>
</svg>
