<svg xmlns="http://www.w3.org/2000/svg" xmlns:xlink="http://www.w3.org/1999/xlink" width="24" height="24" viewBox="0 0 24 24">
  <defs>
    <path id="rack-a" d="M19.5488538,3.60129196 L19.5488538,20.398708 C19.5442855,21.9429713 18.2935477,23.193709 16.7492845,23.1982774 L6.95079174,23.1982774 C5.40652851,23.193709 4.15579073,21.9429713 4.15122239,20.398708 L4.15122239,3.60129196 C4.15579073,2.05702873 5.40652851,0.806290952 6.95079174,0.801722616 L16.7492845,0.801722616 C18.2935477,0.806290952 19.5442855,2.05702873 19.5488538,3.60129196 L19.5488538,3.60129196 Z M16.7492845,2.20150729 L6.95079174,2.20150729 C6.17807747,2.20238888 5.55188866,2.8285777 5.55100707,3.60129196 L5.55100707,5.00107663 C5.55188866,5.7737909 6.17807747,6.39997972 6.95079174,6.40086131 L16.7492845,6.40086131 C17.5219987,6.39997972 18.1481875,5.7737909 18.1490691,5.00107663 L18.1490691,3.60129196 C18.1481875,2.8285777 17.5219987,2.20238888 16.7492845,2.20150729 L16.7492845,2.20150729 Z M16.7492845,7.80064598 L6.95079174,7.80064598 C6.17807747,7.80152757 5.55188866,8.42771639 5.55100707,9.20043065 L5.55100707,10.6002153 C5.55188866,11.3729296 6.17807747,11.9991184 6.95079174,12 L16.7492845,12 C17.5219987,11.9991184 18.1481875,11.3729296 18.1490691,10.6002153 L18.1490691,9.20043065 C18.1481875,8.42771639 17.5219987,7.80152757 16.7492845,7.80064598 L16.7492845,7.80064598 Z M16.0489122,9.20043065 C16.332086,9.20030123 16.5874487,9.37078142 16.6959043,9.63236277 C16.8043599,9.89394412 16.7445454,10.1951016 16.544357,10.3953815 C16.3441686,10.5956614 16.0430386,10.6556135 15.7814077,10.5472775 C15.5197768,10.4389415 15.3491799,10.1836568 15.3491798,9.90048297 C15.3490949,9.71484698 15.4227791,9.5367851 15.5540135,9.40549062 C15.685248,9.27419614 15.8632762,9.20043063 16.0489122,9.20043065 L16.0489122,9.20043065 Z M16.7486445,13.3997847 L16.7492845,13.3997847 C17.5219987,13.4006663 18.1481875,14.0268551 18.1490691,14.7995693 L18.1490691,16.199354 C18.1481875,16.9720683 17.5219987,17.5982571 16.7492845,17.5991387 L6.95079174,17.5991387 C6.17807747,17.5982571 5.55188866,16.9720683 5.55100707,16.199354 L5.55100707,14.7995693 C5.55188866,14.0268551 6.17807747,13.4006663 6.95079174,13.3997847 L16.7486445,13.3997847 Z M6.95079174,5.00107663 C6.5700824,4.99293626 6.26570461,4.68198066 6.26570461,4.3011843 C6.26570461,3.92038794 6.5700824,3.60943233 6.95079174,3.60129196 L10.4497735,3.60129196 C10.7033882,3.59586914 10.9400934,3.72806914 11.068492,3.94684666 C11.1968907,4.16562419 11.1968907,4.43674441 11.068492,4.65552194 C10.9400934,4.87429946 10.7033882,5.00649945 10.4497735,5.00107663 L6.95079174,5.00107663 Z M6.95079174,10.6002153 C6.5700824,10.592075 6.26570461,10.2811193 6.26570461,9.90032299 C6.26570461,9.51952663 6.5700824,9.20857103 6.95079174,9.20043065 L10.4497735,9.20043065 C10.7033882,9.19500783 10.9400934,9.32720783 11.068492,9.54598535 C11.1968907,9.76476288 11.1968907,10.0358831 11.068492,10.2546606 C10.9400934,10.4734382 10.7033882,10.6056381 10.4497735,10.6002153 L6.95079174,10.6002153 Z M6.95079174,16.199354 L10.4497735,16.199354 C10.7033882,16.2047768 10.9400934,16.0725768 11.068492,15.8537993 C11.1968907,15.6350218 11.1968907,15.3639016 11.068492,15.145124 C10.9400934,14.9263465 10.7033882,14.7941465 10.4497735,14.7995693 L6.95079174,14.7995693 C6.5700824,14.8077097 6.26570461,15.1186653 6.26570461,15.4994617 C6.26570461,15.880258 6.5700824,16.1912136 6.95079174,16.199354 Z M15.3494998,4.30134427 C15.3494996,3.91496582 15.6625339,3.60164514 16.0489122,3.60129196 C16.4353636,3.6011153 16.7487877,3.91425287 16.7489644,4.30070432 C16.749141,4.68715578 16.4360035,5.00057982 16.049552,5.00075654 C15.6631006,5.00093326 15.3496765,4.68779573 15.3494998,4.30134427 Z M15.3494998,15.4996217 C15.3496765,15.8860731 15.6631006,16.1992106 16.049552,16.1990339 C16.4360035,16.1988572 16.749141,15.8854332 16.7489644,15.4989817 C16.7487877,15.1125303 16.4353636,14.7993927 16.0489122,14.7995693 C15.6625339,14.7999225 15.3494996,15.1132432 15.3494998,15.4996217 Z M12.5499304,4.30134427 C12.5499304,3.91484097 12.8631595,3.60146861 13.2496628,3.60129196 C13.5328366,3.60116254 13.7881993,3.77164273 13.8966549,4.03322408 C14.0051105,4.29480543 13.945296,4.59596287 13.7451076,4.79624278 C13.5449192,4.99652268 13.2437892,5.05647485 12.9821583,4.94813883 C12.7205274,4.83980281 12.5499305,4.58451811 12.5499304,4.30134427 Z M12.5499304,9.90048297 C12.5501071,9.5139797 12.8634794,9.20075056 13.2499827,9.2007506 C13.5331566,9.20075063 13.7884413,9.37134754 13.8967773,9.63297845 C14.0051133,9.89460935 13.9451612,10.1957394 13.7448812,10.3959278 C13.5446013,10.5961162 13.2434439,10.6559307 12.9818626,10.547475 C12.7202812,10.4390194 12.549801,10.1836568 12.5499304,9.90048297 Z M13.2496628,15.4996217 C13.2496628,15.8860315 13.5628787,16.1992951 13.9492886,16.1993539 C14.3356984,16.1994128 14.6490097,15.8862447 14.6491275,15.4998349 C14.6492453,15.113425 14.3361249,14.800066 13.9497151,14.7998893 C13.5632118,14.7998893 13.2498394,15.1131184 13.2496628,15.4996217 Z"/>
  </defs>
  <use fill="#222" fill-rule="evenodd" xlink:href="#rack-a"/>
</svg>
