<svg xmlns="http://www.w3.org/2000/svg" xmlns:xlink="http://www.w3.org/1999/xlink" width="24" height="24" viewBox="0 0 24 24">
  <defs>
    <path id="register-a" d="M17.8776,19.2228952 L17.5690286,19.5314667 C17.2779548,19.8222506 16.903852,20.0155909 16.4982857,20.0848381 L14.3382857,20.6255238 C14.2916409,20.6337204 14.2443874,20.6379641 14.1970286,20.6382095 C13.8161143,20.6382095 13.5750857,20.3460952 13.6457143,19.9336381 L14.1870857,17.7736381 C14.2558456,17.3692961 14.448771,16.9963869 14.7390857,16.7066667 L14.7390857,16.7046095 L18.0500571,13.3936381 L20.8786286,16.2222095 L17.8776,19.2228952 Z M22.2514286,14.8500952 L21.9428571,15.1586667 L19.1142857,12.3300952 L19.4228571,12.0215238 C20.2064566,11.255357 21.4606771,11.2624109 22.2356093,12.0373431 C23.0105415,12.8122752 23.0175954,14.0664957 22.2514286,14.8500952 Z M16.8157714,21.5522667 C17.3004459,21.4581523 17.7596047,21.2621713 18.1628571,20.9772952 L18.1628571,21.666781 C18.1605967,22.49427 17.4903462,23.1645206 16.6628571,23.166781 L2.664,23.166781 C1.83718052,23.16358 1.16796975,22.4936036 1.16571429,21.666781 L1.16571429,1.66655238 C1.16815669,0.839807461 1.83725841,0.169940176 2.664,0.166552381 L12.0452571,0.166552381 L12.0452571,3.31020952 C12.0454463,4.96652829 13.3879099,6.3092988 15.0442286,6.30986667 L18.1642286,6.30986667 L18.1642286,11.1582095 L14.6146286,14.7078095 L3.4152,14.7078095 C3.00723439,14.7165327 2.68106516,15.0497507 2.68106516,15.4578095 C2.68106516,15.8658684 3.00723439,16.1990864 3.4152,16.2078095 L13.2209143,16.2078095 C12.973957,16.5875594 12.8037814,17.0120085 12.72,17.457181 L12.4062857,18.7065524 L3.41417143,18.7065524 C3.1423996,18.7007413 2.88874791,18.842406 2.75115677,19.0768465 C2.61356562,19.3112871 2.61356562,19.6018177 2.75115677,19.8362582 C2.88874791,20.0706988 3.1423996,20.2123634 3.41417143,20.2065524 L12.1426286,20.2065524 C12.1897078,21.3010908 13.1013246,22.1582327 14.1966857,22.1378667 C14.3301067,22.1378188 14.4632787,22.1263484 14.5947429,22.103581 L14.6489143,22.093981 L14.7020571,22.0809524 L16.8157714,21.5522667 Z M5.26422857,5.32140952 C2.97428571,5.82129524 2.83988571,7.0888381 2.80765714,7.84346667 C2.80148571,8.00460952 2.91942857,8.19695238 3.07577143,8.23809524 C3.47074286,8.34095238 4.26582857,8.48598095 6.40662857,8.48598095 C8.54742857,8.48598095 9.34285714,8.34095238 9.73782857,8.23809524 C9.89417143,8.19695238 10.0121143,8.00460952 10.0059429,7.84346667 C9.97337143,7.0888381 9.83897143,5.82129524 7.54902857,5.32140952 C8.27090022,4.82168667 8.58419573,3.91077868 8.32242871,3.07274549 C8.06066168,2.23471229 7.28459304,1.66407677 6.40662857,1.66407677 C5.5286641,1.66407677 4.75259546,2.23471229 4.49082843,3.07274549 C4.22906141,3.91077868 4.54235693,4.82168667 5.26422857,5.32140952 Z M3.41417143,10.7066667 C3.00620582,10.7153898 2.68003659,11.0486078 2.68003659,11.4566667 C2.68003659,11.8647255 3.00620582,12.1979435 3.41417143,12.2066667 L9.39942857,12.2066667 C9.81364213,12.2066667 10.1494286,11.8708802 10.1494286,11.4566667 C10.1494286,11.0424531 9.81364213,10.7066667 9.39942857,10.7066667 L3.41417143,10.7066667 Z M13.9854857,4.37066667 C13.7040926,4.08948779 13.5459752,3.70800805 13.5459429,3.31020952 L13.5459429,0.166552381 L18.1649143,4.80952381 L15.0449143,4.80952381 C14.6473828,4.81034702 14.2659884,4.6523584 13.9854857,4.37066667 Z"/>
  </defs>
  <use fill="#222" fill-rule="evenodd" xlink:href="#register-a"/>
</svg>
