<svg xmlns="http://www.w3.org/2000/svg" xmlns:xlink="http://www.w3.org/1999/xlink" width="24" height="24" viewBox="0 0 24 24">
  <defs>
    <path id="repair-a" d="M3.212709,7.27856731 L0.996858004,3.85491493 C0.746364285,3.54295913 0.704198438,3.09378565 0.977919107,2.80184076 L1.68294636,2.10896299 C1.95416567,1.81809011 2.34116238,1.83023959 2.66884104,2.05750636 L5.98529212,4.30873379 C6.0965892,4.3859739 6.18656448,4.49008465 6.24686331,4.61139881 L6.83325445,6.2383573 C6.88125097,6.33392453 6.94782268,6.41896139 7.0290755,6.48849368 L10.0482216,9.27572764 L8.04427187,11.2836081 L5.39997299,8.26410465 C5.32277961,8.18021356 5.2286212,8.11370581 5.12375096,8.06899827 L3.52359279,7.51476752 C3.40213916,7.4627608 3.29536597,7.38163772 3.212709,7.27856731 Z M20.2055454,18.6554846 C20.7522684,19.1942925 20.9700108,19.9838447 20.776751,20.7267247 C20.5834913,21.4696047 20.0085901,22.0529512 19.2686073,22.2570233 C18.5286245,22.4610955 17.735981,22.2548897 17.189258,21.7160819 C17.1738924,21.7010737 17.1595989,21.6853509 17.1456628,21.6692707 L13.2353165,17.2061229 L15.8256574,14.610422 L20.2055454,18.6554846 Z M21.1053217,6.80580955 L22.963835,4.94729624 C23.5365716,6.66070566 23.09149,8.55065367 21.8143345,9.8284146 C20.5371791,11.1061755 18.6474422,11.5521529 16.9337615,10.9802284 L6.24043123,21.6932123 C5.39630809,22.4993459 4.06296622,22.4840009 3.23761924,21.6586539 C2.41227226,20.8333069 2.39692728,19.4999651 3.20306089,18.6558419 L13.9017512,7.93571132 C13.3406981,6.22707495 13.7886172,4.34811651 15.0601601,3.07634707 C16.331703,1.80457762 18.2105816,1.35632383 19.9193179,1.91707265 L18.0679513,3.76843921 C17.5043613,4.30666503 17.2764403,5.10789413 17.4723589,5.86217302 C17.6682775,6.61645192 18.257309,7.20548336 19.0115879,7.40140199 C19.7658668,7.59732063 20.5670959,7.36939959 21.1053217,6.80580955 Z"/>
  </defs>
  <use fill="#222" fill-rule="evenodd" xlink:href="#repair-a"/>
</svg>
