<svg xmlns="http://www.w3.org/2000/svg" xmlns:xlink="http://www.w3.org/1999/xlink" width="24" height="24" viewBox="0 0 24 24">
  <defs>
    <path id="reports-a" d="M16.4767958,5.0303004 C16.7519155,5.30542012 17.1187418,5.44297999 17.4855681,5.44297999 L20.4660318,5.44297999 L16.0641162,0.995211164 L16.0641162,4.02152809 C16.0641162,4.38835439 16.2016761,4.75518068 16.4767958,5.0303004 L16.4767958,5.0303004 Z M17.1645951,9.93660209 C17.1645951,9.5697758 16.8436221,9.24880279 16.4767958,9.24880279 L15.1470505,9.24880279 C14.7802242,9.24880279 14.4592512,9.5697758 14.4592512,9.93660209 L14.4592512,20.0243252 L17.1645951,20.0243252 L17.1645951,9.93660209 Z M13.6797453,13.9716913 C13.6797453,13.604865 13.3587723,13.283892 12.991946,13.283892 L11.6622007,13.283892 C11.2953744,13.283892 10.9744014,13.604865 10.9744014,13.9716913 L10.9744014,20.0243252 L13.6797453,20.0243252 L13.6797453,13.9716913 Z M10.1948955,18.0067806 C10.1948955,17.6399543 9.87392251,17.3189813 9.50709622,17.3189813 L8.1773509,17.3189813 C7.81052461,17.3189813 7.4895516,17.6399543 7.4895516,18.0067806 L7.4895516,20.0243252 L10.1948955,20.0243252 L10.1948955,18.0067806 Z M18.0816609,20.8038311 L6.57248586,20.8038311 C6.34321943,20.8038311 6.15980628,20.9872442 6.15980628,21.2165106 C6.15980628,21.4457771 6.34321943,21.6291902 6.57248586,21.6291902 L18.1275141,21.6291902 C18.3567806,21.6291902 18.5401937,21.4457771 18.5401937,21.2165106 C18.4943404,20.9872442 18.3109273,20.8038311 18.0816609,20.8038311 L18.0816609,20.8038311 Z M20.4660318,21.5833369 C20.4660318,22.3628428 19.8240858,23.0047888 19.0445799,23.0047888 L5.65542012,23.0047888 C4.87591425,23.0047888 4.23396823,22.3628428 4.23396823,21.5833369 L4.23396823,14.4302242 L4.23396823,2.41666306 C4.23396823,1.63715718 4.87591425,0.995211164 5.65542012,0.995211164 L14.6426643,0.995211164 L14.6426643,4.02152809 C14.6426643,4.80103397 14.9636373,5.53468656 15.4680235,6.03907271 C15.9724097,6.54345887 16.7060622,6.86443188 17.4855681,6.86443188 L20.4660318,6.86443188 L20.4660318,14.3843709 L20.4660318,21.5833369 Z"/>
  </defs>
  <use fill="#222" fill-rule="evenodd" xlink:href="#reports-a"/>
</svg>
