<svg xmlns="http://www.w3.org/2000/svg" xmlns:xlink="http://www.w3.org/1999/xlink" width="24" height="24" viewBox="0 0 24 24">
  <defs>
    <path id="reservation-a" d="M2.53714286,13.3333714 C1.80074215,13.3333714 1.20377143,12.7364007 1.20377143,12 C1.20377143,11.2635993 1.80074215,10.6666286 2.53714286,10.6666286 C3.27354356,10.6666286 3.87051429,11.2635993 3.87051429,12 C3.87051429,12.7364007 3.27354356,13.3333714 2.53714286,13.3333714 Z M16.7314286,13.2524571 L11.52,13.2524571 C11.0939518,13.2524571 10.7485714,12.9070768 10.7485714,12.4810286 L10.7485714,8.36948571 C10.7485714,7.94343748 11.0939518,7.59805714 11.52,7.59805714 C11.9460482,7.59805714 12.2914286,7.94343748 12.2914286,8.36948571 L12.2914286,11.7096 L16.7314286,11.7096 C17.1574768,11.7096 17.5028571,12.0549803 17.5028571,12.4810286 C17.5028571,12.9070768 17.1574768,13.2524571 16.7314286,13.2524571 Z M21.4937143,13.2709714 C20.7741662,13.2709714 20.1908571,12.6876624 20.1908571,11.9681143 C20.1908572,9.81407627 19.335075,7.74828208 17.8118116,6.2252758 C16.2885481,4.70226951 14.2226094,3.84683623 12.0685714,3.8472 C11.3490233,3.8472 10.7657143,3.26389099 10.7657143,2.54434286 C10.7657143,1.82479473 11.3490233,1.24148571 12.0685714,1.24148571 C14.9137157,1.241031 17.6424808,2.37096489 19.6544302,4.38265711 C21.6663797,6.39434934 22.7966624,9.12296999 22.7965714,11.9681143 C22.7965714,12.6876624 22.2132624,13.2709714 21.4937143,13.2709714 Z M12,22.7962286 C11.2635993,22.7962286 10.6666286,22.1992578 10.6666286,21.4628571 C10.6666286,20.7264564 11.2635993,20.1294857 12,20.1294857 C12.7364007,20.1294857 13.3333714,20.7264564 13.3333714,21.4628571 C13.3333714,22.1992578 12.7364007,22.7962286 12,22.7962286 Z M18.6857143,20.0533714 C17.9493136,20.0533714 17.3523429,19.4564007 17.3523429,18.72 C17.3523429,17.9835993 17.9493136,17.3866286 18.6857143,17.3866286 C19.422115,17.3866286 20.0190857,17.9835993 20.0190857,18.72 C20.0190857,19.4564007 19.422115,20.0533714 18.6857143,20.0533714 Z M5.31428571,6.61337143 C4.57788501,6.61337143 3.98091429,6.01640071 3.98091429,5.28 C3.98091429,4.54359929 4.57788501,3.94662857 5.31428571,3.94662857 C6.05068642,3.94662857 6.64765714,4.54359929 6.64765714,5.28 C6.64765714,6.01640071 6.05068642,6.61337143 5.31428571,6.61337143 Z M5.31428571,20.0533714 C4.57788501,20.0533714 3.98091429,19.4564007 3.98091429,18.72 C3.98091429,17.9835993 4.57788501,17.3866286 5.31428571,17.3866286 C6.05068642,17.3866286 6.64765714,17.9835993 6.64765714,18.72 C6.64765714,19.4564007 6.05068642,20.0533714 5.31428571,20.0533714 Z"/>
  </defs>
  <use fill="#222" fill-rule="evenodd" xlink:href="#reservation-a"/>
</svg>
