<svg xmlns="http://www.w3.org/2000/svg" xmlns:xlink="http://www.w3.org/1999/xlink" width="24" height="24" viewBox="0 0 24 24">
  <defs>
    <path id="router-a" d="M11.4994286,9.12514286 C11.2931961,9.12477945 11.0955548,9.04250525 10.9499837,8.8964197 C10.8044125,8.75033415 10.722836,8.55240387 10.7232,8.34617143 L10.7232,8.34445714 C10.7245253,4.34068435 13.9711986,1.09600655 17.9749714,1.09714286 C18.4044281,1.09714286 18.7525714,1.44528624 18.7525714,1.87474286 C18.7525714,2.30419948 18.4044281,2.65234286 17.9749714,2.65234286 C14.830324,2.6515852 12.2802573,5.19981 12.2787429,8.34445714 L12.2787429,8.34925714 C12.2782887,8.55548964 12.1959273,8.75309492 12.0497775,8.89860183 C11.9036276,9.04410873 11.7056611,9.12559802 11.4994286,9.12514286 Z M14.6098286,9.1248 C14.1805057,9.12385419 13.8331846,8.77515185 13.8339429,8.34582857 C13.8347,6.05947112 15.688271,4.2063606 17.9746286,4.20617143 C18.4040852,4.20617144 18.7522285,4.55431482 18.7522285,4.98377143 C18.7522285,5.41322804 18.4040852,5.76137142 17.9746286,5.76137143 C16.5470502,5.76118183 15.3894035,6.91790766 15.3884571,8.34548571 L15.3884571,8.34891429 C15.3875113,8.7781031 15.0390181,9.12536875 14.6098286,9.1248 Z M19.0368,12.96 C21.2386286,12.96 22.9371429,14.7192 22.9371429,16.9210286 L22.9371429,18.8684571 C22.9371429,21.0702857 21.2386286,22.9028571 19.0368,22.9028571 L4.9632,22.9028571 C2.76137143,22.9028571 1.06285714,21.0702857 1.06285714,18.8684571 L1.06285714,16.9210286 C1.06285714,14.7192 2.76137143,12.96 4.9632,12.96 L16.9714286,12.96 L16.9714286,8.35714286 C16.9714286,7.80801402 17.4165854,7.36285714 17.9657143,7.36285714 C18.5148431,7.36285714 18.96,7.80801402 18.96,8.35714286 L18.96,12.96 L19.0368,12.96 Z M10.0155429,18.9257143 C10.5646717,18.9257143 11.0098286,18.4805574 11.0098286,17.9314286 C11.0098286,17.3822997 10.5646717,16.9371429 10.0155429,16.9371429 L5.03177143,16.9371429 C4.48264259,16.9371429 4.03748571,17.3822997 4.03748571,17.9314286 C4.03748571,18.4805574 4.48264259,18.9257143 5.03177143,18.9257143 L10.0155429,18.9257143 Z M14.0026286,19.0460571 L14.0022857,19.0460571 C14.2666826,19.0461481 14.5202816,18.9411806 14.7072706,18.7542559 C14.8942596,18.5673312 14.9993143,18.3137683 14.9993143,18.0493714 C14.9993143,17.4989171 14.5530829,17.0526857 14.0026286,17.0526857 C13.4521743,17.0526857 13.0059429,17.4989171 13.0059429,18.0493714 C13.0059429,18.5998257 13.4521743,19.0460571 14.0026286,19.0460571 Z M17.9897143,19.0460571 L17.9893714,19.0460571 C18.2537683,19.0461481 18.5073673,18.9411806 18.6943563,18.7542559 C18.8813453,18.5673312 18.9864,18.3137683 18.9864,18.0493714 C18.9864,17.4989171 18.5401686,17.0526857 17.9897143,17.0526857 C17.43926,17.0526857 16.9930286,17.4989171 16.9930286,18.0493714 C16.9930286,18.5998257 17.43926,19.0460571 17.9897143,19.0460571 Z"/>
  </defs>
  <use fill="#222" fill-rule="evenodd" xlink:href="#router-a"/>
</svg>
