<svg xmlns="http://www.w3.org/2000/svg" xmlns:xlink="http://www.w3.org/1999/xlink" width="24" height="24" viewBox="0 0 24 24">
  <defs>
    <path id="save-a" d="M3.75017143,22.7499429 L2.75005714,22.7499429 C1.92256811,22.7476825 1.25231754,22.0774319 1.25005714,21.2499429 L1.25005714,2.75005714 C1.25231754,1.92256811 1.92256811,1.25231754 2.75005714,1.25005714 L3.75017143,1.25005714 L3.75017143,6.24994286 C3.75318438,7.07689626 4.42321561,7.74631489 5.25017143,7.74857143 L15.8184,7.74857143 C16.645889,7.74631103 17.3161396,7.07606046 17.3184,6.24857143 L17.3184,1.25005714 L18.9678857,1.25005714 L22.7499429,5.03211429 L22.7499429,21.2492571 C22.7476825,22.0767462 22.0774319,22.7469967 21.2499429,22.7492571 L3.75017143,22.7492571 L3.75017143,22.7499429 Z M8.81828571,1.25005714 L8.81828571,5.50148571 C8.82053261,5.91472611 9.15487496,6.24922134 9.56811429,6.25165714 L15.0685714,6.25165714 C15.4816779,6.24922319 15.815966,5.91493508 15.8184,5.50182857 L15.8184,1.2504 L8.81828571,1.2504 L8.81828571,1.25005714 Z M3.75017143,21.2499429 L20.2501714,21.2499429 L20.2501714,14.1257143 C20.247911,13.2982253 19.5776605,12.6279747 18.7501714,12.6257143 L5.25017143,12.6257143 C4.4226824,12.6279747 3.75243183,13.2982253 3.75017143,14.1257143 L3.75017143,21.2499429 L3.75017143,21.2499429 Z"/>
  </defs>
  <use fill="#222" fill-rule="evenodd" xlink:href="#save-a"/>
</svg>
