<svg xmlns="http://www.w3.org/2000/svg" xmlns:xlink="http://www.w3.org/1999/xlink" width="24" height="24" viewBox="0 0 24 24">
  <defs>
    <path id="savings-a" d="M3.6976381,11.6718476 C4.77832381,12.4720762 5.94472381,12.918819 7.24792381,13.0247619 C10.4063238,13.281219 13.365181,11.2398476 14.236381,8.18841905 C14.622781,6.83447619 15.6794667,5.98384762 17.0800381,5.93379048 C17.2490667,5.92761905 17.497981,6.02807619 17.5751238,6.1583619 C17.6622095,6.30544762 17.6436952,6.55710476 17.5881524,6.73813333 C17.473981,7.11321905 17.2542095,7.46087619 17.1719238,7.84007619 C17.049181,8.40441905 17.1263238,8.9063619 17.6406095,9.3359619 C18.5028952,10.0559619 19.1148952,10.9861333 19.5050667,12.0445333 C19.5945524,12.2865905 19.7032381,12.4014476 19.974781,12.3747048 C20.9100952,12.2817905 21.2231238,12.8358476 21.1802667,13.5849905 C21.145981,14.154819 21.1768381,14.7280762 21.1727238,15.2992762 C21.1679238,15.9695619 20.826781,16.3350476 20.1633524,16.3131048 C19.8064381,16.3011048 19.6408381,16.4029333 19.5167238,16.7526476 C19.1142095,17.8875048 18.3959238,18.8187048 17.4972952,19.6062476 C16.7663238,20.2467048 16.381981,21.0253333 16.4248381,22.0041905 C16.429981,22.1207619 16.4286095,22.2376762 16.4248381,22.3542476 C16.4128381,22.7238476 16.2585524,22.895619 15.8920381,22.8990476 C14.9585524,22.9075048 14.0250667,22.9075048 13.091581,22.8990476 C12.7144381,22.8959619 12.5652952,22.7389333 12.5508952,22.3641905 C12.5436952,22.1793905 12.5508952,21.9942476 12.5508952,21.7779048 L10.2204952,21.7779048 C10.2204952,21.9736762 10.2276952,22.1800762 10.2204952,22.3854476 C10.204381,22.7547048 10.0442667,22.9305905 9.6832381,22.934019 C8.74975238,22.9431619 7.81626667,22.9431619 6.88278095,22.934019 C6.52895238,22.9305905 6.34826667,22.7409905 6.3424381,22.3854476 C6.32426667,21.2718476 5.8912381,20.351619 5.16335238,19.5123048 C3.76209524,17.896419 2.95192381,16.0415619 3.11649524,13.8493333 C3.16984689,13.0931313 3.36709276,12.3540702 3.6976381,11.6718476 Z M17.3498667,11.781219 C17.3546667,11.4013333 17.0351238,11.0687619 16.650781,11.0543619 C16.2599238,11.039619 15.9112381,11.3728762 15.9016381,11.7705905 C15.8969509,11.9642541 15.9697655,12.1517765 16.1039176,12.291529 C16.2380697,12.4312816 16.422459,12.5117005 16.6161524,12.5149333 C17.0025524,12.5190476 17.3447238,12.1761905 17.3498667,11.781219 Z M7.77489524,0.724761905 C9.26213255,0.727898252 10.6866361,1.32436462 11.7324003,2.3818436 C12.7781646,3.43932257 13.3587259,4.87038193 13.3452952,6.3575619 C13.3312381,9.43573333 10.8122667,11.925219 7.72655238,11.9080762 C4.61478095,11.8905905 2.1232381,9.37470476 2.14998095,6.27699048 C2.17672381,3.19333333 4.69398095,0.708647619 7.77489524,0.724761905 Z M7.99432381,8.31664762 C8.07474315,8.19534968 8.11712386,8.05280722 8.1160381,7.90727619 C8.11873265,7.85023873 8.09791193,7.79459287 8.0584381,7.75333333 L7.01786667,6.75973333 L7.8064381,6.02979048 C7.88494515,5.95739883 7.9453151,5.8675486 7.98266667,5.76750476 C8.0263724,5.6641491 8.04965786,5.55331032 8.0512381,5.44110476 C8.05100952,5.2959619 7.9720381,5.22339048 7.81432381,5.22339048 C7.72011256,5.22539917 7.6270989,5.24493204 7.5400381,5.28099048 C7.45302345,5.31288893 7.37268984,5.36067057 7.30312381,5.42190476 L6.27695238,6.40213333 L6.27695238,4.1615619 C6.27695238,4.01641905 6.19798095,3.94384762 6.0400381,3.94384762 C5.89062159,3.94391777 5.74462352,3.98856476 5.62072381,4.07207619 C5.4904381,4.1575619 5.42529524,4.2471619 5.42529524,4.34087619 L5.42529524,8.00944762 C5.42529524,8.06499048 5.45958095,8.14830476 5.52815238,8.25939048 C5.64335238,8.42144762 5.75009524,8.50247619 5.84838095,8.50247619 C5.92232567,8.4981485 5.99194956,8.46621206 6.04346667,8.41299048 C6.1167058,8.34307064 6.17360301,8.25784189 6.21009524,8.16339048 C6.25507193,8.05814831 6.27839271,7.94492592 6.27866667,7.83047619 L6.27866667,7.13893333 L7.49512381,8.3615619 C7.53450012,8.40366221 7.57842598,8.44126367 7.62609524,8.47367619 C7.65598261,8.49214285 7.69039188,8.50199103 7.72552381,8.50213333 C7.82358095,8.5023619 7.91318095,8.44053333 7.99432381,8.31664762 Z M10.4666667,5.87139048 C10.5499721,5.74403965 10.5939702,5.5949946 10.593181,5.44281905 C10.5929524,5.27184762 10.4734095,5.1863619 10.2345524,5.1863619 C10.0881933,5.19026059 9.94517045,5.23093899 9.81866667,5.30464762 C9.684474,5.37418217 9.56827526,5.47394877 9.4792381,5.59607619 L9.4792381,5.44247619 C9.4792381,5.29733333 9.40026667,5.2247619 9.24232381,5.2247619 C9.09293986,5.2247099 8.94693883,5.26923842 8.82300952,5.35264762 C8.69272381,5.4383619 8.62758095,5.52807619 8.62758095,5.62179048 L8.62758095,8.00944762 C8.62758095,8.06499048 8.66186667,8.14830476 8.7304381,8.25939048 C8.8456381,8.42144762 8.95226667,8.50247619 9.05032381,8.50247619 C9.12438907,8.49823293 9.19414968,8.46628992 9.24575238,8.41299048 C9.31899151,8.34307064 9.37588872,8.25784189 9.41238095,8.16339048 C9.45735765,8.05814831 9.48067843,7.94492592 9.48095238,7.83047619 L9.48095238,6.22350476 C9.61329524,6.11241905 9.78392381,6.05687619 9.9928381,6.05687619 C10.0272338,6.05664408 10.0616036,6.05882084 10.0956952,6.06339048 C10.1253348,6.06765117 10.1552368,6.06982794 10.185181,6.06990476 C10.287581,6.06990476 10.3814095,6.00373333 10.4666667,5.87139048 Z"/>
  </defs>
  <use fill="#222" fill-rule="evenodd" xlink:href="#savings-a"/>
</svg>
