<svg xmlns="http://www.w3.org/2000/svg" xmlns:xlink="http://www.w3.org/1999/xlink" width="24" height="24" viewBox="0 0 24 24">
  <defs>
    <path id="savings-e-a" d="M3.70552381,11.680419 C4.78518095,12.4799619 5.95089524,12.9267048 7.25272381,13.0323048 C10.4070095,13.288419 13.365181,11.2494476 14.2356952,8.19973333 C14.6217524,6.84681905 15.6777524,5.99687619 17.0769524,5.94681905 C17.2456381,5.94064762 17.4945524,6.0407619 17.5716952,6.17139048 C17.658781,6.31847619 17.6402667,6.56979048 17.5847238,6.75081905 C17.4708952,7.1255619 17.2511238,7.47287619 17.1688381,7.85173333 C17.0464381,8.41573333 17.1232381,8.91699048 17.637181,9.34624762 C18.498781,10.0662476 19.1090667,10.9950476 19.5002667,12.052419 C19.5897524,12.2941333 19.6980952,12.4093333 19.9696381,12.3822476 C20.9042667,12.2896762 21.2169524,12.8430476 21.1740952,13.5915048 C21.1398095,14.1609905 21.1706667,14.7339048 21.1668952,15.3057905 C21.1620952,15.9757333 20.8212952,16.3408762 20.1585524,16.3189333 C19.8016381,16.3072762 19.636381,16.4087619 19.5126095,16.7581333 C19.1104381,17.8923048 18.3928381,18.8224762 17.4945524,19.6093333 C16.7642667,20.2491048 16.3799238,21.0273905 16.422781,22.005219 C16.4279238,22.1214476 16.4265524,22.2383619 16.422781,22.3549333 C16.410781,22.7241905 16.2564952,22.8959619 15.8903238,22.8990476 C14.9575238,22.9075048 14.0247238,22.9075048 13.0919238,22.8990476 C12.714781,22.8959619 12.5663238,22.7392762 12.551581,22.3645333 C12.544381,22.1797333 12.551581,21.9945905 12.551581,21.7789333 L10.223581,21.7789333 C10.223581,21.9747048 10.230781,22.1807619 10.223581,22.3857905 C10.2074667,22.7550476 10.0476952,22.9305905 9.68666667,22.9343619 C8.75386667,22.9435048 7.82106667,22.9435048 6.88826667,22.9343619 C6.53478095,22.9309333 6.35409524,22.7413333 6.34860952,22.3857905 C6.3304381,21.273219 5.89775238,20.3536762 5.17055238,19.5147048 C3.76860952,17.8991619 2.95809524,16.046019 3.12369524,13.8561905 C3.17736082,13.1005074 3.37484052,12.3620241 3.70552381,11.680419 Z M17.346781,11.7897905 C17.351581,11.4099048 17.0320381,11.0776762 16.648381,11.0632762 C16.2578667,11.0485333 15.9095238,11.3814476 15.8999238,11.778819 C15.8952365,11.9723008 15.9679789,12.1596488 16.1020024,12.2992727 C16.236026,12.4388967 16.4202409,12.5192434 16.6137524,12.5224762 C16.9998095,12.5265905 17.341981,12.1847619 17.3471238,11.7897905 L17.346781,11.7897905 Z M7.73272381,0.724761905 C10.8126346,0.724951251 13.3092952,3.22176537 13.3092952,6.30167619 C13.3092952,8.55735866 11.9504866,10.5909257 9.86649446,11.4541059 C7.78250232,12.3172862 5.38374516,11.8400863 3.78878582,10.2450289 C2.19382648,8.64997146 1.716774,6.25118497 2.5800824,4.16724591 C3.4433908,2.08330685 5.47704134,0.72462323 7.73272381,0.724761905 Z M8.90392381,5.25664762 L8.90289524,5.25561905 L6.85432381,5.25561905 C7.0024381,4.97584762 7.19169524,4.76190476 7.42209524,4.61379048 C7.65762675,4.46433834 7.9317569,4.38710515 8.21066667,4.39161905 C8.46209524,4.39161905 8.73638095,4.47161905 9.03352381,4.63161905 C9.12678095,4.68099048 9.19535238,4.70567619 9.2392381,4.70567619 C9.36632381,4.70567619 9.48060952,4.6247619 9.58209524,4.46293333 C9.68497628,4.29618666 9.73781282,4.10340471 9.73432381,3.90750476 C9.73432381,3.8087619 9.70415238,3.74293333 9.64380952,3.71001905 C8.72988453,3.12080944 7.54433692,3.16924675 6.68152381,3.83104762 C6.2152381,4.18487619 5.87512381,4.66064762 5.66118095,5.2583619 L5.52129524,5.2583619 C5.39233983,5.25916628 5.2664545,5.29779019 5.1592381,5.36944762 C5.04495238,5.44350476 4.98780952,5.52167619 4.98780952,5.6039619 C4.99079429,5.68884289 5.0227351,5.77014675 5.07832381,5.8343619 C5.12597111,5.89338367 5.17975919,5.94717175 5.23878095,5.99481905 C5.27265252,6.02233983 5.31449255,6.03821018 5.35809524,6.04007619 L5.47980952,6.04007619 C5.4723338,6.13038508 5.46958719,6.2210232 5.47158095,6.31161905 C5.46948145,6.39171178 5.47222933,6.47185819 5.47980952,6.55161905 L5.40575238,6.55161905 C5.27679697,6.55242343 5.15091164,6.59104733 5.04369524,6.66270476 C4.92940952,6.7367619 4.87226667,6.81493333 4.87226667,6.89721905 C4.87525144,6.98210003 4.90719224,7.0634039 4.96278095,7.12761905 C5.01043211,7.18663734 5.0642198,7.24042503 5.1232381,7.28807619 C5.15710967,7.31559697 5.19894969,7.33146733 5.24255238,7.33333333 L5.5912381,7.33333333 C5.76700952,7.95299048 6.07695238,8.43699048 6.52106667,8.78533333 C6.96518095,9.13367619 7.4944381,9.30784762 8.1088381,9.30784762 C8.35532696,9.30909025 8.60111394,9.28147374 8.84118095,9.2255619 C9.07158095,9.17070476 9.24712381,9.09939048 9.36780952,9.01161905 C9.47946735,8.925405 9.56726795,8.8121139 9.62289524,8.68247619 C9.68814823,8.54296104 9.7218616,8.39078262 9.7216381,8.2367619 C9.7216381,8.05573333 9.61740952,7.96521905 9.40895238,7.96521905 C9.33672381,7.96521905 9.18815238,8.00087619 8.9632381,8.07219048 C8.66152381,8.16544762 8.40369524,8.21207619 8.18975238,8.21207619 C7.9032087,8.21797928 7.62128426,8.13926941 7.3792381,7.98579048 C7.14518095,7.83493333 6.96232381,7.61687619 6.83066667,7.33161905 L8.45066667,7.33161905 C8.5384381,7.33161905 8.62209524,7.26853333 8.7016381,7.1423619 C8.77936921,7.02223847 8.82079692,6.88224139 8.82095238,6.7391619 C8.82095238,6.61299048 8.75238095,6.54990476 8.6152381,6.54990476 L6.63318095,6.54990476 C6.62560577,6.47014358 6.6228579,6.38999748 6.62495238,6.30990476 C6.62296549,6.21930895 6.62571209,6.12867118 6.63318095,6.0383619 L8.73935238,6.0383619 C8.82712381,6.0383619 8.91078095,5.97527619 8.99032381,5.84910476 C9.06805492,5.72898133 9.10948263,5.58898425 9.1096381,5.44590476 C9.1096381,5.31973333 9.04106667,5.25664762 8.90392381,5.25664762 Z"/>
  </defs>
  <use fill="#222" fill-rule="evenodd" xlink:href="#savings-e-a"/>
</svg>
