<svg xmlns="http://www.w3.org/2000/svg" xmlns:xlink="http://www.w3.org/1999/xlink" width="24" height="24" viewBox="0 0 24 24">
  <defs>
    <path id="search-a" d="M21.3885863,21.4137447 C20.6081282,22.1954184 19.3450185,22.1954184 18.5645606,21.4137447 L15.4974975,18.3419044 C13.8338896,19.4458469 11.9135521,19.9978183 9.98979162,19.9978183 C7.43618774,19.9978183 4.87916083,19.0207262 2.9280158,17.0699704 C-0.967428138,13.1650304 -0.967428138,6.8327879 2.93143887,2.92784791 C4.8825839,0.977092096 7.43618774,0 9.99321464,0 C12.5468185,0 15.1038454,0.977092096 17.0549904,2.92784791 C20.4677827,6.34938445 20.8888192,11.6325386 18.3215232,15.5134798 L21.3885863,18.5853202 C22.1690442,19.3669939 22.1690442,20.6320711 21.3885863,21.4137447 L21.3885863,21.4137447 Z M9.99321464,2.49929873 C7.99414676,2.49929873 6.11146296,3.28097242 4.69773858,4.69689886 C1.78129022,7.62131837 1.78129022,12.3799283 4.69773858,15.3009194 C6.11146296,16.7168458 7.99414676,17.4985196 9.99321464,17.4985196 C11.9922825,17.4985196 13.8749663,16.7168458 15.2886907,15.3009194 C18.2085622,12.3764999 18.2085622,7.61788998 15.2886907,4.69689886 C13.8715433,3.28097242 11.9922825,2.49929873 9.99321464,2.49929873 L9.99321464,2.49929873 Z"/>
  </defs>
  <g fill="none" fill-rule="evenodd" transform="translate(1 1)">
    <mask id="search-b" fill="#fff">
      <use xlink:href="#search-a"/>
    </mask>
    <use fill="#000" fill-rule="nonzero" xlink:href="#search-a"/>
  </g>
</svg>
