<svg xmlns="http://www.w3.org/2000/svg" xmlns:xlink="http://www.w3.org/1999/xlink" width="24" height="24" viewBox="0 0 24 24">
  <defs>
    <path id="search-address-a" d="M22.1835048,19.1001143 C22.5832762,19.4498286 22.7817905,20.0018286 22.7817905,20.5017143 C22.7817905,21.0016 22.6333333,21.5515429 22.233219,21.9016 C21.8831619,22.3017143 21.3832762,22.5016 20.8333333,22.5016 C20.2833905,22.5016 19.7835048,22.3017143 19.4334476,21.9016 L16.3333333,18.8501714 C12.3832762,21.4500571 7.08339048,20.9501714 3.73333333,17.6001143 C-0.166666667,13.6500571 -0.166666667,7.35142857 3.78201905,3.44868571 C5.63173333,1.54994286 8.1815619,0.500114286 10.8318476,0.500114286 C13.4821333,0.500114286 16.0305905,1.54857143 17.882019,3.44868571 C21.2821333,6.8488 21.7319619,12.1486857 19.1320762,16.0486857 L22.1835048,19.1001143 Z M16.1334476,15.8001143 C19.0333333,12.8998857 19.0333333,8.09988571 16.1334476,5.2 C14.7292445,3.79159067 12.82221,3 10.8333905,3 C8.84457091,3 6.93753646,3.79159067 5.53333333,5.2 C2.63344762,8.10022857 2.63344762,12.9002286 5.53333333,15.8001143 C6.93753646,17.2085236 8.84457091,18.0001143 10.8333905,18.0001143 C12.82221,18.0001143 14.7292445,17.2085236 16.1334476,15.8001143 Z M11.0334476,5.99988571 L14.534019,9.4984 C15.0839619,9.99862857 14.8840762,10.4484571 14.1839619,10.4484571 L14.0838476,10.4484571 L14.0838476,14.6998857 L11.8837333,14.6998857 L11.8837333,11.9998857 C11.885717,11.9064508 11.8494734,11.8162552 11.78339,11.7501719 C11.7173067,11.6840885 11.6271111,11.6478449 11.5336762,11.6498286 L9.6335619,11.6498286 C9.54012699,11.6478449 9.4499314,11.6840885 9.38384805,11.7501719 C9.3177647,11.8162552 9.28152113,11.9064508 9.28350476,11.9998857 L9.28350476,14.7012571 L7.08339048,14.7012571 L7.08339048,10.4498286 L6.98327619,10.4498286 C6.23310476,10.4498286 6.08327619,9.99965714 6.5831619,9.49977143 L6.73333333,9.34994286 L10.0833905,5.99988571 C10.382019,5.74994286 10.7835048,5.74994286 11.0334476,5.99988571 Z"/>
  </defs>
  <use fill="#222" fill-rule="evenodd" xlink:href="#search-address-a"/>
</svg>
