<svg xmlns="http://www.w3.org/2000/svg" xmlns:xlink="http://www.w3.org/1999/xlink" width="24" height="24" viewBox="0 0 24 24">
  <defs>
    <path id="security-1-a" d="M17.9406476,9.81282905 L17.9135619,7.06311476 C17.8719539,3.70616863 15.1256444,1.01379543 11.7685333,1.03859953 C8.41401905,1.07305762 5.71127619,3.82825762 5.74453333,7.18345762 L5.77024762,9.8107719 C4.62505872,9.90092458 3.74161122,10.8563257 3.74121905,12.0050576 L3.74121905,14.8699719 C3.74121905,19.3206005 7.38270476,22.9614005 11.8326476,22.9614005 L11.8326476,22.9614005 C16.2832762,22.9614005 19.9240762,19.3199148 19.9240762,14.8699719 L19.9240762,12.0050576 C19.9240762,10.8733635 19.0666974,9.92571668 17.9406476,9.81282905 Z M12.6949333,15.8910005 L12.6949333,19.0860862 C12.6939953,19.2807317 12.536436,19.438291 12.3417905,19.439229 L11.2161905,19.439229 C11.0215449,19.438291 10.8639857,19.2807317 10.8630476,19.0860862 L10.8630476,15.8910005 C10.1100911,15.4734901 9.73475954,14.5996259 9.95038678,13.7661012 C10.166014,12.9325766 10.9180268,12.3503487 11.7789905,12.3503487 C12.6399541,12.3503487 13.3919669,12.9325766 13.6075942,13.7661012 C13.8232214,14.5996259 13.4478899,15.4734901 12.6949333,15.8910005 Z M7.70430476,9.80185762 L7.67824762,7.1659719 C7.65543037,4.87354836 9.49530979,2.99667487 11.7877333,2.97385762 C14.0801569,2.95104037 15.9570304,4.79091979 15.9798476,7.08334333 L16.0065905,9.8035719 L7.70430476,9.8035719 L7.70430476,9.80185762 Z"/>
  </defs>
  <use fill="#222" fill-rule="evenodd" xlink:href="#security-1-a"/>
</svg>
