<svg xmlns="http://www.w3.org/2000/svg" xmlns:xlink="http://www.w3.org/1999/xlink" width="24" height="24" viewBox="0 0 24 24">
  <defs>
    <path id="security-3-a" d="M12.0808856,0.794418325 C15.2947483,2.03863999 18.1111961,2.89836035 21.0680788,3.36195721 C21.8332074,3.48140766 22.4281997,4.12418019 22.4281997,4.83152053 C22.4281997,17.3818882 13.7044432,23.2055817 12.0808856,23.2055817 C10.4573281,23.2055817 1.73357155,17.3818882 1.73357155,4.83248904 C1.73357155,4.12482587 2.32791822,3.48237618 3.09369243,3.36260289 C6.05218939,2.89900603 8.86605447,2.03993134 12.0808856,0.794418325 Z M16.6907043,9.9888742 L13.6111427,9.9888742 L13.6111427,6.90898975 C13.6191603,6.35704241 13.3292919,5.84355625 12.8525829,5.56524215 C12.375874,5.28692805 11.7862201,5.28692805 11.3095112,5.56524215 C10.8328022,5.84355625 10.5429339,6.35704241 10.5509514,6.90898975 L10.5509514,9.9888742 L7.46977562,9.9888742 C6.91782828,9.98085663 6.40434212,10.270725 6.12602802,10.7474339 C5.84771392,11.2241429 5.84771392,11.8137968 6.12602802,12.2905057 C6.40434212,12.7672147 6.91782828,13.057083 7.46977562,13.0490655 L10.5506286,13.0490655 L10.5506286,16.1299184 C10.542611,16.6818658 10.8324794,17.1953519 11.3091883,17.473666 C11.7858973,17.7519801 12.3755512,17.7519801 12.8522601,17.473666 C13.328969,17.1953519 13.6188374,16.6818658 13.6108198,16.1299184 L13.6108198,13.0497111 L16.6903815,13.0497111 C17.2371473,13.0497688 17.7424106,12.758126 18.0158435,12.2846417 C18.2892763,11.8111574 18.2893379,11.2277652 18.0160049,10.7542232 C17.7426719,10.2806813 17.2374702,9.98893186 16.6907043,9.9888742 Z"/>
  </defs>
  <use fill="#222" fill-rule="evenodd" xlink:href="#security-3-a"/>
</svg>
