<svg xmlns="http://www.w3.org/2000/svg" xmlns:xlink="http://www.w3.org/1999/xlink" width="24" height="24" viewBox="0 0 24 24">
  <defs>
    <path id="secure-device-a" d="M14.4982497,9.98049073 L14.4868615,8.84166971 C14.4730436,7.44844249 13.3324081,6.33021032 11.9391809,6.34402823 C10.5459537,6.35784615 9.42772146,7.49848159 9.44153934,8.89170882 L9.45223736,9.98118093 C8.97740467,10.018456 8.61105002,10.4145639 8.61089019,10.8908573 L8.61089019,12.0786822 C8.61089019,13.9239173 10.1206908,15.4337179 11.9659259,15.4337179 L11.9659259,15.4337179 C13.8111611,15.4337179 15.3209617,13.9239173 15.3209617,12.0786822 L15.3209617,10.8891319 C15.3208018,10.4199019 14.9651579,10.0271123 14.4982497,9.98049073 Z M12.3241369,12.4997009 L12.3241369,13.8245293 C12.3237591,13.9051833 12.2584696,13.9704728 12.1778157,13.9708506 L11.7095186,13.9708506 C11.6288647,13.9704728 11.5635752,13.9051833 11.5631974,13.8245293 L11.5631974,12.5003911 C11.2511537,12.3272235 11.0956748,11.9649716 11.1851128,11.6194877 C11.2745508,11.2740038 11.5862766,11.0327007 11.9431495,11.0327007 C12.3000224,11.0327007 12.6117482,11.2740038 12.7011862,11.6194877 C12.7906242,11.9649716 12.6351454,12.3272235 12.3231016,12.5003911 L12.3241369,12.4997009 Z M19.6988657,2.17404521 L19.6988657,21.8259548 C19.6979177,22.5733432 19.0927808,23.1792516 18.3453942,23.1811518 L5.58680275,23.1811518 C4.83928136,23.1794414 4.23393474,22.5734775 4.23298613,21.8259548 L4.23298613,2.17404521 C4.23393474,1.42652247 4.83928136,0.820558617 5.58680275,0.818848204 L18.3453942,0.818848204 C19.0927808,0.820748389 19.6979177,1.42665681 19.6988657,2.17404521 Z M10.2535532,9.97496917 L10.2428552,8.8813559 C10.2333256,7.93087379 10.9961184,7.15263055 11.9466005,7.14310095 C12.8970826,7.13357135 13.6753258,7.89636407 13.6848555,8.84684617 L13.6958986,9.97462408 L10.2538983,9.97462408 L10.2535532,9.97496917 Z M17.3987924,17.87114 L17.3987924,3.33219168 C17.3989782,3.28323201 17.3795638,3.23623397 17.3448791,3.2016789 C17.3101944,3.16712383 17.263124,3.14788566 17.2141653,3.14825483 L6.71527085,3.14825483 C6.6137635,3.14958103 6.53244539,3.23275079 6.53340458,3.33426226 L6.53340458,17.8732106 C6.53397467,17.9747169 6.61652387,18.0566489 6.71803162,18.0564572 L17.216581,18.0564572 C17.2653022,18.0560933 17.3118726,18.0363415 17.3459994,18.0015672 C17.3801261,17.9667928 17.3989992,17.9198594 17.3984473,17.87114 L17.3987924,17.87114 Z M11.9462554,19.4541012 C11.3030075,19.4541012 10.7815521,19.9755566 10.7815521,20.6188045 C10.7815521,21.2620524 11.3030075,21.7835078 11.9462554,21.7835078 C12.5895033,21.7835078 13.1109587,21.2620524 13.1109587,20.6188045 C13.1109587,20.309906 12.9882492,20.0136591 12.769825,19.7952349 C12.5514008,19.5768107 12.2551539,19.4541012 11.9462554,19.4541012 Z"/>
  </defs>
  <use fill="#222" fill-rule="evenodd" xlink:href="#secure-device-a"/>
</svg>
