<svg xmlns="http://www.w3.org/2000/svg" xmlns:xlink="http://www.w3.org/1999/xlink" width="24" height="24" viewBox="0 0 24 24">
  <defs>
    <path id="security-2-a" d="M21.0951528,3.33590416 C18.1289821,2.87065055 15.3041769,2.00849983 12.0806852,0.760188612 C8.85611983,2.00921561 6.03238832,2.87172422 3.06621763,3.33697782 C2.29819129,3.45651221 1.70195089,4.10070952 1.70195089,4.8107581 C1.70195089,17.3987313 10.4522976,23.2398114 12.0806852,23.2398114 C13.7090728,23.2398114 22.4594195,17.3987313 22.4594195,4.80861077 C22.4594195,4.09999374 21.8624634,3.45579644 21.0951528,3.33590416 Z M18.6683184,8.5968488 L11.0918424,16.1747564 C10.8518822,16.4148293 10.5263587,16.5497103 10.1869241,16.5497103 C9.84748948,16.5497103 9.521966,16.4148293 9.28200583,16.1747564 L5.49305202,12.3861605 C5.16462231,12.0639056 5.03446182,11.5901491 5.15214429,11.1453287 C5.26982675,10.7005084 5.61723647,10.3530987 6.06205679,10.2354162 C6.50687712,10.1177338 6.98063367,10.2478943 7.30288856,10.576324 L10.187103,13.4598227 L16.8584819,6.78665438 C17.1807368,6.45822467 17.6544933,6.32806418 18.0993136,6.44574665 C18.544134,6.56342911 18.8915437,6.91083883 19.0092262,7.35565915 C19.1269086,7.80047948 18.9967481,8.27423603 18.6683184,8.59649092 L18.6683184,8.5968488 Z"/>
  </defs>
  <use fill="#222" fill-rule="evenodd" xlink:href="#security-2-a"/>
</svg>
