<svg xmlns="http://www.w3.org/2000/svg" xmlns:xlink="http://www.w3.org/1999/xlink" width="24" height="24" viewBox="0 0 24 24">
  <defs>
    <path id="server-2-a" d="M22.4369143,16.3656 C22.8629625,16.3656 23.2083429,16.7109803 23.2083429,17.1370286 L23.2083429,22.3714286 C23.2083429,22.7974768 22.8629625,23.1428571 22.4369143,23.1428571 L1.56308571,23.1428571 C1.13703748,23.1428571 0.791657143,22.7974768 0.791657143,22.3714286 L0.791657143,17.1370286 C0.791657143,16.7109803 1.13703748,16.3656 1.56308571,16.3656 L22.4369143,16.3656 Z M10.4022857,20.5254857 L10.4022857,20.5251429 C10.8219032,20.5162951 11.157452,20.1735965 11.157452,19.7538857 C11.157452,19.334175 10.8219032,18.9914764 10.4022857,18.9826286 L4.32685714,18.9826286 C3.90080891,18.9826286 3.55542857,19.3280089 3.55542857,19.7540571 C3.55542857,20.1801054 3.90080891,20.5254857 4.32685714,20.5254857 L10.4022857,20.5254857 Z M19.5428571,20.6540571 C19.7816708,20.6541481 20.0107294,20.5593201 20.1795962,20.3904533 C20.3484629,20.2215865 20.443291,19.9925279 20.4432,19.7537143 C20.4430106,19.2567473 20.0400528,18.8539941 19.5430858,18.8540572 C19.0461188,18.8541203 18.6432632,19.2569759 18.6432001,19.7539429 C18.643137,20.2509099 19.0458902,20.6538678 19.5428571,20.6540571 Z M22.4369143,8.6112 C22.6415099,8.6112 22.8377257,8.69247528 22.9823967,8.8371462 C23.1270676,8.98181712 23.2083429,9.17803299 23.2083429,9.38262857 L23.2083429,14.6173714 C23.2083429,15.0434197 22.8629625,15.3888 22.4369143,15.3888 L1.56308571,15.3888 C1.13703748,15.3888 0.791657143,15.0434197 0.791657143,14.6173714 L0.791657143,9.38262857 C0.791657143,8.95658034 1.13703748,8.6112 1.56308571,8.6112 L22.4369143,8.6112 Z M10.4022857,12.7714286 L10.4022857,12.7710857 C10.6778294,12.7710857 10.9324422,12.6240849 11.070214,12.3854572 C11.2079858,12.1468294 11.2079858,11.8528278 11.070214,11.6142 C10.9324422,11.3755722 10.6778294,11.2285714 10.4022857,11.2285714 L4.32685714,11.2285714 C3.90080891,11.2285714 3.55542857,11.5739518 3.55542857,12 C3.55542857,12.4260482 3.90080891,12.7714286 4.32685714,12.7714286 L10.4022857,12.7714286 Z M19.5428571,12.9 C19.7817301,12.900273 20.010913,12.8055724 20.1799183,12.63676 C20.3489235,12.4679477 20.4438859,12.2388732 20.4438857,12 C20.4438854,11.5030777 20.0411505,11.1001897 19.5442282,11.1000007 C19.0473059,11.0998116 18.6442645,11.5023929 18.643886,11.9993151 C18.6435075,12.4962372 19.0459352,12.8994321 19.5428571,12.9 Z M22.4369143,0.857142857 C22.8629625,0.857142857 23.2083429,1.20252319 23.2083429,1.62857143 L23.2083429,6.86297143 C23.2083429,7.28901966 22.8629625,7.6344 22.4369143,7.6344 L1.56308571,7.6344 C1.13703748,7.6344 0.791657143,7.28901966 0.791657143,6.86297143 L0.791657143,1.62857143 C0.791657143,1.20252319 1.13703748,0.857142857 1.56308571,0.857142857 L22.4369143,0.857142857 Z M10.4022857,5.01702857 C10.8283339,5.01702857 11.1737143,4.67164824 11.1737143,4.2456 C11.1737143,3.81955176 10.8283339,3.47417143 10.4022857,3.47417143 L4.32685714,3.47417143 C3.90080891,3.47417143 3.55542857,3.81955176 3.55542857,4.2456 C3.55542857,4.67164824 3.90080891,5.01702857 4.32685714,5.01702857 L10.4022857,5.01702857 Z M19.5428571,5.14594286 C19.781552,5.14603381 20.0105066,5.05129986 20.1793537,4.88258142 C20.3482007,4.71386297 20.4431091,4.48498056 20.4432,4.24628571 C20.4433893,3.74922949 20.0405991,3.34613233 19.5435429,3.34594299 C19.0464867,3.34575365 18.6433895,3.74854382 18.6432001,4.24560004 C18.6430108,4.74265627 19.0458009,5.14575347 19.5428571,5.14594286 Z"/>
  </defs>
  <use fill="#222" fill-rule="evenodd" xlink:href="#server-2-a"/>
</svg>
