<svg xmlns="http://www.w3.org/2000/svg" xmlns:xlink="http://www.w3.org/1999/xlink" width="24" height="24" viewBox="0 0 24 24">
  <defs>
    <path id="service-device-a" d="M19.7188504,2.14859158 L19.7188504,21.8514084 C19.718082,22.600837 19.1113557,23.2085018 18.3619292,23.2104284 L5.57035007,23.2104284 C4.82065024,23.2088866 4.21349882,22.6011094 4.21272931,21.8514084 L4.21272931,2.14859158 C4.21349882,1.39889056 4.82065024,0.791113372 5.57035007,0.789571568 L18.3619292,0.789571568 C19.1113557,0.791498222 19.718082,1.39916296 19.7188504,2.14859158 Z M17.412889,17.8866381 L17.412889,3.30961795 C17.4130773,3.26054603 17.3936189,3.21343972 17.3588539,3.17880615 C17.3240889,3.14417259 17.2769092,3.12489273 17.2278384,3.12526697 L6.70164241,3.12526697 C6.5997702,3.12642006 6.51806921,3.20984272 6.5190405,3.31171682 L6.5190405,17.8883871 C6.51961835,17.9901211 6.60235567,18.0722328 6.7040911,18.0720385 L17.2299372,18.0720385 C17.2788283,18.0717623 17.3255911,18.0520025 17.3598661,18.0171365 C17.3941411,17.9822706 17.4130987,17.9351769 17.4125392,17.8862882 L17.412889,17.8866381 Z M11.9463753,19.4733857 C11.474032,19.4733858 11.048212,19.7579559 10.8675195,20.1943713 C10.686827,20.6307866 10.7868564,21.1330783 11.1209536,21.4669753 C11.4550507,21.8008723 11.9574023,21.9006006 12.3937093,21.7196466 C12.8300162,21.5386926 13.1143311,21.112702 13.1140481,20.6403589 C13.1136618,19.9957443 12.59099,19.4733856 11.9463753,19.4733857 Z M8.46025037,8.53860489 L7.56587331,7.17685963 C7.46476731,7.05278035 7.44774804,6.87412324 7.55822907,6.75800323 L7.84279703,6.48241362 C7.95226843,6.36671999 8.10847071,6.3715524 8.24073063,6.46194693 L9.57933947,7.35736443 C9.62426196,7.38808641 9.66057841,7.42949607 9.68491664,7.47774834 L9.92159987,8.12486515 C9.94097255,8.16287667 9.96784269,8.19669977 10.0006385,8.22435598 L11.2192471,9.33296813 L10.4103991,10.1315953 L9.34308893,8.93059877 C9.31193161,8.8972314 9.27392674,8.87077818 9.23159829,8.85299592 L8.58573142,8.63255266 C8.53670947,8.61186718 8.49361294,8.57960077 8.46025037,8.53860489 Z M15.6151017,13.2452534 C15.8499849,13.4733414 15.9435314,13.8075744 15.8605031,14.1220501 C15.7774748,14.4365258 15.5304857,14.6834679 15.2125742,14.7698556 C14.8946626,14.8562434 14.554127,14.7689524 14.3192437,14.5408645 C14.3126424,14.5345112 14.3065016,14.5278554 14.3005143,14.5210483 L12.6205506,12.6317101 L13.7334134,11.5328988 L15.6151017,13.2452534 Z M15.4984634,8.48631084 L16.2569556,7.72808411 C16.4906996,8.4271121 16.3090539,9.19816339 15.7878241,9.71945774 C15.2665944,10.2407521 14.4953593,10.4226996 13.7959759,10.1893688 L9.43183841,14.559997 C9.08733681,14.8888793 8.54317638,14.8826189 8.20633767,14.5458981 C7.86949895,14.2091773 7.86323639,13.6652073 8.19223379,13.3208263 L12.5585588,8.94728237 C12.329583,8.25020167 12.5123867,7.48363384 13.0313259,6.96478386 C13.5502651,6.44593389 14.3170687,6.26305761 15.0144343,6.49182903 L14.2588588,7.24714007 C14.0288477,7.46672268 13.9358291,7.79360402 14.015787,8.10133085 C14.0957448,8.40905768 14.336139,8.64936771 14.6439736,8.72929759 C14.9518081,8.80922747 15.2788039,8.71624141 15.4984634,8.48631084 Z"/>
  </defs>
  <use fill="#222" fill-rule="evenodd" xlink:href="#service-device-a"/>
</svg>
