<svg xmlns="http://www.w3.org/2000/svg" xmlns:xlink="http://www.w3.org/1999/xlink" width="24" height="24" viewBox="0 0 24 24">
  <defs>
    <path id="service-supervision-a" d="M19.62619,2.09812063 L19.62619,21.9018794 C19.6254831,22.6551211 19.0156957,23.2659161 18.2624562,23.2678668 L5.40485438,23.2678668 C4.65143679,23.2660937 4.04136139,22.6552985 4.04047668,21.9018794 L4.04047668,2.09812063 C4.04136139,1.34470148 4.65143679,0.73390631 5.40485438,0.732133242 L18.2624562,0.732133242 C19.0156957,0.734083855 19.6254831,1.34487892 19.62619,2.09812063 Z M17.3377471,17.9168175 L17.3377471,17.9164956 C17.3382618,17.9656171 17.3191967,18.0129221 17.2847639,18.0479589 C17.2503312,18.0829957 17.203365,18.1028806 17.1542419,18.1032202 L6.57403694,18.1032202 C6.4716956,18.103399 6.38848812,18.0207673 6.38795617,17.9184272 L6.38795617,3.26698105 C6.38706178,3.1646365 6.46912044,3.08085028 6.57146143,3.07961253 L17.1516664,3.07961253 C17.2009813,3.07918188 17.2484153,3.0985155 17.2833781,3.13329687 C17.318341,3.16807824 17.3379212,3.21541102 17.3377471,3.26472748 L17.3377471,17.9168175 Z M7.66179557,14.5736435 C8.1550062,14.7024191 9.14851011,14.8833488 11.82157,14.8833488 C14.49463,14.8833488 15.4881339,14.702741 15.9813445,14.5736435 C16.1761176,14.5224552 16.3242096,14.2822886 16.3158392,14.0807548 C16.2752749,13.1387611 16.1075446,11.5557868 13.2484039,10.931547 C14.1493481,10.3075375 14.540215,9.17042098 14.2133312,8.12436398 C13.8864475,7.07830699 12.9176727,6.36606662 11.821731,6.36606662 C10.7257893,6.36606662 9.75701448,7.07830699 9.43013077,8.12436398 C9.10324706,9.17042098 9.49411394,10.3075375 10.3950581,10.931547 C7.53559546,11.5557868 7.36883104,13.1387611 7.3273009,14.0807548 C7.31860854,14.2822886 7.46702245,14.5211674 7.66179557,14.5736435 Z M11.8136951,19.5118039 C11.1654289,19.5118039 10.6399053,20.0373274 10.6399053,20.6855936 C10.6399053,21.3338598 11.1654289,21.8593834 11.8136951,21.8593834 C12.4619612,21.8593834 12.9874848,21.3338598 12.9874848,20.6855936 C12.9874848,20.0373274 12.4619612,19.5118039 11.8136951,19.5118039 Z"/>
  </defs>
  <use fill="#222" fill-rule="evenodd" xlink:href="#service-supervision-a"/>
</svg>
