<svg xmlns="http://www.w3.org/2000/svg" xmlns:xlink="http://www.w3.org/1999/xlink" width="24" height="24" viewBox="0 0 24 24">
  <defs>
    <path id="services-a" d="M4.03950879,6.60008104 C2.65879692,6.60008104 1.53950879,5.48079291 1.53950879,4.10008104 C1.53950879,2.71936916 2.65879692,1.60008104 4.03950879,1.60008104 C5.42022067,1.60008104 6.53950879,2.71936916 6.53950879,4.10008104 C6.53950879,5.48079291 5.42022067,6.60008104 4.03950879,6.60008104 Z M4.03950879,14.5 C2.65879692,14.5 1.53950879,13.3807119 1.53950879,12 C1.53950879,10.6192881 2.65879692,9.5 4.03950879,9.5 C5.42022067,9.5 6.53950879,10.6192881 6.53950879,12 C6.53950879,13.3807119 5.42022067,14.5 4.03950879,14.5 Z M4.03950879,22.399919 C2.65879692,22.399919 1.53950879,21.2806308 1.53950879,19.899919 C1.53950879,18.5192071 2.65879692,17.399919 4.03950879,17.399919 C5.42022067,17.399919 6.53950879,18.5192071 6.53950879,19.899919 C6.53950879,21.2806308 5.42022067,22.399919 4.03950879,22.399919 Z M12,6.60008104 C10.6192881,6.60008104 9.5,5.48079291 9.5,4.10008104 C9.5,2.71936916 10.6192881,1.60008104 12,1.60008104 C13.3807119,1.60008104 14.5,2.71936916 14.5,4.10008104 C14.5,5.48079291 13.3807119,6.60008104 12,6.60008104 Z M12,14.5 C10.6192881,14.5 9.5,13.3807119 9.5,12 C9.5,10.6192881 10.6192881,9.5 12,9.5 C13.3807119,9.5 14.5,10.6192881 14.5,12 C14.5,13.3807119 13.3807119,14.5 12,14.5 Z M12,22.399919 C10.6192881,22.399919 9.5,21.2806308 9.5,19.899919 C9.5,18.5192071 10.6192881,17.399919 12,17.399919 C13.3807119,17.399919 14.5,18.5192071 14.5,19.899919 C14.5,21.2806308 13.3807119,22.399919 12,22.399919 Z M19.9604912,6.60008104 C18.5797793,6.60008104 17.4604912,5.48079291 17.4604912,4.10008104 C17.4604912,2.71936916 18.5797793,1.60008104 19.9604912,1.60008104 C21.3412031,1.60008104 22.4604912,2.71936916 22.4604912,4.10008104 C22.4604912,5.48079291 21.3412031,6.60008104 19.9604912,6.60008104 Z M19.9604912,14.5 C18.5797793,14.5 17.4604912,13.3807119 17.4604912,12 C17.4604912,10.6192881 18.5797793,9.5 19.9604912,9.5 C21.3412031,9.5 22.4604912,10.6192881 22.4604912,12 C22.4604912,13.3807119 21.3412031,14.5 19.9604912,14.5 Z M19.9604912,22.399919 C18.5797793,22.399919 17.4604912,21.2806308 17.4604912,19.899919 C17.4604912,18.5192071 18.5797793,17.399919 19.9604912,17.399919 C21.3412031,17.399919 22.4604912,18.5192071 22.4604912,19.899919 C22.4604912,21.2806308 21.3412031,22.399919 19.9604912,22.399919 Z"/>
  </defs>
  <use fill="#222" fill-rule="evenodd" xlink:href="#services-a"/>
</svg>
