<svg xmlns="http://www.w3.org/2000/svg" xmlns:xlink="http://www.w3.org/1999/xlink" width="24" height="24" viewBox="0 0 24 24">
  <defs>
    <path id="shopping-a" d="M9.1816381,7.81950476 L12.2495238,7.81950476 L11.8905524,4.55927619 C11.8517465,4.20796464 11.5548578,3.9420942 11.2014095,3.94213333 L9.41855238,3.94213333 L9.41855238,3.68361905 C9.41855238,2.10667251 8.14018463,0.828304762 6.5632381,0.828304762 C4.98629156,0.828304762 3.70792381,2.10667251 3.70792381,3.68361905 L3.70792381,3.94213333 L1.79992381,3.94213333 C1.44647551,3.9420942 1.14958685,4.20796464 1.11078095,4.55927619 L0.134666667,13.4235048 C0.0651593293,14.0520633 0.266511488,14.6804914 0.688363742,15.1516154 C1.110216,15.6227394 1.71267666,15.8920082 2.34506667,15.8920762 L7.6960381,15.8920762 L7.77215238,15.198819 L7.77215238,15.198819 L7.84826667,14.5055619 L8.51649524,8.43699048 C8.55408932,8.09453788 8.83733992,7.83158204 9.1816381,7.81950476 L9.1816381,7.81950476 Z M5.09375238,3.68327619 C5.09375238,2.87208035 5.75135654,2.21447619 6.56255238,2.21447619 C7.37374822,2.21447619 8.03135238,2.87208035 8.03135238,3.68327619 L8.03135238,3.94179048 L5.09375238,3.94179048 L5.09375238,3.68327619 Z M23.1986667,20.3704762 C23.2680619,20.999011 23.0666705,21.6273755 22.6448422,22.0984727 C22.2230139,22.56957 21.6206207,22.8388708 20.9882667,22.8390476 L10.8071238,22.8390476 C10.1747576,22.838991 9.57232198,22.569712 9.15052192,22.0985732 C8.72872186,21.6274345 8.52745373,20.9989991 8.59706667,20.3704762 L9.09249524,15.8903619 L9.16860952,15.1971048 L9.24472381,14.5038476 L9.75900952,9.82247619 C9.79781542,9.47116464 10.0947041,9.2052942 10.4481524,9.20533333 L12.769981,9.20533333 L12.769981,8.81241905 C12.769981,8.71093333 12.7746667,8.61081905 12.7840381,8.51207619 C12.805827,8.27631236 12.8541322,8.0437574 12.9280381,7.81881905 C13.3580012,6.50275181 14.5855161,5.6124209 15.9700381,5.6124209 C17.3545601,5.6124209 18.582075,6.50275181 19.0120381,7.81881905 C19.085944,8.0437574 19.1342491,8.27631236 19.1560381,8.51207619 C19.1654095,8.61104762 19.1700952,8.7111619 19.1700952,8.81241905 L19.1700952,9.20464762 L21.3472381,9.20464762 C21.7007463,9.20445177 21.9977242,9.47040218 22.036381,9.82179048 L23.1986667,20.3704762 Z M15.9698667,6.99904762 C15.358617,6.99926 14.7886219,7.30745949 14.4537524,7.81881905 C14.3156886,8.02840824 14.2229626,8.26454424 14.1815238,8.51207619 C14.1649085,8.61132843 14.156537,8.71178568 14.1564952,8.81241905 L14.1564952,9.20567619 L17.783581,9.20567619 L17.783581,8.8127619 C17.7836719,8.33170709 17.5926139,7.87032891 17.2524568,7.53017178 C16.9122997,7.19001465 16.4509215,6.99895666 15.9698667,6.99904762 Z"/>
  </defs>
  <use fill="#222" fill-rule="evenodd" xlink:href="#shopping-a"/>
</svg>
