<svg xmlns="http://www.w3.org/2000/svg" xmlns:xlink="http://www.w3.org/1999/xlink" width="24" height="24" viewBox="0 0 24 24">
  <defs>
    <path id="shuffle-a" d="M11.4760762,10.5780952 C11.2254476,10.2071238 10.9662476,9.82140952 10.6926476,9.42712381 C10.4649905,9.10655238 10.226019,8.77912381 9.97264762,8.45169524 C10.396419,7.93740952 10.8568762,7.44266667 11.387619,7.00106667 C11.9402016,6.53626031 12.5595966,6.15727241 13.2249905,5.8768381 C14.0139048,5.54666667 14.906019,5.36255238 15.8790476,5.36255238 L15.8838476,5.36255238 L15.8838476,2.91832381 C15.8838476,2.40815238 16.2109333,2.17569524 16.6113905,2.4040381 L22.8171048,6.12300952 C23.1990476,6.39249524 23.1990476,6.83306667 22.8171048,7.10152381 L16.6113905,10.8222095 C16.2109333,11.0502095 15.8838476,10.818781 15.8838476,10.3079238 L15.8838476,7.86266667 L15.8793905,7.86266667 C15.1161905,7.86472381 14.5137905,8.01729524 13.9683048,8.28095238 C13.422819,8.54460952 12.926019,8.93032381 12.4425905,9.42609524 C12.0953895,9.78838113 11.7725143,10.17322 11.4760762,10.5780952 Z M6.89447619,12.7295238 C7.23219048,13.2249524 7.58430476,13.7580952 7.96693333,14.3046095 C8.09550476,14.485981 8.22784762,14.670781 8.36499048,14.8552381 C8.02812515,15.2413126 7.66238469,15.6012076 7.27093333,15.9318095 C6.71801393,16.3971174 6.09814214,16.7764609 5.43219048,17.0570667 C4.64293333,17.3872381 3.75081905,17.5713524 2.77779048,17.5713524 L1.8143619,17.5713524 C1.12397443,17.5713524 0.564304815,17.0116827 0.564304815,16.3212952 C0.564304815,15.6309078 1.12397443,15.0712381 1.8143619,15.0712381 L2.77813333,15.0712381 C3.54133333,15.069181 4.14407619,14.9162667 4.68921905,14.6529524 C5.2343619,14.3896381 5.73150476,14.0039238 6.21493333,13.5078095 C6.45468923,13.2602472 6.68150534,13.0004729 6.89447619,12.7295238 Z M22.816419,16.2321524 C23.198019,16.5009524 23.198019,16.941181 22.8153905,17.2110095 L16.6096762,20.929981 C16.209219,21.1586667 15.8821333,20.9262095 15.8821333,20.4156952 L15.8821333,17.9700952 L15.8776762,17.9700952 C14.7606476,17.9721524 13.7509333,17.7239238 12.8787048,17.3025524 C12.0064762,16.881181 11.2779048,16.295581 10.6501333,15.6506667 C9.39767619,14.356381 8.49904762,12.8210667 7.57093333,11.5137524 C6.95687619,10.6401524 6.33870476,9.87249524 5.6735619,9.32392381 C5.31319709,9.01814383 4.90861195,8.76868819 4.4735619,8.5840381 C3.98361905,8.38175238 3.44224762,8.2624381 2.77779048,8.2624381 L1.8143619,8.2624381 C1.12397442,8.26243807 0.564304799,7.70276843 0.564304799,7.01238095 C0.564304799,6.32199347 1.12397442,5.76232383 1.8143619,5.76232381 L2.7791619,5.76232381 C3.89619048,5.76026667 4.90590476,6.00746667 5.77813333,6.42952381 C6.6503619,6.85158095 7.37893333,7.43649524 8.00670476,8.08140952 C9.2591619,9.3760381 10.1577905,10.9113524 11.0859048,12.2186667 C11.6999619,13.0922667 12.3184762,13.859581 12.9832762,14.4081524 C13.3436276,14.7140406 13.7482119,14.9636113 14.1832762,15.148381 C14.6735619,15.3506667 15.2145905,15.469981 15.8790476,15.469981 L15.8831619,15.469981 L15.8831619,13.0257524 C15.8831619,12.5145524 16.2102476,12.2831238 16.6107048,12.5114667 L22.816419,16.2321524 Z"/>
  </defs>
  <use fill="#222" fill-rule="evenodd" xlink:href="#shuffle-a"/>
</svg>
