<svg xmlns="http://www.w3.org/2000/svg" xmlns:xlink="http://www.w3.org/1999/xlink" width="24" height="24" viewBox="0 0 24 24">
  <defs>
    <path id="slow-wifi-at-home-a" d="M20.124144,5.99812111 C18.1507918,5.99949897 16.5509199,7.59793103 16.5477652,9.57128116 C16.5321637,9.65877231 16.5009063,9.74273123 16.4554946,9.81912421 C16.3650123,9.96861685 16.2051481,10.0762658 15.9937841,10.149224 C14.5953168,8.09522782 12.2704233,6.86708831 9.7855482,6.86968462 C5.92091327,6.86968462 2.73006812,9.9257003 2.32093038,13.5736067 L1.18185374,13.5736067 C0.730157096,13.5736067 0.363935908,13.8908315 0.363935908,14.3425281 C0.363935908,14.7942247 0.731945285,15.1114495 1.18185374,15.1114495 L3.19964665,15.1114495 L3.19964665,15.8885967 C3.19964665,17.0537809 4.10876214,18.0018789 5.27394635,18.0018789 C6.43913056,18.0018789 7.34824605,17.0537809 7.34824605,15.8885967 L7.34824605,15.1114495 L12.5339953,15.1114495 L12.5339953,15.8885967 C12.5339953,17.0537809 13.4431108,18.0018789 14.608295,18.0018789 C15.7734792,18.0018789 16.6825947,17.0537809 16.6825947,15.8885967 L16.6825947,15.2806123 C16.6946532,15.28892 16.7090942,15.2930639 16.7237231,15.2924143 C16.7624442,15.292386 16.8010916,15.2890357 16.8392401,15.2824005 C18.3663538,15.0434984 19.8941828,13.7005681 20.4871465,13.1315662 C22.3782992,12.9342788 23.784458,11.2916917 23.687825,9.39273336 C23.5911919,7.49377498 22.0255547,6.00241492 20.124144,5.99812111 L20.124144,5.99812111 Z M5.81040317,15.8885967 C5.81040317,16.1518181 5.55504972,16.3660432 5.29182824,16.3660432 C5.02860677,16.3660432 4.77325332,16.1514605 4.77325332,15.8885967 L4.77325332,15.1114495 L5.81040317,15.1114495 L5.81040317,15.8885967 Z M5.25499154,13.5736067 L3.96749518,13.5736067 C4.17492515,12 4.94277367,10.774375 6.04537126,9.86025257 L7.20769436,11.2908041 L5.25499154,13.5736067 Z M9.78697875,8.51446123 C10.5387968,8.51773866 11.2829248,8.66600569 11.9785837,8.95113708 L10.7068234,10.4621571 L8.60891957,10.4621571 L7.45088812,9.01408135 C8.18684185,8.68835771 8.98217482,8.51825971 9.78697875,8.51446123 L9.78697875,8.51446123 Z M7.40940213,13.5736067 L8.70512416,12 L10.803028,12 L12.0350905,13.5736067 L7.40940213,13.5736067 Z M15.1447518,15.8885967 C15.1447518,16.1518181 14.8893984,16.3660432 14.6261769,16.3660432 C14.3629554,16.3660432 14.107602,16.1514605 14.107602,15.8885967 L14.107602,15.1114495 L15.1447518,15.1114495 L15.1447518,15.8885967 Z M14.1458692,13.5736067 L12.2046108,11.1827974 L13.4159303,9.77441948 C14.5793263,10.691403 15.3922372,12 15.60682,13.5736067 L14.1458692,13.5736067 Z M20.1245016,11.5128972 C19.9012417,11.5128499 19.6876655,11.6040688 19.5333262,11.7653896 C19.2158089,12.0858398 18.877075,12.384547 18.5194228,12.6594842 C18.0544936,13.0171221 17.6253281,13.274979 17.2369334,13.4462876 C17.1589821,12.8154515 17.0005717,12.1971939 16.7655667,11.6065983 C17.859581,11.1234296 18.1846738,10.1334879 18.1846738,9.57342699 C18.1846738,8.50228717 19.0530042,7.63395677 20.124144,7.63395677 C21.1952838,7.63395677 22.0636142,8.50228717 22.0636142,9.57342699 C22.0636142,10.6445668 21.1952838,11.5128972 20.124144,11.5128972 L20.1245016,11.5128972 Z M20.1974598,10.2107377 C20.6116549,10.2107377 20.9474264,9.87496619 20.9474264,9.46077106 C20.9474264,9.04657592 20.6116549,8.71080443 20.1974598,8.71080443 C19.7832646,8.71080443 19.4474931,9.04657592 19.4474931,9.46077106 C19.4474931,9.87496619 19.7832646,10.2107377 20.1974598,10.2107377 Z"/>
  </defs>
  <use fill="#222" fill-rule="evenodd" xlink:href="#slow-wifi-at-home-a"/>
</svg>
