<svg xmlns="http://www.w3.org/2000/svg" xmlns:xlink="http://www.w3.org/1999/xlink" width="24" height="24" viewBox="0 0 24 24">
  <defs>
    <path id="smiley-2-a" d="M19.7427048,3.9239619 C15.3674303,-0.402782624 8.31902555,-0.383128786 3.96794838,3.96794838 C-0.383128786,8.31902555 -0.402782624,15.3674303 3.9239619,19.7427048 C8.29923639,24.0694493 15.3476411,24.0497955 19.6987183,19.6987183 C24.0497955,15.3476411 24.0694493,8.29923639 19.7427048,3.9239619 L19.7427048,3.9239619 Z M18.486819,18.486819 C16.1097576,20.8638806 12.6451149,21.7922288 9.39798848,20.922164 C6.15086205,20.0520991 3.6145676,17.5158046 2.74450271,14.2686782 C1.87443783,11.0215518 2.80278606,7.55690911 5.17984762,5.17984762 C7.55690911,2.80278606 11.0215518,1.87443783 14.2686782,2.74450271 C17.5158046,3.6145676 20.0520991,6.15086205 20.922164,9.39798848 C21.7922288,12.6451149 20.8638806,16.1097576 18.486819,18.486819 Z M7.99333333,10.6641905 C8.77555789,10.6641905 9.40967619,10.0300722 9.40967619,9.24784762 C9.40967619,8.46562306 8.77555789,7.83150476 7.99333333,7.83150476 C7.21110877,7.83150476 6.57699048,8.46562306 6.57699048,9.24784762 C6.57689951,9.62351298 6.7260917,9.98381819 6.99172723,10.2494537 C7.25736277,10.5150893 7.61766797,10.6642814 7.99333333,10.6641905 Z M15.6733333,7.8311619 C14.8911088,7.8311619 14.2569905,8.4652802 14.2569905,9.24750476 C14.2569905,10.0297293 14.8911088,10.6638476 15.6733333,10.6638476 C16.4555579,10.6638476 17.0896762,10.0297293 17.0896762,9.24750476 C17.0894869,8.46535861 16.4554795,7.83135117 15.6733333,7.8311619 Z M16.2270476,14.8957333 C13.4128425,13.743248 10.259094,13.7393094 7.44201905,14.8847619 C7.00124634,15.0537968 6.68639208,15.4480375 6.61901352,15.9152778 C6.55163495,16.3825181 6.7422741,16.8496537 7.11733001,17.1363355 C7.49238593,17.4230172 7.99317754,17.484391 8.4263619,17.2967619 C10.6104221,16.4092491 13.05513,16.4119566 15.237219,17.3043048 C15.8950647,17.5474028 16.6273044,17.2261386 16.893888,16.5774548 C17.1604717,15.9287709 16.8657315,15.1854582 16.2270476,14.8957333 Z"/>
  </defs>
  <use fill="#222" fill-rule="evenodd" xlink:href="#smiley-2-a"/>
</svg>
