<svg xmlns="http://www.w3.org/2000/svg" xmlns:xlink="http://www.w3.org/1999/xlink" width="24" height="24" viewBox="0 0 24 24">
  <defs>
    <path id="smiley-1-a" d="M12,23.1853714 C7.47586534,23.1854681 3.39716323,20.4602387 1.66583877,16.2804887 C-0.0654856784,12.1007387 0.891533963,7.28962656 4.09062857,4.09062857 C6.9110658,1.23855655 11.0427161,0.115003889 14.9190954,1.14595713 C18.7954747,2.17691036 21.8230896,5.20452533 22.8540429,9.08090462 C23.8849961,12.9572839 22.7614435,17.0889342 19.9093714,19.9093714 C17.8162203,22.0138383 14.9681639,23.193481 12,23.1853714 Z M12,2.57142857 C8.18616571,2.57099486 4.74767357,4.86819765 3.28812369,8.39169681 C1.82857381,11.915196 2.63545217,15.9709716 5.33245714,18.6675429 C9.01483938,22.3499251 14.9851606,22.3499251 18.6675429,18.6675429 C22.3499251,14.9851606 22.3499251,9.01483938 18.6675429,5.33245714 C16.9029535,3.5585977 14.5020598,2.56438799 12,2.57142857 Z M8.1192,10.7184 C7.74314302,10.718582 7.38243608,10.5692746 7.11652361,10.3033621 C6.85061114,10.0374496 6.70130369,9.67674269 6.70148571,9.30068571 C6.70148571,8.51770373 7.33621802,7.88297143 8.1192,7.88297143 C8.90218198,7.88297143 9.53691429,8.51770373 9.53691429,9.30068571 C9.53691429,10.0836677 8.90218198,10.7184 8.1192,10.7184 Z M15.8057143,10.7184 C15.4296573,10.718582 15.0689504,10.5692746 14.8030379,10.3033621 C14.5371254,10.0374496 14.387818,9.67674269 14.388,9.30068571 C14.388,8.51770373 15.0227323,7.88297143 15.8057143,7.88297143 C16.5886963,7.88297143 17.2234286,8.51770373 17.2234286,9.30068571 C17.2234286,10.0836677 16.5886963,10.7184 15.8057143,10.7184 Z M12,19.0086857 C8.99747471,19.005226 6.32121118,17.1148233 5.31428571,14.2861714 C5.15229271,13.829069 5.39152615,13.327193 5.84862857,13.1652 C6.30573099,13.003207 6.80760699,13.2424404 6.9696,13.6995429 C7.72554866,15.8291651 9.74053112,17.2520736 12.0003429,17.2520736 C14.2601546,17.2520736 16.275137,15.8291651 17.0310857,13.6995429 C17.2016174,13.2549156 17.6954872,13.027265 18.1443218,13.1863939 C18.5931564,13.3455227 18.8333367,13.833422 18.6857143,14.2861714 C17.6787888,17.1148233 15.0025253,19.005226 12,19.0086857 Z"/>
  </defs>
  <use fill="#222" fill-rule="evenodd" xlink:href="#smiley-1-a"/>
</svg>
