<svg xmlns="http://www.w3.org/2000/svg" xmlns:xlink="http://www.w3.org/1999/xlink" width="24" height="24" viewBox="0 0 24 24">
  <defs>
    <path id="smiley-3-a" d="M19.9097143,4.09062857 C15.5414891,-0.277786004 8.45904315,-0.277939506 4.09062857,4.09028571 C-0.277786004,8.45851094 -0.277939506,15.5409569 4.09028571,19.9093714 C6.91603196,22.7352402 11.0347122,23.8389329 14.8948594,22.8046992 C18.7550067,21.7704656 21.7701727,18.7554302 22.8045737,14.8953278 C23.8389747,11.0352254 22.7354605,6.91649731 19.9097143,4.09062857 L19.9097143,4.09062857 Z M18.6678857,18.6675429 C14.9854088,22.3504932 9.0145503,22.3508769 5.3316,18.6684 C1.6486497,14.9859231 1.64826594,9.01506459 5.33074286,5.33211429 C9.01321977,1.64916398 14.9840783,1.64878023 18.6670286,5.33125714 C22.3499789,9.01373406 22.3503626,14.9845926 18.6678857,18.6675429 Z M8.1576,7.99405714 C7.37461802,7.99405714 6.73988571,8.62878945 6.73988571,9.41177143 C6.73988571,10.1947534 7.37461802,10.8294857 8.1576,10.8294857 C8.94058198,10.8294857 9.57531429,10.1947534 9.57531429,9.41177143 C9.57512502,8.62886786 8.94050357,7.99424641 8.1576,7.99405714 Z M12.0603429,14.7401143 C11.0310103,14.7401143 10.1965714,15.5745532 10.1965714,16.6038857 C10.1965714,17.6332183 11.0310103,18.4676571 12.0603429,18.4676571 C13.0896754,18.4676571 13.9241143,17.6332183 13.9241143,16.6038857 C13.923925,15.5746316 13.089597,14.7403036 12.0603429,14.7401143 Z M15.8424,7.99405714 C15.0594627,7.99424649 14.4249024,8.62906261 14.4250286,9.41199994 C14.4251548,10.1949373 15.0599198,10.8295488 15.8428571,10.8294857 C16.6257945,10.8294226 17.2604571,10.1947088 17.2604571,9.41177143 C17.2604572,9.03571081 17.1110442,8.67505767 16.845097,8.40917481 C16.5791499,8.14329194 16.2184606,7.9939662 15.8424,7.99405714 Z"/>
  </defs>
  <use fill="#222" fill-rule="evenodd" xlink:href="#smiley-3-a"/>
</svg>
