<svg xmlns="http://www.w3.org/2000/svg" xmlns:xlink="http://www.w3.org/1999/xlink" width="24" height="24" viewBox="0 0 24 24">
  <defs>
    <path id="sms-a" d="M11.6647249,16.5611342 C11.4803555,16.561303 11.3034889,16.4881373 11.17312,16.3577685 C11.0427511,16.2273996 10.9695855,16.050533 10.9697543,15.8661636 L10.9697543,12.4812405 L10.7225265,12.4812405 C9.05050091,12.4787629 7.61671717,11.2871904 7.30836831,9.64384118 L2.95995607,9.64384118 C1.80850323,9.64471741 0.875284983,10.5779357 0.874408753,11.7293885 L0.874408753,17.8077595 C0.875459922,18.9589643 1.80843351,19.8919379 2.9596383,19.8929891 L7.87877169,19.8929891 C8.0523441,19.8929227 8.21961726,19.9580174 8.34748757,20.0753911 L11.639303,23.0878836 L11.639303,20.5879597 C11.639303,20.204138 11.9504519,19.8929891 12.3342736,19.8929891 L13.2764719,19.8929891 C14.4275317,19.8915883 15.3603007,18.9588193 15.3617015,17.8077595 L15.3617015,13.4224856 L12.1334408,16.3777789 C12.0056481,16.4953923 11.8384021,16.5608167 11.6647249,16.5611342 Z M4.82433305,15.6713685 C4.35569333,15.6713684 3.93320488,15.3890497 3.75389392,14.9560708 C3.57458297,14.5230918 3.6737663,14.0247315 4.00519007,13.6933986 C4.33661384,13.3620657 4.83500137,13.2630191 5.26793111,13.4424488 C5.70086085,13.6218786 5.98306368,14.0444444 5.98293514,14.5130841 C5.98293515,14.8203353 5.86085836,15.1149976 5.64356918,15.3322272 C5.42628,15.5494568 5.1315842,15.6714528 4.82433305,15.6713685 L4.82433305,15.6713685 Z M8.11805512,15.6713685 C7.6494154,15.6713684 7.22692695,15.3890497 7.04761599,14.9560708 C6.86830504,14.5230918 6.96748837,14.0247315 7.29891214,13.6933986 C7.63033591,13.3620657 8.12872344,13.2630191 8.56165318,13.4424488 C8.99458292,13.6218786 9.27678575,14.0444444 9.27665721,14.5130841 C9.27665726,14.8203904 9.15453684,15.1151009 8.93717892,15.3323396 C8.719821,15.5495783 8.42504355,15.6715371 8.11773735,15.6713685 L8.11805512,15.6713685 Z M21.0393602,0.843740334 C22.1900696,0.844614718 23.1229806,1.77667283 23.1249075,2.92738101 L23.1249075,9.00448095 C23.1238563,10.1556857 22.1908827,11.0886593 21.0396779,11.0897105 L16.1205445,11.0897105 C15.946978,11.0896751 15.7797157,11.1547656 15.6518287,11.2721125 L12.3600132,14.2855583 L12.3600132,11.78627 C12.3600133,11.6018972 12.2867497,11.4250806 12.1563487,11.2947392 C12.0259477,11.1643977 11.8490976,11.0912151 11.6647249,11.0912994 L10.7225265,11.0912994 C9.57134266,11.0900737 8.6383803,10.1572535 8.63697921,9.00606982 L8.63697921,2.92896988 C8.6383803,1.77778621 9.57134266,0.84496601 10.7225265,0.843740334 L21.0393602,0.843740334 Z M12.5865857,6.87094984 L12.5878568,6.86936097 C12.8953281,6.86978274 13.1903506,6.74793579 13.4079148,6.53066961 C13.625479,6.31340343 13.7477303,6.01854824 13.74773,5.71107665 C13.747027,5.07169557 13.2285085,4.55374755 12.589127,4.55374845 C11.9497455,4.55374935 11.4312284,5.07169882 11.4305272,5.71107991 C11.429826,6.350461 11.9472058,6.86954653 12.5865857,6.87094984 Z M15.8803078,6.87094984 L15.8815789,6.86936097 C16.5204134,6.86883557 17.0382091,6.35118204 17.0389099,5.71234775 C17.0389099,5.07246948 16.5201861,4.55374566 15.8803078,4.55374566 C15.2404295,4.55374566 14.7217057,5.07246948 14.7217057,5.71234775 C14.7217057,6.35222601 15.2404295,6.87094984 15.8803078,6.87094984 Z M19.1740299,6.87094984 L19.1749832,6.86936097 C19.8138176,6.86883557 20.3316133,6.35118204 20.3323142,5.71234775 C20.3323142,5.24370803 20.0499954,4.82121958 19.6170165,4.64190862 C19.1840375,4.46259767 18.6856772,4.561781 18.3543443,4.89320477 C18.0230115,5.22462854 17.9239649,5.72301606 18.1033946,6.1559458 C18.2828243,6.58887554 18.7053902,6.87107837 19.1740299,6.87094984 Z"/>
  </defs>
  <use fill="#222" fill-rule="evenodd" xlink:href="#sms-a"/>
</svg>
