<svg xmlns="http://www.w3.org/2000/svg" xmlns:xlink="http://www.w3.org/1999/xlink" width="24" height="24" viewBox="0 0 24 24">
  <defs>
    <path id="snapchat-ghost-a" d="M11.7723983,1.46324059 C10.8471536,1.46324059 7.7119583,1.71955487 6.23278429,5.03754314 C5.73524103,6.15347141 5.85442074,8.04923586 5.95021304,9.57110186 C5.96142618,9.75052185 5.97360045,9.93699049 5.98225059,10.1157697 C5.90568083,10.1580615 5.76599708,10.2118875 5.54589907,10.2118875 C5.25211467,10.2118875 4.90514793,10.119294 4.5146101,9.93602931 C4.40295657,9.88598454 4.28164965,9.86115302 4.1593136,9.86330013 C3.70181728,9.86330013 3.15429543,10.1644694 3.07003666,10.6130194 C3.00852455,10.9359754 3.15301393,11.4075936 4.19135115,11.8176965 C4.28490082,11.854862 4.39767302,11.8904256 4.51685273,11.928232 C4.94583562,12.064399 5.59459615,12.2704116 5.77048234,12.6849999 C5.86178938,12.8996631 5.82526656,13.1761621 5.66251577,13.5064871 C5.59523691,13.6618777 4.22242758,16.7911546 1.17469478,17.2932101 C0.940383362,17.3325491 0.773296201,17.5420407 0.787040338,17.7792461 C0.791433737,17.8512194 0.808233767,17.9218917 0.836698552,17.9881422 C1.06544671,18.5228779 2.03041793,18.9147183 3.78735756,19.1873726 C3.84598629,19.2668301 3.90717802,19.5474942 3.94434159,19.7182636 C3.98150515,19.889033 4.0189891,20.0607635 4.07249182,20.2443486 C4.12599454,20.4279337 4.26311528,20.6403542 4.61713029,20.6403542 C4.76001779,20.6403542 4.92853534,20.6083149 5.12364406,20.569227 C5.41646734,20.5118766 5.81725718,20.4337008 6.31896532,20.4337008 C6.60613032,20.4344184 6.89275504,20.4586354 7.17596997,20.5061096 C7.74271436,20.6006255 8.22455921,20.9412031 8.78233308,21.3352862 C9.58167013,21.9001388 10.4864107,22.5409245 11.8614627,22.5409245 C11.899267,22.5409245 11.9370713,22.5409245 11.9748756,22.5370798 C12.0194079,22.5390022 12.0773958,22.5409245 12.1392283,22.5409245 C13.5146006,22.5409245 14.4190209,21.9001388 15.2173968,21.3368882 C15.7764522,20.9421642 16.2576563,20.6015866 16.824721,20.5073911 C17.1078251,20.4598917 17.3943454,20.4356744 17.6814053,20.4349824 C18.0831469,20.4372964 18.4836247,20.4802339 18.8767266,20.5631395 C19.0432671,20.5998447 19.2128063,20.6212929 19.3832403,20.6272181 C19.6699765,20.6272181 19.8541924,20.4891288 19.9275584,20.2385815 C19.9804204,20.0588412 20.0185451,19.8893533 20.0557087,19.7179432 C20.0928722,19.546533 20.1537436,19.2693932 20.2123723,19.189295 C21.9696323,18.9163203 22.9355647,18.5251206 23.162711,17.9926277 C23.1916779,17.9260623 23.2087039,17.8549179 23.2130099,17.78245 C23.2263129,17.5453129 23.0587366,17.3362803 22.8243944,17.2976956 C19.77538,16.7949993 18.4032115,13.6663632 18.346505,13.5334001 C18.1731818,13.180968 18.1369794,12.904469 18.2282864,12.6898058 C18.4041726,12.2752175 19.0526128,12.0692049 19.4815956,11.9333583 C19.6017365,11.8952315 19.7145087,11.8593475 19.8070972,11.8228228 C20.5673485,11.5226147 20.9485954,11.1538425 20.940586,10.7270792 C20.9341785,10.3916279 20.672752,10.0927014 20.2578657,9.94435952 C20.109157,9.88469395 19.9503474,9.85423567 19.7901173,9.85464953 C19.6424354,9.85270822 19.4960508,9.88242371 19.3608141,9.94179638 C18.99911,10.1112842 18.6742492,10.2032369 18.394241,10.2157323 C18.2631558,10.2137437 18.1342697,10.1817397 18.0174793,10.1221776 C18.0261294,9.9677482 18.0360611,9.80851296 18.0466335,9.64158829 L18.050478,9.57750972 C18.1465906,8.05372136 18.2660907,6.15699573 17.7679067,5.04042668 C16.2868105,1.7182733 13.1448872,1.45907549 12.2170796,1.45907549 L11.7723983,1.46324059 Z"/>
  </defs>
  <use fill="#222" fill-rule="evenodd" xlink:href="#snapchat-ghost-a"/>
</svg>
