<?xml version="1.0" encoding="UTF-8"?>
<svg width="24px" height="24px" viewBox="0 0 24 24" version="1.1" xmlns="http://www.w3.org/2000/svg" xmlns:xlink="http://www.w3.org/1999/xlink">
    <!-- Generator: Sketch 57 (83077) - https://sketch.com -->
    <title>icons/action/sorter_inactive</title>
    <desc>Created with Sketch.</desc>
    <defs>
        <path d="M15.8690365,14.7989041 C16.2643705,14.7989041 16.5,14.9765092 16.5,15.2297334 C16.5,15.3192822 16.4701536,15.4187809 16.4078427,15.522757 L16.4078427,15.522757 L12.5131487,21.6966499 C12.2309169,22.0767348 11.7696067,22.0767348 11.4884222,21.6966499 L11.4884222,21.6966499 L7.59268094,15.522757 C7.5298464,15.4182834 7.5,15.3187847 7.5,15.2292359 C7.5,14.9760118 7.73510589,14.7989041 8.12991622,14.7989041 L8.12991622,14.7989041 Z M11.4868513,2.78506371 C11.7690831,2.40497876 12.2303933,2.40497876 12.5115778,2.78506371 L12.5115778,2.78506371 L16.4073191,8.95895662 C16.4701536,9.06343023 16.5,9.16292891 16.5,9.25247772 C16.5,9.50570185 16.2648941,9.6828095 15.8700838,9.6828095 L15.8700838,9.6828095 L8.13096346,9.6828095 C7.73562951,9.6828095 7.5,9.50520436 7.5,9.25198022 C7.5,9.16243141 7.5298464,9.06293274 7.59215732,8.95895662 L7.59215732,8.95895662 Z" id="path-1"></path>
    </defs>
    <g id="icons/action/sorter_inactive" stroke="none" stroke-width="1" fill="none" fill-rule="evenodd">
        <mask id="mask-2" fill="white">
            <use xlink:href="#path-1"></use>
        </mask>
        <use id="Combined-Shape" fill="#D0D0D0" xlink:href="#path-1"></use>
    </g>
</svg>