<svg xmlns="http://www.w3.org/2000/svg" xmlns:xlink="http://www.w3.org/1999/xlink" width="24" height="24" viewBox="0 0 24 24">
  <defs>
    <path id="sort-a" d="M2.59939666,9.24823524 C3.0002855,9.24823524 3.38475497,9.40748771 3.66822619,9.69095892 C3.9516974,9.97443014 4.11094987,10.3588996 4.11094987,10.7597884 C4.11094987,11.5945962 3.43420445,12.2713417 2.59939666,12.2713417 C1.76458888,12.2713417 1.08784345,11.5945962 1.08784345,10.7597884 C1.08784345,9.92498066 1.76458888,9.24823524 2.59939666,9.24823524 Z M2.59939666,5.3192748 C3.00031921,5.31916479 3.38485261,5.47838193 3.66834767,5.761877 C3.95184274,6.04537206 4.11105988,6.42990546 4.11094987,6.83082801 C4.11094987,7.66563579 3.43420445,8.34238122 2.59939666,8.34238122 C1.76458888,8.34238122 1.08784345,7.66563579 1.08784345,6.83082801 C1.08784345,5.99602022 1.76458888,5.3192748 2.59939666,5.3192748 Z M2.59939666,1.38741231 C3.00031921,1.3873023 3.38485261,1.54651945 3.66834767,1.83001451 C3.95184274,2.11350958 4.11105988,2.49804297 4.11094987,2.89896552 C4.11072091,3.73343636 3.43414396,4.40976583 2.59967309,4.40968951 C1.76520222,4.40961319 1.088749,3.73315996 1.08867267,2.8986891 C1.08859635,2.06421823 1.76492582,1.38764128 2.59939666,1.38741231 Z M22.8532147,6.83041343 C22.8532151,7.07127831 22.7574185,7.30225384 22.5869459,7.47241542 C22.4164732,7.642577 22.1853231,7.73795152 21.9444586,7.73751119 L20.9909281,7.73751119 C20.8779982,7.04984651 20.551331,6.41522439 20.0572973,5.92373025 L21.9465315,5.92373025 C22.447184,5.92395902 22.8529859,6.32976093 22.8532147,6.83041343 Z M21.9461169,11.6668862 L21.9444586,11.6668862 L21.0377754,11.6668862 L21.0377754,9.85310527 L21.9461169,9.85310527 C22.4394238,9.86365322 22.8338234,10.2665761 22.8338234,10.7599957 C22.8338234,11.2534153 22.4394238,11.6563383 21.9461169,11.6668862 Z M6.83141399,11.6668862 C6.33055221,11.6668862 5.92452352,11.2608575 5.92452352,10.7599957 C5.92452352,10.259134 6.33055221,9.85310527 6.83141399,9.85310527 L14.3887655,9.85310527 L14.3887655,11.6668862 L6.83141399,11.6668862 Z M6.83141399,7.73751119 C6.33809062,7.72742377 5.94331208,7.32485863 5.94286095,6.83143235 C5.94240982,6.33800607 6.33645158,5.93471972 6.82975567,5.92373025 L15.3700728,5.92373025 C14.8763427,6.41533652 14.5499717,7.04994691 14.4372711,7.73751119 L6.83141399,7.73751119 Z M6.83141399,3.80772159 C6.33810715,3.79717364 5.94370747,3.39425071 5.94370747,2.90083112 C5.94370747,2.40741153 6.33810715,2.0044886 6.83141399,1.99394065 L21.9461169,1.99394065 C22.4394238,2.0044886 22.8338234,2.40741153 22.8338234,2.90083112 C22.8338234,3.39425071 22.4394238,3.79717364 21.9461169,3.80772159 L6.83141399,3.80772159 Z M17.7140996,6.76864123 C18.5489074,6.76864123 19.2256528,7.44538666 19.2256528,8.28019444 L19.2256528,13.8828083 L22.1849141,13.8828083 C22.6409505,13.8828083 22.9124994,14.0988037 22.9124994,14.4060064 C22.908759,14.532239 22.8717157,14.6552398 22.8051236,14.7625439 L18.3073614,22.2664147 C18.1444321,22.4965058 17.9305096,22.6125877 17.7157579,22.6125877 C17.5010062,22.6125877 17.2870837,22.4969203 17.1241544,22.2664147 L12.627636,14.7625439 C12.5616429,14.6550444 12.5250444,14.5320963 12.5215039,14.4060064 C12.5215039,14.0988037 12.7930528,13.8828083 13.2490892,13.8828083 L16.2033755,13.8828083 L16.2033755,8.28019444 C16.2033755,7.44538666 16.880121,6.76864123 17.7149288,6.76864123 L17.7140996,6.76864123 Z"/>
  </defs>
  <use fill="#222" fill-rule="evenodd" xlink:href="#sort-a"/>
</svg>
