<svg xmlns="http://www.w3.org/2000/svg" xmlns:xlink="http://www.w3.org/1999/xlink" width="24" height="24" viewBox="0 0 24 24">
  <defs>
    <path id="spell-check-a" d="M12.7762211,5.11811941 C12.5102368,4.85314509 12.3605043,4.49329839 12.3600097,4.11785359 L12.3600097,1.15262976 L16.7184262,5.53206712 L13.7755168,5.53206712 C13.4005491,5.5328436 13.0408025,5.38382238 12.7762211,5.11811941 Z M15.1599778,20.9807248 C15.7226402,20.976043 16.268637,20.789165 16.7161624,20.4480905 L16.7161624,21.4325099 C16.7140304,22.2130308 16.0818231,22.8452381 15.3013021,22.8473702 L2.09604696,22.8473702 C1.31552603,22.8452381 0.683318742,22.2130308 0.681186644,21.4325099 L0.681186644,2.56749008 C0.683495413,1.78704263 1.31559951,1.15493853 2.09604696,1.15262976 L10.9445025,1.15262976 L10.9445025,4.11785359 C10.9445025,5.68023399 12.2108726,6.94689368 13.773253,6.94725083 L16.7161624,6.94725083 L16.7161624,13.160994 L15.159331,14.7181488 L13.5032168,13.0620346 C12.4900684,12.0491541 10.8476475,12.0493713 9.83476698,13.0625197 C8.8218865,14.0756681 8.82210367,15.718089 9.83525205,16.7309695 L13.3259954,20.2210661 C13.8135345,20.7057643 14.4725022,20.978717 15.1599778,20.9807248 Z M2.80363882,8.60983298 C2.41882925,8.61806102 2.11117332,8.93236561 2.11117332,9.31726314 C2.11117332,9.70216066 2.41882925,10.0164653 2.80363882,10.0246933 L14.5940337,10.0246933 C14.9788432,10.0164653 15.2864992,9.70216066 15.2864992,9.31726314 C15.2864992,8.93236561 14.9788432,8.61806102 14.5940337,8.60983298 L2.80363882,8.60983298 Z M6.97189817,17.470901 L6.97189817,17.472518 C7.36304757,17.472518 7.68013682,17.1554288 7.68013682,16.7642794 C7.68013682,16.37313 7.36304757,16.0560407 6.97189817,16.0560407 L2.80363882,16.0560407 C2.41882925,16.0642688 2.11117332,16.3785733 2.11117332,16.7634709 C2.11117332,17.1483684 2.41882925,17.462673 2.80363882,17.470901 L6.97189817,17.470901 Z M6.97189817,13.7473121 L6.97189817,13.7489291 C7.36304757,13.7489291 7.68013682,13.4318398 7.68013682,13.0406904 C7.68013682,12.649541 7.36304757,12.3324518 6.97189817,12.3324518 L2.80363882,12.3324518 C2.41882925,12.3406798 2.11117332,12.6549844 2.11117332,13.0398819 C2.11117332,13.4247794 2.41882925,13.739084 2.80363882,13.7473121 L6.97189817,13.7473121 Z M21.306131,10.5718804 C21.6039315,10.2740222 22.0380159,10.1576645 22.444869,10.2666381 C22.851722,10.3756118 23.169533,10.6933611 23.2785855,11.100193 C23.3876381,11.5070249 23.2713646,11.9411319 22.9735641,12.2389901 L15.9933709,19.2201535 C15.7723042,19.4412367 15.4724634,19.5654413 15.1598161,19.5654413 C14.8471688,19.5654413 14.547328,19.4412367 14.3262612,19.2201535 L10.8358413,15.7300569 C10.3754816,15.2696973 10.3754816,14.5233068 10.8358413,14.0629472 C11.2962009,13.6025876 12.0425913,13.6025876 12.502951,14.0629472 L15.1599778,16.7193272 L21.306131,10.5718804 Z"/>
  </defs>
  <use fill="#222" fill-rule="evenodd" xlink:href="#spell-check-a"/>
</svg>
