<svg xmlns="http://www.w3.org/2000/svg" xmlns:xlink="http://www.w3.org/1999/xlink" width="24" height="24" viewBox="0 0 24 24">
  <defs>
    <path id="star-xmas-a" d="M10.8573107,5.91471038 C11.7331801,5.91675331 12.4479317,5.21424059 12.4610152,4.33846653 C12.4610152,3.45660111 11.746122,2.74170793 10.8642566,2.74170793 C9.98239119,2.74170793 9.26749801,3.45660111 9.26749801,4.33846653 C9.26749801,5.20170153 9.9801838,5.91471038 10.8573107,5.91471038 Z M11.3370652,19.1546418 L15.2432682,21.2106402 L15.4077093,21.2519927 L15.6545324,21.142473 L15.7514525,20.9231105 L15.7514525,20.8410515 L14.996768,16.5096924 C14.9409135,16.1768272 15.0538367,15.8379366 15.2981895,15.6051048 L18.4642461,12.5211073 L18.5737658,12.288176 L18.4917068,12.0552447 L18.2723443,11.945725 L13.9009248,11.3015294 C13.5659316,11.2572106 13.2764147,11.0457014 13.1323484,10.740039 L11.7069769,7.87540396 C11.4276096,7.93544182 11.1430222,7.96790425 10.8573107,7.97232405 C10.5715991,7.96790425 10.2870118,7.93544182 10.0076445,7.87540396 L8.59584174,10.740039 C8.44496945,11.0414605 8.15743983,11.260823 7.82823457,11.3018525 L3.4558459,11.945725 L3.23648342,12.0552447 L3.1544244,12.288176 L3.2513445,12.5211073 L6.4312929,15.6051048 C6.66636204,15.8432632 6.77335177,16.1794824 6.71914559,16.5096924 L5.97802991,20.8407285 L5.96413803,20.882081 L5.96413803,20.9234336 L6.06105812,21.1427961 L6.3078813,21.2523158 L6.48589122,21.2109632 L10.3785254,19.1549649 C10.6802633,19.004354 11.0352258,19.0042344 11.3370652,19.1546418 L11.3370652,19.1546418 Z M1.82500373,14.0010772 C1.35399761,13.5570623 1.09048698,12.9360724 1.09842607,12.2888221 C1.0947587,11.09298 1.97108783,10.0764712 3.1544244,9.9039416 L6.99246026,9.3411589 L8.23982191,6.84675866 C7.5771841,6.18066655 7.20724009,5.27801246 7.21182275,4.33846653 C7.21139405,3.37146196 7.59532315,2.44393554 8.27906841,1.76012968 C8.96281367,1.07632383 9.89030607,0.69231253 10.8573107,0.692655534 C12.8719564,0.692655534 14.5031217,2.32382077 14.5170136,4.33846653 C14.5089722,5.27551379 14.1409056,6.17358699 13.4890144,6.84675866 L14.7224842,9.3411589 L18.560197,9.90297239 C19.1905007,9.99989249 19.7251765,10.3139136 20.0815194,10.7526386 C20.4366332,11.1853321 20.6307286,11.7277715 20.6307333,12.2875299 C20.6307333,12.8906959 20.3839101,13.5209996 19.9041556,13.9997849 L17.1215796,16.6999788 L17.7777287,20.4966621 C17.8000695,20.6371115 17.8092629,20.7793384 17.8051894,20.9214952 C17.8059054,21.5636274 17.5432849,22.1779654 17.0786117,22.6211506 C16.6323863,23.0589455 16.0328306,23.3051668 15.4077093,23.3073449 C15.0214911,23.3027287 14.641573,23.2088549 14.2976511,23.0330611 L10.8573107,21.2238859 L7.43086217,23.0330611 C7.08212477,23.2089456 6.69778882,23.3027642 6.30723517,23.3073449 C5.68232913,23.303122 5.083219,23.0576211 4.63504042,22.6221198 C4.17043088,22.1788905 3.90782266,21.5645811 3.90846276,20.9224644 C3.91009757,20.7795815 3.92415003,20.6371111 3.95046147,20.4966621 L3.95046147,20.4553095 L3.96435335,20.4553095 L4.60854893,16.6999788 L1.82500373,14.0010772 Z"/>
  </defs>
  <use fill="#222" fill-rule="evenodd" xlink:href="#star-xmas-a"/>
</svg>
