<svg xmlns="http://www.w3.org/2000/svg" xmlns:xlink="http://www.w3.org/1999/xlink" width="24" height="24" viewBox="0 0 24 24">
  <defs>
    <path id="statistics-a" d="M21.0342857,1.74857143 L21.0342857,20.5001143 L16.0340571,20.5001143 L16.0340571,1.74857143 C16.034814,1.05871957 16.594262,0.499885299 17.2841143,0.499885714 L19.7828571,0.499885714 C20.1144208,0.499430782 20.4325751,0.630754687 20.6672833,0.86494843 C20.9019915,1.09914217 21.0340131,1.41700762 21.0342857,1.74857143 Z M14.5340571,9.24994286 L14.5340571,20.5001143 L9.53417143,20.5001143 L9.53417143,9.24994286 C9.53408045,8.91837921 9.66575331,8.60036942 9.90020422,8.36591851 C10.1346551,8.13146759 10.4526649,7.99979474 10.7842286,7.99988571 L13.284,7.99988571 C13.6155636,7.99979474 13.9335734,8.13146759 14.1680244,8.36591851 C14.4024753,8.60036942 14.5341481,8.91837921 14.5340571,9.24994286 Z M8.03417143,16.7499429 L8.03417143,20.5001143 L3.03428571,20.5001143 L3.03428571,16.7499429 C3.03428551,16.4181693 3.16617583,16.1000044 3.40090371,15.8655337 C3.6356316,15.6310631 3.95394097,15.4995217 4.28571429,15.4998857 L6.78411429,15.4998857 C7.47450178,15.4998857 8.03417143,16.0595554 8.03417143,16.7499429 Z M22.7156571,22.0001143 C22.987429,21.9943032 23.2410807,22.1359679 23.3786718,22.3704084 C23.5162629,22.604849 23.5162629,22.8953796 23.3786718,23.1298202 C23.2410807,23.3642607 22.987429,23.5059253 22.7156571,23.5001143 L1.28434286,23.5001143 C0.870129295,23.5001143 0.534342857,23.1643278 0.534342857,22.7501143 C0.534342857,22.3359007 0.870129295,22.0001143 1.28434286,22.0001143 L22.7156571,22.0001143 Z"/>
  </defs>
  <use fill="#222" fill-rule="evenodd" xlink:href="#statistics-a"/>
</svg>
