<svg xmlns="http://www.w3.org/2000/svg" xmlns:xlink="http://www.w3.org/1999/xlink" width="24" height="24" viewBox="0 0 24 24">
  <defs>
    <path id="store-a" d="M22.3980952,2.06845714 L0.935238095,2.06845714 C0.733314809,2.06809299 0.53953705,2.14805156 0.396626919,2.29070443 C0.253716788,2.4333573 0.173409195,2.62699067 0.173409524,2.82891429 L0.173409524,21.1717714 C0.173591166,21.3735762 0.253979059,21.5670333 0.396869429,21.7095378 C0.539759799,21.8520424 0.733433571,21.9319069 0.935238095,21.9315429 L22.3980952,21.9315429 C22.8180841,21.9315429 23.1585524,21.5910746 23.1585524,21.1710857 L23.1585524,2.82822857 C23.1581739,2.4085075 22.8178165,2.06845697 22.3980952,2.06845714 L22.3980952,2.06845714 Z M21.1980952,3.58937143 C21.4400906,3.58937143 21.6362667,3.78554746 21.6362667,4.02754286 L21.6362667,6.78857143 C21.6362667,6.90478172 21.5901023,7.01623233 21.5079292,7.09840542 C21.4257561,7.1805785 21.3143055,7.22674286 21.1980952,7.22674286 L20.3944381,7.22674286 C20.2782278,7.22674286 20.1667772,7.1805785 20.0846041,7.09840542 C20.002431,7.01623233 19.9562667,6.90478172 19.9562667,6.78857143 L19.9562667,4.02754286 C19.9562667,3.78554746 20.1524427,3.58937143 20.3944381,3.58937143 L21.2008381,3.58937143 L21.1980952,3.58937143 Z M17.9944381,3.58937143 C18.2364335,3.58937143 18.4326095,3.78554746 18.4326095,4.02754286 L18.4326095,6.78857143 C18.4326095,6.90478172 18.3864452,7.01623233 18.3042721,7.09840542 C18.222099,7.1805785 18.1106484,7.22674286 17.9944381,7.22674286 L17.3522667,7.22674286 C17.1104052,7.22655361 16.914438,7.030433 16.9144381,6.78857143 L16.9144381,4.02754286 C16.9144381,3.78554746 17.1106141,3.58937143 17.3526095,3.58937143 L17.9975238,3.58937143 L17.9944381,3.58937143 Z M14.9522667,3.58937143 C15.1942621,3.58937143 15.3904381,3.78554746 15.3904381,4.02754286 L15.3904381,6.78857143 C15.3904381,6.90478172 15.3442737,7.01623233 15.2621007,7.09840542 C15.1799276,7.1805785 15.068477,7.22674286 14.9522667,7.22674286 L14.3104381,7.22674286 C14.1942278,7.22674286 14.0827772,7.1805785 14.0006041,7.09840542 C13.918431,7.01623233 13.8722667,6.90478172 13.8722667,6.78857143 L13.8722667,4.02754286 C13.8722667,3.78554746 14.0684427,3.58937143 14.3104381,3.58937143 L14.9553524,3.58937143 L14.9522667,3.58937143 Z M11.9100952,3.58937143 C12.0270167,3.58827353 12.1395272,3.63395275 12.2225923,3.71624513 C12.3056574,3.79853751 12.3523861,3.9106162 12.352381,4.02754286 L12.352381,6.78857143 C12.352381,6.90478172 12.3062166,7.01623233 12.2240435,7.09840542 C12.1418704,7.1805785 12.0304198,7.22674286 11.9142095,7.22674286 L11.2682667,7.22674286 C11.0264052,7.22655361 10.830438,7.030433 10.8304381,6.78857143 L10.8304381,4.02754286 C10.8304381,3.78554746 11.0266141,3.58937143 11.2686095,3.58937143 L11.9135238,3.58937143 L11.9100952,3.58937143 Z M8.86792381,3.58937143 C9.10991921,3.58937143 9.30609524,3.78554746 9.30609524,4.02754286 L9.30609524,6.78857143 C9.30609524,6.90478172 9.25993088,7.01623233 9.1777578,7.09840542 C9.09558472,7.1805785 8.9841341,7.22674286 8.86792381,7.22674286 L8.2264381,7.22674286 C8.11022781,7.22674286 7.99877719,7.1805785 7.91660411,7.09840542 C7.83443102,7.01623233 7.78826667,6.90478172 7.78826667,6.78857143 L7.78826667,4.02754286 C7.78826667,3.78554746 7.9844427,3.58937143 8.2264381,3.58937143 L8.87135238,3.58937143 L8.86792381,3.58937143 Z M5.82575238,3.58937143 C6.06774778,3.58937143 6.26392381,3.78554746 6.26392381,4.02754286 L6.26392381,6.78857143 C6.26392381,6.90478172 6.21775945,7.01623233 6.13558637,7.09840542 C6.05341329,7.1805785 5.94196267,7.22674286 5.82575238,7.22674286 L5.18426667,7.22674286 C5.06805638,7.22674286 4.95660576,7.1805785 4.87443268,7.09840542 C4.7922596,7.01623233 4.74609524,6.90478172 4.74609524,6.78857143 L4.74609524,4.02754286 C4.74609524,3.78554746 4.94227127,3.58937143 5.18426667,3.58937143 L5.82918095,3.58937143 L5.82575238,3.58937143 Z M1.69432381,4.02754286 C1.69451306,3.78568136 1.89063367,3.58971421 2.13249524,3.58971429 L2.78666667,3.58971429 C2.90287695,3.58971429 3.01432757,3.63587864 3.09650066,3.71805173 C3.17867374,3.80022481 3.2248381,3.91167543 3.2248381,4.02788571 L3.2248381,6.78857143 C3.22492907,6.90484111 3.17880488,7.01637983 3.09662194,7.09862708 C3.01443899,7.18087433 2.90293638,7.22708575 2.78666667,7.22708571 L2.13249524,7.22708571 C2.01622552,7.22708575 1.90472291,7.18087433 1.82253997,7.09862708 C1.74035702,7.01637983 1.69423283,6.90484111 1.69432381,6.78857143 L1.69432381,4.02754286 Z M8.77329524,19.7787429 C8.77329524,20.1275343 8.49054387,20.4102857 8.14175238,20.4102857 L4.03775238,20.4102857 C3.68903927,20.4100966 3.40639868,20.127456 3.40620952,19.7787429 L3.40620952,11.5289143 C3.40620952,11.1801228 3.68896089,10.8973714 4.03775238,10.8973714 L8.14140952,10.8973714 C8.30893299,10.8972804 8.46962128,10.9637885 8.58807827,11.0822455 C8.70653527,11.2007025 8.7730434,11.3613908 8.77295238,11.5289143 L8.77295238,19.7787429 L8.77329524,19.7787429 Z M19.8348952,15.9524571 C19.8348952,16.2834493 19.5665731,16.5517714 19.235581,16.5517714 L12.2625524,16.5517714 C11.9315602,16.5517714 11.6632381,16.2834493 11.6632381,15.9524571 L11.6632381,11.4953143 C11.6632381,11.1643221 11.9315602,10.896 12.2625524,10.896 L19.2359238,10.896 C19.5669159,10.896 19.8352381,11.1643221 19.8352381,11.4953143 L19.8352381,15.9524571 L19.8348952,15.9524571 Z"/>
  </defs>
  <use fill="#222" fill-rule="evenodd" xlink:href="#store-a"/>
</svg>
