<svg xmlns="http://www.w3.org/2000/svg" xmlns:xlink="http://www.w3.org/1999/xlink" width="24" height="24" viewBox="0 0 24 24">
  <defs>
    <path id="stream-a" d="M22.7499429,19.7485714 C22.7450475,21.4033937 21.4047651,22.743676 19.7499429,22.7485714 L4.25142857,22.7485714 C2.59607075,22.744429 1.25495618,21.4039272 1.25005714,19.7485714 L1.25005714,4.25142857 C1.25420302,2.59553722 2.59553722,1.25420302 4.25142857,1.25005714 L19.7485714,1.25005714 C21.4033937,1.25495254 22.743676,2.59523488 22.7485714,4.25005714 L22.7485714,19.7485714 L22.7499429,19.7485714 Z M17.8333714,6.16662857 C14.6105143,2.94377143 9.38742857,2.94377143 6.16525714,6.16662857 C2.94308571,9.38948571 2.94445714,14.6115429 6.16525714,17.8337143 C9.38605714,21.0558857 14.6112,21.0565714 17.8333714,17.8337143 C21.0555429,14.6108571 21.0552,9.38811429 17.8333714,6.16662857 Z M16.0114286,11.5117714 L9.80571429,7.79142857 C9.40525714,7.56205714 9.07817143,7.79382857 9.07817143,8.30571429 L9.07817143,15.6949714 C9.07817143,16.2058286 9.40525714,16.4376 9.80571429,16.2092571 L16.0114286,12.4899429 C16.3926857,12.2208 16.3926857,11.7802286 16.0114286,11.5117714 Z"/>
  </defs>
  <use fill="#222" fill-rule="evenodd" xlink:href="#stream-a"/>
</svg>
