<svg xmlns="http://www.w3.org/2000/svg" xmlns:xlink="http://www.w3.org/1999/xlink" width="24" height="24" viewBox="0 0 24 24">
  <defs>
    <path id="subscription-a" d="M15.5481524,0.167580952 L4.6672381,0.167580952 C3.83974907,0.169841349 3.16949849,0.840091923 3.1672381,1.66758095 L3.1672381,21.6657524 C3.16949849,22.4932414 3.83974907,23.163492 4.6672381,23.1657524 L18.6660952,23.1657524 C19.4935843,23.163492 20.1638348,22.4932414 20.1660952,21.6657524 L20.1660952,4.80952381 L15.5481524,0.167580952 Z M7.16700952,19.9161524 C7.16700952,20.3303659 6.83122309,20.6661524 6.41700952,20.6661524 C6.00279596,20.6661524 5.66700952,20.3303659 5.66700952,19.9161524 L5.66700952,18.8152381 C5.66700952,18.4010245 6.00279596,18.0652381 6.41700952,18.0652381 C6.83122309,18.0652381 7.16700952,18.4010245 7.16700952,18.8152381 L7.16700952,19.9158095 L7.16700952,19.9161524 Z M7.16700952,16.1910095 C7.16738823,16.6053178 6.83183205,16.941488 6.41752381,16.9418667 C6.00321557,16.9422454 5.66704538,16.6066892 5.66666667,16.192381 L5.66666667,15.0918095 C5.66666667,14.677596 6.0024531,14.3418095 6.41666667,14.3418095 C6.83088023,14.3418095 7.16666667,14.677596 7.16666667,15.0918095 L7.16666667,16.192381 L7.16700952,16.1910095 Z M7.16700952,12.4658667 C7.16700952,12.8800802 6.83122309,13.2158667 6.41700952,13.2158667 C6.00279596,13.2158667 5.66700952,12.8800802 5.66700952,12.4658667 L5.66700952,11.3649524 C5.66700952,10.9507388 6.00279596,10.6149524 6.41700952,10.6149524 C6.83122309,10.6149524 7.16700952,10.9507388 7.16700952,11.3649524 L7.16700952,12.4655238 L7.16700952,12.4658667 Z M10.355581,20.6663238 L9.04175238,20.6663238 C8.62753882,20.6663238 8.29175238,20.3305374 8.29175238,19.9163238 C8.29175238,19.5021102 8.62753882,19.1663238 9.04175238,19.1663238 L10.3542095,19.1663238 C10.7683284,19.1663238 11.1040381,19.5020335 11.1040381,19.9161524 C11.1040381,20.3302713 10.7683284,20.665981 10.3542095,20.665981 L10.355581,20.6663238 Z M10.355581,12.1154667 L9.04175238,12.1154667 C8.62753882,12.1154667 8.29175238,11.7796802 8.29175238,11.3654667 C8.29175238,10.9512531 8.62753882,10.6154667 9.04175238,10.6154667 L10.3542095,10.6154667 C10.7619872,10.6241878 11.0880052,10.9572529 11.0880052,11.3651238 C11.0880052,11.7729947 10.7619872,12.1060598 10.3542095,12.114781 L10.355581,12.1154667 Z M14.2926095,20.6663238 L12.9791238,20.6663238 C12.5649102,20.6663238 12.2291238,20.3305374 12.2291238,19.9163238 C12.2291238,19.5021102 12.5649102,19.1663238 12.9791238,19.1663238 L14.291581,19.1663238 C14.7056998,19.1663238 15.0414095,19.5020335 15.0414095,19.9161524 C15.0414095,20.3302713 14.7056998,20.665981 14.291581,20.665981 L14.2926095,20.6663238 Z M14.2926095,12.1154667 L12.9791238,12.1154667 C12.5649102,12.1154667 12.2291238,11.7796802 12.2291238,11.3654667 C12.2291238,10.9512531 12.5649102,10.6154667 12.9791238,10.6154667 L14.291581,10.6154667 C14.6993586,10.6241878 15.0253766,10.9572529 15.0253766,11.3651238 C15.0253766,11.7729947 14.6993586,12.1060598 14.291581,12.114781 L14.2926095,12.1154667 Z M17.6666667,19.9158095 C17.6666667,20.3300231 17.3308802,20.6658095 16.9166667,20.6658095 C16.5024531,20.6658095 16.1666667,20.3300231 16.1666667,19.9158095 L16.1666667,18.8152381 C16.1666667,18.4010245 16.5024531,18.0652381 16.9166667,18.0652381 C17.3308802,18.0652381 17.6666667,18.4010245 17.6666667,18.8152381 L17.6666667,19.9158095 Z M17.6666667,16.192381 C17.6666667,16.6065945 17.3308802,16.942381 16.9166667,16.942381 C16.5024531,16.942381 16.1666667,16.6065945 16.1666667,16.192381 L16.1666667,15.0918095 C16.1666667,14.677596 16.5024531,14.3418095 16.9166667,14.3418095 C17.3308802,14.3418095 17.6666667,14.677596 17.6666667,15.0918095 L17.6666667,16.192381 Z M17.6666667,12.4672381 C17.6666667,12.8814517 17.3308802,13.2172381 16.9166667,13.2172381 C16.5024531,13.2172381 16.1666667,12.8814517 16.1666667,12.4672381 L16.1666667,11.3649524 C16.1666667,10.9507388 16.5024531,10.6149524 16.9166667,10.6149524 C17.3308802,10.6149524 17.6666667,10.9507388 17.6666667,11.3649524 L17.6666667,12.4655238 L17.6666667,12.4672381 Z"/>
  </defs>
  <use fill="#222" fill-rule="evenodd" xlink:href="#subscription-a"/>
</svg>
