<svg xmlns="http://www.w3.org/2000/svg" xmlns:xlink="http://www.w3.org/1999/xlink" width="24" height="24" viewBox="0 0 24 24">
  <defs>
    <path id="summary-a" d="M22.4208,9.98725714 L22.4208,2.66177143 C22.4181622,1.64716705 21.5963187,0.825323511 20.5817143,0.822685714 L3.41828571,0.822685714 C2.40381473,0.825322656 1.58202608,1.64695809 1.5792,2.66142857 L1.5792,2.66142857 L1.5792,21.3382286 C1.5818378,22.3528329 2.40368134,23.1746765 3.41828571,23.1773143 L20.5817143,23.1773143 C21.5961853,23.1746773 22.4179739,22.3530419 22.4208,21.3385714 L22.4208,21.3385714 L22.4208,14.0127429 L22.4208,14.0127429 L22.4208,9.98725714 L22.4208,9.98725714 Z M9.26194286,16.0973143 L6.31337143,19.0458857 C6.18213699,19.1836717 6.00016827,19.2616543 5.80988571,19.2616543 C5.61960316,19.2616543 5.43763444,19.1836717 5.3064,19.0458857 L3.79577143,17.6058857 C3.59969982,17.4296469 3.5170401,17.1595032 3.58092069,16.9037231 C3.64480128,16.647943 3.84476815,16.4483848 4.1006784,16.3850276 C4.35658865,16.3216704 4.62656266,16.4048826 4.8024,16.6013143 L5.80937143,17.6082857 L8.25497143,15.0906857 C8.53477488,14.8237234 8.97650101,14.8288722 9.25000584,15.1022839 C9.52351067,15.3756956 9.52880988,15.8174199 9.26194286,16.0973143 L9.26194286,16.0973143 Z M9.26194286,10.7449714 L6.31337143,13.6935429 C6.18213699,13.8313288 6.00016827,13.9093114 5.80988571,13.9093114 C5.61960316,13.9093114 5.43763444,13.8313288 5.3064,13.6935429 L3.79577143,12.2535429 C3.6114295,12.0745773 3.53778382,11.8101884 3.60305611,11.5616927 C3.6683284,11.3131969 3.86239686,11.1191284 4.11089265,11.0538561 C4.35938845,10.9885838 4.62377726,11.0622295 4.80274286,11.2465714 L5.80971429,12.2535429 L8.25531429,9.73594286 C8.53404451,9.45797007 8.98534147,9.45858408 9.26331427,9.7373143 C9.54128707,10.0160445 9.54067307,10.4673415 9.26194286,10.7453143 L9.26194286,10.7449714 Z M9.26194286,5.55754286 L6.31337143,8.50611429 C6.18213699,8.64390025 6.00016827,8.72188286 5.80988571,8.72188286 C5.61960316,8.72188286 5.43763444,8.64390025 5.3064,8.50611429 L3.79577143,7.06611429 C3.6114295,6.88714869 3.53778382,6.62275987 3.60305611,6.37426408 C3.6683284,6.12576828 3.86239686,5.93169983 4.11089265,5.86642754 C4.35938845,5.80115525 4.62377726,5.87480093 4.80274286,6.05914286 L5.80937143,7.06988571 L8.25497143,4.55228571 C8.5356366,4.29273944 8.97115906,4.30110085 9.24165524,4.57122863 C9.51215143,4.84135642 9.52110638,5.27686708 9.26194286,5.55788571 L9.26194286,5.55754286 Z M19.7221714,19.2622286 L12.5873143,19.2622286 C12.2076812,19.2503694 11.9060705,18.9391897 11.9060705,18.5593714 C11.9060705,18.1795532 12.2076812,17.8683735 12.5873143,17.8565143 L19.6368,17.862 C20.0074996,17.8631829 20.3135519,18.1520657 20.3361116,18.52208 C20.3586712,18.8920944 20.0899815,19.216019 19.7221714,19.2622286 Z M19.7221714,13.9098857 L12.5873143,13.9098857 C12.2076812,13.8980265 11.9060705,13.5868468 11.9060705,13.2070286 C11.9060705,12.8272103 12.2076812,12.5160306 12.5873143,12.5041714 L19.6368,12.5096571 C20.0074996,12.5108401 20.3135519,12.7997228 20.3361116,13.1697372 C20.3586712,13.5397515 20.0899815,13.8636761 19.7221714,13.9098857 Z M19.7221714,8.72245714 L12.5873143,8.72245714 C12.2076812,8.71059795 11.9060705,8.39941826 11.9060705,8.0196 C11.9060705,7.63978174 12.2076812,7.32860205 12.5873143,7.31674286 L19.6368,7.32222857 C20.0074996,7.3234115 20.3135519,7.61229426 20.3361116,7.98230862 C20.3586712,8.35232297 20.0899815,8.67624755 19.7221714,8.72245714 L19.7221714,8.72245714 Z"/>
  </defs>
  <use fill="#222" fill-rule="evenodd" xlink:href="#summary-a"/>
</svg>
