<svg xmlns="http://www.w3.org/2000/svg" xmlns:xlink="http://www.w3.org/1999/xlink" width="24" height="24" viewBox="0 0 24 24">
  <defs>
    <path id="switch-a" d="M19.886174,19.886541 C15.5315186,24.2422635 8.4677426,24.2415521 4.11379866,19.886541 C-0.240145286,15.5315299 -0.241923858,8.46810957 4.11379866,4.11345419 C8.46952117,-0.24120118 15.5322301,-0.242268323 19.8868855,4.11345419 C24.2415408,8.46917671 24.2422523,15.5308185 19.886174,19.886541 Z M10.8972718,11.3757189 L10.8972718,9.35561693 L18.3292122,9.35561693 C19.0372139,9.34389198 19.6050215,8.7666032 19.6050215,8.05850446 C19.6050215,7.35040572 19.0372139,6.77311695 18.3292122,6.761392 L10.8972718,6.761392 L10.8972718,4.74662578 C10.8972718,4.35533997 10.7108774,4.12234705 10.4483602,4.12234705 C10.3401069,4.12464958 10.2344575,4.15597587 10.1424459,4.21305422 L4.7434131,7.55356791 C4.34679157,7.83280369 4.34679157,8.28954095 4.7434131,8.56877673 L10.1442244,11.908579 C10.2361965,11.9655931 10.3416171,11.9972561 10.4497831,12.0003533 C10.7119446,11.9999976 10.8972718,11.7670047 10.8972718,11.3757189 Z M13.1027009,12.6239206 L13.1027009,14.6440225 L5.67111619,14.6440225 C4.96311453,14.6557475 4.39530686,15.2330363 4.39530686,15.941135 C4.39530686,16.6492337 4.96311453,17.2265225 5.67111619,17.2382475 L13.1027009,17.2382475 L13.1027009,19.2533694 C13.1027009,19.6446552 13.2890952,19.8776481 13.5516124,19.8776481 C13.6598657,19.8753456 13.7655152,19.8440193 13.8575268,19.786941 L19.2565596,16.4464273 C19.6538925,16.1671915 19.6538925,15.7104542 19.2565596,15.4312184 L13.8571711,12.0917719 C13.7654202,12.0348467 13.6602523,12.0031859 13.5523239,11.9999976 C13.2876724,11.9999976 13.1027009,12.2329905 13.1027009,12.6242763 L13.1027009,12.6239206 Z"/>
  </defs>
  <use fill="#222" fill-rule="evenodd" xlink:href="#switch-a"/>
</svg>
