<svg xmlns="http://www.w3.org/2000/svg" xmlns:xlink="http://www.w3.org/1999/xlink" width="24" height="24" viewBox="0 0 24 24">
  <defs>
    <path id="sync-a" d="M22.2675429,13.7485714 C22.5833214,13.8509917 22.8453916,14.0748126 22.9959603,14.3706758 C23.1465289,14.666539 23.1732287,15.0101431 23.0701714,15.3257143 C22.5464388,16.9371927 21.6481672,18.4015692 20.4490286,19.5987429 C16.2502974,23.7959311 9.44444549,23.7959311 5.24571429,19.5987429 L3.51805714,21.3267429 C3.156,21.6881143 2.76102857,21.6226286 2.64,21.1769143 L0.8808,14.1596571 C0.801257143,13.6985143 1.11257143,13.3872 1.57268571,13.4681143 L8.59234286,15.2238857 C9.03668571,15.3476571 9.10354286,15.7405714 8.74285714,16.1019429 L7.01245714,17.8296 C9.04184022,19.8582733 11.9793604,20.6871065 14.7698276,20.0183735 C17.5602948,19.3496405 19.803045,17.27936 20.6924571,14.5512 C20.9057815,13.8946262 21.6109569,13.5352845 22.2675429,13.7485714 Z M1.73177143,10.2459429 C1.07515215,10.0324662 0.715836825,9.32718902 0.929142857,8.67051429 C1.45333913,7.05891243 2.35194248,5.59445215 3.55131429,4.39714286 C7.7497711,0.199615368 14.5558289,0.199615368 18.7542857,4.39714286 L20.4819429,2.66914286 C20.8457143,2.30777143 21.2389714,2.37325714 21.36,2.81897143 L23.1185143,9.83588571 C23.1977143,10.2970286 22.8860571,10.6083429 22.4262857,10.5274286 L15.4076571,8.772 C14.9633143,8.64822857 14.8968,8.25531429 15.2571429,7.89394286 L16.9865143,6.16525714 C13.7641601,2.94390474 8.54075418,2.94390474 5.3184,6.16525714 C4.39800361,7.08342573 3.7086063,8.20688367 3.30685714,9.44331429 C3.09337705,10.0997551 2.38834133,10.4590256 1.73177143,10.2459429 Z"/>
  </defs>
  <use fill="#222" fill-rule="evenodd" xlink:href="#sync-a"/>
</svg>
