<svg xmlns="http://www.w3.org/2000/svg" xmlns:xlink="http://www.w3.org/1999/xlink" width="24" height="24" viewBox="0 0 24 24">
  <defs>
    <path id="tags-a" d="M4.37366916,5.8700422 C3.54915984,5.86981603 2.88090404,5.20131577 2.88097943,4.37680642 C2.88105482,3.55229708 3.54943286,2.88391904 4.37394221,2.88384365 C5.19845155,2.88376826 5.86695181,3.55202406 5.86717798,4.37653337 C5.86728665,4.77266985 5.70997017,5.1526128 5.42985938,5.43272359 C5.14974858,5.71283439 4.76980563,5.87015087 4.37366916,5.8700422 L4.37366916,5.8700422 Z M22.4595819,13.1758271 C22.3933188,13.0746691 22.3167386,12.9806593 22.2310714,12.8953079 L11.5623321,2.22656865 C10.8661531,1.5303896 9.48853761,0.935361271 8.50364901,0.905057006 L2.64100235,0.905057006 C2.1750524,0.88649706 1.72255574,1.06355186 1.39293478,1.39340615 C1.06331382,1.72326045 0.886579263,2.17588228 0.905468926,2.64181898 L0.905468926,8.5036466 C0.936182708,9.48976376 1.530392,10.8649221 2.22779961,11.5619202 L12.8969483,22.231069 C12.982777,22.3160425 13.0765786,22.3925649 13.177058,22.4595795 C14.3470484,23.3740312 16.0465443,23.3048228 17.1194791,22.2322975 L22.2318904,17.1190671 C23.3052347,16.0440848 23.372805,14.3445889 22.4595819,13.1758271 L22.4595819,13.1758271 Z"/>
  </defs>
  <use fill="#222" fill-rule="evenodd" xlink:href="#tags-a"/>
</svg>
