<svg xmlns="http://www.w3.org/2000/svg" width="63" height="24" viewBox="0 0 63 24">
  <path fill="#222" fill-rule="evenodd" d="M1.50095535,13.6862652 C1.75092355,13.9807028 2.03370387,14.2791876 2.34640539,14.5795926 C2.03122889,14.276852 1.74652516,13.9763527 1.4951268,13.6798711 C1.44478264,13.6244474 1.39693832,13.5667029 1.35164627,13.5066129 C1.04185414,12.588782 0.869091929,11.7124984 0.869091929,10.9291693 C0.869091929,4.83327582 9.76575573,0.0556001558 17.0146894,0.0556001558 C19.4599067,0.0556001558 21.7404522,0.796623618 22.8676202,2.74335874 C23.5541183,5.3143975 19.6177524,9.19345686 13.9653101,11.9196445 C8.22755149,14.6869966 3.2933017,15.6455988 1.50095535,13.6862652 Z M28.7626039,8.96886599 C28.4531488,8.96886599 28.144368,8.73669043 27.8359242,8.27419336 C27.6334132,7.95319275 27.5330426,7.70964018 27.5330426,7.54336708 C27.5330426,7.25734029 27.7197101,6.99364616 28.0943091,6.75000931 C28.468571,6.50637246 28.8751943,6.38459618 29.3152744,6.38459618 L36.605671,6.38459618 C37.0688423,6.38459618 37.3009336,6.59856849 37.3009336,7.02583893 C37.3009336,7.51370255 37.1702242,7.95917622 36.9085527,8.36310269 C36.6467969,8.76669207 36.3621185,8.96886599 36.0532533,8.96886599 L33.6824502,8.96886599 L33.6824502,17.026074 C33.6824502,17.5132634 33.5514037,17.959327 33.2903221,18.3625793 C33.0289877,18.7675171 32.7432137,18.9692696 32.43477,18.9692696 C32.1253149,18.9692696 31.8165341,18.7378525 31.5077532,18.27367 C31.3056636,17.9527536 31.2048716,17.7094539 31.2048716,17.5428437 L31.2048716,8.96886599 L28.7626039,8.96886599 Z M40.082068,11.6428879 C39.5109415,11.6428879 39.023752,11.8064642 38.6201627,12.1326898 C38.2162362,12.4599267 37.9667001,12.8965516 37.8715545,13.4429858 L42.0784407,13.4429858 C42.0540854,12.9323681 41.8522486,12.5043392 41.4719189,12.1596576 C41.0917578,11.8147231 40.6282494,11.6428879 40.082068,11.6428879 Z M37.8715545,15.2433366 C38.0021796,15.8023277 38.2869423,16.2506667 38.7271067,16.5897862 C39.1665969,16.9281473 39.6952492,17.0971172 40.313148,17.0971172 C40.8365754,17.0971172 41.4597834,16.9189614 42.1847105,16.5627342 C42.5178466,16.3958712 42.8267117,16.3132824 43.1120643,16.3132824 C43.4923098,16.3132824 43.682601,16.4853704 43.682601,16.8300521 C43.682601,17.1395914 43.614086,17.4358997 43.4774775,17.7209995 C43.3408689,18.0070263 43.165747,18.2144252 42.9517747,18.3447974 C42.5478483,18.5946706 42.098498,18.7882485 41.605915,18.9241829 C41.1124893,19.0604544 40.6226031,19.1295592 40.1354136,19.1295592 C39.2795244,19.1295592 38.4976279,18.9034514 37.791494,18.4517415 C37.0836746,18.0004529 36.5345436,17.4177807 36.1421627,16.7049891 C35.750456,15.9922818 35.5539284,15.231791 35.5539284,14.4236852 C35.5539284,13.5203496 35.7679007,12.7035636 36.1958454,11.9727373 C36.62379,11.241911 37.1817698,10.6773578 37.8715545,10.2789934 C38.5602437,9.88105045 39.3150881,9.6815733 40.1354136,9.6815733 C40.9313839,9.6815733 41.6473779,9.86916778 42.2828057,10.2431769 C42.9188235,10.618113 43.4087097,11.1138984 43.7539813,11.7324714 C44.0983259,12.3496117 44.2708353,13.0271767 44.2708353,13.7636493 C44.2708353,14.1441476 44.1724029,14.4862167 43.9765496,14.7890984 C43.7806962,15.0918957 43.5634372,15.2433366 43.3260367,15.2433366 L37.8715545,15.2433366 Z M47.5680652,18.9692696 C47.0331766,18.9692696 46.5696682,18.7579098 46.1778772,18.3362015 C45.7854963,17.9148302 45.589643,17.4177807 45.589643,16.8481711 L45.589643,7.38240327 C45.589643,7.12132165 45.770664,6.8717856 46.1334647,6.63345803 C46.4955911,6.39614175 46.8846853,6.27765215 47.3004102,6.27765215 C47.7405746,6.27765215 47.9605304,6.4794047 47.9605304,6.88333117 L47.9605304,16.0811911 C47.9605304,16.2359187 47.9927231,16.3642683 48.0586256,16.464639 C48.1234325,16.565431 48.2396467,16.6516435 48.4059198,16.7231081 C48.5958739,16.806371 48.6912724,16.9726441 48.6912724,17.2219274 C48.6912724,17.6616704 48.5721086,18.0629844 48.3347923,18.4251108 C48.0964647,18.7882485 47.8412823,18.9692696 47.5680652,18.9692696 Z M51.1685139,18.9692696 C50.8952968,18.9692696 50.5983143,18.7431618 50.277398,18.2917889 C50.0871068,17.982671 49.9922982,17.7512539 49.9922982,17.5965264 L49.9922982,10.9472882 C49.9922982,10.6865437 50.1733193,10.4370077 50.5357828,10.1986801 C50.8985835,9.96136381 51.2870035,9.84287421 51.7034868,9.84287421 C52.1428928,9.84287421 52.3628485,10.0446268 52.3628485,10.4485532 L52.3628485,17.0971172 C52.3628485,17.4177807 52.3003171,17.7272358 52.175844,18.024471 C52.050781,18.3214535 51.8967277,18.5535448 51.7126727,18.7197336 C51.5282807,18.8860067 51.3472596,18.9692696 51.1685139,18.9692696 Z M51.1685139,8.7014638 C50.8597331,8.7014638 50.5387324,8.45850114 50.2062705,7.97063752 C49.9800785,7.62604012 49.8674881,7.3590593 49.8674881,7.16843096 C49.8674881,6.8717856 50.069662,6.5919951 50.4732514,6.33057638 C50.8771778,6.06957904 51.3116958,5.93853258 51.7752042,5.93853258 C52.2739392,5.93853258 52.5238124,6.16438757 52.5238124,6.61601326 C52.5238124,6.97224051 52.4550446,7.3145625 52.3183517,7.64045102 C52.1817432,7.96802502 52.0095709,8.22649414 51.8015821,8.4161112 C51.5931718,8.60665527 51.3824862,8.7014638 51.1685139,8.7014638 Z M58.2628886,16.7586718 C58.7977773,16.7586718 59.2971865,16.6098435 59.7606948,16.3132824 L59.7606948,12.2666859 C59.3205305,12.0171498 58.8274418,11.8920868 58.2809233,11.8920868 C57.6036955,11.8920868 57.0358556,12.1208071 56.5789206,12.5784163 C56.1213115,13.0361097 55.8925911,13.6098488 55.8925911,14.298538 C55.8925911,14.9882384 56.1213115,15.5709106 56.5789206,16.0452903 C57.0358556,16.5209342 57.5971221,16.7586718 58.2628886,16.7586718 Z M58.1031047,18.9692696 C57.2472154,18.9692696 56.4713024,18.7552973 55.7767141,18.3273527 C55.0811144,17.899408 54.5405794,17.3381415 54.1544348,16.6424576 C53.7682059,15.9478693 53.5749651,15.189991 53.5749651,14.3703396 C53.5749651,13.4903479 53.7948366,12.6887313 54.234411,11.9638885 C54.6739012,11.2386243 55.2446907,10.6773578 55.9461896,10.2789934 C56.6470985,9.88105045 57.4012687,9.6815733 58.209543,9.6815733 C58.8991592,9.6815733 59.5704036,9.87245447 60.2242032,10.2526999 C60.6396753,9.97948277 61.0554001,9.84287421 61.4718835,9.84287421 C61.9113737,9.84287421 62.1309081,10.0446268 62.1309081,10.4485532 L62.1309081,17.0971172 C62.1309081,17.4177807 62.0690508,17.7272358 61.9442406,18.024471 C61.8191776,18.3214535 61.6651243,18.5535448 61.4807322,18.7197336 C61.2964245,18.8860067 61.1153191,18.9692696 60.9369105,18.9692696 C60.6636934,18.9692696 60.3663739,18.7431618 60.0461317,18.2917889 C59.9269679,18.1018348 59.8436207,17.9349718 59.7962586,17.7930539 C59.7007759,18.0541356 59.5730161,18.2802434 59.4127265,18.4698604 C59.252774,18.6604888 59.0835513,18.7849618 58.9048056,18.8442066 C58.6556066,18.9271325 58.3879516,18.9692696 58.1031047,18.9692696 Z M16.6094146,17.8289548 C11.3956197,20.853389 7.32812311,21.6385721 4.86141588,19.4453348 C3.80023455,18.2000986 2.8674029,16.8114275 2.17087624,15.4356504 C4.17677189,17.6315845 8.67238164,16.8568513 14.6641964,13.9779587 C19.6314048,11.5914806 23.3860754,7.93819194 23.5667594,5.03367998 C23.5917046,5.28523861 23.6046828,5.54775289 23.6046828,5.82181275 C23.6046828,7.78573982 23.3645012,9.64676804 22.944057,11.3752329 C21.9222317,13.7778917 19.7066617,16.0322278 16.6094146,17.8289548 Z M13.4881493,20.559609 C18.4370702,18.5592754 21.1057828,15.7172949 22.3498393,13.4030398 C20.1430338,19.8113379 15.4787913,23.9443998 12.0721734,23.9443998 C10.1271237,23.9443998 7.9090255,22.5792413 5.9625432,20.6378155 L5.98049361,20.6524792 C7.23786539,21.6579552 9.51343864,22.171691 13.4879807,20.559609 L13.4881493,20.559609 Z M5.90481534,20.5800033 C5.54639696,20.2195624 5.19750158,19.8395698 4.86141588,19.4453348 C5.1977544,19.8399069 5.54631269,20.2193938 5.90481534,20.5800033 Z M22.9471567,11.402401 C22.9481567,11.398301 22.9488567,11.395601 22.9498567,11.391601 C22.9489567,11.395201 22.9480567,11.398801 22.9471567,11.402401 Z"/>
</svg>
