<svg xmlns="http://www.w3.org/2000/svg" xmlns:xlink="http://www.w3.org/1999/xlink" width="24" height="24" viewBox="0 0 24 24">
  <defs>
    <path id="temperature-a" d="M14.7448338,13.0025045 L14.747247,3.68403261 C14.7434899,2.26198273 13.5916247,1.11011754 12.1695748,1.10636045 C11.4870561,1.10489935 10.8322573,1.37626002 10.3508459,1.86007517 C9.87211257,2.34700306 9.60177923,3.00119821 9.59713123,3.68403261 L11.7915109,3.68403261 C12.1886732,3.68403261 12.5106368,4.00599623 12.5106368,4.4031585 C12.5106368,4.80032076 12.1886732,5.12228438 11.7915109,5.12228438 L9.59672904,5.12228438 L9.59672904,6.94342646 L11.7911087,6.94342646 C12.188271,6.94342646 12.5102346,7.26539008 12.5102346,7.66255234 C12.5102346,8.05971461 12.188271,8.38167823 11.7911087,8.38167823 L9.59672904,8.38167823 L9.59672904,10.2028203 L11.7911087,10.2028203 C12.188271,10.2028203 12.5102346,10.5247839 12.5102346,10.9219462 C12.5102346,11.3191085 12.188271,11.6410721 11.7911087,11.6410721 L9.59672904,11.6410721 L9.59672904,12.9980803 C7.40111772,14.1757902 6.28699928,16.6951959 6.89311965,19.1118729 C7.49924001,21.5285499 9.670467,23.2239668 12.1619936,23.226108 C14.6535202,23.2282491 16.827658,21.5365665 17.4379312,19.1209348 C18.0482043,16.7053032 16.9384177,14.1839863 14.7448338,13.0025045 Z M14.9724766,20.5963613 C14.1930213,21.3758165 13.2576482,21.7655441 12.1663573,21.7655441 C11.8044747,21.7701047 11.4437218,21.7242153 11.0945058,21.6291998 C10.7656005,21.5402663 10.4507246,21.4058416 10.1589986,21.2298195 C9.86683372,21.0535751 9.59840352,20.8406962 9.36023797,20.5963613 C9.11874066,20.3556483 8.90615089,20.0875828 8.72677977,19.7976006 C8.55075762,19.5058747 8.41633293,19.1909987 8.32739945,18.8620934 C8.23713949,18.5119492 8.19133102,18.1518325 8.19105511,17.7902419 C8.18603707,17.0913639 8.37122319,16.4042845 8.72677977,15.8025909 C9.0757655,15.2002095 9.57632481,14.6996502 10.1787062,14.3506644 C10.7794834,13.9930246 11.4672303,13.807937 12.1663573,13.8157442 C12.8652353,13.8107261 13.5523148,13.9959122 14.1540084,14.3514688 C14.7563898,14.7004545 15.2569491,15.2010139 15.6059348,15.8033952 C15.9626658,16.4045938 16.1479416,17.0920061 16.1416595,17.7910463 C16.1416595,18.881801 15.7519318,19.816906 14.9724766,20.5963613 Z M13.4964184,15.4888782 C13.0938143,15.2508598 12.6340454,15.126846 12.1663573,15.1301197 C11.698451,15.1251416 11.2382318,15.2492769 10.8362961,15.4888782 C10.4333307,15.7223575 10.0984728,16.0572154 9.86499356,16.4601808 C9.62695635,16.862777 9.50294105,17.3225512 9.50623501,17.7902419 C9.50645033,18.0321646 9.53712436,18.2730976 9.59753343,18.5073569 C9.65712502,18.7273939 9.74714747,18.9380329 9.86499356,19.1331733 C9.98504793,19.3272132 10.1273128,19.5065965 10.2889078,19.6676914 C10.4483788,19.8306378 10.6280041,19.972554 10.8234259,20.0899969 C11.0185663,20.207843 11.2292053,20.2978654 11.4492424,20.357457 C11.6827266,20.4221359 11.9240881,20.4539474 12.1663573,20.451973 C12.8964765,20.451973 13.522293,20.1912161 14.0438067,19.6697024 C14.5653205,19.1481886 14.8260774,18.5223722 14.8260774,17.7922529 C14.8302075,17.3244548 14.7061328,16.8644603 14.4673188,16.4621918 C14.2342141,16.0585509 13.8994793,15.7229842 13.4964184,15.4888782 Z"/>
  </defs>
  <use fill="#222" fill-rule="evenodd" xlink:href="#temperature-a"/>
</svg>
