<svg xmlns="http://www.w3.org/2000/svg" xmlns:xlink="http://www.w3.org/1999/xlink" width="24" height="24" viewBox="0 0 24 24">
  <defs>
    <path id="time-a" d="M11.9999915,5.02642491 C13.850653,5.02132422 15.6264798,5.75662851 16.9318254,7.06851517 C19.6504798,9.78752381 19.6504798,14.2117575 16.9318254,16.9307662 C15.6240392,18.2389087 13.8500866,18.9738454 12.0003457,18.9738454 C10.1506048,18.9738454 8.37665217,18.2389087 7.06886598,16.9307662 C4.34879467,14.2114033 4.34879467,9.78752381 7.06780331,7.06922362 C8.37291672,5.75668842 10.1490347,5.02106126 11.9999915,5.02642491 L11.9999915,5.02642491 Z M19.8541575,4.14653728 C15.5162478,-0.190445832 8.48408934,-0.190445832 4.14617965,4.14653728 C-0.189852763,8.48398658 -0.189852763,15.5152948 4.14617965,19.8527441 C6.22901883,21.9360683 9.05424615,23.1065085 12.0001686,23.1065085 C14.946091,23.1065085 17.7713183,21.9360683 19.8541575,19.8527441 C24.1905442,15.5152948 24.1905442,8.48398658 19.8534491,4.14653728 L19.8541575,4.14653728 Z M18.0274343,18.026375 C16.4289467,19.6252566 14.2606958,20.5235321 11.9998144,20.5235321 C9.73893292,20.5235321 7.57068201,19.6252566 5.97219444,18.026375 C2.64852872,14.7041262 2.64852872,9.2962178 5.971486,5.97361474 C9.30053241,2.64485462 14.6976794,2.64485462 18.0267258,5.97361474 C21.3514542,9.2962178 21.3514542,14.7030635 18.0274343,18.026375 Z M15.6158904,11.2253112 L12.7750294,11.2253112 L12.7750294,8.38409595 C12.7660171,7.96260722 12.4217537,7.62562622 12.0001686,7.62562622 C11.5785835,7.62562622 11.2343201,7.96260722 11.2253078,8.38409595 L11.2253078,11.9999949 C11.2253078,12.4278982 11.5720882,12.7748372 11.9999915,12.7750328 L15.6158904,12.7750328 C15.8966708,12.7810365 16.1587305,12.634676 16.3008825,12.3924643 C16.4430345,12.1502525 16.4430345,11.8500915 16.3008825,11.6078797 C16.1587305,11.365668 15.8966708,11.2193075 15.6158904,11.2253112 L15.6158904,11.2253112 Z"/>
  </defs>
  <use fill="#222" fill-rule="evenodd" xlink:href="#time-a"/>
</svg>
