<svg xmlns="http://www.w3.org/2000/svg" xmlns:xlink="http://www.w3.org/1999/xlink" width="24" height="24" viewBox="0 0 24 24">
  <defs>
    <path id="trade-a" d="M22.2889801,3.26782105 L14.0063175,3.26782105 C13.5210919,3.26918433 13.1280777,3.66219855 13.1267144,4.14742408 L13.1267144,5.63647394 L13.1837947,5.71588994 C13.2901554,5.8665676 13.3947434,6.01547259 13.4858591,6.15055068 C13.7057705,6.10173997 13.9356336,6.12665738 14.1399774,6.22145782 L14.1399774,4.48884194 C14.1397734,4.42314819 14.192354,4.36946222 14.2580378,4.36829981 L22.0333598,4.36829981 C22.0650762,4.36811102 22.0955583,4.38057815 22.118052,4.40293873 C22.1405457,4.4252993 22.1531935,4.45570691 22.1531929,4.4874238 L22.1531929,17.6176528 C22.1535711,17.6493689 22.141285,17.6799262 22.1190572,17.7025532 C22.0968295,17.7251802 22.0664958,17.7380084 22.034778,17.7381949 L15.3326355,17.7381949 C14.7199978,18.8698728 14.4626049,19.1063481 14.2690284,19.2364627 C14.1034602,19.3470778 13.8333041,19.4732925 13.1245872,19.601989 L13.1245872,20.1859093 C13.1259547,20.6719634 13.5202614,21.0653188 14.0063175,21.0655123 L22.2889801,21.0655123 C22.7741707,21.0643414 23.1670944,20.6711007 23.167874,20.1859093 L23.167874,4.14742408 C23.1670944,3.66223268 22.7741707,3.26899192 22.2889801,3.26782105 L22.2889801,3.26782105 Z M18.1334673,20.1579009 C17.715816,20.1579009 17.3772427,19.8193276 17.3772427,19.4016763 C17.3772427,18.984025 17.715816,18.6454517 18.1334673,18.6454517 C18.5511187,18.6454517 18.889692,18.984025 18.889692,19.4016763 C18.8897861,19.6022684 18.8101428,19.7946718 18.6683028,19.9365118 C18.5264628,20.0783518 18.3340594,20.157995 18.1334673,20.1579009 Z M3.64607578,18.6057437 C2.80901703,17.4531482 3.61594024,15.8605739 3.75527277,15.6056628 L8.16711479,15.6155898 L8.16711479,19.1740644 C7.97460192,19.1900185 7.21944091,19.2353991 6.51604212,19.2353991 C4.93764927,19.2353991 3.94494936,19.0173596 3.64607578,18.6057437 Z M4.55262351,9.89551109 L5.57794071,12.661953 C5.62311498,12.7560879 5.60453776,12.8684302 5.53146413,12.9430113 C5.4583905,13.0175924 5.34645097,13.0384595 5.25141334,12.9952166 L4.78838974,12.7605139 L4.75293617,12.8101489 C4.49128884,13.1731935 3.95664903,14.0403877 3.48298936,14.8692922 C2.90722341,15.875819 2.75193679,16.6320436 2.71116518,16.9883519 C1.99996661,15.826184 0.829998855,13.7932764 0.832126069,13.317844 C0.832126069,12.8023491 1.79433591,11.0676061 1.80355384,11.0488157 L1.83900741,10.987481 C1.83900741,10.987481 1.67414831,10.8903382 1.45398166,10.7687325 L1.44228198,10.7556147 C1.36051649,10.6900297 1.32877229,10.5801457 1.36296674,10.4810613 C1.3971612,10.3819769 1.48992035,10.3150594 1.59473232,10.3138632 L4.55262351,9.89551109 Z M5.67472895,5.05999892 C7.08790818,4.88202201 8.09478951,6.35689045 8.25078521,6.60045646 L6.18951476,10.3333627 L3.06960076,8.6188281 C3.14830768,8.44156026 3.40038255,7.88742099 3.73931866,7.27159251 C4.50050677,5.88819428 5.1695156,5.12346081 5.67472895,5.05999892 Z M13.9290287,7.25741108 L12.8714488,10.0504432 L9.95574731,9.61684604 C9.8510949,9.61144701 9.76111158,9.54089649 9.73089784,9.44055504 C9.70068409,9.3402136 9.7367519,9.2317079 9.82102375,9.16942201 L10.2503665,8.87693007 L10.2241308,8.82233158 C10.0309089,8.41886997 9.52711367,7.53253077 9.03076371,6.7170987 C8.42663491,5.72936229 7.83846021,5.22804884 7.54525921,5.02029093 C8.90561262,4.95682904 11.2505116,4.91144847 11.6653184,5.14189667 C12.1166423,5.39113525 13.1749313,7.0698617 13.1859219,7.08652488 L13.2213755,7.14573234 C13.2213755,7.14573234 13.3855255,7.04858956 13.5982469,6.913866 L13.6156191,6.91102972 C13.7124465,6.87116068 13.8238796,6.89635625 13.8941358,6.97400371 C13.9643921,7.05165117 13.9783525,7.16504102 13.9290287,7.25741108 Z M16.649381,13.3075625 C16.1640216,14.6484164 14.3913432,14.8689376 14.1023966,14.8965914 L11.7231077,11.3583253 L14.67249,9.36689839 C14.7944503,9.51757605 15.1713217,9.99513562 15.5648563,10.5776377 C16.4487138,11.8848108 16.8227489,12.8289393 16.649381,13.3075625 Z M10.7782701,19.6473696 L8.77656163,17.4308125 L10.4939325,15.0348603 C10.5454593,14.9431623 10.6495129,14.8942829 10.7529869,14.9131691 C10.8564608,14.9320553 10.9365373,15.0145423 10.9523471,15.1185308 L11.0172271,15.6333166 L11.0778527,15.6354438 C11.5259858,15.6478525 12.6909901,15.6056628 13.6429184,15.5347556 C14.7997683,15.448958 15.5127396,15.1529207 15.8318217,14.9880616 C15.2670464,16.2268093 14.2367657,18.3334603 13.842522,18.598653 C13.4145974,18.8851178 11.2905741,19.0623857 11.2700111,19.0623857 L11.1991039,19.0687673 C11.1991039,19.0687673 11.2125763,19.2598621 11.2345575,19.5105188 L11.2303031,19.527182 C11.2217694,19.6318834 11.1482396,19.7198706 11.0467181,19.7468634 C10.9451967,19.7738562 10.8376773,19.7340067 10.7782701,19.6473696 Z"/>
  </defs>
  <use fill="#222" fill-rule="evenodd" xlink:href="#trade-a"/>
</svg>
