<svg xmlns="http://www.w3.org/2000/svg" xmlns:xlink="http://www.w3.org/1999/xlink" width="24" height="24" viewBox="0 0 24 24">
  <defs>
    <path id="trash-empty-a" d="M5.20606398,4.43584762 C4.73319084,4.43609261 4.29609965,4.19805944 4.05943844,3.8114129 C3.82277722,3.42476636 3.82250045,2.94824726 4.05871239,2.56135574 C4.29492432,2.17446422 4.73173874,1.9359783 5.20461188,1.93573333 L9.70612449,1.93573333 C9.70612449,1.24534584 10.2987159,0.68567619 11.0297144,0.68567619 L13.6754421,0.68567619 C14.4064407,0.68567619 14.999032,1.24534584 14.999032,1.93573333 L19.5005447,1.93573333 C20.2315432,1.93573333 20.8241346,2.49540298 20.8241346,3.18579048 C20.8241346,3.87617797 20.2315432,4.43584762 19.5005447,4.43584762 L5.20606398,4.43584762 Z M19.6363161,5.9423619 C19.9856163,5.97625648 20.306317,6.13991969 20.5277581,6.39729161 C20.7491992,6.65466353 20.8532101,6.98462522 20.8168741,7.31447619 L19.2286388,21.8591619 C19.1595265,22.4965941 18.5907667,22.9811658 17.9123094,22.9806476 L6.7946623,22.9806476 C6.11619533,22.981024 5.54741767,22.4965707 5.47796986,21.8591619 L3.88973457,7.31379048 C3.82504696,6.63256581 4.35205092,6.02872249 5.0724319,5.95865096 C5.79281289,5.88857943 6.43907017,6.37829953 6.52275642,7.05767619 L7.98865222,20.4801905 L16.7179564,20.4801905 L18.1842152,7.05767619 C18.2201126,6.72788828 18.3932867,6.42508563 18.6656241,6.21591161 C18.9379615,6.00673759 19.2871424,5.90833529 19.6363161,5.9423619 Z"/>
  </defs>
  <use fill="#222" fill-rule="evenodd" xlink:href="#trash-empty-a"/>
</svg>
