<svg xmlns="http://www.w3.org/2000/svg" xmlns:xlink="http://www.w3.org/1999/xlink" width="24" height="24" viewBox="0 0 24 24">
  <defs>
    <path id="trash-full-a" d="M5.08350476,4.43584762 C4.39311728,4.43632099 3.83306389,3.87703511 3.8325905,3.18664762 C3.83211712,2.49626013 4.39140299,1.93620673 5.08179048,1.93573333 L9.33321905,1.93573333 C9.33321905,1.24534584 9.89288869,0.68567619 10.5832762,0.68567619 L13.082019,0.68567619 C13.7724065,0.68567619 14.3320762,1.24534584 14.3320762,1.93573333 L18.5835048,1.93573333 C19.2738923,1.93573333 19.8335619,2.49540298 19.8335619,3.18579048 C19.8335619,3.87617797 19.2738923,4.43584762 18.5835048,4.43584762 L5.08350476,4.43584762 Z M18.7117333,5.9423619 C19.0415622,5.97625917 19.34439,6.13987368 19.5535192,6.3971694 C19.7626483,6.65446512 19.8609253,6.98433789 19.8267048,7.31413333 L18.3267048,21.858819 C18.2614321,22.4962513 17.72427,22.980823 17.0835048,22.9803048 L6.58350476,22.9803048 C5.9427304,22.9806811 5.4055515,22.4962278 5.3399619,21.858819 L3.8399619,7.31379048 C3.78837451,6.86655676 3.98125691,6.42612983 4.34492677,6.16075559 C4.70859664,5.89538136 5.18687126,5.84605702 5.59704665,6.03162479 C6.00722205,6.21719257 6.28593095,6.60898442 6.32670476,7.05733333 L6.43230476,8.0807619 L17.2347048,8.0807619 L17.3403048,7.05767619 C17.3742078,6.72788828 17.5377612,6.42508563 17.7949687,6.21591161 C18.0521762,6.00673759 18.3819582,5.90833529 18.7117333,5.9423619 Z"/>
  </defs>
  <use fill="#222" fill-rule="evenodd" xlink:href="#trash-full-a"/>
</svg>
