<svg xmlns="http://www.w3.org/2000/svg" xmlns:xlink="http://www.w3.org/1999/xlink" width="24" height="24" viewBox="0 0 24 24">
  <defs>
    <path id="travel-a" d="M15.7432902,1.13711856 L8.72425406,1.13711856 C7.3759356,1.13711856 6.27496789,2.21349799 6.27496789,3.55924753 L6.27496789,22.8628814 L18.2021181,22.8628814 L18.2021181,3.55924753 C18.2021181,2.21349799 17.0894068,1.13711856 15.7432902,1.13711856 Z M13.6257623,10.4953441 L10.910042,10.4953441 C10.4766277,10.4953441 10.125052,10.3415756 10.125052,9.90816134 C10.125052,9.47474705 10.4766277,9.32097856 10.910042,9.32097856 L13.6257623,9.32097856 C14.0591766,9.32097856 14.4107523,9.47474705 14.4107523,9.90816134 C14.4107523,10.3415756 14.0591766,10.4953441 13.6257623,10.4953441 Z M16.5506665,6.7520539 L7.92641946,6.7520539 L7.92641946,3.55924753 C7.92641946,3.07005088 8.23469042,2.78857013 8.72425406,2.78857013 L15.7432902,2.78857013 C16.2324869,2.78857013 16.5506665,3.07078485 16.5506665,3.55924753 L16.5506665,6.7520539 Z M0.916925017,9.8347635 C0.916925017,8.13223 2.29710112,6.7520539 3.99963462,6.7520539 L4.66021524,6.7520539 L4.66021524,22.8628814 L3.99963462,22.8628814 C2.29570358,22.8628814 0.916925017,21.4708913 0.916925017,19.7662263 L0.916925017,9.8347635 Z M20.0003654,6.7520539 C21.7028989,6.7520539 23.083075,8.13223 23.083075,9.8347635 L23.083075,19.7662263 C23.083075,21.4708913 21.7050304,22.8628814 20.0003654,22.8628814 L19.8168708,22.8628814 L19.8168708,6.7520539 L20.0003654,6.7520539 Z"/>
  </defs>
  <use fill="#222" fill-rule="evenodd" xlink:href="#travel-a"/>
</svg>
