<svg xmlns="http://www.w3.org/2000/svg" xmlns:xlink="http://www.w3.org/1999/xlink" width="24" height="24" viewBox="0 0 24 24">
  <defs>
    <path id="travel-abroad-a" d="M19.3127816,19.3976537 L17.5514353,9.40244502 L20.5189299,6.43371763 C21.3993668,5.54745491 22.0363147,4.44907363 22.3682202,3.24471922 L22.8424604,1.35433356 L22.8424604,1.35433356 C22.872871,1.17639073 22.828488,1.02968037 22.7323249,0.933106318 C22.6361618,0.836532268 22.4857529,0.791327393 22.3110977,0.821737945 L22.3110977,0.821737945 L20.4223558,1.29762199 C19.2179021,1.62900479 18.1195283,2.26603046 17.2337684,3.1469123 C14.8740739,5.50660675 14.2654519,6.11481779 14.2654519,6.11481779 L4.26942132,4.3534715 C4.26942132,4.3534715 3.18532624,4.1541591 2.71272983,4.62675551 C2.24013341,5.09935193 1.63110047,5.70715201 1.63110047,5.70715201 C1.63110047,5.70715201 1.09110769,6.315774 2.07082061,6.82371241 C3.05053352,7.33165082 9.63852754,10.7413312 9.63852754,10.7413312 L6.25843579,15.0682596 C6.25843579,15.0682596 5.85241383,15.7446889 5.21009366,15.6435944 L1.80205708,15.5203083 C1.55577372,15.5536588 1.32716293,15.6666653 1.15110689,15.8420849 C0.701310426,16.2925865 0.701310426,17.0222463 1.15110689,17.472748 C1.2262915,17.5448397 1.31072909,17.6066132 1.40219942,17.6564441 C1.4044122,17.6597848 1.40688563,17.6629453 1.40959658,17.6658961 C1.40959658,17.6658961 4.02284928,18.9920427 4.35079009,19.3199835 C4.67873091,19.6479243 6.00364468,22.2603551 6.00364468,22.2603551 L6.01350757,22.2685742 C6.06335981,22.3598014 6.12498225,22.4440833 6.19679278,22.5192558 C6.50399382,22.8295657 6.96070095,22.9386093 7.37495385,22.800554 C7.78920675,22.6624988 8.08919193,22.3012775 8.14882145,21.8687165 L8.02348066,18.4578033 C7.92279708,17.8175379 8.59881543,17.4115159 8.59881543,17.4115159 L12.924511,14.0310132 C12.924511,14.0310132 16.3378899,20.6198291 16.8433626,21.599542 C17.3488353,22.579255 17.9566354,22.0363855 17.9566354,22.0363855 C17.9566354,22.0363855 18.5664902,21.4285854 19.0403195,20.955989 C19.5141488,20.4833926 19.3127816,19.3976537 19.3127816,19.3976537 Z"/>
  </defs>
  <use fill="#222" fill-rule="evenodd" xlink:href="#travel-abroad-a"/>
</svg>
