<svg xmlns="http://www.w3.org/2000/svg" xmlns:xlink="http://www.w3.org/1999/xlink" width="24" height="24" viewBox="0 0 24 24">
  <defs>
    <path id="tv-ppv-a" d="M23.3278529,5.00745366 L23.3278529,17.7431605 C23.3262679,18.4895002 22.7212138,19.0939109 21.9748728,19.094702 L17.7990485,19.094702 L17.7990485,19.6222995 C17.7988521,20.0197612 17.4772209,20.3421965 17.0797609,20.3433853 L6.67310736,20.3433853 C6.27572942,20.3419995 5.95421331,20.0196796 5.95381973,19.6222995 L5.95381973,19.094702 L2.35846049,19.094702 C1.61211952,19.0939109 1.00706546,18.4895002 1.00548045,17.7431605 L1.00548045,5.00745366 C1.00726331,4.26125443 1.61225955,3.65706228 2.35846049,3.65627184 L21.9748728,3.65627184 C22.7210738,3.65706228 23.32607,4.26125443 23.3278529,5.00745366 Z M20.4578952,5.95259761 L3.87363989,5.95259761 C3.82477712,5.9525001 3.7779033,5.97194161 3.7434535,6.00659405 C3.70900371,6.04124649 3.68983746,6.08823353 3.69022154,6.13709489 L3.69022154,16.6171157 C3.6916033,16.7185321 3.77473656,16.7997357 3.8761574,16.7987358 L20.4600531,16.7987358 C20.5087942,16.7985454 20.5554632,16.7790003 20.5897935,16.7444003 C20.6241237,16.7098003 20.6433029,16.6629796 20.6431118,16.6142386 L20.6431118,6.13421774 C20.6427321,6.08560421 20.6230307,6.03913827 20.5883525,6.00506721 C20.5536742,5.97099615 20.5068675,5.95211857 20.4582549,5.95259761 L20.4578952,5.95259761 Z M6.57132816,12.3869851 L6.57132816,13.349392 C6.57184807,13.5384203 6.50975409,13.7222994 6.39474305,13.8723141 C6.27701964,14.0303176 6.1486268,14.1093194 6.00956452,14.1093194 C5.87050224,14.1093194 5.73132009,14.0186891 5.59201805,13.8374287 C5.50090828,13.7072376 5.4553534,13.611932 5.4553534,13.5515118 L5.4553534,9.63966602 C5.4553534,9.52817644 5.53927029,9.4247189 5.70710407,9.32929341 C5.87461736,9.23395273 6.0642578,9.1843411 6.25699947,9.18543588 L7.57365548,9.18543588 C7.9428898,9.18543588 8.2693265,9.25628571 8.55296559,9.39798538 C8.82018475,9.52539923 9.04669217,9.7246361 9.2071577,9.97341548 C9.36033617,10.2176167 9.43976041,10.5008466 9.43589116,10.7890877 C9.43586241,11.0121568 9.37626648,11.2311719 9.26326213,11.4234994 C9.14844185,11.6231582 8.99573165,11.7984695 8.81370736,11.9395882 C8.63220901,12.0826212 8.42845819,12.1948847 8.21058468,12.2718991 C7.99393331,12.3481208 7.76592088,12.3870349 7.53625252,12.3869851 L6.57132816,12.3869851 Z M7.54236647,11.4803231 C7.77229875,11.4803231 7.96494795,11.4140287 8.12031408,11.28144 C8.26972029,11.1623744 8.3560602,10.9812065 8.35444221,10.7901666 C8.35985821,10.596053 8.27546673,10.4102855 8.12570874,10.2866652 C7.97250047,10.1581525 7.77817293,10.0938962 7.54272611,10.0938962 L6.57168781,10.0938962 L6.57168781,11.481402 L7.54272611,11.481402 L7.54236647,11.4803231 Z M11.3639417,12.3869851 L11.3639417,13.349392 C11.3644616,13.5384203 11.3023676,13.7222994 11.1873566,13.8723141 C11.0696331,14.0303176 10.9412403,14.1093194 10.802178,14.1093194 C10.6631157,14.1093194 10.5239336,14.0186891 10.3846316,13.8374287 C10.2935218,13.7072376 10.2479669,13.611932 10.2479669,13.5515118 L10.2479669,9.63966602 C10.2479669,9.52817644 10.3318838,9.4247189 10.4997176,9.32929341 C10.6672309,9.23395273 10.8568713,9.1843411 11.049613,9.18543588 L12.366269,9.18543588 C12.7355033,9.18543588 13.06194,9.25628571 13.3455791,9.39798538 C13.6127983,9.52539923 13.8393057,9.7246361 13.9997712,9.97341548 C14.1529497,10.2176167 14.2323739,10.5008466 14.2285047,10.7890877 C14.2284759,11.0121568 14.16888,11.2311719 14.0558756,11.4234994 C13.9410554,11.6231582 13.7883452,11.7984695 13.6063209,11.9395882 C13.4238724,12.0825149 13.2191335,12.1944226 13.000321,12.2708202 C12.7836697,12.3470418 12.5556572,12.3859559 12.3259889,12.3859062 L11.3639417,12.3859062 L11.3639417,12.3869851 Z M12.33498,11.4803231 C12.5649123,11.4803231 12.7575615,11.4140287 12.9129276,11.28144 C13.0618948,11.162008 13.1476944,10.9807282 13.1456171,10.7898069 C13.1510331,10.5956933 13.0666417,10.4099259 12.9168837,10.2863056 C12.7646345,10.1580326 12.5707864,10.0938962 12.3353396,10.0938962 L11.3643013,10.0938962 L11.3643013,11.481402 L12.3353396,11.481402 L12.33498,11.4803231 Z M16.8949039,14.1093194 C16.7450523,14.1093194 16.5978381,14.0186891 16.4532613,13.8374287 C16.4040629,13.775871 16.3635261,13.707866 16.3327806,13.6353088 L14.6309461,9.75834848 C14.6044395,9.7085917 14.5880597,9.65407384 14.5827538,9.59794734 C14.5827538,9.48645776 14.6666707,9.38300022 14.8345045,9.28757473 C15.0020242,9.19224981 15.1916604,9.14263931 15.3843999,9.1437172 C15.5503156,9.1437172 15.6519749,9.20185962 15.6893779,9.31814445 L17.0459543,12.6581566 L18.2903219,9.53429038 C18.3277249,9.43215154 18.4254281,9.3415213 18.5834316,9.26239966 C18.7395227,9.18359006 18.9120767,9.1429166 19.086933,9.1437172 C19.2957662,9.1437172 19.4001828,9.22763409 19.4001828,9.39546787 C19.399977,9.51309177 19.3754896,9.62940661 19.328254,9.7371295 L17.6656206,13.6421421 C17.6117514,13.7714629 17.5310993,13.8879058 17.428975,13.9838037 C17.3481211,14.0622093 17.2405573,14.1070597 17.1279531,14.1093194 L16.8952636,14.1093194 L16.8949039,14.1093194 Z"/>
  </defs>
  <use fill="#222" fill-rule="evenodd" xlink:href="#tv-ppv-a"/>
</svg>
