<svg xmlns="http://www.w3.org/2000/svg" xmlns:xlink="http://www.w3.org/1999/xlink" width="24" height="24" viewBox="0 0 24 24">
  <defs>
    <path id="undo-a" d="M16.3432664,6.86320443 L8.98037761,6.86320443 L8.98037761,6.85682767 L8.98037761,4.21250922 C8.98037761,3.66028878 8.65128531,3.4089256 8.21083634,3.65598817 L1.40148782,7.67728006 C0.981515209,7.96872047 0.989207982,8.44497585 1.40918059,8.73534111 L8.20698996,12.7587462 C8.64743892,13.0058459 8.98037761,12.7554837 8.98037761,12.2032262 L8.98037761,9.56005704 L8.98037761,9.53254797 L16.3432664,9.53254797 C18.6506458,9.53254797 20.5279087,11.3829221 20.5279087,13.6514563 C20.5279087,15.9199905 18.6506458,17.7679547 16.3432664,17.7679547 C15.5935227,17.7679547 14.9857182,18.3667404 14.9857182,19.10385 C14.9857182,19.8409595 15.5935227,20.4391149 16.3432664,20.4391149 C20.1477952,20.4391149 23.243005,17.3915773 23.243005,13.6511597 C23.243005,9.91074205 20.1477952,6.86320443 16.3432664,6.86320443"/>
  </defs>
  <use fill="#222" fill-rule="evenodd" xlink:href="#undo-a"/>
</svg>
