<svg xmlns="http://www.w3.org/2000/svg" xmlns:xlink="http://www.w3.org/1999/xlink" width="24" height="24" viewBox="0 0 24 24">
  <defs>
    <path id="vcard-a" d="M21.8643475,3.9578107 L20.7867043,3.9578107 L20.7867043,5.84193156 C20.7773049,6.2815227 20.4182559,6.6329766 19.9785642,6.6329766 C19.5388726,6.6329766 19.1798235,6.2815227 19.1704242,5.84193156 L19.1704242,3.9578107 L17.554144,3.9578107 L17.554144,5.84193156 C17.5447446,6.2815227 17.1856956,6.6329766 16.7460039,6.6329766 C16.3063123,6.6329766 15.9472633,6.2815227 15.9378639,5.84193156 L15.9378639,3.9578107 L8.39842495,3.9578107 L8.39842495,5.84193156 C8.39842495,6.288255 8.03660832,6.65007163 7.59028488,6.65007163 C7.14396144,6.65007163 6.78214481,6.288255 6.78214481,5.84193156 L6.78214481,3.9578107 L5.16771184,3.9578107 L5.16771184,5.84193156 C5.15831245,6.2815227 4.79926339,6.6329766 4.35957177,6.6329766 C3.91988014,6.6329766 3.56083108,6.2815227 3.55143169,5.84193156 L3.55143169,3.9578107 L2.46898579,3.9578107 C1.57734973,3.96024632 0.855141267,4.68245479 0.852705644,5.57409085 L0.852705644,18.7592425 C0.855141267,19.6508785 1.57734973,20.373087 2.46898579,20.3755226 L21.8643475,20.3755226 C22.7559836,20.373087 23.4781921,19.6508785 23.4806277,18.7592425 L23.4806277,5.57409085 C23.4781921,4.68245479 22.7559836,3.96024632 21.8643475,3.9578107 L21.8643475,3.9578107 Z M10.0911782,17.4126502 C9.66484972,17.5234809 8.80775945,17.6797521 6.50211273,17.6797521 C4.19646601,17.6797521 3.33715913,17.5256975 2.91193891,17.4126502 C2.74347634,17.368318 2.61639054,17.1610647 2.62304038,16.98743 C2.65998392,16.174672 2.80295545,14.8077608 5.2704149,14.2706016 C4.49349357,13.7314126 4.1570927,12.7499039 4.43992357,11.847497 C4.72275444,10.9450901 5.55919184,10.3311704 6.5048826,10.3318796 C7.45057335,10.3325889 8.28608898,10.9477625 8.56756599,11.8505926 C8.849043,12.7534227 8.51117032,13.7344257 7.73344112,14.2724488 C10.2009006,14.8110857 10.3457193,16.1761497 10.3811851,16.9892772 C10.3867266,17.1629119 10.2589019,17.3701651 10.0911782,17.4126502 Z M21.0563922,16.4306908 L13.8745668,16.4306908 C13.4282434,16.4306908 13.0664267,16.0688741 13.0664267,15.6225507 C13.0664267,15.1762273 13.4282434,14.8144106 13.8745668,14.8144106 L21.0563922,14.8144106 C21.5032257,14.8144106 21.8654558,15.1766408 21.8654558,15.6234743 C21.8654558,16.0703078 21.5032257,16.4325379 21.0563922,16.4325379 L21.0563922,16.4306908 Z M21.0563922,13.1981305 L13.8745668,13.1981305 C13.4282434,13.1981305 13.0664267,12.8363138 13.0664267,12.3899904 C13.0664267,11.943667 13.4282434,11.5818503 13.8745668,11.5818503 L21.0563922,11.5818503 C21.5035318,11.5818503 21.86601,11.9443286 21.86601,12.3914681 C21.86601,12.8386077 21.5035318,13.201086 21.0563922,13.201086 L21.0563922,13.1981305 Z"/>
  </defs>
  <use fill="#222" fill-rule="evenodd" xlink:href="#vcard-a"/>
</svg>
