<svg xmlns="http://www.w3.org/2000/svg" xmlns:xlink="http://www.w3.org/1999/xlink" width="24" height="24" viewBox="0 0 24 24">
  <defs>
    <path id="video-content-a" d="M17.4195911,4.61761522 L2.023144,4.61761522 C1.23688315,4.619763 0.600026633,5.25661952 0.597878857,6.04288036 L0.597878857,17.9571196 C0.600026633,18.7433805 1.23688315,19.380237 2.023144,19.3823848 L17.4195911,19.3823848 C18.2058519,19.380237 18.8427084,18.7433805 18.8448562,17.9571196 L18.8448562,6.04288036 C18.8427084,5.25661952 18.2058519,4.619763 17.4195911,4.61761522 L17.4195911,4.61761522 Z M9.7218562,17.9571196 C6.43152981,17.9571196 3.76343346,15.2903264 3.76343346,12 C3.76343346,8.70967361 6.43120403,6.04288036 9.71957577,6.04288036 C13.0079475,6.04288036 15.6786501,8.70967361 15.6793016,12 C15.6799532,15.2903264 13.0125084,17.9571196 9.7218562,17.9571196 Z M13.7709123,11.5370739 L7.8743868,8.00176478 C7.49388172,7.78447293 7.18309248,8.00437098 7.18309248,8.49042711 L7.18309248,15.5112018 C7.18309248,15.9966063 7.49388172,16.2165044 7.8743868,15.9998641 L13.7709123,12.467487 C14.133174,12.2107764 14.133174,11.7921556 13.7709123,11.5370739 Z M22.7108268,8.00078745 C23.0913319,7.7834956 23.4021211,8.00339365 23.4021211,8.48879824 L23.4021211,15.5095729 C23.4021211,15.9962806 23.0913319,16.2161786 22.7108268,15.9982352 L20.3652476,14.5915392 L20.3652476,9.40715765 L22.7108268,8.00078745 Z"/>
  </defs>
  <use fill="#222" fill-rule="evenodd" xlink:href="#video-content-a"/>
</svg>
