<svg xmlns="http://www.w3.org/2000/svg" xmlns:xlink="http://www.w3.org/1999/xlink" width="24" height="24" viewBox="0 0 24 24">
  <defs>
    <path id="video-2-a" d="M21.2050286,3.28011429 L2.79531429,3.28011429 C1.47170474,3.28143723 0.399037235,4.35410474 0.397714286,5.67771429 L0.397714286,18.3222857 C0.399037544,19.646029 1.47191371,20.7187517 2.79565714,20.7198857 L21.2050286,20.7198857 C22.5285042,20.7183738 23.6009631,19.6457616 23.6022857,18.3222857 L23.6022857,5.67771429 C23.6009631,4.35423843 22.5285042,3.28162617 21.2050286,3.28011429 L21.2050286,3.28011429 Z M2.79531429,4.68171429 L21.2050286,4.68171429 C21.75361,4.68303368 22.1979949,5.1274186 22.1993143,5.676 L22.1993143,6.01885714 L1.79931429,6.01885714 L1.79931429,5.676 C1.80082479,5.12682898 2.24614148,4.68227876 2.79531429,4.68171429 L2.79531429,4.68171429 Z M15.3781714,12.4525714 L10.4914286,15.2732571 C10.3295263,15.3667315 10.1300511,15.3667169 9.96816246,15.273219 C9.80627383,15.1797211 9.70657402,15.0069486 9.70662857,14.82 L9.70662857,9.17931429 C9.70669651,8.99242691 9.8064447,8.8197667 9.96831091,8.72635243 C10.1301771,8.63293816 10.3295794,8.63295629 10.4914286,8.7264 L15.3764571,11.5470857 C15.5381857,11.6405348 15.6378287,11.8131156 15.6378994,11.9999011 C15.6379701,12.1866867 15.5384577,12.3593428 15.3768,12.4529143 L15.3781714,12.4525714 Z M21.2067429,19.3179429 L2.79531429,19.3179429 C2.24614148,19.3173784 1.80082479,18.8728282 1.79931429,18.3236571 L1.79931429,17.9808 L22.1993143,17.9808 L22.1993143,18.3236571 C22.1979957,18.8722945 21.7536654,19.316778 21.2050286,19.3182857 L21.2067429,19.3179429 Z"/>
  </defs>
  <use fill="#222" fill-rule="evenodd" xlink:href="#video-2-a"/>
</svg>
