<svg xmlns="http://www.w3.org/2000/svg" xmlns:xlink="http://www.w3.org/1999/xlink" width="24" height="24" viewBox="0 0 24 24">
  <defs>
    <path id="video-1-a" d="M22.7605714,11.4417905 L20.7377142,11.4417905 C20.4750349,11.4417808 20.2293035,11.5715116 20.0811428,11.788419 L19.1235428,13.187619 L19.1235428,11.222019 C19.1233535,10.7832286 18.7675905,10.427619 18.3288,10.427619 L15.6517714,10.427619 C17.2273843,9.50011575 18.0258624,7.66297205 17.629083,5.8782075 C17.2323036,4.09344296 15.7306582,2.76765054 13.9104829,2.59508093 C12.0903076,2.42251132 10.3662624,3.44247814 9.64114282,5.12087619 C8.91617716,3.44219001 7.19198556,2.42196362 5.37160616,2.59453633 C3.55122676,2.76710904 2.04946295,4.09315731 1.65285725,5.87816891 C1.25625155,7.66318052 2.05517709,9.50041119 3.63119996,10.427619 L1.23942853,10.427619 C0.801039733,10.4281864 0.445903005,10.7836299 0.445714248,11.222019 L0.445714248,20.2957333 C0.445902662,20.7341782 0.800984302,21.08972 1.23942853,21.0904762 L18.3288,21.0904762 C18.7676459,21.090287 19.1233536,20.7345793 19.1235428,20.2957333 L19.1235428,18.3297905 L20.0811428,19.7293333 C20.2295803,19.9458426 20.4752072,20.0752617 20.7377142,20.0752762 L22.7605714,20.0752762 C23.1992279,20.0747085 23.5544753,19.7188473 23.5542857,19.2801905 L23.5542857,12.2365333 C23.5540973,11.7980885 23.1990156,11.4425467 22.7605714,11.4417905 Z M12.2989714,16.173219 C12.2990624,16.3840258 12.21536,16.5862247 12.0662971,16.7352876 C11.9172342,16.8843505 11.7150353,16.9680529 11.5042285,16.9679619 L3.56571425,16.9679619 C3.12678989,16.9679619 2.77097139,16.6121434 2.77097139,16.173219 L2.77097139,13.526019 C2.77088043,13.3151807 2.85457187,13.1129467 3.00362493,12.9638293 C3.15267799,12.814712 3.35487592,12.7309333 3.56571425,12.7309333 L11.5038857,12.7309333 C11.7146925,12.7308423 11.9168913,12.8145447 12.0659542,12.9636076 C12.2150172,13.1126706 12.2987195,13.3148694 12.2986285,13.5256762 L12.2986285,16.1728762 L12.2989714,16.173219 Z M9.64114282,8.46579048 C9.99739099,9.28611232 10.6038997,9.97278478 11.3739428,10.427619 L7.91108568,10.427619 C8.68031963,9.97259487 9.28589491,9.28589218 9.64114282,8.46579048 L9.64114282,8.46579048 Z"/>
  </defs>
  <use fill="#222" fill-rule="evenodd" xlink:href="#video-1-a"/>
</svg>
