<svg xmlns="http://www.w3.org/2000/svg" xmlns:xlink="http://www.w3.org/1999/xlink" width="24" height="24" viewBox="0 0 24 24">
  <defs>
    <path id="voicemail-a" d="M17.9607979,6.95357461 C15.1781099,6.95357461 12.9143725,9.21731193 12.9143725,12 C12.9147176,13.0983841 13.2757149,14.1662693 13.941895,15.0395687 L9.3914383,15.0395687 C10.0576429,14.1662823 10.4186431,13.0983886 10.4189608,12 C10.4189608,9.21731193 8.15522347,6.95357461 5.3725354,6.95357461 C2.58984733,6.95357461 0.326480692,9.21731193 0.326480692,12 C0.326480692,14.7826881 2.59021801,17.0464254 5.37290608,17.0464254 L17.9607979,17.0464254 C20.7431153,17.0464254 23.0068526,14.7826881 23.0068526,12 C23.0068526,9.21731193 20.7431153,6.95357461 17.9607979,6.95357461 Z M2.33333739,12 C2.33333739,10.3212926 3.69419864,8.96043131 5.37290608,8.96043131 C7.05161351,8.96043131 8.41247477,10.3212926 8.41247477,12 C8.41247477,13.6787074 7.05161351,15.0395687 5.37290608,15.0395687 C3.69496082,15.0377301 2.33517601,13.6779453 2.33333739,12 L2.33333739,12 Z M17.9607979,15.0395687 C16.2820905,15.0395687 14.9212292,13.6787074 14.9212292,12 C14.9212292,10.3212926 16.2820905,8.96043131 17.9607979,8.96043131 C19.6395054,8.96043131 21.0003666,10.3212926 21.0003666,12 C20.998528,13.6779453 19.6387432,15.0377301 17.9607979,15.0395687 L17.9607979,15.0395687 Z"/>
  </defs>
  <use fill="#222" fill-rule="evenodd" xlink:href="#voicemail-a"/>
</svg>
