<svg xmlns="http://www.w3.org/2000/svg" xmlns:xlink="http://www.w3.org/1999/xlink" width="24" height="24" viewBox="0 0 24 24">
  <defs>
    <path id="voice-switch-a" d="M20.0238137,20.0241923 C15.5931518,24.45594 8.40608389,24.4552162 3.9761458,20.0241923 C-0.453792291,15.5931684 -0.455601906,8.4064625 3.9761458,3.97580056 C8.40789351,-0.454861378 15.5938756,-0.455947147 20.0245375,3.97580056 C24.4551995,8.40754826 24.4559233,15.5924446 20.0238137,20.0241923 Z M9.50886341,19.1856166 C10.0243412,19.1836324 10.4417265,18.7662471 10.4437106,18.2507694 L10.4437106,15.674963 C10.442914,15.1593326 10.0252173,14.7414741 9.50958726,14.7404777 L8.52732811,14.7404777 L8.4314185,14.7404777 C7.91568208,14.7396791 7.49801835,14.3213675 7.49801897,13.8056305 L7.49801897,9.59791316 C7.49960384,9.0824338 7.91666605,8.66472522 8.43214235,8.66234209 L8.52732811,8.66234209 L9.50922534,8.66234209 C10.0240232,8.66056036 10.4411308,8.24409898 10.4437106,7.72930448 L10.4437106,5.15313623 C10.4429201,4.63849095 10.0267611,4.22103846 9.51212072,4.21865092 L9.0249723,4.21865092 C5.86574603,4.21865092 4.56318498,6.91135839 4.56246114,11.6380734 L4.56535652,11.762213 C4.56535652,16.4867564 5.86466026,19.1816354 9.0249723,19.183807 L9.50886341,19.183807 L9.50886341,19.1856166 Z M16.0846432,11.3420203 L16.0846432,10.1082247 L19.6727483,10.1082247 C19.9595029,10.1143575 20.2271389,9.96488371 20.3723158,9.71751873 C20.5174928,9.47015375 20.5174928,9.16360609 20.3723158,8.91624111 C20.2271389,8.66887613 19.9595029,8.51940236 19.6727483,8.52553518 L16.0846432,8.52553518 L16.0846432,7.29499682 C16.0846432,7.05576569 15.9713613,6.91352993 15.8103056,6.91425377 C15.7442782,6.91570783 15.679825,6.93469403 15.6235533,6.96926608 L12.3257105,9.0079786 C12.0839459,9.17880628 12.0839459,9.45784895 12.3257105,9.62795278 L15.6224675,11.6666653 C15.6786953,11.701525 15.7430971,11.7209953 15.8092198,11.7231253 C15.9713613,11.7224014 16.0846432,11.5805276 16.0846432,11.3420203 Z M16.5240178,12.6583344 L16.5240178,13.8914063 L12.9377224,13.8914063 C12.5003749,13.8914063 12.1458348,14.2459465 12.1458348,14.6832939 C12.1458348,15.1206413 12.5003749,15.4751815 12.9377224,15.4751815 L16.5240178,15.4744577 L16.5240178,16.704996 C16.5240178,16.9431414 16.6369378,17.0853772 16.7983555,17.0853772 C16.8642438,17.0844945 16.9286127,17.0654593 16.9843839,17.0303649 L20.281141,14.9909285 C20.5232675,14.8215485 20.5239913,14.541782 20.281141,14.3716781 L16.9829362,12.3326037 C16.9266869,12.2978401 16.862279,12.2784927 16.796184,12.2765056 C16.6369378,12.2772295 16.5240178,12.4194652 16.5240178,12.6583344 Z"/>
  </defs>
  <use fill="#222" fill-rule="evenodd" xlink:href="#voice-switch-a"/>
</svg>
