<svg xmlns="http://www.w3.org/2000/svg" xmlns:xlink="http://www.w3.org/1999/xlink" width="24" height="24" viewBox="0 0 24 24">
  <defs>
    <path id="volume-a" d="M12.0489905,3.11481905 C12.8320762,2.39961905 14.0961905,2.95539048 14.0961905,4.01619048 L14.0961905,19.6504762 C14.0961905,20.7339048 12.7864762,21.2811048 12.0150476,20.5209905 L7.11733333,15.6987048 C7.04090152,15.6238836 6.97472514,15.5392608 6.92053333,15.4470476 C6.65982949,15.5052667 6.39359954,15.5351543 6.12647619,15.5361905 L4.34361905,15.5361905 C2.30190476,15.5361905 0.656190476,13.876419 0.656190476,11.8353905 L0.656190476,11.8302476 C0.656190476,9.78887619 2.30190476,8.13047619 4.34293333,8.13047619 L6.12579048,8.13047619 C6.38281739,8.13153884 6.63904254,8.15922954 6.8903619,8.21310476 C6.96903709,8.11610048 7.05674496,8.0267854 7.15230476,7.9463619 L12.0489905,3.11481905 Z M15.7995048,14.5686476 C15.4324993,14.5679207 15.1019994,14.3463847 14.9618772,14.0071808 C14.8217549,13.6679769 14.8995518,13.2777769 15.1590476,13.0182476 C15.4735818,12.7042047 15.6503267,12.2779761 15.6503267,11.8335048 C15.6503267,11.3890335 15.4735818,10.9628048 15.1590476,10.6487619 C14.8292149,10.2906164 14.8404723,9.73609047 15.1845685,9.39162627 C15.5286648,9.04716207 16.0831784,9.03531213 16.4416762,9.3647619 C17.0964944,10.0194081 17.464382,10.9074021 17.464382,11.8333333 C17.464382,12.7592645 17.0964944,13.6472586 16.4416762,14.3019048 C16.271652,14.4727437 16.040532,14.5687455 15.7995048,14.5686476 Z M17.5809905,17.0149333 C17.2136731,17.0148984 16.8825397,16.7936161 16.7419782,16.4542571 C16.6014166,16.1148982 16.6791039,15.7242834 16.938819,15.4645333 C18.9407619,13.4625905 18.9407619,10.2047619 16.938819,8.20281905 C16.7049389,7.97429961 16.6119529,7.63769838 16.6953624,7.32152771 C16.778772,7.00535704 17.0256999,6.75842912 17.3418706,6.67501957 C17.6580412,6.59161002 17.9946425,6.68459607 18.2231619,6.91847619 C19.5276087,8.22161451 20.2605493,9.98983486 20.2605493,11.8336762 C20.2605493,13.6775175 19.5276087,15.4457379 18.2231619,16.7488762 C18.053025,16.9194636 17.821919,17.0152128 17.5809905,17.0149333 Z M19.583619,18.8379048 C19.2163017,18.8378699 18.8851683,18.6165875 18.7446067,18.2772285 C18.6040452,17.9378696 18.6817325,17.5472548 18.9414476,17.2875048 C20.3890613,15.8416799 21.2024728,13.8796466 21.2024728,11.8336762 C21.2024728,9.78770577 20.3890613,7.82567247 18.9414476,6.37984762 C18.7075675,6.15132818 18.6145814,5.81472695 18.697991,5.49855628 C18.7814005,5.18238561 19.0283285,4.93545769 19.3444991,4.85204814 C19.6606698,4.76863859 19.997271,4.86162464 20.2257905,5.09550476 C22.0141079,6.88198846 23.0189284,9.30608118 23.0189284,11.8338476 C23.0189284,14.3616141 22.0141079,16.7857068 20.2257905,18.5721905 C20.0555973,18.7426521 19.8244982,18.8382751 19.583619,18.8379048 Z"/>
  </defs>
  <use fill="#222" fill-rule="evenodd" xlink:href="#volume-a"/>
</svg>
