<svg xmlns="http://www.w3.org/2000/svg" xmlns:xlink="http://www.w3.org/1999/xlink" width="24" height="24" viewBox="0 0 24 24">
  <defs>
    <path id="warning-outline-a" d="M11.5326667,7.75585436 C11.7716897,7.54300844 12.0673435,7.54300844 12.3063665,7.75585436 C12.5453895,7.96870029 12.6907302,8.36139845 12.6867101,8.78351053 L12.6867101,14.0816777 C12.6907302,14.5037898 12.5453895,14.8964879 12.3063665,15.1093339 C12.0673435,15.3221798 11.7716897,15.3221798 11.5326667,15.1093339 C11.2936437,14.8964879 11.148303,14.5037898 11.152323,14.0816777 L11.152323,8.78351053 C11.148303,8.36139845 11.2936437,7.96870029 11.5326667,7.75585436 Z M13.0704288,17.9544134 C13.0704288,18.4199072 12.7900222,18.8395654 12.359962,19.0177022 C11.9299019,19.1958389 11.4348812,19.0973732 11.1057274,18.7682194 C10.7765736,18.4390656 10.6781079,17.944045 10.8562447,17.5139848 C11.0343814,17.0839247 11.4540396,16.803518 11.9195334,16.803518 C12.2247896,16.8034536 12.5175618,16.9246876 12.7334105,17.1405363 C12.9492592,17.3563851 13.0704932,17.6491572 13.0704288,17.9544134 Z M22.6287217,18.9517874 C23.770539,21.2370151 22.615341,23.1074419 20.0602697,23.1074419 L3.77790283,23.1074419 C1.22251297,23.1074419 0.0676334985,21.2370151 1.20976947,18.9517874 L9.47615778,2.43621446 C10.8199596,0.263448118 13.0185315,0.262810943 14.3616962,2.43621446 L22.6287217,18.9517874 Z M12.6165179,3.41789669 C12.0944518,2.60253826 11.743915,2.60249979 11.2211899,3.41819529 L2.99877347,19.8459152 C2.52097749,20.801907 2.709742,21.1074419 3.77790283,21.1074419 L20.0602697,21.1074419 C21.1282923,21.1074419 21.3172501,20.8016464 20.8402677,19.8470148 L12.6165179,3.41789669 Z"/>
  </defs>
  <use fill="#222" fill-rule="evenodd" xlink:href="#warning-outline-a"/>
</svg>
