<svg xmlns="http://www.w3.org/2000/svg" xmlns:xlink="http://www.w3.org/1999/xlink" width="24" height="24" viewBox="0 0 24 24">
  <defs>
    <path id="warning-fill-a" d="M22.6287217,18.9517874 L14.3616962,2.43621446 C13.0185315,0.262810943 10.8199596,0.263448118 9.47615778,2.43621446 L1.20976947,18.9517874 C0.0676334985,21.2370151 1.22251297,23.1074419 3.77790283,23.1074419 L20.0602697,23.1074419 C22.615341,23.1074419 23.770539,21.2370151 22.6287217,18.9517874 Z M11.4510194,6.57500732 C11.7404898,6.31723883 12.0985434,6.31723883 12.3880138,6.57500732 C12.6774842,6.83277581 12.8535,7.30835558 12.8486315,7.81955725 L12.8486315,14.2359383 C12.8535,14.74714 12.6774842,15.2227198 12.3880138,15.4804883 C12.0985434,15.7382568 11.7404898,15.7382568 11.4510194,15.4804883 C11.161549,15.2227198 10.9855332,14.74714 10.9904017,14.2359383 L10.9904017,7.81955725 C10.9855332,7.30835558 11.161549,6.83277581 11.4510194,6.57500732 Z M13.3133366,18.9260411 C13.3133366,19.4897804 12.9737482,19.9980103 12.452921,20.213744 C11.9320937,20.4294777 11.3325957,20.3102302 10.9339717,19.9116063 C10.5353478,19.5129823 10.4161003,18.9134843 10.631834,18.392657 C10.8475677,17.8718298 11.3557976,17.5322414 11.9195369,17.5322414 C12.2892195,17.5321634 12.6437832,17.6789847 12.9051883,17.9403897 C13.1665933,18.2017948 13.3134146,18.5563585 13.3133366,18.9260411 Z"/>
  </defs>
  <use fill="#222" fill-rule="evenodd" xlink:href="#warning-fill-a"/>
</svg>
