<svg xmlns="http://www.w3.org/2000/svg" xmlns:xlink="http://www.w3.org/1999/xlink" width="24" height="24" viewBox="0 0 24 24">
  <defs>
    <path id="water-alarm-a" d="M16.2489438,12.0664074 C14.6139158,12.8198743 13.4013519,14.2648441 12.9431238,16.0058369 C12.4848957,17.7468296 12.8289936,19.6015117 13.8812397,21.0622673 C12.4477255,22.2800152 10.633463,22.9580687 8.75265602,22.9789988 C4.28067569,22.9188429 0.703956419,19.2438297 0.765685002,14.7730289 C0.765685002,12.6954885 1.63971457,10.9564724 2.7535813,9.34917021 C3.47269964,8.28209139 4.29365049,7.27634796 5.08000187,6.25173211 C5.70593758,5.39827874 6.33213539,4.55072301 6.95859533,3.70906491 C7.08087297,3.52584504 8.74951061,1.23677616 8.83876149,1.3590538 L13.8957872,8.1928405 C14.8460929,9.47380691 15.7256269,10.6804631 16.2489438,12.0664074 Z M18.7774566,13.0831598 C19.9622374,13.075779 21.1006365,13.5431412 21.9384562,14.380887 C22.7762759,15.2186328 23.2437384,16.3569907 23.2364622,17.5417721 C23.2366212,19.3453073 22.1503202,20.9713432 20.4841166,21.6616364 C18.8179131,22.3519296 16.8999508,21.9705331 15.6246026,20.6952973 C14.3492545,19.4200616 13.9676888,17.502133 14.6578351,15.8358686 C15.3479814,14.1696041 16.9739215,13.0831598 18.7774566,13.0831598 Z M21.1215701,19.2858995 C21.1679955,19.176034 21.1448316,19.0490959 21.0625938,18.9627091 C21.058662,18.9575978 20.5553971,18.4138358 20.5514654,17.0915859 C20.5478881,16.3393025 20.0715331,15.6705794 19.3617157,15.4213756 C19.3678421,15.3881566 19.3712609,15.354495 19.3719383,15.3207226 C19.3719383,14.9937024 19.106836,14.7286 18.7798157,14.7286 C18.4527954,14.7286 18.1876931,14.9937024 18.1876931,15.3207226 C18.1883587,15.3543655 18.1917777,15.3878975 18.1979157,15.4209824 C17.4865157,15.6689946 17.0094299,16.3393743 17.008166,17.0927655 C17.008166,18.4138358 16.500183,18.9568114 16.4970376,18.9599568 C16.4116675,19.0445107 16.3858678,19.1722761 16.4317385,19.2833314 C16.4776092,19.3943867 16.5860518,19.4667042 16.7062071,19.4663671 L17.6364608,19.4663671 C17.7710564,19.9869729 18.2407162,20.350651 18.7784396,20.350651 C19.3161629,20.350651 19.7858228,19.9869729 19.9204184,19.4663671 L20.8506721,19.4663671 C20.968938,19.4658049 21.0754913,19.394821 21.1215701,19.2858995 Z"/>
  </defs>
  <use fill="#222" fill-rule="evenodd" xlink:href="#water-alarm-a"/>
</svg>
