<svg xmlns="http://www.w3.org/2000/svg" xmlns:xlink="http://www.w3.org/1999/xlink" width="24" height="24" viewBox="0 0 24 24">
  <defs>
    <path id="weather-a" d="M14.3263017,4.59167584 L14.3263017,3.08816189 C14.3263017,2.70138019 14.6398502,2.38783167 15.0266319,2.38783167 C15.4134136,2.38783167 15.7269621,2.70138019 15.7269621,3.08816189 L15.7269621,4.59167584 C15.7269621,4.97845754 15.4134136,5.29200606 15.0266319,5.29200606 C14.6398502,5.29200606 14.3263017,4.97845754 14.3263017,4.59167584 L14.3263017,4.59167584 Z M19.7136538,14.1976191 C19.4402163,13.9241817 18.9968866,13.9241817 18.7234491,14.1976192 C18.4500117,14.4710566 18.4500117,14.9143863 18.7234491,15.1878238 L19.7893565,16.250537 C20.062794,16.5239744 20.5061237,16.5239744 20.7795611,16.250537 C21.0529986,15.9770995 21.0529986,15.5337698 20.7795611,15.2603323 L19.7136538,14.1976191 Z M19.7155703,6.81899745 L20.7808388,5.75628427 C21.041885,5.48089673 21.0359198,5.04764437 20.7673906,4.7795483 C20.4988614,4.51145224 20.0656,4.50618635 19.7906342,4.76767673 L18.7234491,5.83070933 C18.5468514,6.00759236 18.4780343,6.26525278 18.5429207,6.50663241 C18.607807,6.74801204 18.7965389,6.93643957 19.038023,7.00093617 C19.279507,7.06543278 19.537056,6.99619989 19.7136538,6.81931687 L19.7155703,6.81899745 Z M22.4625896,9.80973489 L20.9565203,9.80973489 C20.7033257,9.80432106 20.4670125,9.93630209 20.3388266,10.1547173 C20.2106406,10.3731324 20.2106406,10.6438036 20.3388266,10.8622188 C20.4670125,11.0806339 20.7033257,11.212615 20.9565203,11.2072011 L22.4625896,11.2072011 C22.7172014,11.2149597 22.9558698,11.0835767 23.0855017,10.8642985 C23.2151335,10.6450202 23.2151958,10.3725792 23.0856642,10.1532418 C22.9561327,9.93390429 22.7175243,9.8024122 22.462909,9.81005431 L22.4625896,9.80973489 Z M14.7373963,12.6845226 L14.7961697,12.6845226 C15.6882981,12.6841652 16.5552608,12.9802314 17.260821,13.5261965 C18.573735,12.5497885 19.1041638,10.8362095 18.5724785,9.28881606 C18.0407933,7.7414226 16.5691576,6.71575414 14.9333812,6.75251768 C13.2976049,6.78928122 11.873535,7.88002971 11.4119058,9.44974759 C12.8943031,10.0624492 14.0848412,11.2209713 14.7377157,12.6861197 L14.7373963,12.6845226 Z M10.337374,6.81740035 C10.5112121,7.00640683 10.7746003,7.08502914 11.0235999,7.02224118 C11.2725994,6.95945323 11.4672145,6.76534039 11.5306457,6.5165039 C11.5940768,6.2676674 11.5161353,6.00407691 11.3275787,5.82975107 L10.2623101,4.76607963 C9.98753002,4.50505321 9.55485578,4.51032594 9.28651824,4.77797099 C9.01818071,5.04561604 9.01178998,5.47827521 9.2721055,5.75372891 L10.337374,6.81740035 Z M9.0162494,10.3671243 C6.33598902,10.3671243 4.15785823,12.535353 4.15785823,15.2095444 C2.35955936,15.2081962 0.881236974,16.6273941 0.809225367,18.4242511 C0.737213759,20.221108 2.09722468,21.7540562 3.88986413,21.89662 C3.97884934,21.9063658 4.06834946,21.9106328 4.15785823,21.9093968 L17.6872479,21.9093968 L17.7453825,21.9074803 C18.991287,21.8914268 19.9882784,20.8684078 19.9722249,19.6225032 C19.9561715,18.3765986 18.9331524,17.3796073 17.6872479,17.3956607 C17.5727145,17.3950106 17.4583139,17.403556 17.3451481,17.4212144 C17.4090369,17.1935388 17.4412816,16.9581523 17.4409744,16.7216827 C17.4402971,16.0210872 17.1612713,15.3494694 16.6653064,14.8546427 C16.1693415,14.3598161 15.4970844,14.0823341 14.7964891,14.0832665 C14.4474232,14.0805775 14.1014378,14.1487096 13.7794532,14.2835434 C13.3338564,12.0062205 11.3367551,10.3641565 9.0162494,10.3671243 L9.0162494,10.3671243 Z"/>
  </defs>
  <use fill="#222" fill-rule="evenodd" xlink:href="#weather-a"/>
</svg>
