<svg xmlns="http://www.w3.org/2000/svg" xmlns:xlink="http://www.w3.org/1999/xlink" width="24" height="24" viewBox="0 0 24 24">
  <defs>
    <path id="wireless-a" d="M12.1678747,16.610742 C13.3439797,16.610742 14.2974012,17.5641635 14.2974012,18.7402686 C14.2974012,19.6015817 13.7785587,20.3780843 12.9828092,20.7076946 C12.1870597,21.0373048 11.2711123,20.8551116 10.662072,20.2460712 C10.0530317,19.6370309 9.87083842,18.7210836 10.2004487,17.925334 C10.5300589,17.1295845 11.3065616,16.610742 12.1678747,16.610742 Z M12.1678747,10.0168472 C14.4818144,10.013582 16.7016165,10.9327731 18.3358641,12.5709313 C18.7498135,12.9849609 18.9114364,13.5883795 18.7598509,14.153885 C18.6082654,14.7193905 18.166501,15.1610692 17.6009661,15.3125451 C17.0354312,15.464021 16.432044,15.3022812 16.0180946,14.8882515 C14.9968687,13.8665808 13.6115222,13.2925748 12.1669761,13.2925748 C10.7224301,13.2925748 9.33708354,13.8665808 8.31585765,14.8882515 C7.90190826,15.3019602 7.29869232,15.4634033 6.73343544,15.311767 C6.16817856,15.1601306 5.7267567,14.7184518 5.57544921,14.1531068 C5.42414173,13.5877618 5.58593581,12.9846399 5.9998852,12.5709313 C7.63500466,10.9340768 9.85424005,10.0151204 12.1678747,10.0168472 Z M22.9696061,7.9403342 C23.3834753,8.35436384 23.5450239,8.95773958 23.3933983,9.5231756 C23.2417727,10.0886116 22.8000083,10.5302048 22.2345135,10.6816111 C21.6690188,10.8330175 21.0657057,10.6712348 20.6518366,10.2572052 C18.4020648,8.00618191 15.3499682,6.74146495 12.1674254,6.74146495 C8.98488259,6.74146495 5.93278601,8.00618191 3.68301422,10.2572052 C3.27044822,10.6773466 2.66412009,10.8437173 2.09490674,10.6929668 C1.5256934,10.5422163 1.08119387,10.0975443 0.93066416,9.52827253 C0.780134451,8.95900075 0.946740319,8.3527372 1.36704178,7.9403342 C4.23098768,5.07427676 8.11659945,3.46396483 12.1683239,3.46396483 C16.2200484,3.46396483 20.1056602,5.07427676 22.9696061,7.9403342 Z"/>
  </defs>
  <use fill="#222" fill-rule="evenodd" xlink:href="#wireless-a"/>
</svg>
