<svg xmlns="http://www.w3.org/2000/svg" xmlns:xlink="http://www.w3.org/1999/xlink" width="24" height="24" viewBox="0 0 24 24">
  <defs>
    <path id="write-email-a" d="M2.3921617,17.755787 C1.62841989,17.7535267 1.00984637,17.1349531 1.00758599,16.3712113 L1.00758599,3.44080033 C1.00884287,3.18582862 1.08121214,2.93626428 1.21655466,2.72017506 L9.67028696,11.1739074 C10.1897283,11.6933873 10.894265,11.9852313 11.6288933,11.9852313 C12.3635215,11.9852313 13.0680582,11.6933873 13.5874995,11.1739074 L22.0412319,2.72207477 C22.1764911,2.93816765 22.2486514,3.18776799 22.2495673,3.44270004 L22.2495673,11.2749089 C21.1116248,10.9363282 19.8796483,11.2483025 19.0399986,12.0876703 L14.7152971,16.4101555 L14.5569875,16.5684651 L14.542423,16.5982273 C14.2548174,16.9355254 14.041241,17.3294553 13.915517,17.7545206 L2.3921617,17.7545206 L2.3921617,17.755787 Z M11.6279434,9.32896736 C11.9954733,9.32981361 12.3480825,9.18366265 12.6072465,8.92306156 L19.4734502,2.05622462 L3.7814867,2.05622462 L10.6483236,8.92274494 C10.9074477,9.18340581 11.2600829,9.32956759 11.6276268,9.32865074 L11.6279434,9.32896736 Z M13.3186899,20.1392963 L13.3275552,20.088004 L13.34022,20.0367117 L13.564703,19.1413126 L2.39311156,19.1413126 C2.14213772,19.1359462 1.90789732,19.2667697 1.78083566,19.4832691 C1.65377401,19.6997685 1.65377401,19.9680656 1.78083566,20.184565 C1.90789732,20.4010645 2.14213772,20.5318879 2.39311156,20.5265215 L13.2924105,20.5265215 C13.2889585,20.396919 13.2976507,20.267278 13.3183732,20.1392963 L13.3186899,20.1392963 Z M22.3439198,15.9646723 L22.6288771,15.679715 C23.3363242,14.9559967 23.3296702,13.7977585 22.6139544,13.0822163 C21.8982387,12.366674 20.739999,12.3603007 20.0164521,13.0679233 L19.7314949,13.3528806 L22.3439198,15.9646723 Z M21.3646166,16.9439754 L18.7518751,14.3321838 L15.6946002,17.3894586 L15.6946002,17.3913583 C15.4256094,17.6594396 15.2469672,18.0047703 15.1835769,18.3792102 L14.6839518,20.3739111 C14.618095,20.7538541 14.8422614,21.0242469 15.1924422,21.0242469 C15.2362922,21.0242477 15.2800544,21.0203271 15.3232059,21.012532 L17.3179068,20.5138568 C17.6926997,20.4499452 18.0384158,20.2712791 18.3073418,20.0025168 L18.592299,19.7175595 L18.592299,19.7175595 L21.3646166,16.9439754 Z"/>
  </defs>
  <use fill="#222" fill-rule="evenodd" xlink:href="#write-email-a"/>
</svg>
