<svg xmlns="http://www.w3.org/2000/svg" xmlns:xlink="http://www.w3.org/1999/xlink" width="24" height="24" viewBox="0 0 24 24">
  <defs>
    <path id="xls-a" d="M3.16655238,15.6914667 L20.166781,15.6914667 L20.166781,21.666781 C20.1645206,22.49427 19.49427,23.1645206 18.666781,23.166781 L4.66655238,23.166781 C3.83906335,23.1645206 3.16881278,22.49427 3.16655238,21.666781 L3.16655238,15.6914667 L3.16655238,15.6914667 Z M17.0474667,6.30986667 C15.391148,6.3092988 14.0486844,4.96652829 14.0484952,3.31020952 L14.0484952,0.166552381 L4.66655238,0.166552381 C3.83914125,0.16900008 3.16900008,0.839141247 3.16655238,1.66655238 L3.16655238,14.1914667 L20.166781,14.1914667 L20.166781,6.30986667 L17.046781,6.30986667 L17.0474667,6.30986667 Z M15.9866667,4.37066667 C16.2671261,4.65242299 16.6485487,4.81042328 17.0460952,4.80952381 L20.1660952,4.80952381 L15.5484952,0.166552381 L15.5484952,3.31020952 C15.5477104,3.70790086 15.7053919,4.08951982 15.9866667,4.37066667 L15.9866667,4.37066667 Z M9.83512381,21.3232381 C9.92363774,21.1857266 9.96988849,21.0252794 9.96815238,20.8617524 C9.96794398,20.803321 9.94828071,20.7466232 9.91226667,20.7006095 L8.76060952,19.2095238 L9.68358095,17.970781 C9.8280381,17.7767238 9.90026667,17.5744381 9.90026667,17.3639238 C9.90026667,17.2039238 9.81146667,17.1239238 9.63386667,17.1239238 C9.50678757,17.1239856 9.3813291,17.152451 9.26666667,17.2072381 C9.16011584,17.2528753 9.06725274,17.3254172 8.99718095,17.4177524 L8.24289524,18.5265524 L7.28666667,17.2209524 C7.23532557,17.1540507 7.154168,17.1169391 7.06998095,17.1218667 C6.92041365,17.1208262 6.77385471,17.1638756 6.64860952,17.2456381 C6.52060952,17.328381 6.45660952,17.417181 6.45660952,17.5120381 C6.45660952,17.5863238 6.49992381,17.6833524 6.58655238,17.8031238 L7.6456381,19.1844952 L6.41306667,20.824381 C6.37791124,20.8684672 6.35837645,20.9229717 6.35752381,20.9793524 C6.35752381,21.0495238 6.39672381,21.1444952 6.47512381,21.2642667 C6.59900952,21.4418667 6.71672381,21.5306667 6.82826667,21.5306667 C6.93980952,21.5306667 7.05135238,21.4522667 7.16289524,21.2954667 L8.15992381,19.8585524 L9.28106667,21.3760381 C9.35946667,21.4793524 9.44620952,21.5310095 9.54129524,21.5310095 C9.64849524,21.530781 9.7464381,21.4615238 9.83512381,21.3232381 Z M13.0089524,21.4946667 C13.0805845,21.4905099 13.1480274,21.4595424 13.1978667,21.4079238 C13.2684918,21.3406759 13.3234997,21.2587492 13.3590095,21.1679238 C13.4021396,21.0660781 13.4242952,20.9565827 13.4241524,20.845981 C13.4241524,20.7015238 13.3478095,20.6292952 13.1951238,20.6292952 L11.5836952,20.6292952 L11.5836952,17.3436952 C11.5836952,17.1951238 11.5036952,17.1208381 11.3436952,17.1208381 C11.1928956,17.1202948 11.0453149,17.1644378 10.919581,17.2476952 C10.7895238,17.3322667 10.7244952,17.4236952 10.7244952,17.521981 L10.7244952,20.9978667 C10.7244952,21.0556952 10.759581,21.140381 10.8297524,21.2519238 C10.937181,21.4119238 11.0444952,21.4919238 11.1516952,21.4919238 L13.009981,21.4919238 L13.0089524,21.4946667 Z M16.6089524,18.004381 C16.6877882,17.8836213 16.7292882,17.7423066 16.7282667,17.5980952 C16.7315352,17.5259283 16.696135,17.4574793 16.6353524,17.4184381 C16.4690875,17.3043993 16.2862616,17.216629 16.0932952,17.1582095 C15.8958185,17.0967057 15.6901851,17.065381 15.4833524,17.0652952 C15.2272538,17.0629578 14.9736814,17.1160583 14.7400381,17.2209524 C14.5219283,17.3169958 14.3321058,17.46739 14.1887238,17.6577524 C14.0514046,17.8374981 13.9773897,18.0576139 13.9782095,18.2838095 C13.9782095,18.5894095 14.0752381,18.8408381 14.2692952,19.0380952 C14.4633524,19.2353524 14.7895238,19.4191238 15.2478095,19.5894095 C15.573981,19.709181 15.7990095,19.8185524 15.9228952,19.9175238 C16.0397242,20.0026227 16.1087962,20.138473 16.1087238,20.2830095 C16.1111898,20.4190001 16.0417239,20.5462022 15.925981,20.6176381 C15.8041524,20.700381 15.6420952,20.7416381 15.4398095,20.7414095 C15.2800809,20.7434243 15.1220783,20.7082082 14.9783238,20.6385524 C14.8187878,20.5536032 14.6769348,20.4389804 14.560381,20.3008381 C14.5133266,20.252927 14.4477346,20.2278919 14.3807238,20.2322667 C14.2432217,20.2314021 14.1085385,20.2712464 13.9936381,20.346781 C13.8759238,20.4233524 13.8170667,20.5070095 13.8170667,20.5977524 C13.8170667,20.6473524 13.8418667,20.7134095 13.8914667,20.7959238 C13.9841145,20.9513806 14.1086847,21.0854163 14.2569524,21.189181 C14.4264991,21.3112861 14.6133699,21.4073218 14.8113524,21.4740952 C15.0133966,21.5452044 15.2259608,21.5818294 15.4401524,21.5824381 C15.7041475,21.5850947 15.9654283,21.5289972 16.2050667,21.4182095 C16.4292056,21.3170677 16.6225175,21.1583012 16.7652952,20.9580952 C16.905019,20.7597916 16.9786806,20.522491 16.9758095,20.2799238 C16.9758095,19.9578667 16.884381,19.688381 16.7015238,19.4714667 C16.5186667,19.2545524 16.2286095,19.0716952 15.8313524,18.9228952 C15.5257524,18.8072381 15.3079238,18.7174095 15.1778667,18.6534095 C15.0478095,18.5894095 14.9600381,18.5295238 14.9145524,18.4737524 C14.8678499,18.4149129 14.84355,18.3414057 14.845981,18.2663238 C14.845981,18.154781 14.9031238,18.0639238 15.0174095,17.9937524 C15.1316952,17.923581 15.2772952,17.8884952 15.4542095,17.8884952 C15.6772952,17.8884952 15.9250667,17.9684952 16.1975238,18.1284952 C16.2434453,18.1602772 16.2968587,18.179539 16.3524952,18.184381 C16.445981,18.1855238 16.5319238,18.125181 16.6103238,18.0033524 L16.6089524,18.004381 Z"/>
  </defs>
  <use fill="#222" fill-rule="evenodd" xlink:href="#xls-a"/>
</svg>
